<?xml version="1.0" encoding="utf-8"?>
<!-- Generator: Adobe Illustrator 27.5.0, SVG Export Plug-In . SVG Version: 6.00 Build 0)  -->
<svg version="1.1" xmlns="http://www.w3.org/2000/svg" xmlns:xlink="http://www.w3.org/1999/xlink" x="0px" y="0px"
	 viewBox="0 0 750 500" style="enable-background:new 0 0 750 500;" xml:space="preserve">
<g id="BACKGROUND">
	<rect style="fill:#20C0B8;" width="750" height="500"/>
	<polygon style="opacity:0.33;fill:#210454;" points="694.1,429.587 694.1,76.83 47.9,76.83 47.9,68.83 39.9,76.83 39.9,439.17 
		694.1,439.17 702.1,431.17 	"/>
</g>
<g id="OBJECTS">
	<rect x="47.9" y="50" style="fill:#2D4277;" width="654.2" height="362.34"/>
	<path style="fill:#3C5484;" d="M702.1,68.83v206.25c-40.99,40.26-121.79,94.68-244.1,69.25c-186-38.66-146-112-265.33-120
		c-70.66-4.74-117.95,35.87-144.77,69.79V68.83H702.1z"/>
	<path style="fill:#2D4277;" d="M702.1,68.83V191c-89.12,57.23-230.71,52.3-258.1-81c-3.08-14.97-4.8-28.66-5.4-41.17H702.1z"/>
	
		<ellipse transform="matrix(0.3606 -0.9327 0.9327 0.3606 -137.3505 289.4473)" style="fill:#F60166;" cx="142.439" cy="244.903" rx="7.957" ry="7.957"/>
	
		<ellipse transform="matrix(0.7071 -0.7071 0.7071 0.7071 -23.2693 184.635)" style="fill:#F60166;" cx="211.24" cy="120.406" rx="7.957" ry="7.957"/>
	<circle style="fill:#435BC5;" cx="90.5" cy="114.5" r="7.957"/>
	<circle style="fill:#435BC5;" cx="66.106" cy="256.547" r="7.957"/>
	
		<ellipse transform="matrix(0.5964 -0.8027 0.8027 0.5964 69.9034 487.7007)" style="fill:#F60166;" cx="519.957" cy="174.333" rx="7.957" ry="7.957"/>
	
		<ellipse transform="matrix(0.7071 -0.7071 0.7071 0.7071 -10.8998 501.0188)" style="fill:#F60166;" cx="599.333" cy="263.667" rx="7.957" ry="7.957"/>
	<g>
		<path style="fill:#FF9312;" d="M207.452,128.804c0,0.947-0.046,1.879-0.137,2.796c-0.092,0.779-0.199,1.543-0.351,2.291
			c-0.168,0.947-0.397,1.894-0.672,2.795c-0.244,0.779-0.52,1.543-0.825,2.291c-0.382,0.962-0.84,1.909-1.329,2.811
			c-0.428,0.794-0.901,1.558-1.421,2.291c-0.657,0.978-1.39,1.91-2.2,2.796c-0.718,0.81-1.497,1.573-2.322,2.291
			c-1.191,1.039-2.475,1.971-3.834,2.795c-1.528,0.917-3.147,1.68-4.842,2.291c-2.841,1.008-5.881,1.558-9.059,1.558
			c-3.177,0-6.217-0.55-9.059-1.558c-10.464-3.712-17.949-13.702-17.949-25.45c0-11.365,7.027-21.08,16.971-25.052
			c0.351-0.153,0.703-0.29,1.069-0.412c2.811-0.993,5.82-1.528,8.967-1.528c3.147,0,6.156,0.535,8.967,1.528
			c2.017,0.703,3.926,1.65,5.683,2.795c1.069,0.687,2.093,1.451,3.04,2.291c0.993,0.856,1.94,1.803,2.796,2.811
			c0.642,0.733,1.222,1.497,1.757,2.291c0.626,0.886,1.191,1.818,1.696,2.796c0.397,0.733,0.749,1.512,1.054,2.291
			c0.382,0.917,0.703,1.848,0.978,2.795c0.214,0.749,0.397,1.512,0.535,2.291c0.183,0.917,0.305,1.864,0.382,2.811
			C207.422,127.276,207.452,128.04,207.452,128.804z"/>
		<path style="fill:#C6580C;" d="M207.455,128.806c0,0.945-0.051,1.879-0.142,2.794c-0.091,0.782-0.193,1.544-0.345,2.286
			c-0.173,0.955-0.396,1.9-0.681,2.804c-0.244,0.772-0.518,1.544-0.823,2.286c-0.376,0.965-0.833,1.91-1.331,2.814
			c-0.427,0.792-0.894,1.554-1.412,2.286c-0.66,0.985-1.392,1.91-2.204,2.804c-0.721,0.803-1.493,1.564-2.316,2.286
			c-1.199,1.036-2.479,1.971-3.84,2.794c-1.524,0.925-3.149,1.686-4.846,2.296c-2.834,1.006-5.872,1.554-9.052,1.554
			c-1.615,0-3.2-0.142-4.734-0.417c1.016,0.122,2.042,0.183,3.088,0.183c3.18,0,6.217-0.549,9.062-1.554
			c1.697-0.609,3.312-1.382,4.836-2.296c1.361-0.823,2.651-1.758,3.84-2.794c0.823-0.721,1.605-1.483,2.316-2.296
			c0.813-0.884,1.544-1.808,2.204-2.794c0.518-0.731,0.996-1.493,1.422-2.286c0.488-0.904,0.945-1.849,1.331-2.814
			c0.305-0.752,0.579-1.514,0.823-2.286c0.274-0.904,0.498-1.849,0.671-2.804c0.152-0.742,0.254-1.504,0.346-2.286
			c0.091-0.914,0.142-1.849,0.142-2.794c0-0.772-0.03-1.534-0.112-2.296c-0.071-0.945-0.193-1.89-0.376-2.814
			c-0.142-0.772-0.325-1.534-0.538-2.286c-0.274-0.945-0.589-1.879-0.975-2.794c-0.305-0.782-0.66-1.565-1.056-2.296
			c-0.498-0.975-1.067-1.91-1.697-2.794c-0.528-0.792-1.107-1.554-1.757-2.296c-0.853-1.006-1.798-1.951-2.794-2.804
			c-0.945-0.843-1.971-1.605-3.038-2.296c-1.757-1.148-3.667-2.093-5.679-2.794c-1.351-0.477-2.733-0.843-4.165-1.097
			c2.011,0.223,3.952,0.671,5.801,1.331c2.022,0.701,3.932,1.656,5.689,2.794c1.067,0.691,2.093,1.453,3.038,2.296
			c0.996,0.853,1.94,1.798,2.794,2.814c0.64,0.731,1.229,1.493,1.758,2.286c0.63,0.884,1.189,1.818,1.697,2.794
			c0.396,0.731,0.752,1.514,1.057,2.296c0.376,0.914,0.701,1.849,0.975,2.794c0.213,0.752,0.396,1.514,0.538,2.296
			c0.183,0.914,0.305,1.859,0.376,2.804C207.424,127.272,207.455,128.044,207.455,128.806z"/>
		<g style="opacity:0.43;">
			<g>
				<path style="fill:#FFEACC;" d="M195.11,106.135h-24.686v-2.795h19.003C191.444,104.042,193.353,104.989,195.11,106.135z"/>
				<path style="fill:#FFEACC;" d="M200.945,111.237h-30.521v-2.811h27.725C199.143,109.282,200.09,110.229,200.945,111.237z"/>
				<path style="fill:#FFEACC;" d="M204.397,116.324h-33.973v-2.796h32.278C203.328,114.414,203.893,115.346,204.397,116.324z"/>
				<path style="fill:#FFEACC;" d="M206.429,121.41h-36.005v-2.795h35.027C205.833,119.532,206.154,120.463,206.429,121.41z"/>
				<path style="fill:#FFEACC;" d="M207.346,126.513h-36.921v-2.811h36.54C207.147,124.618,207.269,125.565,207.346,126.513z"/>
				<path style="fill:#FFEACC;" d="M207.452,128.804c0,0.947-0.046,1.879-0.137,2.796h-36.891v-2.796H207.452z"/>
				<path style="fill:#FFEACC;" d="M206.964,133.891c-0.168,0.947-0.397,1.894-0.672,2.795h-35.867v-2.795H206.964z"/>
				<path style="fill:#FFEACC;" d="M205.467,138.978c-0.382,0.962-0.84,1.909-1.329,2.811h-33.714v-2.811H205.467z"/>
				<path style="fill:#FFEACC;" d="M202.717,144.08c-0.657,0.978-1.39,1.91-2.2,2.796h-30.093v-2.796H202.717z"/>
				<path style="fill:#FFEACC;" d="M198.195,149.167c-1.191,1.039-2.475,1.971-3.834,2.795h-23.937v-2.795H198.195z"/>
				<path style="fill:#FFEACC;" d="M189.519,154.253c-2.841,1.008-5.881,1.558-9.059,1.558c-3.177,0-6.217-0.55-9.059-1.558H189.519
					z"/>
			</g>
		</g>
		<circle style="fill:#ED8514;" cx="176.283" cy="128.811" r="27.002"/>
		<path style="fill:#FFEACC;" d="M150.686,129.395c0,10.962,6.532,20.4,15.919,24.616c-10.129-3.881-17.321-13.705-17.321-25.205
			c0-14.903,12.089-26.993,27.003-26.993c3.871,0,7.548,0.813,10.88,2.286c-2.946-1.097-6.146-1.707-9.479-1.707
			C162.775,102.393,150.686,114.482,150.686,129.395z"/>
		<circle style="fill:#C6580C;" cx="176.283" cy="128.811" r="23.35"/>
		<path style="fill:#FFB510;" d="M199.632,128.806c0,10.474-6.593,19.333-15.686,22.299c-2.113,0.691-4.358,1.057-6.685,1.057
			c-0.355,0-0.711-0.01-1.057-0.03c-2.479-0.112-4.856-0.66-7.061-1.565c-1.717-0.691-3.322-1.595-4.795-2.692
			c-2.55-1.89-4.704-4.318-6.299-7.122c-1.453-2.53-2.448-5.364-2.895-8.402c-0.163-1.158-0.254-2.337-0.254-3.546
			c0-8.259,4.104-15.513,10.301-19.658c3.119-2.103,6.776-3.403,10.708-3.637c0.447-0.041,0.894-0.051,1.351-0.051
			c1.91,0,3.759,0.254,5.527,0.711c2.834,0.762,5.455,2.083,7.741,3.84c1.605,1.229,3.038,2.682,4.267,4.307
			c1.768,2.316,3.109,4.988,3.921,7.894C199.317,124.306,199.632,126.521,199.632,128.806z"/>
		<g>
			<g>
				<path style="fill:#C6580C;" d="M185.553,132.718c0,2.084-0.601,3.755-1.804,5.01c-1.202,1.256-2.659,2.084-4.368,2.485v2.565
					c0,0.508-0.014,0.895-0.04,1.163c-0.028,0.267-0.114,0.561-0.261,0.882c-0.147,0.32-0.388,0.547-0.721,0.682
					c-0.334,0.133-0.782,0.2-1.343,0.2c-0.561,0-1.008-0.067-1.342-0.2c-0.334-0.135-0.568-0.368-0.702-0.702
					c-0.134-0.335-0.214-0.629-0.24-0.882c-0.027-0.254-0.041-0.649-0.041-1.183v-2.485c-1.095-0.24-2.083-0.641-2.965-1.202
					c-0.882-0.561-1.497-1.055-1.843-1.482l-0.522-0.682c-0.561-0.721-0.841-1.283-0.841-1.684c0-0.668,0.454-1.443,1.363-2.325
					c0.534-0.507,1.081-0.761,1.643-0.761c0.641,0,1.429,0.468,2.364,1.403l0.2,0.2c0.828,1.016,1.764,1.523,2.806,1.523
					c1.977,0,2.966-0.814,2.966-2.445c0-0.587-0.375-1.042-1.122-1.363c-0.749-0.321-1.658-0.608-2.725-0.862
					c-1.07-0.254-2.138-0.595-3.206-1.022c-1.07-0.427-1.978-1.162-2.725-2.204c-0.749-1.042-1.123-2.378-1.123-4.008
					c0-1.576,0.508-3.006,1.524-4.289c1.015-1.282,2.418-2.11,4.207-2.485v-2.245c0-0.534,0.014-0.928,0.041-1.182
					c0.026-0.254,0.106-0.541,0.24-0.862c0.134-0.321,0.374-0.548,0.721-0.682c0.347-0.133,0.802-0.2,1.363-0.2
					c0.721,0,1.262,0.154,1.623,0.461c0.361,0.308,0.568,0.635,0.621,0.982c0.054,0.347,0.08,0.855,0.08,1.523v2.245
					c0.748,0.16,1.429,0.387,2.044,0.681c0.615,0.295,1.043,0.535,1.283,0.722l0.361,0.32l0.16,0.12
					c0.668,0.615,1.002,1.109,1.002,1.483c0,0.428-0.267,1.042-0.802,1.844c-0.721,1.069-1.456,1.603-2.204,1.603
					c-0.48,0-1.029-0.213-1.643-0.641c-0.053-0.054-0.174-0.161-0.361-0.321c-0.186-0.16-0.36-0.294-0.521-0.401
					c-0.16-0.106-0.415-0.206-0.761-0.301c-0.348-0.093-0.762-0.14-1.243-0.14c-0.508,0-0.988,0.167-1.443,0.501
					c-0.454,0.334-0.682,0.768-0.682,1.302c0,0.641,0.274,1.142,0.821,1.503c0.548,0.361,1.223,0.601,2.024,0.722
					c0.802,0.12,1.684,0.32,2.646,0.601c0.961,0.28,1.843,0.608,2.645,0.982c0.802,0.374,1.476,1.036,2.024,1.984
					C185.279,130.12,185.553,131.303,185.553,132.718z"/>
			</g>
		</g>
		<g style="opacity:0.39;">
			<path style="fill:#FFE3BB;" d="M190.53,110.012l-21.385,40.555c-1.717-0.691-3.322-1.595-4.795-2.692l18.439-41.703
				C185.623,106.934,188.244,108.254,190.53,110.012z"/>
			<path style="fill:#FFE3BB;" d="M175.911,105.511l-17.86,35.242c-1.453-2.53-2.448-5.364-2.895-8.402l10.047-23.203
				C168.322,107.046,171.979,105.745,175.911,105.511z"/>
			<path style="fill:#FFE3BB;" d="M198.718,122.213c-4.429,8.717-10.322,20.217-14.771,28.893c-2.113,0.691-4.358,1.057-6.685,1.057
				c-0.355,0-0.711-0.01-1.057-0.03l18.591-37.812C196.564,116.636,197.905,119.308,198.718,122.213z"/>
		</g>
	</g>
	<g>
		<path style="fill:#FF9312;" d="M426.025,253.365c0,0.666-0.032,1.321-0.097,1.965c-0.064,0.548-0.14,1.084-0.247,1.611
			c-0.118,0.666-0.279,1.331-0.472,1.965c-0.172,0.548-0.365,1.084-0.58,1.611c-0.268,0.676-0.591,1.342-0.934,1.975
			c-0.301,0.558-0.633,1.095-0.999,1.611c-0.462,0.687-0.977,1.342-1.546,1.965c-0.505,0.569-1.052,1.106-1.632,1.61
			c-0.837,0.73-1.739,1.385-2.695,1.965c-1.074,0.644-2.212,1.181-3.404,1.61c-1.997,0.709-4.133,1.095-6.367,1.095
			c-2.233,0-4.37-0.387-6.367-1.095c-7.354-2.609-12.615-9.63-12.615-17.887c0-7.988,4.939-14.816,11.928-17.608
			c0.247-0.107,0.494-0.204,0.752-0.29c1.975-0.698,4.091-1.074,6.302-1.074c2.212,0,4.327,0.376,6.302,1.074
			c1.417,0.494,2.759,1.16,3.994,1.965c0.751,0.483,1.471,1.02,2.136,1.611c0.698,0.601,1.364,1.267,1.965,1.975
			c0.451,0.515,0.859,1.052,1.235,1.611c0.44,0.623,0.837,1.278,1.192,1.965c0.279,0.515,0.526,1.063,0.741,1.611
			c0.268,0.644,0.494,1.299,0.687,1.965c0.15,0.526,0.279,1.063,0.376,1.611c0.129,0.644,0.215,1.31,0.268,1.975
			C426.004,252.291,426.025,252.828,426.025,253.365z"/>
		<path style="fill:#C6580C;" d="M426.027,253.366c0,0.664-0.036,1.321-0.1,1.964c-0.064,0.55-0.136,1.085-0.243,1.607
			c-0.121,0.671-0.278,1.335-0.478,1.971c-0.171,0.543-0.364,1.085-0.578,1.607c-0.264,0.678-0.586,1.342-0.935,1.978
			c-0.3,0.557-0.628,1.092-0.993,1.607c-0.464,0.693-0.978,1.342-1.549,1.971c-0.507,0.564-1.05,1.1-1.628,1.607
			c-0.843,0.728-1.742,1.385-2.699,1.964c-1.071,0.65-2.214,1.185-3.406,1.614c-1.992,0.707-4.127,1.093-6.362,1.093
			c-1.135,0-2.249-0.1-3.327-0.293c0.714,0.086,1.435,0.129,2.171,0.129c2.235,0,4.37-0.386,6.369-1.092
			c1.192-0.428,2.328-0.971,3.399-1.614c0.957-0.578,1.864-1.235,2.699-1.964c0.578-0.507,1.128-1.043,1.628-1.614
			c0.571-0.621,1.085-1.271,1.549-1.964c0.364-0.514,0.7-1.05,1-1.607c0.343-0.635,0.664-1.299,0.935-1.978
			c0.214-0.528,0.407-1.064,0.578-1.606c0.193-0.635,0.35-1.3,0.471-1.971c0.107-0.521,0.178-1.057,0.243-1.606
			c0.064-0.643,0.1-1.299,0.1-1.964c0-0.543-0.021-1.078-0.079-1.614c-0.05-0.664-0.136-1.328-0.264-1.978
			c-0.1-0.543-0.228-1.078-0.378-1.607c-0.193-0.664-0.414-1.321-0.686-1.964c-0.214-0.55-0.464-1.1-0.742-1.614
			c-0.35-0.685-0.75-1.342-1.193-1.964c-0.371-0.557-0.778-1.092-1.235-1.614c-0.6-0.707-1.264-1.371-1.964-1.971
			c-0.664-0.593-1.385-1.128-2.135-1.614c-1.235-0.807-2.578-1.471-3.991-1.964c-0.95-0.336-1.921-0.593-2.927-0.771
			c1.414,0.157,2.778,0.471,4.077,0.935c1.421,0.493,2.763,1.164,3.999,1.964c0.75,0.485,1.471,1.021,2.135,1.614
			c0.7,0.6,1.364,1.264,1.964,1.978c0.45,0.514,0.864,1.05,1.235,1.607c0.443,0.621,0.835,1.278,1.193,1.964
			c0.278,0.514,0.528,1.064,0.742,1.614c0.264,0.643,0.493,1.299,0.685,1.964c0.15,0.528,0.279,1.064,0.378,1.614
			c0.129,0.643,0.214,1.307,0.264,1.971C426.005,252.288,426.027,252.831,426.027,253.366z"/>
		<g style="opacity:0.43;">
			<g>
				<path style="fill:#FFEACC;" d="M417.35,237.432H400v-1.965h13.356C414.773,235.961,416.115,236.626,417.35,237.432z"/>
				<path style="fill:#FFEACC;" d="M421.451,241.018H400v-1.975h19.487C420.184,239.643,420.85,240.309,421.451,241.018z"/>
				<path style="fill:#FFEACC;" d="M423.878,244.593H400v-1.965h22.686C423.126,243.251,423.523,243.906,423.878,244.593z"/>
				<path style="fill:#FFEACC;" d="M425.306,248.168H400v-1.965h24.619C424.887,246.848,425.112,247.503,425.306,248.168z"/>
				<path style="fill:#FFEACC;" d="M425.95,251.754H400v-1.975h25.682C425.81,250.423,425.896,251.089,425.95,251.754z"/>
				<path style="fill:#FFEACC;" d="M426.025,253.365c0,0.666-0.032,1.321-0.097,1.965H400v-1.965H426.025z"/>
				<path style="fill:#FFEACC;" d="M425.681,256.94c-0.118,0.666-0.279,1.331-0.472,1.965H400v-1.965H425.681z"/>
				<path style="fill:#FFEACC;" d="M424.629,260.515c-0.268,0.676-0.591,1.342-0.934,1.975H400v-1.975H424.629z"/>
				<path style="fill:#FFEACC;" d="M422.697,264.101c-0.462,0.687-0.977,1.342-1.546,1.965H400v-1.965H422.697z"/>
				<path style="fill:#FFEACC;" d="M419.519,267.676c-0.837,0.73-1.739,1.385-2.695,1.965H400v-1.965H419.519z"/>
				<path style="fill:#FFEACC;" d="M413.42,271.252c-1.997,0.709-4.133,1.095-6.367,1.095c-2.233,0-4.37-0.387-6.367-1.095H413.42z"
					/>
			</g>
		</g>
		<circle style="fill:#ED8514;" cx="404.118" cy="253.37" r="18.978"/>
		<path style="fill:#FFEACC;" d="M386.127,253.781c0,7.704,4.591,14.338,11.189,17.301c-7.119-2.728-12.174-9.632-12.174-17.715
			c0-10.475,8.497-18.972,18.979-18.972c2.72,0,5.305,0.571,7.647,1.607c-2.071-0.771-4.32-1.2-6.662-1.2
			C394.624,234.802,386.127,243.299,386.127,253.781z"/>
		<circle style="fill:#C6580C;" cx="404.118" cy="253.37" r="16.411"/>
		<path style="fill:#FFB510;" d="M420.529,253.366c0,7.362-4.634,13.588-11.025,15.673c-1.485,0.486-3.063,0.743-4.698,0.743
			c-0.25,0-0.5-0.007-0.743-0.021c-1.742-0.079-3.413-0.464-4.962-1.1c-1.207-0.486-2.335-1.121-3.37-1.892
			c-1.792-1.328-3.306-3.035-4.427-5.005c-1.021-1.778-1.721-3.77-2.035-5.905c-0.114-0.814-0.179-1.642-0.179-2.492
			c0-5.805,2.885-10.903,7.24-13.816c2.192-1.478,4.763-2.392,7.526-2.556c0.314-0.029,0.628-0.036,0.95-0.036
			c1.342,0,2.642,0.179,3.884,0.5c1.992,0.536,3.834,1.464,5.441,2.699c1.128,0.864,2.135,1.885,2.999,3.027
			c1.242,1.628,2.185,3.506,2.756,5.548C420.307,250.203,420.529,251.76,420.529,253.366z"/>
		<g>
			<g>
				<path style="fill:#C6580C;" d="M410.633,256.116c0,1.465-0.423,2.639-1.268,3.521c-0.844,0.883-1.869,1.465-3.07,1.747v1.802
					c0,0.357-0.01,0.629-0.028,0.817c-0.02,0.188-0.08,0.395-0.183,0.62c-0.103,0.225-0.273,0.384-0.507,0.479
					c-0.235,0.094-0.549,0.141-0.944,0.141c-0.394,0-0.708-0.047-0.944-0.141c-0.235-0.095-0.399-0.259-0.493-0.493
					c-0.094-0.236-0.151-0.442-0.169-0.62c-0.019-0.178-0.029-0.456-0.029-0.831v-1.747c-0.77-0.169-1.464-0.451-2.084-0.845
					c-0.62-0.394-1.052-0.741-1.296-1.042l-0.367-0.479c-0.394-0.507-0.591-0.902-0.591-1.183c0-0.469,0.319-1.014,0.958-1.634
					c0.375-0.356,0.76-0.535,1.155-0.535c0.451,0,1.004,0.329,1.662,0.986l0.141,0.141c0.582,0.714,1.24,1.07,1.972,1.07
					c1.39,0,2.085-0.572,2.085-1.718c0-0.413-0.264-0.732-0.789-0.958c-0.526-0.226-1.165-0.427-1.915-0.606
					c-0.752-0.178-1.503-0.418-2.254-0.719c-0.752-0.3-1.39-0.817-1.915-1.549c-0.526-0.732-0.789-1.671-0.789-2.817
					c0-1.108,0.357-2.113,1.071-3.014c0.713-0.901,1.699-1.483,2.957-1.746v-1.578c0-0.375,0.01-0.652,0.029-0.831
					c0.018-0.178,0.075-0.38,0.169-0.606c0.094-0.225,0.263-0.385,0.507-0.479c0.244-0.094,0.563-0.141,0.958-0.141
					c0.507,0,0.887,0.109,1.141,0.324c0.254,0.216,0.399,0.446,0.437,0.69c0.038,0.244,0.056,0.601,0.056,1.07v1.578
					c0.526,0.113,1.004,0.272,1.436,0.479c0.432,0.207,0.733,0.376,0.902,0.507l0.254,0.225l0.112,0.084
					c0.469,0.432,0.704,0.78,0.704,1.042c0,0.301-0.188,0.732-0.563,1.296c-0.507,0.751-1.024,1.126-1.549,1.126
					c-0.337,0-0.723-0.15-1.155-0.45c-0.038-0.038-0.122-0.113-0.254-0.226c-0.131-0.113-0.253-0.206-0.366-0.282
					c-0.112-0.075-0.292-0.145-0.535-0.211c-0.245-0.065-0.536-0.098-0.874-0.098c-0.357,0-0.694,0.118-1.014,0.352
					c-0.319,0.235-0.479,0.54-0.479,0.915c0,0.451,0.193,0.803,0.577,1.056c0.385,0.254,0.86,0.423,1.423,0.507
					c0.563,0.084,1.183,0.225,1.86,0.423c0.676,0.197,1.296,0.427,1.859,0.69c0.563,0.263,1.038,0.728,1.422,1.395
					C410.44,254.29,410.633,255.121,410.633,256.116z"/>
			</g>
		</g>
		<g style="opacity:0.39;">
			<path style="fill:#FFE3BB;" d="M414.131,240.157l-15.03,28.504c-1.207-0.486-2.335-1.121-3.37-1.892l12.96-29.311
				C410.682,237.993,412.524,238.922,414.131,240.157z"/>
			<path style="fill:#FFE3BB;" d="M403.856,236.994l-12.552,24.77c-1.021-1.778-1.721-3.77-2.035-5.905l7.062-16.308
				C398.522,238.072,401.093,237.158,403.856,236.994z"/>
			<path style="fill:#FFE3BB;" d="M419.886,248.732c-3.113,6.126-7.254,14.209-10.382,20.307c-1.485,0.486-3.063,0.743-4.698,0.743
				c-0.25,0-0.5-0.007-0.743-0.021l13.067-26.576C418.372,244.812,419.315,246.69,419.886,248.732z"/>
		</g>
	</g>
	<g>
		<path style="fill:#FF9312;" d="M543.446,128.492c0,0.733-0.036,1.454-0.106,2.164c-0.071,0.603-0.154,1.194-0.272,1.774
			c-0.13,0.733-0.308,1.466-0.52,2.164c-0.189,0.603-0.402,1.194-0.638,1.774c-0.296,0.745-0.65,1.478-1.029,2.176
			c-0.331,0.615-0.698,1.206-1.1,1.774c-0.508,0.757-1.076,1.478-1.703,2.164c-0.556,0.627-1.159,1.218-1.797,1.774
			c-0.922,0.804-1.916,1.525-2.968,2.164c-1.182,0.71-2.436,1.301-3.748,1.774c-2.199,0.78-4.552,1.206-7.011,1.206
			c-2.459,0-4.812-0.426-7.012-1.206c-8.099-2.873-13.893-10.606-13.893-19.699c0-8.797,5.439-16.317,13.136-19.391
			c0.272-0.118,0.544-0.225,0.828-0.319c2.176-0.769,4.505-1.182,6.941-1.182c2.436,0,4.765,0.414,6.941,1.182
			c1.561,0.544,3.039,1.277,4.398,2.164c0.828,0.532,1.62,1.123,2.353,1.774c0.769,0.662,1.502,1.395,2.164,2.176
			c0.497,0.568,0.946,1.159,1.36,1.774c0.485,0.686,0.922,1.407,1.313,2.164c0.307,0.568,0.579,1.171,0.816,1.774
			c0.296,0.709,0.544,1.431,0.757,2.164c0.165,0.579,0.307,1.171,0.414,1.774c0.142,0.709,0.236,1.443,0.296,2.176
			C543.423,127.31,543.446,127.901,543.446,128.492z"/>
		<path style="fill:#C6580C;" d="M543.448,128.494c0,0.731-0.039,1.455-0.11,2.162c-0.071,0.605-0.149,1.195-0.267,1.769
			c-0.134,0.739-0.307,1.47-0.527,2.17c-0.189,0.598-0.401,1.195-0.637,1.769c-0.291,0.747-0.645,1.478-1.03,2.178
			c-0.33,0.613-0.692,1.203-1.093,1.769c-0.511,0.763-1.077,1.478-1.706,2.17c-0.558,0.621-1.156,1.211-1.793,1.769
			c-0.928,0.802-1.919,1.525-2.972,2.162c-1.18,0.716-2.438,1.305-3.751,1.777c-2.194,0.778-4.545,1.203-7.006,1.203
			c-1.25,0-2.477-0.11-3.664-0.322c0.786,0.094,1.581,0.141,2.391,0.141c2.461,0,4.812-0.425,7.014-1.203
			c1.313-0.472,2.563-1.069,3.743-1.777c1.054-0.637,2.052-1.36,2.972-2.163c0.637-0.558,1.242-1.148,1.793-1.777
			c0.629-0.684,1.195-1.4,1.706-2.162c0.401-0.566,0.771-1.156,1.101-1.769c0.377-0.7,0.731-1.431,1.03-2.178
			c0.236-0.582,0.448-1.172,0.637-1.769c0.212-0.7,0.385-1.431,0.519-2.17c0.118-0.574,0.197-1.164,0.267-1.769
			c0.071-0.708,0.11-1.431,0.11-2.162c0-0.598-0.023-1.187-0.087-1.777c-0.055-0.731-0.149-1.463-0.291-2.178
			c-0.11-0.598-0.252-1.187-0.417-1.769c-0.212-0.731-0.456-1.455-0.755-2.162c-0.236-0.605-0.511-1.211-0.818-1.777
			c-0.385-0.755-0.826-1.478-1.313-2.162c-0.409-0.613-0.857-1.203-1.36-1.777c-0.661-0.779-1.392-1.51-2.163-2.17
			c-0.731-0.653-1.526-1.242-2.351-1.777c-1.36-0.889-2.839-1.62-4.396-2.162c-1.046-0.37-2.115-0.653-3.224-0.849
			c1.557,0.173,3.059,0.519,4.49,1.03c1.565,0.543,3.043,1.282,4.404,2.162c0.826,0.535,1.62,1.124,2.351,1.777
			c0.771,0.661,1.502,1.392,2.162,2.178c0.495,0.566,0.951,1.156,1.36,1.769c0.488,0.684,0.92,1.408,1.313,2.162
			c0.307,0.566,0.582,1.172,0.818,1.777c0.291,0.708,0.543,1.431,0.755,2.162c0.165,0.582,0.307,1.172,0.417,1.777
			c0.141,0.708,0.236,1.439,0.291,2.17C543.425,127.307,543.448,127.904,543.448,128.494z"/>
		<g style="opacity:0.43;">
			<g>
				<path style="fill:#FFEACC;" d="M533.893,110.946h-19.107v-2.164h14.709C531.055,109.326,532.533,110.059,533.893,110.946z"/>
				<path style="fill:#FFEACC;" d="M538.409,114.895h-23.624v-2.176h21.46C537.014,113.382,537.747,114.115,538.409,114.895z"/>
				<path style="fill:#FFEACC;" d="M541.082,118.832h-26.296v-2.164h24.984C540.254,117.354,540.691,118.076,541.082,118.832z"/>
				<path style="fill:#FFEACC;" d="M542.654,122.77h-27.869v-2.164h27.112C542.193,121.315,542.441,122.036,542.654,122.77z"/>
				<path style="fill:#FFEACC;" d="M543.364,126.719h-28.578v-2.176h28.283C543.21,125.253,543.305,125.986,543.364,126.719z"/>
				<path style="fill:#FFEACC;" d="M543.446,128.492c0,0.733-0.036,1.454-0.106,2.164h-28.555v-2.164H543.446z"/>
				<path style="fill:#FFEACC;" d="M543.068,132.43c-0.13,0.733-0.308,1.466-0.52,2.164h-27.762v-2.164H543.068z"/>
				<path style="fill:#FFEACC;" d="M541.909,136.367c-0.296,0.745-0.65,1.478-1.029,2.176h-26.095v-2.176H541.909z"/>
				<path style="fill:#FFEACC;" d="M539.781,140.316c-0.508,0.757-1.076,1.478-1.703,2.164h-23.293v-2.164H539.781z"/>
				<path style="fill:#FFEACC;" d="M536.281,144.254c-0.922,0.804-1.916,1.525-2.968,2.164h-18.528v-2.164H536.281z"/>
				<path style="fill:#FFEACC;" d="M529.565,148.191c-2.199,0.78-4.552,1.206-7.011,1.206c-2.459,0-4.812-0.426-7.012-1.206H529.565
					z"/>
			</g>
		</g>
		
			<ellipse transform="matrix(0.1612 -0.9869 0.9869 0.1612 308.7733 620.306)" style="fill:#ED8514;" cx="519.321" cy="128.498" rx="20.9" ry="20.9"/>
		<path style="fill:#FFEACC;" d="M499.507,128.95c0,8.485,5.056,15.79,12.322,19.053c-7.84-3.004-13.407-10.608-13.407-19.509
			c0-11.536,9.357-20.893,20.901-20.893c2.996,0,5.843,0.629,8.422,1.769c-2.281-0.849-4.757-1.321-7.337-1.321
			C508.865,108.049,499.507,117.407,499.507,128.95z"/>
		
			<ellipse transform="matrix(0.9256 -0.3785 0.3785 0.9256 -9.9996 206.1229)" style="fill:#C6580C;" cx="519.321" cy="128.498" rx="18.073" ry="18.073"/>
		<path style="fill:#FFB510;" d="M537.393,128.494c0,8.107-5.103,14.964-12.141,17.26c-1.636,0.535-3.374,0.818-5.174,0.818
			c-0.275,0-0.55-0.008-0.818-0.024c-1.919-0.087-3.759-0.511-5.465-1.211c-1.329-0.535-2.571-1.234-3.712-2.084
			c-1.974-1.463-3.641-3.342-4.875-5.512c-1.125-1.958-1.895-4.152-2.241-6.503c-0.126-0.896-0.197-1.809-0.197-2.744
			c0-6.393,3.177-12.007,7.974-15.216c2.414-1.628,5.245-2.634,8.288-2.815c0.346-0.031,0.692-0.039,1.046-0.039
			c1.478,0,2.91,0.197,4.278,0.55c2.194,0.59,4.223,1.612,5.992,2.972c1.242,0.951,2.351,2.076,3.303,3.334
			c1.368,1.793,2.406,3.861,3.035,6.11C537.15,125.011,537.393,126.725,537.393,128.494z"/>
		<g>
			<g>
				<path style="fill:#C6580C;" d="M526.495,131.522c0,1.613-0.465,2.907-1.396,3.878c-0.93,0.972-2.058,1.613-3.381,1.924v1.985
					c0,0.393-0.011,0.693-0.031,0.9c-0.022,0.207-0.088,0.435-0.202,0.683c-0.114,0.248-0.3,0.423-0.558,0.528
					c-0.259,0.103-0.605,0.155-1.04,0.155c-0.434,0-0.78-0.052-1.039-0.155c-0.259-0.105-0.439-0.285-0.543-0.543
					c-0.104-0.26-0.166-0.487-0.186-0.683c-0.021-0.197-0.031-0.502-0.031-0.915v-1.924c-0.848-0.186-1.613-0.496-2.295-0.931
					c-0.683-0.434-1.159-0.816-1.427-1.147l-0.404-0.527c-0.434-0.558-0.651-0.993-0.651-1.303c0-0.517,0.352-1.117,1.055-1.8
					c0.413-0.392,0.837-0.589,1.272-0.589c0.496,0,1.106,0.362,1.83,1.086l0.155,0.155c0.641,0.786,1.365,1.179,2.172,1.179
					c1.531,0,2.296-0.631,2.296-1.892c0-0.455-0.29-0.807-0.869-1.055c-0.58-0.248-1.283-0.47-2.109-0.667
					c-0.828-0.197-1.655-0.46-2.482-0.791c-0.828-0.331-1.531-0.9-2.109-1.706c-0.58-0.806-0.869-1.84-0.869-3.102
					c0-1.22,0.393-2.327,1.179-3.32c0.786-0.993,1.871-1.633,3.257-1.923v-1.737c0-0.413,0.011-0.718,0.031-0.915
					c0.02-0.197,0.082-0.419,0.186-0.667c0.104-0.248,0.289-0.424,0.558-0.527c0.269-0.103,0.62-0.155,1.055-0.155
					c0.558,0,0.977,0.119,1.256,0.357c0.28,0.238,0.439,0.491,0.481,0.76c0.042,0.269,0.062,0.662,0.062,1.179v1.737
					c0.579,0.124,1.106,0.3,1.582,0.527c0.476,0.228,0.807,0.414,0.993,0.559l0.279,0.248l0.124,0.093
					c0.517,0.476,0.776,0.859,0.776,1.148c0,0.331-0.207,0.807-0.621,1.427c-0.558,0.827-1.127,1.241-1.706,1.241
					c-0.372,0-0.796-0.165-1.272-0.496c-0.042-0.041-0.134-0.124-0.28-0.248c-0.144-0.124-0.279-0.227-0.403-0.31
					c-0.124-0.082-0.321-0.16-0.589-0.233c-0.27-0.072-0.59-0.108-0.962-0.108c-0.393,0-0.765,0.129-1.117,0.388
					c-0.352,0.259-0.528,0.595-0.528,1.008c0,0.496,0.212,0.884,0.636,1.163c0.424,0.28,0.947,0.465,1.567,0.559
					c0.621,0.093,1.303,0.248,2.048,0.465c0.744,0.217,1.427,0.471,2.047,0.76c0.62,0.29,1.143,0.802,1.566,1.536
					C526.283,129.511,526.495,130.426,526.495,131.522z"/>
			</g>
		</g>
		<g style="opacity:0.39;">
			<path style="fill:#FFE3BB;" d="M530.348,113.947l-16.552,31.391c-1.329-0.535-2.571-1.234-3.712-2.084l14.272-32.279
				C526.55,111.564,528.578,112.587,530.348,113.947z"/>
			<path style="fill:#FFE3BB;" d="M519.032,110.463l-13.824,27.278c-1.125-1.958-1.895-4.152-2.241-6.503l7.777-17.96
				C513.158,111.651,515.989,110.644,519.032,110.463z"/>
			<path style="fill:#FFE3BB;" d="M536.686,123.391c-3.428,6.747-7.989,15.648-11.433,22.364c-1.636,0.535-3.374,0.818-5.174,0.818
				c-0.275,0-0.55-0.008-0.818-0.024l14.39-29.268C535.019,119.074,536.057,121.142,536.686,123.391z"/>
		</g>
	</g>
	<g>
		<path style="fill:#FF9312;" d="M136.783,187.312c0,0.917-0.044,1.82-0.133,2.707c-0.089,0.754-0.192,1.494-0.34,2.219
			c-0.163,0.917-0.385,1.834-0.651,2.707c-0.237,0.755-0.503,1.494-0.799,2.219c-0.37,0.932-0.814,1.849-1.287,2.722
			c-0.414,0.769-0.873,1.509-1.376,2.219c-0.636,0.947-1.346,1.849-2.13,2.707c-0.695,0.784-1.45,1.524-2.249,2.219
			c-1.154,1.006-2.397,1.908-3.713,2.707c-1.479,0.888-3.047,1.627-4.689,2.219c-2.752,0.977-5.696,1.509-8.772,1.509
			c-3.077,0-6.021-0.533-8.773-1.509c-10.133-3.595-17.382-13.27-17.382-24.646c0-11.006,6.805-20.415,16.436-24.261
			c0.34-0.148,0.68-0.281,1.036-0.399c2.722-0.962,5.636-1.479,8.684-1.479s5.962,0.518,8.684,1.479
			c1.953,0.68,3.802,1.598,5.503,2.707c1.036,0.666,2.027,1.405,2.944,2.219c0.962,0.829,1.879,1.746,2.707,2.722
			c0.621,0.71,1.183,1.45,1.701,2.219c0.606,0.858,1.154,1.76,1.642,2.707c0.385,0.71,0.725,1.464,1.021,2.219
			c0.37,0.888,0.68,1.79,0.947,2.707c0.207,0.725,0.385,1.465,0.518,2.219c0.178,0.888,0.296,1.805,0.37,2.722
			C136.754,185.833,136.783,186.573,136.783,187.312z"/>
		<path style="fill:#C6580C;" d="M136.786,187.314c0,0.915-0.049,1.82-0.138,2.706c-0.089,0.758-0.187,1.495-0.335,2.214
			c-0.167,0.925-0.384,1.84-0.659,2.715c-0.236,0.748-0.502,1.495-0.797,2.214c-0.364,0.935-0.807,1.85-1.289,2.725
			c-0.413,0.767-0.866,1.505-1.368,2.214c-0.64,0.954-1.348,1.85-2.135,2.715c-0.699,0.777-1.446,1.515-2.243,2.214
			c-1.161,1.003-2.401,1.909-3.719,2.705c-1.476,0.895-3.05,1.633-4.693,2.224c-2.745,0.974-5.687,1.505-8.766,1.505
			c-1.564,0-3.099-0.138-4.585-0.403c0.984,0.118,1.978,0.177,2.991,0.177c3.079,0,6.021-0.531,8.776-1.505
			c1.643-0.59,3.207-1.338,4.683-2.223c1.318-0.797,2.568-1.702,3.719-2.706c0.797-0.699,1.554-1.436,2.243-2.223
			c0.787-0.856,1.495-1.751,2.135-2.706c0.502-0.708,0.964-1.446,1.377-2.214c0.472-0.876,0.915-1.791,1.289-2.725
			c0.295-0.728,0.561-1.466,0.797-2.214c0.266-0.876,0.482-1.791,0.649-2.715c0.148-0.718,0.246-1.456,0.334-2.214
			c0.089-0.885,0.138-1.791,0.138-2.706c0-0.748-0.03-1.486-0.108-2.223c-0.069-0.915-0.187-1.83-0.364-2.725
			c-0.138-0.748-0.315-1.486-0.521-2.214c-0.266-0.915-0.571-1.82-0.944-2.705c-0.295-0.758-0.64-1.515-1.023-2.224
			c-0.482-0.944-1.033-1.85-1.643-2.705c-0.512-0.767-1.072-1.505-1.702-2.224c-0.826-0.974-1.741-1.889-2.706-2.715
			c-0.915-0.817-1.909-1.554-2.942-2.223c-1.702-1.112-3.552-2.027-5.5-2.706c-1.308-0.462-2.646-0.816-4.034-1.062
			c1.948,0.216,3.827,0.649,5.618,1.289c1.958,0.679,3.807,1.604,5.509,2.706c1.033,0.669,2.027,1.407,2.942,2.223
			c0.964,0.826,1.879,1.741,2.706,2.725c0.62,0.708,1.19,1.446,1.702,2.214c0.61,0.856,1.151,1.761,1.643,2.706
			c0.384,0.708,0.728,1.466,1.023,2.223c0.364,0.885,0.679,1.791,0.944,2.706c0.207,0.728,0.384,1.466,0.521,2.223
			c0.177,0.885,0.295,1.8,0.364,2.715C136.756,185.829,136.786,186.577,136.786,187.314z"/>
		<g style="opacity:0.43;">
			<g>
				<path style="fill:#FFEACC;" d="M124.83,165.359h-23.906v-2.707h18.403C121.28,163.332,123.129,164.249,124.83,165.359z"/>
				<path style="fill:#FFEACC;" d="M130.481,170.3h-29.557v-2.722h26.85C128.736,168.406,129.653,169.324,130.481,170.3z"/>
				<path style="fill:#FFEACC;" d="M133.825,175.226h-32.9v-2.707h31.258C132.789,173.377,133.336,174.279,133.825,175.226z"/>
				<path style="fill:#FFEACC;" d="M135.792,180.152h-34.868v-2.707h33.921C135.215,178.333,135.526,179.235,135.792,180.152z"/>
				<path style="fill:#FFEACC;" d="M136.68,185.093h-35.756v-2.722h35.386C136.487,183.259,136.606,184.176,136.68,185.093z"/>
				<path style="fill:#FFEACC;" d="M136.783,187.312c0,0.917-0.044,1.82-0.133,2.707h-35.726v-2.707H136.783z"/>
				<path style="fill:#FFEACC;" d="M136.31,192.238c-0.163,0.917-0.385,1.834-0.651,2.707h-34.735v-2.707H136.31z"/>
				<path style="fill:#FFEACC;" d="M134.86,197.165c-0.37,0.932-0.814,1.849-1.287,2.722h-32.649v-2.722H134.86z"/>
				<path style="fill:#FFEACC;" d="M132.197,202.106c-0.636,0.947-1.346,1.849-2.13,2.707h-29.143v-2.707H132.197z"/>
				<path style="fill:#FFEACC;" d="M127.818,207.032c-1.154,1.006-2.397,1.908-3.713,2.707h-23.181v-2.707H127.818z"/>
				<path style="fill:#FFEACC;" d="M119.416,211.958c-2.752,0.977-5.696,1.509-8.772,1.509c-3.077,0-6.021-0.533-8.773-1.509
					H119.416z"/>
			</g>
		</g>
		<circle style="fill:#ED8514;" cx="106.598" cy="187.319" r="26.149"/>
		<path style="fill:#FFEACC;" d="M81.809,187.885c0,10.616,6.326,19.755,15.417,23.838c-9.809-3.758-16.774-13.272-16.774-24.409
			c0-14.433,11.708-26.14,26.15-26.14c3.748,0,7.31,0.787,10.537,2.214c-2.853-1.063-5.952-1.653-9.179-1.653
			C93.517,161.735,81.809,173.443,81.809,187.885z"/>
		<circle style="fill:#C6580C;" cx="106.598" cy="187.319" r="22.612"/>
		<path style="fill:#FFB510;" d="M129.21,187.314c0,10.143-6.385,18.722-15.19,21.595c-2.046,0.669-4.221,1.023-6.474,1.023
			c-0.344,0-0.689-0.01-1.023-0.03c-2.401-0.108-4.703-0.639-6.838-1.515c-1.663-0.669-3.217-1.545-4.644-2.607
			c-2.469-1.83-4.555-4.181-6.1-6.897c-1.407-2.45-2.371-5.194-2.804-8.136c-0.157-1.122-0.246-2.263-0.246-3.434
			c0-7.999,3.975-15.023,9.976-19.037c3.02-2.036,6.562-3.296,10.37-3.522c0.433-0.039,0.866-0.049,1.308-0.049
			c1.85,0,3.64,0.246,5.352,0.689c2.745,0.738,5.283,2.017,7.497,3.719c1.554,1.19,2.942,2.597,4.132,4.172
			c1.712,2.243,3.011,4.831,3.798,7.644C128.905,182.956,129.21,185.101,129.21,187.314z"/>
		<g>
			<g>
				<path style="fill:#C6580C;" d="M115.575,191.103c0,2.019-0.582,3.637-1.747,4.852c-1.164,1.216-2.575,2.019-4.23,2.407v2.483
					c0,0.492-0.014,0.867-0.038,1.126c-0.027,0.258-0.111,0.544-0.253,0.854c-0.142,0.31-0.376,0.529-0.698,0.66
					c-0.324,0.129-0.757,0.194-1.301,0.194c-0.543,0-0.976-0.065-1.3-0.194c-0.324-0.131-0.55-0.356-0.679-0.679
					c-0.13-0.325-0.208-0.609-0.232-0.854c-0.026-0.246-0.039-0.628-0.039-1.145V198.4c-1.061-0.232-2.018-0.621-2.872-1.164
					c-0.854-0.543-1.45-1.021-1.785-1.435l-0.505-0.66c-0.543-0.699-0.815-1.242-0.815-1.63c0-0.647,0.44-1.398,1.32-2.252
					c0.517-0.491,1.047-0.737,1.591-0.737c0.621,0,1.383,0.453,2.289,1.358l0.194,0.194c0.802,0.984,1.708,1.475,2.717,1.475
					c1.915,0,2.873-0.789,2.873-2.367c0-0.569-0.363-1.009-1.087-1.32c-0.725-0.311-1.606-0.588-2.639-0.834
					c-1.036-0.246-2.07-0.576-3.105-0.99c-1.036-0.414-1.916-1.126-2.639-2.135c-0.725-1.009-1.088-2.302-1.088-3.881
					c0-1.527,0.492-2.911,1.476-4.153c0.983-1.242,2.341-2.044,4.075-2.406v-2.174c0-0.517,0.013-0.899,0.039-1.145
					c0.025-0.246,0.103-0.524,0.232-0.834c0.13-0.311,0.362-0.53,0.699-0.66c0.336-0.129,0.776-0.194,1.32-0.194
					c0.698,0,1.222,0.149,1.572,0.446c0.35,0.298,0.549,0.615,0.601,0.951c0.052,0.336,0.078,0.828,0.078,1.475v2.174
					c0.724,0.155,1.383,0.375,1.979,0.66c0.596,0.285,1.01,0.518,1.242,0.699l0.35,0.31l0.155,0.116
					c0.647,0.596,0.97,1.074,0.97,1.436c0,0.414-0.258,1.009-0.776,1.786c-0.699,1.035-1.41,1.552-2.135,1.552
					c-0.465,0-0.996-0.207-1.591-0.621c-0.052-0.052-0.168-0.156-0.35-0.311c-0.181-0.155-0.349-0.284-0.504-0.388
					c-0.155-0.103-0.402-0.2-0.737-0.291c-0.337-0.09-0.738-0.135-1.204-0.135c-0.492,0-0.957,0.162-1.397,0.485
					c-0.44,0.324-0.66,0.744-0.66,1.261c0,0.621,0.265,1.106,0.796,1.456c0.53,0.35,1.185,0.582,1.96,0.699
					c0.776,0.116,1.63,0.31,2.562,0.582c0.931,0.271,1.785,0.589,2.561,0.951c0.776,0.363,1.43,1.003,1.96,1.922
					C115.31,188.587,115.575,189.732,115.575,191.103z"/>
			</g>
		</g>
		<g style="opacity:0.39;">
			<path style="fill:#FFE3BB;" d="M120.395,169.114l-20.71,39.275c-1.663-0.669-3.217-1.545-4.644-2.607l17.856-40.386
				C115.643,166.133,118.181,167.412,120.395,169.114z"/>
			<path style="fill:#FFE3BB;" d="M106.238,164.755l-17.296,34.129c-1.407-2.45-2.371-5.194-2.804-8.136l9.73-22.471
				C98.888,166.241,102.43,164.982,106.238,164.755z"/>
			<path style="fill:#FFE3BB;" d="M128.325,180.93c-4.289,8.441-9.996,19.578-14.305,27.98c-2.046,0.669-4.221,1.023-6.474,1.023
				c-0.344,0-0.689-0.01-1.023-0.03l18.004-36.618C126.239,175.528,127.537,178.116,128.325,180.93z"/>
		</g>
	</g>
	<g>
		<path style="fill:#FF9312;" d="M498.64,262.841c0,0.529-0.026,1.05-0.077,1.562c-0.051,0.436-0.111,0.862-0.196,1.281
			c-0.094,0.529-0.222,1.059-0.376,1.562c-0.137,0.435-0.29,0.862-0.461,1.281c-0.213,0.538-0.47,1.067-0.743,1.571
			c-0.239,0.444-0.504,0.871-0.794,1.281c-0.367,0.547-0.777,1.067-1.229,1.563c-0.401,0.452-0.837,0.879-1.298,1.281
			c-0.666,0.581-1.383,1.101-2.143,1.562c-0.854,0.512-1.759,0.939-2.707,1.281c-1.588,0.563-3.287,0.871-5.063,0.871
			c-1.776,0-3.475-0.307-5.063-0.871c-5.848-2.075-10.032-7.658-10.032-14.224c0-6.352,3.927-11.782,9.486-14.002
			c0.196-0.085,0.393-0.162,0.598-0.23c1.571-0.555,3.253-0.854,5.012-0.854c1.759,0,3.441,0.299,5.012,0.854
			c1.127,0.393,2.194,0.922,3.176,1.562c0.598,0.384,1.17,0.811,1.699,1.281c0.555,0.478,1.084,1.007,1.562,1.571
			c0.359,0.41,0.683,0.837,0.982,1.281c0.35,0.495,0.666,1.016,0.948,1.562c0.222,0.41,0.418,0.845,0.589,1.281
			c0.213,0.512,0.393,1.033,0.546,1.562c0.12,0.418,0.222,0.845,0.299,1.281c0.102,0.512,0.171,1.042,0.213,1.571
			C498.623,261.987,498.64,262.414,498.64,262.841z"/>
		<path style="fill:#C6580C;" d="M498.641,262.842c0,0.528-0.028,1.051-0.079,1.561c-0.051,0.437-0.108,0.863-0.193,1.277
			c-0.096,0.534-0.221,1.062-0.38,1.567c-0.136,0.432-0.29,0.863-0.46,1.278c-0.21,0.539-0.466,1.067-0.744,1.573
			c-0.238,0.443-0.5,0.869-0.789,1.277c-0.369,0.551-0.778,1.068-1.232,1.567c-0.403,0.449-0.835,0.874-1.295,1.278
			c-0.67,0.579-1.385,1.102-2.146,1.561c-0.852,0.517-1.76,0.943-2.708,1.283c-1.584,0.562-3.282,0.869-5.059,0.869
			c-0.903,0-1.789-0.079-2.646-0.233c0.568,0.068,1.141,0.102,1.726,0.102c1.777,0,3.475-0.307,5.065-0.869
			c0.948-0.341,1.851-0.772,2.703-1.283c0.761-0.46,1.482-0.982,2.146-1.561c0.46-0.403,0.897-0.829,1.295-1.283
			c0.454-0.494,0.863-1.011,1.232-1.561c0.29-0.409,0.556-0.835,0.795-1.278c0.273-0.505,0.528-1.033,0.744-1.573
			c0.17-0.42,0.324-0.846,0.46-1.278c0.153-0.505,0.278-1.033,0.375-1.567c0.085-0.414,0.142-0.84,0.193-1.278
			c0.051-0.511,0.079-1.033,0.079-1.561c0-0.432-0.017-0.857-0.062-1.283c-0.04-0.528-0.108-1.056-0.21-1.573
			c-0.079-0.432-0.182-0.857-0.301-1.278c-0.153-0.528-0.329-1.05-0.545-1.561c-0.17-0.437-0.369-0.874-0.591-1.283
			c-0.278-0.545-0.596-1.067-0.948-1.561c-0.295-0.443-0.619-0.869-0.982-1.283c-0.477-0.562-1.005-1.09-1.561-1.567
			c-0.528-0.471-1.102-0.897-1.698-1.283c-0.982-0.642-2.05-1.17-3.174-1.561c-0.755-0.267-1.527-0.471-2.328-0.613
			c1.124,0.125,2.209,0.375,3.242,0.744c1.13,0.392,2.197,0.926,3.18,1.561c0.596,0.386,1.17,0.812,1.698,1.283
			c0.556,0.477,1.085,1.005,1.561,1.573c0.358,0.409,0.687,0.835,0.982,1.277c0.352,0.494,0.664,1.016,0.948,1.561
			c0.221,0.409,0.42,0.846,0.591,1.283c0.21,0.511,0.392,1.033,0.545,1.561c0.119,0.42,0.221,0.846,0.301,1.283
			c0.102,0.511,0.17,1.039,0.21,1.567C498.624,261.984,498.641,262.416,498.641,262.842z"/>
		<g style="opacity:0.43;">
			<g>
				<path style="fill:#FFEACC;" d="M491.741,250.17h-13.797v-1.562h10.621C489.692,249.001,490.76,249.53,491.741,250.17z"/>
				<path style="fill:#FFEACC;" d="M495.003,253.022h-17.059v-1.571h15.496C493.995,251.929,494.525,252.458,495.003,253.022z"/>
				<path style="fill:#FFEACC;" d="M496.932,255.865h-18.988v-1.562h18.04C496.335,254.798,496.651,255.319,496.932,255.865z"/>
				<path style="fill:#FFEACC;" d="M498.068,258.708h-20.124v-1.562h19.577C497.735,257.658,497.914,258.179,498.068,258.708z"/>
				<path style="fill:#FFEACC;" d="M498.58,261.56h-20.636v-1.571h20.422C498.469,260.501,498.538,261.03,498.58,261.56z"/>
				<path style="fill:#FFEACC;" d="M498.64,262.841c0,0.529-0.026,1.05-0.077,1.562h-20.619v-1.562H498.64z"/>
				<path style="fill:#FFEACC;" d="M498.367,265.684c-0.094,0.529-0.222,1.059-0.376,1.562h-20.047v-1.562H498.367z"/>
				<path style="fill:#FFEACC;" d="M497.53,268.527c-0.213,0.538-0.47,1.067-0.743,1.571h-18.843v-1.571H497.53z"/>
				<path style="fill:#FFEACC;" d="M495.993,271.378c-0.367,0.547-0.777,1.067-1.229,1.563h-16.82v-1.563H495.993z"/>
				<path style="fill:#FFEACC;" d="M493.466,274.221c-0.666,0.581-1.383,1.101-2.143,1.562h-13.379v-1.562H493.466z"/>
				<path style="fill:#FFEACC;" d="M488.617,277.065c-1.588,0.563-3.287,0.871-5.063,0.871c-1.776,0-3.475-0.307-5.063-0.871
					H488.617z"/>
			</g>
		</g>
		<circle style="fill:#ED8514;" cx="481.219" cy="262.844" r="15.092"/>
		<path style="fill:#FFEACC;" d="M466.912,263.171c0,6.127,3.651,11.402,8.897,13.758c-5.661-2.169-9.681-7.66-9.681-14.087
			c0-8.33,6.757-15.087,15.092-15.087c2.163,0,4.219,0.454,6.081,1.278c-1.647-0.613-3.435-0.954-5.298-0.954
			C473.669,248.079,466.912,254.836,466.912,263.171z"/>
		<circle style="fill:#C6580C;" cx="481.219" cy="262.844" r="13.05"/>
		<path style="fill:#FFB510;" d="M494.269,262.842c0,5.854-3.685,10.805-8.767,12.463c-1.181,0.386-2.436,0.59-3.736,0.59
			c-0.199,0-0.397-0.006-0.59-0.017c-1.385-0.062-2.714-0.369-3.946-0.874c-0.96-0.386-1.857-0.891-2.68-1.505
			c-1.425-1.056-2.629-2.413-3.52-3.98c-0.812-1.414-1.368-2.998-1.618-4.696c-0.091-0.647-0.142-1.306-0.142-1.982
			c0-4.616,2.294-8.67,5.758-10.987c1.743-1.175,3.787-1.902,5.985-2.033c0.25-0.023,0.5-0.028,0.755-0.028
			c1.068,0,2.101,0.142,3.089,0.398c1.584,0.426,3.049,1.164,4.327,2.146c0.897,0.687,1.698,1.499,2.385,2.408
			c0.988,1.295,1.738,2.788,2.192,4.412C494.093,260.326,494.269,261.564,494.269,262.842z"/>
		<g>
			<g>
				<path style="fill:#C6580C;" d="M486.4,265.028c0,1.165-0.336,2.099-1.008,2.8c-0.672,0.702-1.486,1.165-2.441,1.389v1.433
					c0,0.284-0.008,0.5-0.022,0.65c-0.016,0.149-0.064,0.314-0.146,0.493c-0.082,0.179-0.217,0.306-0.403,0.381
					c-0.187,0.074-0.437,0.112-0.751,0.112c-0.313,0-0.563-0.038-0.75-0.112c-0.187-0.075-0.317-0.206-0.392-0.392
					c-0.075-0.187-0.12-0.352-0.134-0.493c-0.015-0.142-0.023-0.363-0.023-0.661v-1.389c-0.612-0.134-1.164-0.358-1.657-0.672
					c-0.493-0.313-0.837-0.589-1.03-0.828l-0.292-0.381c-0.313-0.403-0.47-0.717-0.47-0.941c0-0.373,0.254-0.806,0.762-1.299
					c0.298-0.283,0.604-0.426,0.918-0.426c0.358,0,0.798,0.262,1.321,0.784l0.112,0.112c0.463,0.568,0.986,0.851,1.568,0.851
					c1.105,0,1.658-0.455,1.658-1.366c0-0.328-0.21-0.583-0.627-0.762c-0.419-0.179-0.927-0.34-1.523-0.482
					c-0.598-0.142-1.195-0.332-1.792-0.571c-0.598-0.239-1.106-0.65-1.523-1.232c-0.419-0.582-0.628-1.329-0.628-2.24
					c0-0.881,0.284-1.68,0.852-2.397c0.567-0.717,1.351-1.179,2.352-1.389v-1.255c0-0.299,0.008-0.519,0.023-0.661
					c0.014-0.142,0.059-0.302,0.134-0.482c0.075-0.179,0.209-0.306,0.403-0.381c0.194-0.075,0.448-0.112,0.762-0.112
					c0.403,0,0.705,0.086,0.907,0.258c0.202,0.172,0.317,0.355,0.347,0.549c0.03,0.194,0.045,0.478,0.045,0.851v1.254
					c0.418,0.09,0.798,0.216,1.142,0.381c0.344,0.165,0.583,0.299,0.717,0.403l0.202,0.179l0.089,0.067
					c0.373,0.344,0.56,0.62,0.56,0.829c0,0.239-0.149,0.583-0.448,1.031c-0.403,0.598-0.814,0.896-1.232,0.896
					c-0.268,0-0.575-0.119-0.918-0.358c-0.03-0.03-0.097-0.09-0.202-0.179c-0.104-0.09-0.201-0.164-0.291-0.224
					c-0.089-0.059-0.232-0.115-0.425-0.168c-0.195-0.052-0.426-0.078-0.695-0.078c-0.284,0-0.552,0.093-0.806,0.28
					c-0.254,0.187-0.381,0.43-0.381,0.728c0,0.358,0.153,0.638,0.459,0.84c0.306,0.202,0.684,0.336,1.131,0.403
					c0.448,0.067,0.941,0.179,1.479,0.336c0.537,0.157,1.03,0.34,1.478,0.549c0.448,0.209,0.825,0.579,1.131,1.109
					C486.247,263.576,486.4,264.237,486.4,265.028z"/>
			</g>
		</g>
		<g style="opacity:0.39;">
			<path style="fill:#FFE3BB;" d="M489.182,252.337l-11.952,22.667c-0.96-0.386-1.857-0.891-2.68-1.505l10.306-23.308
				C486.439,250.617,487.904,251.355,489.182,252.337z"/>
			<path style="fill:#FFE3BB;" d="M481.011,249.822l-9.982,19.697c-0.812-1.414-1.368-2.998-1.618-4.696l5.616-12.969
				C476.769,250.679,478.813,249.953,481.011,249.822z"/>
			<path style="fill:#FFE3BB;" d="M493.758,259.157c-2.476,4.872-5.769,11.299-8.256,16.148c-1.181,0.386-2.436,0.59-3.736,0.59
				c-0.199,0-0.397-0.006-0.59-0.017l10.391-21.134C492.554,256.039,493.304,257.533,493.758,259.157z"/>
		</g>
	</g>
	<g>
		<path style="fill:#017C5F;" d="M673.131,269.82l25.061,53.435c0.458,0.977,0.149,2.111-0.686,2.734
			c-0.118,0.083-0.247,0.162-0.384,0.226l-98.915,46.391c-1.114,0.522-2.438,0.044-2.961-1.07l-25.061-53.435
			c-0.522-1.114-0.044-2.438,1.07-2.96l98.915-46.391C671.284,268.227,672.608,268.706,673.131,269.82z"/>
		<path style="fill:#02C198;" d="M672.927,278.025l18.828,40.145c-3.03,1.421-4.32,5.014-2.91,8.049l-85.303,40.007
			c-1.433-3.025-5.031-4.326-8.061-2.904l-0.034,0.016l-18.828-40.145l0.034-0.016c3.03-1.421,4.337-5.036,2.916-8.066
			l85.303-40.007C666.294,278.134,669.897,279.446,672.927,278.025z"/>
		<path style="fill:#017C5F;" d="M611.406,331.935c1.143,2.438,0.094,5.341-2.344,6.485c-2.438,1.143-5.341,0.094-6.485-2.344
			c-1.143-2.438-0.094-5.341,2.344-6.485C607.359,328.448,610.262,329.497,611.406,331.935z"/>
		<path style="fill:#017C5F;" d="M671.926,303.552c1.143,2.438,0.094,5.341-2.344,6.485c-2.438,1.143-5.341,0.094-6.485-2.344
			c-1.143-2.438-0.094-5.341,2.344-6.485C667.879,300.064,670.782,301.114,671.926,303.552z"/>
		<circle style="fill:#B4FCE9;" cx="634.185" cy="320.676" r="22.879"/>
		<g>
			<g>
				<path style="fill:#017C5F;" d="M641.2,318.05c-0.316-0.221-0.634-0.405-0.956-0.541c-0.548-0.242-1.095-0.364-1.642-0.367
					c-0.857,0.005-1.765,0.079-2.731,0.227c-0.955,0.152-1.809,0.34-2.564,0.565c-0.754,0.224-1.445,0.289-2.079,0.199
					c-0.627-0.094-1.075-0.42-1.338-0.981c-0.22-0.47-0.201-0.941,0.062-1.425c0.263-0.484,0.612-0.823,1.059-1.033
					c0.424-0.199,0.806-0.332,1.148-0.39c0.342-0.059,0.612-0.074,0.791-0.048c0.187,0.023,0.395,0.074,0.626,0.132
					c0.234,0.066,0.375,0.111,0.45,0.131c0.715,0.127,1.282,0.092,1.706-0.107c0.659-0.309,1.083-1.081,1.279-2.319
					c0.139-0.925,0.122-1.573-0.056-1.952c-0.153-0.326-0.651-0.619-1.498-0.888l-0.183-0.034l-0.453-0.139
					c-0.287-0.06-0.758-0.098-1.424-0.099c-0.659-0.005-1.353,0.071-2.069,0.24l-0.924-1.97c-0.277-0.591-0.517-1.024-0.705-1.306
					c-0.159-0.24-0.409-0.418-0.743-0.539c-0.067-0.024-0.134-0.048-0.208-0.069c-0.443-0.116-0.976-0.032-1.613,0.267
					c-0.492,0.231-0.866,0.48-1.115,0.736c-0.246,0.263-0.366,0.56-0.348,0.893c0.01,0.337,0.063,0.627,0.143,0.857
					c0.073,0.234,0.229,0.586,0.449,1.056l0.924,1.97c-1.419,1.072-2.306,2.375-2.674,3.916c-0.357,1.545-0.218,3.004,0.433,4.391
					c0.522,1.114,1.167,1.976,1.945,2.591c0.213,0.178,0.452,0.333,0.692,0.47c1.078,0.603,2.187,0.879,3.3,0.809
					c1.117-0.062,2.188-0.203,3.234-0.417c1.043-0.221,1.955-0.344,2.749-0.365c0.791-0.029,1.301,0.212,1.543,0.728
					c0.21,0.447,0.304,0.865,0.283,1.254c-0.063,0.852-0.683,1.559-1.88,2.12c-0.909,0.426-1.945,0.367-3.091-0.186l-0.256-0.092
					c-1.202-0.435-2.091-0.517-2.651-0.254c-0.492,0.231-0.874,0.678-1.127,1.342c-0.441,1.149-0.515,2.016-0.241,2.599
					c0.167,0.356,0.641,0.735,1.428,1.133l0.743,0.382c0.481,0.237,1.221,0.416,2.225,0.546c1.004,0.13,2.042,0.077,3.1-0.169
					l1.023,2.182c0.11,0.235,0.203,0.432,0.292,0.603l0.003,0.008c0.089,0.171,0.164,0.311,0.233,0.418
					c0.126,0.209,0.315,0.435,0.575,0.673c0.249,0.235,0.549,0.343,0.901,0.326c0.341-0.021,0.764-0.146,1.256-0.377
					c0.492-0.231,0.858-0.476,1.1-0.729c0.239-0.26,0.358-0.556,0.356-0.897c-0.003-0.341-0.048-0.634-0.135-0.879
					c-0.087-0.246-0.232-0.594-0.442-1.041l-1.055-2.25c1.333-1.06,2.265-2.384,2.81-3.98c0.534-1.6,0.379-3.311-0.481-5.144
					C642.798,319.584,642.068,318.659,641.2,318.05z"/>
			</g>
		</g>
		<path style="opacity:0.54;fill:#FFFFFF;" d="M585.399,342.105c-0.418,0.196-0.917,0.016-1.113-0.402l-4.686-9.991
			c-0.196-0.418-0.016-0.917,0.402-1.113c0.418-0.196,0.917-0.016,1.113,0.402l4.686,9.991
			C585.998,341.41,585.818,341.908,585.399,342.105z"/>
		<path style="opacity:0.54;fill:#FFFFFF;" d="M578.046,328.703c-1.028-1.53-1.936-3.116-2.81-4.719
			c-0.208-0.388-0.451-0.814-0.66-1.294c-0.211-0.465-0.381-0.968-0.531-1.486c-0.279-1.042-0.396-2.26-0.031-3.495
			c0.339-1.245,1.227-2.304,2.174-2.95c0.464-0.341,0.991-0.584,1.452-0.794c0.422-0.174,0.837-0.361,1.264-0.523
			c1.695-0.676,3.412-1.305,5.199-1.787c0.453-0.122,0.919,0.146,1.042,0.599c0.095,0.354-0.049,0.716-0.331,0.916
			c-1.513,1.065-3.094,1.984-4.698,2.855c-0.398,0.224-0.807,0.424-1.21,0.637c-0.355,0.196-0.637,0.376-0.908,0.575
			c-0.546,0.397-0.833,0.853-1.012,1.362c-0.184,0.515-0.144,1.183-0.023,1.904c0.081,0.363,0.172,0.735,0.313,1.111
			c0.122,0.368,0.278,0.762,0.456,1.2c0.673,1.696,1.313,3.409,1.832,5.178c0.132,0.449-0.125,0.919-0.574,1.051
			C578.625,329.15,578.247,329.001,578.046,328.703z"/>
		<path style="opacity:0.35;fill:#005B5B;" d="M673.131,269.82l25.061,53.435c0.458,0.977,0.149,2.111-0.686,2.734
			c-0.118,0.083-0.247,0.162-0.384,0.226l-98.915,46.391c-1.114,0.522-2.438,0.044-2.961-1.07l-3.706-7.902l83.823-39.313
			c3.212-1.507,4.544-2.529,4.722-3.924c0.018-0.119,0.017-0.239,0.021-0.37c-0.024-1.431-1.115-3.304-2.575-6.417l-18.573-39.601
			l11.213-5.259C671.284,268.227,672.608,268.706,673.131,269.82z"/>
		<path style="opacity:0.35;fill:#005B5B;" d="M665.107,279.121c0,0,4.085,8.71,6.368,13.578c2.283,4.868,9.913,3.477,6.669-3.44
			c-3.244-6.917-5.227-11.144-6.548-13.962C669.252,270.3,662.343,273.228,665.107,279.121z"/>
		<path style="opacity:0.54;fill:#FFFFFF;" d="M673.954,286.991c-0.419,0.196-0.917,0.016-1.113-0.402l-5.888-12.553
			c-0.196-0.418-0.017-0.917,0.402-1.113c0.419-0.196,0.917-0.016,1.113,0.402l5.888,12.553
			C674.553,286.296,674.373,286.794,673.954,286.991z"/>
		<path style="opacity:0.54;fill:#FFFFFF;" d="M681.231,309.532c1.166,1.592,2.167,3.262,3.104,4.961
			c0.467,0.837,0.93,1.67,1.38,2.695c0.198,0.537,0.405,1.092,0.494,1.784c0.108,0.661,0.077,1.473-0.189,2.194l-0.212,0.534
			l-0.279,0.47c-0.184,0.331-0.414,0.553-0.633,0.816c-0.448,0.474-0.923,0.856-1.406,1.156c-0.946,0.607-1.955,1.063-2.854,1.397
			c-1.809,0.702-3.642,1.356-5.545,1.859c-0.454,0.12-0.92-0.151-1.04-0.605c-0.093-0.351,0.05-0.71,0.329-0.91
			c1.604-1.142,3.278-2.132,4.975-3.074c0.856-0.482,1.589-0.888,2.237-1.382c0.644-0.484,1.088-0.985,1.182-1.355
			c0.134-0.327,0.08-0.9-0.201-1.682c-0.257-0.779-0.681-1.671-1.028-2.591c-0.707-1.807-1.351-3.644-1.83-5.558
			c-0.114-0.457,0.163-0.92,0.62-1.034C680.683,309.122,681.033,309.261,681.231,309.532z"/>
		<polygon style="opacity:0.09;fill:#E6FFF8;" points="597.622,332.379 592.762,357.608 591.582,363.725 585.712,351.209 
			586.796,344.887 592.987,308.821 593.711,304.609 603.901,299.83 603.079,304.088 		"/>
		<polygon style="opacity:0.09;fill:#E6FFF8;" points="626.894,322.014 624.472,341.386 622.484,357.347 621.973,361.46 
			602.631,370.531 603.458,366.067 608.531,338.631 610.085,330.24 611.421,322.977 611.425,322.966 613.746,310.416 
			613.743,310.409 613.747,310.398 616.042,298.008 616.826,293.768 631.251,287.002 630.74,291.115 629.858,298.202 
			628.958,305.408 		"/>
		<polygon style="opacity:0.09;fill:#E6FFF8;" points="674.687,273.138 685.762,296.753 684.91,303.567 683.65,313.632 
			683.354,316.017 682.807,320.368 682.764,320.73 682.502,322.812 681.662,329.593 681.151,333.705 661.809,342.777 
			662.593,338.536 662.636,338.313 664.256,329.53 667.708,310.877 667.782,310.482 669.263,302.486 669.502,301.181 
			670.122,297.813 670.599,295.223 670.602,295.212 671.183,292.074 672.642,284.19 672.924,282.662 672.921,282.655 
			672.925,282.643 673.523,279.405 673.54,279.323 		"/>
		<polygon style="opacity:0.09;fill:#E6FFF8;" points="658.662,274.147 658.423,278.131 656.252,314.651 656.256,314.658 
			656.252,314.669 655.376,329.277 655.379,329.285 654.607,342.281 654.369,346.266 635.921,354.918 636.394,350.823 
			637.259,343.347 638.263,334.706 638.259,334.698 639.427,324.575 640.244,317.509 642.356,299.309 644.021,284.886 
			644.494,280.791 		"/>
		<path style="opacity:0.17;fill:#E6FFF8;" d="M616.432,293.953c-0.54,1.076-1.593,2.18-3.548,3.097l-32.669,15.322
			c-8.576,4.022-8.524,4.469-6.758,9.575c1.435,4.143,11.493,27.107,15.265,35.681l-18.537-39.525
			c-0.522-1.114-0.044-2.438,1.07-2.96L616.432,293.953z"/>
	</g>
	<g>
		<path style="fill:#017C5F;" d="M687.401,194.855l-48.377,37.741c-0.885,0.69-2.106,0.639-2.93-0.064
			c-0.112-0.101-0.222-0.213-0.318-0.337l-69.863-89.551c-0.787-1.008-0.607-2.461,0.401-3.248l48.377-37.741
			c1.008-0.787,2.461-0.607,3.248,0.401l69.863,89.551C688.588,192.615,688.409,194.068,687.401,194.855z"/>
		<path style="fill:#02C198;" d="M679.037,196.543l-36.345,28.354c-2.14-2.743-6.08-3.221-8.831-1.091l-60.249-77.228
			c2.735-2.151,3.223-6.098,1.083-8.841l-0.024-0.031l36.345-28.355l0.024,0.031c2.14,2.743,6.106,3.233,8.849,1.093l60.249,77.228
			C677.394,189.844,676.897,193.799,679.037,196.543z"/>
		<path style="fill:#017C5F;" d="M610.185,146.631c-2.207,1.722-5.392,1.329-7.114-0.879c-1.722-2.207-1.328-5.392,0.879-7.114
			c2.207-1.722,5.392-1.329,7.114,0.879C612.786,141.724,612.393,144.909,610.185,146.631z"/>
		<path style="fill:#017C5F;" d="M652.93,201.422c-2.207,1.722-5.392,1.329-7.114-0.879c-1.722-2.207-1.328-5.393,0.879-7.114
			c2.207-1.722,5.392-1.329,7.114,0.879C655.531,196.515,655.138,199.7,652.93,201.422z"/>
		
			<ellipse transform="matrix(0.8176 -0.5757 0.5757 0.8176 18.1031 391.3918)" style="fill:#B4FCE9;" cx="626.859" cy="167.12" rx="23.785" ry="23.785"/>
		<g>
			<g>
				<path style="fill:#017C5F;" d="M631.14,173.626c0.151-0.372,0.264-0.736,0.327-1.094c0.119-0.611,0.117-1.194-0.007-1.749
					c-0.203-0.868-0.488-1.771-0.861-2.716c-0.375-0.933-0.763-1.755-1.164-2.468c-0.402-0.713-0.627-1.398-0.681-2.061
					c-0.049-0.657,0.178-1.187,0.685-1.583c0.425-0.332,0.907-0.421,1.458-0.266c0.551,0.155,0.976,0.43,1.291,0.835
					c0.3,0.384,0.522,0.74,0.661,1.073c0.139,0.333,0.217,0.603,0.231,0.791c0.019,0.194,0.017,0.417,0.011,0.664
					c-0.013,0.253-0.025,0.406-0.029,0.486c0.037,0.755,0.203,1.32,0.502,1.704c0.466,0.597,1.346,0.848,2.646,0.761
					c0.97-0.072,1.623-0.24,1.966-0.507c0.295-0.23,0.477-0.803,0.554-1.723l-0.007-0.193l0.036-0.491
					c-0.006-0.304-0.076-0.79-0.228-1.466c-0.147-0.669-0.384-1.355-0.721-2.041l1.783-1.391c0.535-0.417,0.918-0.76,1.161-1.016
					c0.206-0.216,0.329-0.511,0.375-0.877c0.009-0.073,0.018-0.146,0.022-0.227c0.015-0.475-0.193-0.997-0.643-1.573
					c-0.348-0.446-0.686-0.766-1.003-0.961c-0.324-0.189-0.652-0.242-0.986-0.146c-0.339,0.088-0.621,0.208-0.836,0.343
					c-0.22,0.128-0.541,0.367-0.966,0.699l-1.783,1.391c-1.415-1.191-2.94-1.789-4.587-1.806c-1.648-0.005-3.096,0.473-4.351,1.452
					c-1.008,0.787-1.733,1.639-2.177,2.57c-0.131,0.257-0.233,0.535-0.317,0.81c-0.363,1.232-0.385,2.419-0.058,3.532
					c0.321,1.118,0.711,2.17,1.169,3.181c0.465,1.006,0.8,1.903,1.005,2.703c0.212,0.795,0.085,1.368-0.381,1.732
					c-0.405,0.316-0.807,0.508-1.205,0.576c-0.878,0.133-1.738-0.332-2.583-1.416c-0.642-0.823-0.821-1.887-0.525-3.176l0.035-0.281
					c0.163-1.319,0.041-2.239-0.355-2.746c-0.348-0.446-0.889-0.73-1.62-0.832c-1.267-0.181-2.162-0.056-2.69,0.356
					c-0.322,0.251-0.597,0.819-0.818,1.709l-0.215,0.841c-0.129,0.542-0.14,1.334-0.04,2.381c0.1,1.048,0.393,2.088,0.887,3.103
					l-1.975,1.541c-0.213,0.166-0.391,0.305-0.543,0.435l-0.007,0.005c-0.152,0.13-0.277,0.238-0.37,0.332
					c-0.183,0.176-0.368,0.419-0.55,0.738c-0.18,0.306-0.221,0.636-0.122,0.989c0.101,0.341,0.324,0.74,0.672,1.186
					c0.348,0.446,0.681,0.76,0.993,0.947c0.318,0.182,0.647,0.235,0.991,0.153c0.345-0.081,0.631-0.195,0.86-0.34
					c0.229-0.145,0.548-0.372,0.953-0.688l2.037-1.589c1.382,1.107,2.939,1.745,4.683,1.93c1.745,0.172,3.444-0.381,5.103-1.675
					C629.954,175.599,630.723,174.646,631.14,173.626z"/>
			</g>
		</g>
		<path style="opacity:0.54;fill:#FFFFFF;" d="M593.873,122.618c-0.295-0.379-0.228-0.925,0.151-1.221l9.045-7.057
			c0.379-0.296,0.925-0.228,1.221,0.151c0.295,0.379,0.228,0.925-0.151,1.221l-9.045,7.057
			C594.715,123.064,594.168,122.997,593.873,122.618z"/>
		<path style="opacity:0.54;fill:#FFFFFF;" d="M605.759,112.071c1.314-1.395,2.712-2.682,4.135-3.938
			c0.345-0.3,0.721-0.645,1.159-0.968c0.423-0.321,0.893-0.61,1.383-0.882c0.992-0.523,2.2-0.923,3.536-0.838
			c1.34,0.056,2.619,0.712,3.492,1.522c0.453,0.392,0.821,0.87,1.14,1.288c0.273,0.387,0.559,0.765,0.822,1.16
			c1.077,1.562,2.111,3.158,3.011,4.857c0.229,0.431,0.064,0.966-0.367,1.194c-0.336,0.178-0.737,0.116-1.005-0.124
			c-1.429-1.287-2.725-2.678-3.978-4.103c-0.319-0.351-0.616-0.72-0.925-1.08c-0.281-0.315-0.528-0.559-0.793-0.788
			c-0.528-0.462-1.057-0.648-1.615-0.711c-0.564-0.068-1.233,0.127-1.936,0.416c-0.349,0.166-0.705,0.344-1.054,0.574
			c-0.345,0.209-0.708,0.458-1.111,0.739c-1.564,1.074-3.152,2.118-4.825,3.052c-0.424,0.237-0.961,0.085-1.198-0.339
			C605.44,112.76,605.504,112.343,605.759,112.071z"/>
		<path style="opacity:0.35;fill:#005B5B;" d="M687.401,194.855l-48.377,37.741c-0.885,0.69-2.106,0.639-2.93-0.064
			c-0.112-0.101-0.222-0.213-0.318-0.337l-69.863-89.551c-0.787-1.008-0.607-2.461,0.401-3.248l7.154-5.581l59.204,75.888
			c2.269,2.908,3.613,4.022,5.068,3.88c0.125-0.009,0.246-0.038,0.38-0.065c1.445-0.355,3.091-1.893,5.91-4.092l35.852-27.97
			l7.92,10.151C688.588,192.615,688.409,194.068,687.401,194.855z"/>
		<path style="opacity:0.35;fill:#005B5B;" d="M676.12,188.869c0,0-7.886,6.152-12.293,9.59c-4.407,3.438-1.235,10.851,5.027,5.965
			c6.262-4.886,10.089-7.871,12.641-9.862C686.018,191.034,681.455,184.707,676.12,188.869z"/>
		<path style="opacity:0.54;fill:#FFFFFF;" d="M670.186,199.654c-0.296-0.379-0.228-0.926,0.151-1.221l11.365-8.866
			c0.379-0.295,0.925-0.228,1.221,0.151c0.296,0.379,0.228,0.926-0.151,1.221l-11.365,8.866
			C671.028,200.101,670.482,200.034,670.186,199.654z"/>
		<path style="opacity:0.54;fill:#FFFFFF;" d="M649.018,212.236c-1.345,1.549-2.806,2.949-4.312,4.292
			c-0.741,0.666-1.478,1.328-2.413,2.021c-0.499,0.325-1.013,0.663-1.694,0.913c-0.645,0.262-1.475,0.417-2.268,0.315l-0.591-0.092
			l-0.541-0.174c-0.378-0.11-0.656-0.293-0.973-0.453c-0.584-0.345-1.081-0.738-1.497-1.159c-0.833-0.819-1.529-1.737-2.075-2.57
			c-1.13-1.672-2.216-3.378-3.165-5.191c-0.227-0.433-0.059-0.967,0.373-1.193c0.335-0.175,0.732-0.113,0.998,0.123
			c1.528,1.362,2.918,2.83,4.265,4.333c0.686,0.756,1.267,1.406,1.918,1.949c0.639,0.541,1.25,0.876,1.646,0.885
			c0.363,0.06,0.931-0.127,1.658-0.592c0.73-0.441,1.536-1.076,2.389-1.64c1.669-1.134,3.382-2.211,5.212-3.138
			c0.437-0.221,0.97-0.047,1.192,0.39C649.306,211.585,649.246,211.971,649.018,212.236z"/>
		<polygon style="opacity:0.09;fill:#E6FFF8;" points="606.553,132.762 579.858,133.661 573.386,133.878 584.717,125.038 
			591.375,124.677 629.362,122.625 633.799,122.385 640.996,131.611 636.49,131.761 		"/>
		<polygon style="opacity:0.09;fill:#E6FFF8;" points="623.818,160.04 603.623,162.058 586.986,163.728 582.699,164.16 
			569.038,146.648 573.754,146.456 602.735,145.263 611.599,144.901 619.269,144.578 619.281,144.579 632.538,144.035 
			632.545,144.029 632.557,144.031 645.646,143.497 650.125,143.312 660.313,156.372 656.027,156.803 648.64,157.546 
			641.128,158.298 		"/>
		<polygon style="opacity:0.09;fill:#E6FFF8;" points="684.396,197.198 663.017,213.877 655.913,214.587 645.42,215.634 
			642.935,215.885 638.398,216.335 638.021,216.375 635.85,216.59 628.783,217.304 624.496,217.735 610.835,200.224 615.314,200.04 
			615.55,200.032 624.827,199.647 644.532,198.839 644.949,198.822 653.396,198.477 654.773,198.418 658.331,198.268 
			661.066,198.154 661.078,198.155 664.393,198.019 672.722,197.678 674.335,197.611 674.342,197.605 674.354,197.607 
			677.775,197.465 677.862,197.464 		"/>
		<polygon style="opacity:0.09;fill:#E6FFF8;" points="679.673,181.188 675.579,181.866 638.061,188.098 638.054,188.103 
			638.042,188.102 623.033,190.587 623.026,190.592 609.674,192.811 605.58,193.489 592.55,176.787 596.81,176.322 604.588,175.472 
			613.579,174.494 613.586,174.488 624.116,173.335 631.467,172.532 650.403,170.47 665.407,168.827 669.667,168.361 		"/>
		<path style="opacity:0.17;fill:#E6FFF8;" d="M649.847,142.956c-1.215-0.299-2.578-1.112-3.958-2.881l-23.074-29.576
			c-6.057-7.764-6.498-7.608-11.266-4.639c-3.868,2.411-24.823,17.909-32.642,23.711l35.784-27.916
			c1.008-0.787,2.461-0.607,3.248,0.401L649.847,142.956z"/>
	</g>
	<g>
		<path style="fill:#017C5F;" d="M194.515,304.934l-31.947,47.561c-0.584,0.87-1.683,1.179-2.618,0.795
			c-0.128-0.057-0.259-0.125-0.38-0.206l-88.042-59.137c-0.991-0.666-1.255-2.007-0.589-2.999l31.947-47.561
			c0.666-0.991,2.007-1.255,2.999-0.589l88.042,59.137C194.917,302.601,195.181,303.943,194.515,304.934z"/>
		<path style="fill:#02C198;" d="M187.585,308.865l-24.001,35.732c-2.697-1.812-6.331-1.089-8.153,1.601l-75.926-50.999
			c1.802-2.704,1.086-6.348-1.611-8.16l-0.03-0.021l24.001-35.732l0.03,0.02c2.697,1.812,6.359,1.093,8.17-1.605l75.926,51
			C184.179,303.399,184.888,307.053,187.585,308.865z"/>
		<path style="fill:#017C5F;" d="M111.972,284.607c-1.458,2.17-4.398,2.747-6.568,1.29c-2.17-1.458-2.747-4.398-1.29-6.568
			c1.458-2.17,4.398-2.747,6.568-1.29C112.852,279.496,113.43,282.437,111.972,284.607z"/>
		<path style="fill:#017C5F;" d="M165.839,320.789c-1.458,2.17-4.398,2.747-6.568,1.29c-2.17-1.457-2.748-4.398-1.29-6.568
			c1.458-2.17,4.398-2.747,6.568-1.29C166.72,315.678,167.297,318.619,165.839,320.789z"/>
		
			<ellipse transform="matrix(0.9283 -0.3718 0.3718 0.9283 -101.2659 70.7141)" style="fill:#B4FCE9;" cx="132.727" cy="297.937" rx="22.21" ry="22.21"/>
		<g>
			<g>
				<path style="fill:#017C5F;" d="M138.418,302.464c0.026-0.374,0.02-0.73-0.028-1.066c-0.072-0.577-0.244-1.094-0.515-1.55
					c-0.432-0.711-0.948-1.429-1.554-2.159c-0.604-0.719-1.187-1.336-1.751-1.851c-0.564-0.516-0.963-1.058-1.204-1.631
					c-0.235-0.569-0.188-1.105,0.148-1.604c0.281-0.418,0.683-0.637,1.217-0.66c0.534-0.023,0.991,0.098,1.389,0.365
					c0.378,0.254,0.679,0.505,0.899,0.76c0.22,0.255,0.368,0.472,0.435,0.635c0.074,0.167,0.136,0.366,0.203,0.586
					c0.062,0.228,0.096,0.368,0.116,0.44c0.252,0.659,0.564,1.113,0.941,1.366c0.587,0.394,1.441,0.361,2.569-0.095
					c0.839-0.346,1.37-0.685,1.596-1.022c0.195-0.29,0.19-0.851-0.01-1.69l-0.063-0.169l-0.111-0.447
					c-0.094-0.268-0.297-0.679-0.629-1.235c-0.325-0.551-0.735-1.091-1.234-1.602l1.178-1.753c0.353-0.526,0.594-0.942,0.734-1.239
					c0.12-0.252,0.144-0.549,0.077-0.887c-0.013-0.068-0.027-0.135-0.047-0.207c-0.125-0.426-0.461-0.829-1.028-1.209
					c-0.438-0.294-0.832-0.48-1.17-0.561c-0.342-0.073-0.649-0.025-0.918,0.157c-0.275,0.177-0.49,0.366-0.642,0.548
					c-0.158,0.177-0.373,0.483-0.654,0.901l-1.178,1.753c-1.602-0.645-3.129-0.732-4.595-0.268c-1.464,0.475-2.609,1.32-3.438,2.554
					c-0.666,0.991-1.061,1.959-1.184,2.914c-0.042,0.266-0.051,0.543-0.046,0.811c0.036,1.199,0.362,2.259,0.976,3.151
					c0.61,0.899,1.262,1.719,1.963,2.483c0.705,0.757,1.263,1.455,1.678,2.106c0.419,0.644,0.473,1.189,0.165,1.647
					c-0.267,0.398-0.568,0.685-0.902,0.862c-0.74,0.374-1.639,0.211-2.704-0.505c-0.809-0.544-1.277-1.435-1.39-2.666l-0.051-0.259
					c-0.239-1.217-0.615-1.998-1.114-2.333c-0.438-0.294-1.001-0.389-1.68-0.267c-1.177,0.208-1.935,0.579-2.284,1.098
					c-0.213,0.317-0.292,0.9-0.229,1.754l0.054,0.809c0.043,0.518,0.264,1.224,0.657,2.125c0.393,0.9,0.956,1.738,1.69,2.496
					l-1.305,1.942c-0.14,0.209-0.258,0.384-0.356,0.544l-0.005,0.007c-0.097,0.16-0.177,0.292-0.231,0.402
					c-0.111,0.209-0.204,0.479-0.273,0.815c-0.071,0.324-0.011,0.629,0.179,0.913c0.188,0.273,0.503,0.563,0.941,0.857
					c0.438,0.294,0.825,0.476,1.156,0.552c0.335,0.069,0.642,0.02,0.924-0.152c0.282-0.173,0.504-0.357,0.664-0.552
					c0.161-0.195,0.378-0.49,0.645-0.888l1.345-2.003c1.548,0.58,3.116,0.693,4.717,0.35c1.599-0.355,2.945-1.339,4.041-2.971
					C137.94,304.56,138.345,303.491,138.418,302.464z"/>
			</g>
		</g>
		<path style="opacity:0.54;fill:#FFFFFF;" d="M90.512,268.045c-0.372-0.25-0.472-0.755-0.221-1.127l5.973-8.893
			c0.25-0.372,0.755-0.471,1.127-0.221c0.372,0.25,0.472,0.755,0.221,1.127l-5.973,8.893
			C91.389,268.196,90.884,268.295,90.512,268.045z"/>
		<path style="opacity:0.54;fill:#FFFFFF;" d="M97.991,255.228c0.76-1.62,1.626-3.169,2.523-4.697
			c0.219-0.367,0.452-0.782,0.747-1.196c0.282-0.408,0.615-0.801,0.971-1.185c0.728-0.753,1.683-1.459,2.894-1.772
			c1.206-0.341,2.531-0.13,3.541,0.335c0.516,0.216,0.982,0.533,1.386,0.812c0.355,0.264,0.718,0.516,1.067,0.79
			c1.41,1.073,2.791,2.188,4.085,3.434c0.328,0.316,0.338,0.838,0.022,1.167c-0.247,0.256-0.62,0.317-0.928,0.182
			c-1.643-0.726-3.197-1.583-4.724-2.483c-0.385-0.219-0.756-0.46-1.135-0.689c-0.341-0.198-0.631-0.342-0.932-0.469
			c-0.603-0.256-1.127-0.267-1.639-0.161c-0.52,0.104-1.057,0.471-1.597,0.932c-0.262,0.249-0.525,0.51-0.768,0.815
			c-0.245,0.286-0.495,0.613-0.771,0.979c-1.075,1.408-2.181,2.796-3.394,4.112c-0.307,0.334-0.827,0.355-1.161,0.048
			C97.908,255.932,97.843,255.544,97.991,255.228z"/>
		<path style="opacity:0.35;fill:#005B5B;" d="M194.515,304.934l-31.947,47.561c-0.584,0.87-1.683,1.179-2.618,0.795
			c-0.128-0.057-0.259-0.125-0.38-0.206l-88.042-59.137c-0.991-0.666-1.255-2.007-0.589-2.999l4.724-7.033l74.609,50.115
			c2.859,1.921,4.376,2.518,5.626,1.968c0.108-0.045,0.208-0.105,0.318-0.168c1.179-0.735,2.192-2.579,4.054-5.35l23.676-35.248
			l9.98,6.704C194.917,302.601,195.181,303.943,194.515,304.934z"/>
		<path style="opacity:0.35;fill:#005B5B;" d="M182.764,302.904c0,0-5.208,7.753-8.118,12.086c-2.91,4.333,2.06,9.988,6.196,3.831
			s6.663-9.919,8.348-12.428C192.177,301.947,186.287,297.66,182.764,302.904z"/>
		<path style="opacity:0.54;fill:#FFFFFF;" d="M180.636,314.201c-0.373-0.25-0.471-0.755-0.221-1.127l7.505-11.173
			c0.25-0.372,0.755-0.472,1.127-0.221c0.373,0.25,0.472,0.755,0.221,1.127l-7.505,11.173
			C181.514,314.352,181.009,314.451,180.636,314.201z"/>
		<path style="opacity:0.54;fill:#FFFFFF;" d="M165.513,331.522c-0.743,1.766-1.632,3.433-2.578,5.063
			c-0.463,0.807-0.926,1.608-1.553,2.496c-0.348,0.433-0.706,0.883-1.238,1.303c-0.496,0.42-1.187,0.8-1.921,0.939l-0.551,0.091
			l-0.531,0.003c-0.367,0.012-0.667-0.069-0.995-0.119c-0.619-0.136-1.174-0.341-1.665-0.593c-0.978-0.484-1.862-1.096-2.589-1.677
			c-1.489-1.155-2.949-2.353-4.318-3.685c-0.327-0.318-0.334-0.841-0.016-1.168c0.246-0.253,0.616-0.313,0.922-0.181
			c1.752,0.764,3.413,1.662,5.045,2.604c0.829,0.471,1.533,0.879,2.269,1.171c0.725,0.295,1.364,0.414,1.718,0.307
			c0.339-0.052,0.789-0.383,1.299-1.008c0.52-0.603,1.05-1.402,1.643-2.15c1.151-1.492,2.358-2.946,3.712-4.301
			c0.323-0.323,0.847-0.324,1.171-0.001C165.58,330.861,165.639,331.221,165.513,331.522z"/>
		<polygon style="opacity:0.09;fill:#E6FFF8;" points="104.715,273.357 81.289,281.92 75.609,283.996 83.092,272.856 
			88.894,270.598 122.005,257.726 125.872,256.224 134.942,262.316 130.987,263.76 		"/>
		<polygon style="opacity:0.09;fill:#E6FFF8;" points="127.969,292.539 110.637,300.204 96.36,306.526 92.682,308.156 
			75.466,296.592 79.594,295.049 104.963,285.56 112.724,282.66 119.435,280.142 119.446,280.14 131.051,275.8 131.056,275.793 
			131.067,275.791 142.525,271.51 146.446,270.043 159.285,278.667 155.607,280.297 149.269,283.105 142.822,285.957 		"/>
		<polygon style="opacity:0.09;fill:#E6FFF8;" points="192.531,307.888 178.413,328.907 172.316,331.603 163.31,335.584 
			161.177,336.53 157.283,338.249 156.96,338.394 155.096,339.217 149.033,341.906 145.355,343.536 128.139,331.972 132.06,330.505 
			132.267,330.43 140.386,327.389 157.636,320.94 158.001,320.804 165.396,318.04 166.601,317.587 169.714,316.419 172.108,315.522 
			172.119,315.52 175.02,314.435 182.311,311.709 183.724,311.18 183.728,311.174 183.74,311.171 186.733,310.051 186.81,310.024 		
			"/>
		<polygon style="opacity:0.09;fill:#E6FFF8;" points="183.683,295.055 180.247,296.848 148.769,313.292 148.765,313.298 
			148.754,313.301 136.159,319.872 136.154,319.879 124.952,325.731 121.517,327.524 105.097,316.495 108.741,314.842 
			115.396,311.826 123.088,308.343 123.093,308.336 132.101,304.249 138.39,301.398 154.593,294.06 167.428,288.237 
			171.073,286.585 		"/>
		<path style="opacity:0.17;fill:#E6FFF8;" d="M146.095,269.808c-1.165,0.088-2.611-0.237-4.35-1.405l-29.078-19.531
			c-7.633-5.127-7.979-4.861-11.346-0.839c-2.731,3.264-16.816,23.112-22.066,30.535l23.63-35.18
			c0.666-0.991,2.007-1.255,2.999-0.589L146.095,269.808z"/>
	</g>
	<g>
		<polygon style="fill:none;stroke:#6581E5;stroke-width:3.1397;stroke-miterlimit:10;" points="247.364,342.946 226.432,105.377 
			501.155,100.144 481.793,346.086 		"/>
		<g>
			<g>
				<path style="fill:none;stroke:#9882E8;stroke-width:2.1401;stroke-miterlimit:10;" d="M308.761,138.554l-3.224,0.645
					c-6.442,1.288-12.709-2.89-13.997-9.332l-4.646-23.238c-1.288-6.442,2.89-12.709,9.332-13.997l3.224-0.645
					c6.442-1.288,12.709,2.89,13.997,9.332l4.646,23.238C319.382,131,315.204,137.266,308.761,138.554z"/>
				<polygon style="fill:#6646BC;" points="272.557,123.105 274.835,150.54 341.882,137.135 333.423,110.935 				"/>
				<polygon style="fill:#1C0B5B;" points="328.154,116.346 337.539,118.822 271.385,132.049 279.096,126.155 272.151,123.186 
					333.423,110.935 				"/>
				<path style="fill:none;stroke:#9882E8;stroke-width:2.1401;stroke-miterlimit:10;" d="M309.91,144.301l-3.224,0.645
					c-6.442,1.288-12.709-2.89-13.997-9.332l-4.646-23.238c-1.288-6.442,2.89-12.709,9.332-13.997l3.224-0.645
					c6.442-1.288,12.709,2.89,13.997,9.332l4.646,23.238C320.531,136.746,316.353,143.013,309.91,144.301z"/>
				<polygon style="fill:#6646BC;" points="362.089,191.398 276.629,208.486 271.385,132.049 278.009,130.725 299.626,126.41 
					312.518,123.832 337.539,118.822 				"/>
				<polygon style="opacity:0.53;fill:#A28CF2;" points="282.854,205.349 285.401,206.732 276.629,208.486 271.385,132.049 
					278.009,130.725 				"/>
				<polygon style="opacity:0.41;fill:#5933A3;" points="288.842,206.044 332.156,187.046 312.518,123.832 337.539,118.822 
					362.089,191.398 				"/>
			</g>
			<g>
				<path style="fill:none;stroke:#FCE891;stroke-width:2.1401;stroke-miterlimit:10;" d="M412.728,141.93l3.248,0.513
					c6.489,1.025,12.581-3.405,13.606-9.894l3.698-23.408c1.025-6.489-3.405-12.581-9.894-13.606l-3.248-0.513
					c-6.489-1.025-12.581,3.405-13.606,9.894l-3.698,23.408C401.809,134.813,406.238,140.904,412.728,141.93z"/>
				<polygon style="fill:#EFD75C;" points="448.274,125.021 447.113,152.526 379.577,141.858 386.963,115.336 				"/>
				<polygon style="fill:#C4590A;" points="392.448,120.528 383.172,123.384 449.809,133.91 441.864,128.334 448.682,125.085 
					386.963,115.336 				"/>
				<path style="fill:none;stroke:#FCE891;stroke-width:2.1401;stroke-miterlimit:10;" d="M411.813,147.718l3.248,0.513
					c6.489,1.025,12.581-3.405,13.606-9.894l3.697-23.408c1.025-6.489-3.405-12.581-9.894-13.606l-3.248-0.513
					c-6.489-1.025-12.581,3.405-13.606,9.894l-3.698,23.408C400.895,140.602,405.324,146.693,411.813,147.718z"/>
				<polygon style="fill:#F2B549;" points="361.593,196.898 447.678,210.496 449.809,133.91 443.136,132.856 421.362,129.423 
					408.375,127.372 383.172,123.384 				"/>
				<polygon style="fill:#FFF0B0;" points="441.329,207.616 438.842,209.1 447.678,210.496 449.809,133.91 443.136,132.856 				"/>
				<polygon style="opacity:0.39;fill:#DB7835;" points="435.375,208.553 391.324,191.332 408.375,127.372 383.172,123.384 
					361.593,196.898 				"/>
			</g>
			<polygon style="fill:#F60166;" points="468.025,265.232 274.774,262.437 267.866,262.335 268.321,202.144 462.776,187.296 
				463.844,187.216 			"/>
			<path style="fill:#6646BC;" d="M268.855,269.118c0,0.136,0.011,0.511,0.023,1.091l-0.659,0.034L268.855,269.118z"/>
			<path style="fill:#6646BC;" d="M462.015,334.614l-179.527-6.465l-11.827-0.432c0,0-1.579-49.33-1.784-57.509l191.32-9.464
				l0.046,1.715L462.015,334.614z"/>
			<polygon style="fill:#F6CB02;" points="489.717,307.381 516.363,276.75 527.569,301.155 			"/>
			<polygon style="fill:#F6CB02;" points="487.309,312.874 503.745,336.781 510.718,316.609 			"/>
			<polygon style="fill:#F6CB02;" points="261.384,274.379 244.559,237.432 226.87,257.638 			"/>
			<polygon style="fill:#F6CB02;" points="253.872,294.535 237.436,318.441 230.463,298.27 			"/>
			<polygon style="fill:#6646BC;" points="465.653,303.686 467.075,338.299 425.665,336.086 470.236,341.934 			"/>
			<polygon style="fill:#F60166;" points="468.316,201.857 465.89,180.998 443.526,181.845 468.073,176.633 			"/>
			<path style="fill:#F60166;" d="M277.046,195.096c0,0-14.211,0.768-14.595,1.92c-0.384,1.152-1.536,43.016-1.536,43.016
				l-4.993-49.546L277.046,195.096z"/>
			<path style="fill:#6646BC;" d="M263.988,312.622c0,1.536,2.305,19.204,2.305,19.204l21.892,7.297l-26.885-4.609L263.988,312.622z
				"/>
			<path style="fill:#F60166;" d="M268.638,131.858c0,0-24.436,11.278-35.338,34.962c-10.902,23.684,1.504,42.481,1.504,42.481
				l13.158-7.143l0.752,27.067l-31.579-0.376l3.759-12.406c0,0-15.413-17.293,1.128-50.751S268.638,131.858,268.638,131.858z"/>
			<path style="fill:#6646BC;" d="M469.356,293.484c0,0,22.659-14.522,30.211-39.476c7.552-24.955-7.313-41.874-7.313-41.874
				l-12.054,8.879l-4.455-26.709l31.332-3.957l-2.023,12.804c0,0,17.638,15.017,5.84,50.427
				C499.096,288.989,469.356,293.484,469.356,293.484z"/>
			<g>
				
					<text transform="matrix(1 0 0 1 283.3594 250.3622)" style="fill:#FFFFFF; font-family:'LeagueSpartan-Bold'; font-size:48.2083px;">CASH!</text>
			</g>
			<g>
				
					<text transform="matrix(1 0 0 1 291.8301 316.4872)" style="fill:#FFFFFF; font-family:'LeagueSpartan-Bold'; font-size:46.3673px;">BACK!</text>
			</g>
			<polygon style="fill:#F45DA2;" points="463.015,189.784 279.534,209.04 274.774,262.437 267.866,262.335 268.321,202.144 
				462.776,187.296 			"/>
			<path style="opacity:0.41;fill:#5933A3;" d="M268.855,269.118c0,0.136,0.011,0.511,0.023,1.091l-0.659,0.034L268.855,269.118z"/>
			<path style="opacity:0.41;fill:#5933A3;" d="M278.398,277.002l4.09,51.147l-11.827-0.432c0,0-1.579-49.33-1.784-57.509
				l191.32-9.464l0.046,1.715L278.398,277.002z"/>
		</g>
	</g>
	<!-- <path style="fill:#3F598E;" d="M555.779,409.663h-380.32c-9.071,0-16.424-7.353-16.424-16.424v-9.49
		c0-9.071,7.354-16.424,16.424-16.424h380.32c9.071,0,16.424,7.353,16.424,16.424v9.49
		C572.203,402.309,564.85,409.663,555.779,409.663z"/>
	<rect x="167.064" y="377.544" style="fill:none;" width="399.299" height="28.469"/> -->
	<!-- <text transform="matrix(1 0 0 1 167.0645 385.6951)"><tspan x="0" y="0" style="fill:#E9E9E9; font-family:'FiraSans-ExtraLight'; font-size:11px;">Lorem ipsum dolor sit amet, consectetuer adipiscing elit, sed diam nonummy </tspan><tspan x="0" y="13.199" style="fill:#E9E9E9; font-family:'FiraSans-ExtraLight'; font-size:11px;">nibh euismod tincidunt ut laoreet dolore magna aliquam erat volutpat. Ut wisi </tspan></text> -->
</g>
</svg>
