<?xml version="1.0" encoding="utf-8"?>
<!-- Generator: Adobe Illustrator 27.5.0, SVG Export Plug-In . SVG Version: 6.00 Build 0)  -->
<svg version="1.1" xmlns="http://www.w3.org/2000/svg" xmlns:xlink="http://www.w3.org/1999/xlink" x="0px" y="0px"
	 viewBox="0 0 750 500" style="enable-background:new 0 0 750 500;" xml:space="preserve">
<g id="BACKGROUND">
	<rect style="fill:#0E1927;" width="750" height="500"/>
</g>
<g id="OBJECTS">
	<g>
		<g>
			<defs>
				<rect id="SVGID_1_" width="750" height="500"/>
			</defs>
			<clipPath id="SVGID_00000049215938442130630180000004267224950158015636_">
				<use xlink:href="#SVGID_1_"  style="overflow:visible;"/>
			</clipPath>
			<g style="clip-path:url(#SVGID_00000049215938442130630180000004267224950158015636_);">
				<g>
					<defs>
						<circle id="SVGID_00000049937508578562072330000017652988767864656272_" cx="437.843" cy="42.319" r="89.872"/>
					</defs>
					<clipPath id="SVGID_00000142159906430507153530000017378942501370952081_">
						<use xlink:href="#SVGID_00000049937508578562072330000017652988767864656272_"  style="overflow:visible;"/>
					</clipPath>
					<g style="clip-path:url(#SVGID_00000142159906430507153530000017378942501370952081_);">
						<line style="fill:none;stroke:#244163;stroke-miterlimit:10;" x1="578.841" y1="55.861" x2="424.301" y2="-98.679"/>
						<line style="fill:none;stroke:#244163;stroke-miterlimit:10;" x1="576.13" y1="58.573" x2="421.589" y2="-95.967"/>
						<line style="fill:none;stroke:#244163;stroke-miterlimit:10;" x1="573.418" y1="61.285" x2="418.877" y2="-93.255"/>
						<line style="fill:none;stroke:#244163;stroke-miterlimit:10;" x1="570.706" y1="63.997" x2="416.166" y2="-90.544"/>
						<line style="fill:none;stroke:#244163;stroke-miterlimit:10;" x1="567.994" y1="66.709" x2="413.454" y2="-87.832"/>
						<line style="fill:none;stroke:#244163;stroke-miterlimit:10;" x1="565.282" y1="69.421" x2="410.742" y2="-85.12"/>
						<line style="fill:none;stroke:#244163;stroke-miterlimit:10;" x1="562.57" y1="72.132" x2="408.03" y2="-82.408"/>
						<line style="fill:none;stroke:#244163;stroke-miterlimit:10;" x1="559.859" y1="74.844" x2="405.318" y2="-79.696"/>
						<line style="fill:none;stroke:#244163;stroke-miterlimit:10;" x1="557.147" y1="77.556" x2="402.606" y2="-76.984"/>
						<line style="fill:none;stroke:#244163;stroke-miterlimit:10;" x1="554.435" y1="80.268" x2="399.895" y2="-74.272"/>
						<line style="fill:none;stroke:#244163;stroke-miterlimit:10;" x1="551.723" y1="82.98" x2="397.183" y2="-71.561"/>
						<line style="fill:none;stroke:#244163;stroke-miterlimit:10;" x1="549.011" y1="85.692" x2="394.471" y2="-68.849"/>
						<line style="fill:none;stroke:#244163;stroke-miterlimit:10;" x1="546.299" y1="88.404" x2="391.759" y2="-66.137"/>
						<line style="fill:none;stroke:#244163;stroke-miterlimit:10;" x1="543.588" y1="91.115" x2="389.047" y2="-63.425"/>
						<line style="fill:none;stroke:#244163;stroke-miterlimit:10;" x1="540.876" y1="93.827" x2="386.335" y2="-60.713"/>
						<line style="fill:none;stroke:#244163;stroke-miterlimit:10;" x1="538.164" y1="96.539" x2="383.624" y2="-58.001"/>
						<line style="fill:none;stroke:#244163;stroke-miterlimit:10;" x1="535.452" y1="99.251" x2="380.912" y2="-55.29"/>
						<line style="fill:none;stroke:#244163;stroke-miterlimit:10;" x1="532.74" y1="101.963" x2="378.2" y2="-52.578"/>
						<line style="fill:none;stroke:#244163;stroke-miterlimit:10;" x1="530.029" y1="104.674" x2="375.488" y2="-49.866"/>
						<line style="fill:none;stroke:#244163;stroke-miterlimit:10;" x1="527.317" y1="107.386" x2="372.776" y2="-47.154"/>
						<line style="fill:none;stroke:#244163;stroke-miterlimit:10;" x1="524.605" y1="110.098" x2="370.064" y2="-44.442"/>
						<line style="fill:none;stroke:#244163;stroke-miterlimit:10;" x1="521.893" y1="112.81" x2="367.353" y2="-41.73"/>
						<line style="fill:none;stroke:#244163;stroke-miterlimit:10;" x1="519.181" y1="115.522" x2="364.641" y2="-39.019"/>
						<line style="fill:none;stroke:#244163;stroke-miterlimit:10;" x1="516.469" y1="118.234" x2="361.929" y2="-36.307"/>
						<line style="fill:none;stroke:#244163;stroke-miterlimit:10;" x1="513.758" y1="120.945" x2="359.217" y2="-33.595"/>
						<line style="fill:none;stroke:#244163;stroke-miterlimit:10;" x1="511.046" y1="123.657" x2="356.505" y2="-30.883"/>
						<line style="fill:none;stroke:#244163;stroke-miterlimit:10;" x1="508.334" y1="126.369" x2="353.793" y2="-28.171"/>
						<line style="fill:none;stroke:#244163;stroke-miterlimit:10;" x1="505.622" y1="129.081" x2="351.082" y2="-25.459"/>
						<line style="fill:none;stroke:#244163;stroke-miterlimit:10;" x1="502.91" y1="131.793" x2="348.37" y2="-22.748"/>
						<line style="fill:none;stroke:#244163;stroke-miterlimit:10;" x1="500.198" y1="134.505" x2="345.658" y2="-20.036"/>
						<line style="fill:none;stroke:#244163;stroke-miterlimit:10;" x1="497.487" y1="137.216" x2="342.946" y2="-17.324"/>
						<line style="fill:none;stroke:#244163;stroke-miterlimit:10;" x1="494.775" y1="139.928" x2="340.234" y2="-14.612"/>
						<line style="fill:none;stroke:#244163;stroke-miterlimit:10;" x1="492.063" y1="142.64" x2="337.522" y2="-11.9"/>
						<line style="fill:none;stroke:#244163;stroke-miterlimit:10;" x1="489.351" y1="145.352" x2="334.811" y2="-9.189"/>
						<line style="fill:none;stroke:#244163;stroke-miterlimit:10;" x1="486.639" y1="148.064" x2="332.099" y2="-6.477"/>
						<line style="fill:none;stroke:#244163;stroke-miterlimit:10;" x1="483.927" y1="150.776" x2="329.387" y2="-3.765"/>
						<line style="fill:none;stroke:#244163;stroke-miterlimit:10;" x1="481.216" y1="153.487" x2="326.675" y2="-1.053"/>
						<line style="fill:none;stroke:#244163;stroke-miterlimit:10;" x1="478.504" y1="156.199" x2="323.963" y2="1.659"/>
						<line style="fill:none;stroke:#244163;stroke-miterlimit:10;" x1="475.792" y1="158.911" x2="321.251" y2="4.371"/>
						<line style="fill:none;stroke:#244163;stroke-miterlimit:10;" x1="473.08" y1="161.623" x2="318.54" y2="7.082"/>
						<line style="fill:none;stroke:#244163;stroke-miterlimit:10;" x1="470.368" y1="164.335" x2="315.828" y2="9.794"/>
						<line style="fill:none;stroke:#244163;stroke-miterlimit:10;" x1="467.656" y1="167.046" x2="313.116" y2="12.506"/>
						<line style="fill:none;stroke:#244163;stroke-miterlimit:10;" x1="464.945" y1="169.758" x2="310.404" y2="15.218"/>
						<line style="fill:none;stroke:#244163;stroke-miterlimit:10;" x1="462.233" y1="172.47" x2="307.692" y2="17.93"/>
						<line style="fill:none;stroke:#244163;stroke-miterlimit:10;" x1="459.521" y1="175.182" x2="304.98" y2="20.642"/>
						<line style="fill:none;stroke:#244163;stroke-miterlimit:10;" x1="456.809" y1="177.894" x2="302.269" y2="23.353"/>
						<line style="fill:none;stroke:#244163;stroke-miterlimit:10;" x1="454.097" y1="180.606" x2="299.557" y2="26.065"/>
						<line style="fill:none;stroke:#244163;stroke-miterlimit:10;" x1="451.385" y1="183.318" x2="296.845" y2="28.777"/>
					</g>
				</g>
				<g>
					<defs>
						<circle id="SVGID_00000060730385465675815010000016329454011373243267_" cx="683.794" cy="440.902" r="89.872"/>
					</defs>
					<clipPath id="SVGID_00000043448843430337706210000014624236854994879908_">
						<use xlink:href="#SVGID_00000060730385465675815010000016329454011373243267_"  style="overflow:visible;"/>
					</clipPath>
					<g style="clip-path:url(#SVGID_00000043448843430337706210000014624236854994879908_);">
						<line style="fill:none;stroke:#244163;stroke-miterlimit:10;" x1="824.792" y1="454.444" x2="670.252" y2="299.904"/>
						<line style="fill:none;stroke:#244163;stroke-miterlimit:10;" x1="822.08" y1="457.156" x2="667.54" y2="302.616"/>
						<line style="fill:none;stroke:#244163;stroke-miterlimit:10;" x1="819.369" y1="459.868" x2="664.828" y2="305.328"/>
						<line style="fill:none;stroke:#244163;stroke-miterlimit:10;" x1="816.657" y1="462.58" x2="662.116" y2="308.039"/>
						<line style="fill:none;stroke:#244163;stroke-miterlimit:10;" x1="813.945" y1="465.292" x2="659.404" y2="310.751"/>
						<line style="fill:none;stroke:#244163;stroke-miterlimit:10;" x1="811.233" y1="468.004" x2="656.693" y2="313.463"/>
						<line style="fill:none;stroke:#244163;stroke-miterlimit:10;" x1="808.521" y1="470.715" x2="653.981" y2="316.175"/>
						<line style="fill:none;stroke:#244163;stroke-miterlimit:10;" x1="805.809" y1="473.427" x2="651.269" y2="318.887"/>
						<line style="fill:none;stroke:#244163;stroke-miterlimit:10;" x1="803.098" y1="476.139" x2="648.557" y2="321.599"/>
						<line style="fill:none;stroke:#244163;stroke-miterlimit:10;" x1="800.386" y1="478.851" x2="645.845" y2="324.31"/>
						<line style="fill:none;stroke:#244163;stroke-miterlimit:10;" x1="797.674" y1="481.563" x2="643.133" y2="327.022"/>
						<line style="fill:none;stroke:#244163;stroke-miterlimit:10;" x1="794.962" y1="484.275" x2="640.422" y2="329.734"/>
						<line style="fill:none;stroke:#244163;stroke-miterlimit:10;" x1="792.25" y1="486.986" x2="637.71" y2="332.446"/>
						<line style="fill:none;stroke:#244163;stroke-miterlimit:10;" x1="789.538" y1="489.698" x2="634.998" y2="335.158"/>
						<line style="fill:none;stroke:#244163;stroke-miterlimit:10;" x1="786.827" y1="492.41" x2="632.286" y2="337.87"/>
						<line style="fill:none;stroke:#244163;stroke-miterlimit:10;" x1="784.115" y1="495.122" x2="629.574" y2="340.582"/>
						<line style="fill:none;stroke:#244163;stroke-miterlimit:10;" x1="781.403" y1="497.834" x2="626.862" y2="343.293"/>
						<line style="fill:none;stroke:#244163;stroke-miterlimit:10;" x1="778.691" y1="500.546" x2="624.151" y2="346.005"/>
						<line style="fill:none;stroke:#244163;stroke-miterlimit:10;" x1="775.979" y1="503.257" x2="621.439" y2="348.717"/>
						<line style="fill:none;stroke:#244163;stroke-miterlimit:10;" x1="773.267" y1="505.969" x2="618.727" y2="351.429"/>
						<line style="fill:none;stroke:#244163;stroke-miterlimit:10;" x1="770.556" y1="508.681" x2="616.015" y2="354.141"/>
						<line style="fill:none;stroke:#244163;stroke-miterlimit:10;" x1="767.844" y1="511.393" x2="613.303" y2="356.852"/>
						<line style="fill:none;stroke:#244163;stroke-miterlimit:10;" x1="765.132" y1="514.105" x2="610.591" y2="359.564"/>
						<line style="fill:none;stroke:#244163;stroke-miterlimit:10;" x1="762.42" y1="516.817" x2="607.88" y2="362.276"/>
						<line style="fill:none;stroke:#244163;stroke-miterlimit:10;" x1="759.708" y1="519.528" x2="605.168" y2="364.988"/>
						<line style="fill:none;stroke:#244163;stroke-miterlimit:10;" x1="756.996" y1="522.24" x2="602.456" y2="367.7"/>
						<line style="fill:none;stroke:#244163;stroke-miterlimit:10;" x1="754.285" y1="524.952" x2="599.744" y2="370.412"/>
						<line style="fill:none;stroke:#244163;stroke-miterlimit:10;" x1="751.573" y1="527.664" x2="597.032" y2="373.123"/>
						<line style="fill:none;stroke:#244163;stroke-miterlimit:10;" x1="748.861" y1="530.376" x2="594.32" y2="375.835"/>
						<line style="fill:none;stroke:#244163;stroke-miterlimit:10;" x1="746.149" y1="533.088" x2="591.609" y2="378.547"/>
						<line style="fill:none;stroke:#244163;stroke-miterlimit:10;" x1="743.437" y1="535.799" x2="588.897" y2="381.259"/>
						<line style="fill:none;stroke:#244163;stroke-miterlimit:10;" x1="740.725" y1="538.511" x2="586.185" y2="383.971"/>
						<line style="fill:none;stroke:#244163;stroke-miterlimit:10;" x1="738.014" y1="541.223" x2="583.473" y2="386.683"/>
						<line style="fill:none;stroke:#244163;stroke-miterlimit:10;" x1="735.302" y1="543.935" x2="580.761" y2="389.394"/>
						<line style="fill:none;stroke:#244163;stroke-miterlimit:10;" x1="732.59" y1="546.647" x2="578.049" y2="392.106"/>
						<line style="fill:none;stroke:#244163;stroke-miterlimit:10;" x1="729.878" y1="549.359" x2="575.338" y2="394.818"/>
						<line style="fill:none;stroke:#244163;stroke-miterlimit:10;" x1="727.166" y1="552.07" x2="572.626" y2="397.53"/>
						<line style="fill:none;stroke:#244163;stroke-miterlimit:10;" x1="724.454" y1="554.782" x2="569.914" y2="400.242"/>
						<line style="fill:none;stroke:#244163;stroke-miterlimit:10;" x1="721.743" y1="557.494" x2="567.202" y2="402.954"/>
						<line style="fill:none;stroke:#244163;stroke-miterlimit:10;" x1="719.031" y1="560.206" x2="564.49" y2="405.665"/>
						<line style="fill:none;stroke:#244163;stroke-miterlimit:10;" x1="716.319" y1="562.918" x2="561.779" y2="408.377"/>
						<line style="fill:none;stroke:#244163;stroke-miterlimit:10;" x1="713.607" y1="565.63" x2="559.067" y2="411.089"/>
						<line style="fill:none;stroke:#244163;stroke-miterlimit:10;" x1="710.895" y1="568.341" x2="556.355" y2="413.801"/>
						<line style="fill:none;stroke:#244163;stroke-miterlimit:10;" x1="708.183" y1="571.053" x2="553.643" y2="416.513"/>
						<line style="fill:none;stroke:#244163;stroke-miterlimit:10;" x1="705.472" y1="573.765" x2="550.931" y2="419.224"/>
						<line style="fill:none;stroke:#244163;stroke-miterlimit:10;" x1="702.76" y1="576.477" x2="548.219" y2="421.936"/>
						<line style="fill:none;stroke:#244163;stroke-miterlimit:10;" x1="700.048" y1="579.189" x2="545.508" y2="424.648"/>
						<line style="fill:none;stroke:#244163;stroke-miterlimit:10;" x1="697.336" y1="581.901" x2="542.796" y2="427.36"/>
					</g>
				</g>
				<g>
					<defs>
						<circle id="SVGID_00000163035289797652324300000002071301238918578839_" cx="338.468" cy="502.02" r="89.872"/>
					</defs>
					<clipPath id="SVGID_00000168114450143881141210000018234729395407114410_">
						<use xlink:href="#SVGID_00000163035289797652324300000002071301238918578839_"  style="overflow:visible;"/>
					</clipPath>
					<g style="clip-path:url(#SVGID_00000168114450143881141210000018234729395407114410_);">
						<line style="fill:none;stroke:#244163;stroke-miterlimit:10;" x1="479.466" y1="515.562" x2="324.926" y2="361.022"/>
						<line style="fill:none;stroke:#244163;stroke-miterlimit:10;" x1="476.754" y1="518.274" x2="322.214" y2="363.733"/>
						<line style="fill:none;stroke:#244163;stroke-miterlimit:10;" x1="474.043" y1="520.986" x2="319.502" y2="366.445"/>
						<line style="fill:none;stroke:#244163;stroke-miterlimit:10;" x1="471.331" y1="523.697" x2="316.79" y2="369.157"/>
						<line style="fill:none;stroke:#244163;stroke-miterlimit:10;" x1="468.619" y1="526.409" x2="314.078" y2="371.869"/>
						<line style="fill:none;stroke:#244163;stroke-miterlimit:10;" x1="465.907" y1="529.121" x2="311.367" y2="374.581"/>
						<line style="fill:none;stroke:#244163;stroke-miterlimit:10;" x1="463.195" y1="531.833" x2="308.655" y2="377.293"/>
						<line style="fill:none;stroke:#244163;stroke-miterlimit:10;" x1="460.483" y1="534.545" x2="305.943" y2="380.004"/>
						<line style="fill:none;stroke:#244163;stroke-miterlimit:10;" x1="457.772" y1="537.257" x2="303.231" y2="382.716"/>
						<line style="fill:none;stroke:#244163;stroke-miterlimit:10;" x1="455.06" y1="539.968" x2="300.519" y2="385.428"/>
						<line style="fill:none;stroke:#244163;stroke-miterlimit:10;" x1="452.348" y1="542.68" x2="297.807" y2="388.14"/>
						<line style="fill:none;stroke:#244163;stroke-miterlimit:10;" x1="449.636" y1="545.392" x2="295.096" y2="390.852"/>
						<line style="fill:none;stroke:#244163;stroke-miterlimit:10;" x1="446.924" y1="548.104" x2="292.384" y2="393.564"/>
						<line style="fill:none;stroke:#244163;stroke-miterlimit:10;" x1="444.212" y1="550.816" x2="289.672" y2="396.275"/>
						<line style="fill:none;stroke:#244163;stroke-miterlimit:10;" x1="441.501" y1="553.528" x2="286.96" y2="398.987"/>
						<line style="fill:none;stroke:#244163;stroke-miterlimit:10;" x1="438.789" y1="556.239" x2="284.248" y2="401.699"/>
						<line style="fill:none;stroke:#244163;stroke-miterlimit:10;" x1="436.077" y1="558.951" x2="281.536" y2="404.411"/>
						<line style="fill:none;stroke:#244163;stroke-miterlimit:10;" x1="433.365" y1="561.663" x2="278.825" y2="407.123"/>
						<line style="fill:none;stroke:#244163;stroke-miterlimit:10;" x1="430.653" y1="564.375" x2="276.113" y2="409.834"/>
						<line style="fill:none;stroke:#244163;stroke-miterlimit:10;" x1="427.941" y1="567.087" x2="273.401" y2="412.546"/>
						<line style="fill:none;stroke:#244163;stroke-miterlimit:10;" x1="425.23" y1="569.799" x2="270.689" y2="415.258"/>
						<line style="fill:none;stroke:#244163;stroke-miterlimit:10;" x1="422.518" y1="572.51" x2="267.977" y2="417.97"/>
						<line style="fill:none;stroke:#244163;stroke-miterlimit:10;" x1="419.806" y1="575.222" x2="265.266" y2="420.682"/>
						<line style="fill:none;stroke:#244163;stroke-miterlimit:10;" x1="417.094" y1="577.934" x2="262.554" y2="423.394"/>
						<line style="fill:none;stroke:#244163;stroke-miterlimit:10;" x1="414.382" y1="580.646" x2="259.842" y2="426.105"/>
						<line style="fill:none;stroke:#244163;stroke-miterlimit:10;" x1="411.671" y1="583.358" x2="257.13" y2="428.817"/>
						<line style="fill:none;stroke:#244163;stroke-miterlimit:10;" x1="408.959" y1="586.07" x2="254.418" y2="431.529"/>
						<line style="fill:none;stroke:#244163;stroke-miterlimit:10;" x1="406.247" y1="588.781" x2="251.706" y2="434.241"/>
						<line style="fill:none;stroke:#244163;stroke-miterlimit:10;" x1="403.535" y1="591.493" x2="248.995" y2="436.953"/>
						<line style="fill:none;stroke:#244163;stroke-miterlimit:10;" x1="400.823" y1="594.205" x2="246.283" y2="439.665"/>
						<line style="fill:none;stroke:#244163;stroke-miterlimit:10;" x1="398.111" y1="596.917" x2="243.571" y2="442.376"/>
						<line style="fill:none;stroke:#244163;stroke-miterlimit:10;" x1="395.4" y1="599.629" x2="240.859" y2="445.088"/>
						<line style="fill:none;stroke:#244163;stroke-miterlimit:10;" x1="392.688" y1="602.341" x2="238.147" y2="447.8"/>
						<line style="fill:none;stroke:#244163;stroke-miterlimit:10;" x1="389.976" y1="605.052" x2="235.435" y2="450.512"/>
						<line style="fill:none;stroke:#244163;stroke-miterlimit:10;" x1="387.264" y1="607.764" x2="232.724" y2="453.224"/>
						<line style="fill:none;stroke:#244163;stroke-miterlimit:10;" x1="384.552" y1="610.476" x2="230.012" y2="455.936"/>
						<line style="fill:none;stroke:#244163;stroke-miterlimit:10;" x1="381.84" y1="613.188" x2="227.3" y2="458.647"/>
						<line style="fill:none;stroke:#244163;stroke-miterlimit:10;" x1="379.129" y1="615.9" x2="224.588" y2="461.359"/>
						<line style="fill:none;stroke:#244163;stroke-miterlimit:10;" x1="376.417" y1="618.612" x2="221.876" y2="464.071"/>
						<line style="fill:none;stroke:#244163;stroke-miterlimit:10;" x1="373.705" y1="621.323" x2="219.164" y2="466.783"/>
						<line style="fill:none;stroke:#244163;stroke-miterlimit:10;" x1="370.993" y1="624.035" x2="216.453" y2="469.495"/>
						<line style="fill:none;stroke:#244163;stroke-miterlimit:10;" x1="368.281" y1="626.747" x2="213.741" y2="472.207"/>
						<line style="fill:none;stroke:#244163;stroke-miterlimit:10;" x1="365.569" y1="629.459" x2="211.029" y2="474.918"/>
						<line style="fill:none;stroke:#244163;stroke-miterlimit:10;" x1="362.858" y1="632.171" x2="208.317" y2="477.63"/>
						<line style="fill:none;stroke:#244163;stroke-miterlimit:10;" x1="360.146" y1="634.883" x2="205.605" y2="480.342"/>
						<line style="fill:none;stroke:#244163;stroke-miterlimit:10;" x1="357.434" y1="637.594" x2="202.893" y2="483.054"/>
						<line style="fill:none;stroke:#244163;stroke-miterlimit:10;" x1="354.722" y1="640.306" x2="200.182" y2="485.766"/>
						<line style="fill:none;stroke:#244163;stroke-miterlimit:10;" x1="352.01" y1="643.018" x2="197.47" y2="488.478"/>
					</g>
				</g>
				<g>
					<defs>
						<circle id="SVGID_00000023281423574206344980000000512938802621912751_" cx="64.218" cy="72.387" r="89.872"/>
					</defs>
					<clipPath id="SVGID_00000096739714395727150760000008921094224238615740_">
						<use xlink:href="#SVGID_00000023281423574206344980000000512938802621912751_"  style="overflow:visible;"/>
					</clipPath>
					<g style="clip-path:url(#SVGID_00000096739714395727150760000008921094224238615740_);">
						<line style="fill:none;stroke:#244163;stroke-miterlimit:10;" x1="205.216" y1="85.929" x2="50.676" y2="-68.612"/>
						<line style="fill:none;stroke:#244163;stroke-miterlimit:10;" x1="202.504" y1="88.641" x2="47.964" y2="-65.9"/>
						<line style="fill:none;stroke:#244163;stroke-miterlimit:10;" x1="199.792" y1="91.353" x2="45.252" y2="-63.188"/>
						<line style="fill:none;stroke:#244163;stroke-miterlimit:10;" x1="197.081" y1="94.064" x2="42.54" y2="-60.476"/>
						<line style="fill:none;stroke:#244163;stroke-miterlimit:10;" x1="194.369" y1="96.776" x2="39.828" y2="-57.764"/>
						<line style="fill:none;stroke:#244163;stroke-miterlimit:10;" x1="191.657" y1="99.488" x2="37.117" y2="-55.052"/>
						<line style="fill:none;stroke:#244163;stroke-miterlimit:10;" x1="188.945" y1="102.2" x2="34.405" y2="-52.341"/>
						<line style="fill:none;stroke:#244163;stroke-miterlimit:10;" x1="186.233" y1="104.912" x2="31.693" y2="-49.629"/>
						<line style="fill:none;stroke:#244163;stroke-miterlimit:10;" x1="183.521" y1="107.623" x2="28.981" y2="-46.917"/>
						<line style="fill:none;stroke:#244163;stroke-miterlimit:10;" x1="180.81" y1="110.335" x2="26.269" y2="-44.205"/>
						<line style="fill:none;stroke:#244163;stroke-miterlimit:10;" x1="178.098" y1="113.047" x2="23.557" y2="-41.493"/>
						<line style="fill:none;stroke:#244163;stroke-miterlimit:10;" x1="175.386" y1="115.759" x2="20.846" y2="-38.781"/>
						<line style="fill:none;stroke:#244163;stroke-miterlimit:10;" x1="172.674" y1="118.471" x2="18.134" y2="-36.07"/>
						<line style="fill:none;stroke:#244163;stroke-miterlimit:10;" x1="169.962" y1="121.183" x2="15.422" y2="-33.358"/>
						<line style="fill:none;stroke:#244163;stroke-miterlimit:10;" x1="167.251" y1="123.895" x2="12.71" y2="-30.646"/>
						<line style="fill:none;stroke:#244163;stroke-miterlimit:10;" x1="164.539" y1="126.606" x2="9.998" y2="-27.934"/>
						<line style="fill:none;stroke:#244163;stroke-miterlimit:10;" x1="161.827" y1="129.318" x2="7.286" y2="-25.222"/>
						<line style="fill:none;stroke:#244163;stroke-miterlimit:10;" x1="159.115" y1="132.03" x2="4.575" y2="-22.51"/>
						<line style="fill:none;stroke:#244163;stroke-miterlimit:10;" x1="156.403" y1="134.742" x2="1.863" y2="-19.799"/>
						<line style="fill:none;stroke:#244163;stroke-miterlimit:10;" x1="153.691" y1="137.454" x2="-0.849" y2="-17.087"/>
						<line style="fill:none;stroke:#244163;stroke-miterlimit:10;" x1="150.98" y1="140.165" x2="-3.561" y2="-14.375"/>
						<line style="fill:none;stroke:#244163;stroke-miterlimit:10;" x1="148.268" y1="142.877" x2="-6.273" y2="-11.663"/>
						<line style="fill:none;stroke:#244163;stroke-miterlimit:10;" x1="145.556" y1="145.589" x2="-8.984" y2="-8.951"/>
						<line style="fill:none;stroke:#244163;stroke-miterlimit:10;" x1="142.844" y1="148.301" x2="-11.696" y2="-6.239"/>
						<line style="fill:none;stroke:#244163;stroke-miterlimit:10;" x1="140.132" y1="151.013" x2="-14.408" y2="-3.528"/>
						<line style="fill:none;stroke:#244163;stroke-miterlimit:10;" x1="137.42" y1="153.725" x2="-17.12" y2="-0.816"/>
						<line style="fill:none;stroke:#244163;stroke-miterlimit:10;" x1="134.709" y1="156.436" x2="-19.832" y2="1.896"/>
						<line style="fill:none;stroke:#244163;stroke-miterlimit:10;" x1="131.997" y1="159.148" x2="-22.544" y2="4.608"/>
						<line style="fill:none;stroke:#244163;stroke-miterlimit:10;" x1="129.285" y1="161.86" x2="-25.256" y2="7.32"/>
						<line style="fill:none;stroke:#244163;stroke-miterlimit:10;" x1="126.573" y1="164.572" x2="-27.967" y2="10.031"/>
						<line style="fill:none;stroke:#244163;stroke-miterlimit:10;" x1="123.861" y1="167.284" x2="-30.679" y2="12.743"/>
						<line style="fill:none;stroke:#244163;stroke-miterlimit:10;" x1="121.149" y1="169.996" x2="-33.391" y2="15.455"/>
						<line style="fill:none;stroke:#244163;stroke-miterlimit:10;" x1="118.438" y1="172.708" x2="-36.103" y2="18.167"/>
						<line style="fill:none;stroke:#244163;stroke-miterlimit:10;" x1="115.726" y1="175.419" x2="-38.815" y2="20.879"/>
						<line style="fill:none;stroke:#244163;stroke-miterlimit:10;" x1="113.014" y1="178.131" x2="-41.527" y2="23.591"/>
						<line style="fill:none;stroke:#244163;stroke-miterlimit:10;" x1="110.302" y1="180.843" x2="-44.238" y2="26.302"/>
						<line style="fill:none;stroke:#244163;stroke-miterlimit:10;" x1="107.59" y1="183.555" x2="-46.95" y2="29.014"/>
						<line style="fill:none;stroke:#244163;stroke-miterlimit:10;" x1="104.879" y1="186.267" x2="-49.662" y2="31.726"/>
						<line style="fill:none;stroke:#244163;stroke-miterlimit:10;" x1="102.167" y1="188.978" x2="-52.374" y2="34.438"/>
						<line style="fill:none;stroke:#244163;stroke-miterlimit:10;" x1="99.455" y1="191.69" x2="-55.086" y2="37.15"/>
						<line style="fill:none;stroke:#244163;stroke-miterlimit:10;" x1="96.743" y1="194.402" x2="-57.798" y2="39.862"/>
						<line style="fill:none;stroke:#244163;stroke-miterlimit:10;" x1="94.031" y1="197.114" x2="-60.509" y2="42.574"/>
						<line style="fill:none;stroke:#244163;stroke-miterlimit:10;" x1="91.319" y1="199.826" x2="-63.221" y2="45.285"/>
						<line style="fill:none;stroke:#244163;stroke-miterlimit:10;" x1="88.607" y1="202.538" x2="-65.933" y2="47.997"/>
						<line style="fill:none;stroke:#244163;stroke-miterlimit:10;" x1="85.896" y1="205.249" x2="-68.645" y2="50.709"/>
						<line style="fill:none;stroke:#244163;stroke-miterlimit:10;" x1="83.184" y1="207.961" x2="-71.357" y2="53.421"/>
						<line style="fill:none;stroke:#244163;stroke-miterlimit:10;" x1="80.472" y1="210.673" x2="-74.068" y2="56.133"/>
						<line style="fill:none;stroke:#244163;stroke-miterlimit:10;" x1="77.76" y1="213.385" x2="-76.78" y2="58.845"/>
					</g>
				</g>
			</g>
			<g style="clip-path:url(#SVGID_00000049215938442130630180000004267224950158015636_);">
				<defs>
					<circle id="SVGID_00000171700770247243998910000012246416490730330800_" cx="263.997" cy="251.352" r="89.872"/>
				</defs>
				<clipPath id="SVGID_00000095312361551033803610000002189888013680554646_">
					<use xlink:href="#SVGID_00000171700770247243998910000012246416490730330800_"  style="overflow:visible;"/>
				</clipPath>
				<g style="clip-path:url(#SVGID_00000095312361551033803610000002189888013680554646_);">
					<line style="fill:none;stroke:#244163;stroke-miterlimit:10;" x1="404.995" y1="264.894" x2="250.455" y2="110.354"/>
					<line style="fill:none;stroke:#244163;stroke-miterlimit:10;" x1="402.283" y1="267.606" x2="247.743" y2="113.065"/>
					<line style="fill:none;stroke:#244163;stroke-miterlimit:10;" x1="399.572" y1="270.318" x2="245.031" y2="115.777"/>
					<line style="fill:none;stroke:#244163;stroke-miterlimit:10;" x1="396.86" y1="273.03" x2="242.319" y2="118.489"/>
					<line style="fill:none;stroke:#244163;stroke-miterlimit:10;" x1="394.148" y1="275.741" x2="239.608" y2="121.201"/>
					<line style="fill:none;stroke:#244163;stroke-miterlimit:10;" x1="391.436" y1="278.453" x2="236.896" y2="123.913"/>
					<line style="fill:none;stroke:#244163;stroke-miterlimit:10;" x1="388.724" y1="281.165" x2="234.184" y2="126.625"/>
					<line style="fill:none;stroke:#244163;stroke-miterlimit:10;" x1="386.012" y1="283.877" x2="231.472" y2="129.336"/>
					<line style="fill:none;stroke:#244163;stroke-miterlimit:10;" x1="383.301" y1="286.589" x2="228.76" y2="132.048"/>
					<line style="fill:none;stroke:#244163;stroke-miterlimit:10;" x1="380.589" y1="289.301" x2="226.048" y2="134.76"/>
					<line style="fill:none;stroke:#244163;stroke-miterlimit:10;" x1="377.877" y1="292.012" x2="223.337" y2="137.472"/>
					<line style="fill:none;stroke:#244163;stroke-miterlimit:10;" x1="375.165" y1="294.724" x2="220.625" y2="140.184"/>
					<line style="fill:none;stroke:#244163;stroke-miterlimit:10;" x1="372.453" y1="297.436" x2="217.913" y2="142.896"/>
					<line style="fill:none;stroke:#244163;stroke-miterlimit:10;" x1="369.742" y1="300.148" x2="215.201" y2="145.607"/>
					<line style="fill:none;stroke:#244163;stroke-miterlimit:10;" x1="367.03" y1="302.86" x2="212.489" y2="148.319"/>
					<line style="fill:none;stroke:#244163;stroke-miterlimit:10;" x1="364.318" y1="305.572" x2="209.777" y2="151.031"/>
					<line style="fill:none;stroke:#244163;stroke-miterlimit:10;" x1="361.606" y1="308.283" x2="207.066" y2="153.743"/>
					<line style="fill:none;stroke:#244163;stroke-miterlimit:10;" x1="358.894" y1="310.995" x2="204.354" y2="156.455"/>
					<line style="fill:none;stroke:#244163;stroke-miterlimit:10;" x1="356.182" y1="313.707" x2="201.642" y2="159.167"/>
					<line style="fill:none;stroke:#244163;stroke-miterlimit:10;" x1="353.471" y1="316.419" x2="198.93" y2="161.878"/>
					<line style="fill:none;stroke:#244163;stroke-miterlimit:10;" x1="350.759" y1="319.131" x2="196.218" y2="164.59"/>
					<line style="fill:none;stroke:#244163;stroke-miterlimit:10;" x1="348.047" y1="321.842" x2="193.507" y2="167.302"/>
					<line style="fill:none;stroke:#244163;stroke-miterlimit:10;" x1="345.335" y1="324.554" x2="190.795" y2="170.014"/>
					<line style="fill:none;stroke:#244163;stroke-miterlimit:10;" x1="342.623" y1="327.266" x2="188.083" y2="172.726"/>
					<line style="fill:none;stroke:#244163;stroke-miterlimit:10;" x1="339.911" y1="329.978" x2="185.371" y2="175.438"/>
					<line style="fill:none;stroke:#244163;stroke-miterlimit:10;" x1="337.2" y1="332.69" x2="182.659" y2="178.149"/>
					<line style="fill:none;stroke:#244163;stroke-miterlimit:10;" x1="334.488" y1="335.402" x2="179.947" y2="180.861"/>
					<line style="fill:none;stroke:#244163;stroke-miterlimit:10;" x1="331.776" y1="338.113" x2="177.236" y2="183.573"/>
					<line style="fill:none;stroke:#244163;stroke-miterlimit:10;" x1="329.064" y1="340.825" x2="174.524" y2="186.285"/>
					<line style="fill:none;stroke:#244163;stroke-miterlimit:10;" x1="326.352" y1="343.537" x2="171.812" y2="188.997"/>
					<line style="fill:none;stroke:#244163;stroke-miterlimit:10;" x1="323.64" y1="346.249" x2="169.1" y2="191.708"/>
					<line style="fill:none;stroke:#244163;stroke-miterlimit:10;" x1="320.929" y1="348.961" x2="166.388" y2="194.42"/>
					<line style="fill:none;stroke:#244163;stroke-miterlimit:10;" x1="318.217" y1="351.673" x2="163.676" y2="197.132"/>
					<line style="fill:none;stroke:#244163;stroke-miterlimit:10;" x1="315.505" y1="354.384" x2="160.964" y2="199.844"/>
					<line style="fill:none;stroke:#244163;stroke-miterlimit:10;" x1="312.793" y1="357.096" x2="158.253" y2="202.556"/>
					<line style="fill:none;stroke:#244163;stroke-miterlimit:10;" x1="310.081" y1="359.808" x2="155.541" y2="205.268"/>
					<line style="fill:none;stroke:#244163;stroke-miterlimit:10;" x1="307.37" y1="362.52" x2="152.829" y2="207.98"/>
					<line style="fill:none;stroke:#244163;stroke-miterlimit:10;" x1="304.658" y1="365.232" x2="150.117" y2="210.691"/>
					<line style="fill:none;stroke:#244163;stroke-miterlimit:10;" x1="301.946" y1="367.944" x2="147.405" y2="213.403"/>
					<line style="fill:none;stroke:#244163;stroke-miterlimit:10;" x1="299.234" y1="370.655" x2="144.693" y2="216.115"/>
					<line style="fill:none;stroke:#244163;stroke-miterlimit:10;" x1="296.522" y1="373.367" x2="141.982" y2="218.827"/>
					<line style="fill:none;stroke:#244163;stroke-miterlimit:10;" x1="293.81" y1="376.079" x2="139.27" y2="221.539"/>
					<line style="fill:none;stroke:#244163;stroke-miterlimit:10;" x1="291.099" y1="378.791" x2="136.558" y2="224.251"/>
					<line style="fill:none;stroke:#244163;stroke-miterlimit:10;" x1="288.387" y1="381.503" x2="133.846" y2="226.962"/>
					<line style="fill:none;stroke:#244163;stroke-miterlimit:10;" x1="285.675" y1="384.215" x2="131.134" y2="229.674"/>
					<line style="fill:none;stroke:#244163;stroke-miterlimit:10;" x1="282.963" y1="386.926" x2="128.423" y2="232.386"/>
					<line style="fill:none;stroke:#244163;stroke-miterlimit:10;" x1="280.251" y1="389.638" x2="125.711" y2="235.098"/>
					<line style="fill:none;stroke:#244163;stroke-miterlimit:10;" x1="277.539" y1="392.35" x2="122.999" y2="237.81"/>
				</g>
			</g>
		</g>
		<g>
			<g>
				<path style="fill:#00DDFB;" d="M434.75,0c0,0-0.465,63.901,74.393,76.089s141.755-29.704,154.774,40.263
					c13.019,69.967,26.381,120.181,86.083,127.244V0H434.75z"/>
				<path style="fill:#02BBD4;" d="M677.464,115.149c-13.019-69.967-79.917-28.075-154.774-40.263
					C453.898,63.686,448.717,8.819,448.329,0H434.75c0,0-0.465,63.901,74.393,76.089s141.755-29.704,154.774,40.263
					c13.019,69.967,26.381,120.181,86.083,127.244v-3.742C701.699,227.106,689.435,179.479,677.464,115.149z"/>
			</g>
			<g>
				<path style="fill:#D060E1;" d="M0,271.412c0,0,83.341,12.426,99.798,95.007c16.457,82.581,107.351,88.709,188.032,81.56
					C368.511,440.83,392.154,500,392.154,500H0V271.412z"/>
				<path style="fill:#B855C7;" d="M89.584,368.016c16.457,82.581,107.351,88.709,188.032,81.56
					c72.764-6.447,99.131,41.041,103.606,50.424h10.932c0,0-23.644-59.17-104.325-52.021c-80.681,7.149-171.574,1.021-188.032-81.56
					S0,271.411,0,271.411v3.937C22.765,281.689,76.693,303.328,89.584,368.016z"/>
			</g>
		</g>
		<g>
			<defs>
				<rect id="SVGID_00000181779304326472834840000016372185559209361839_" width="750" height="500"/>
			</defs>
			<clipPath id="SVGID_00000183936697861399083120000006551302434907768719_">
				<use xlink:href="#SVGID_00000181779304326472834840000016372185559209361839_"  style="overflow:visible;"/>
			</clipPath>
			<g style="clip-path:url(#SVGID_00000183936697861399083120000006551302434907768719_);">
				<g>
					<defs>
						<circle id="SVGID_00000090978188723017157040000004028177948128260527_" cx="25.316" cy="471.971" r="89.872"/>
					</defs>
					<clipPath id="SVGID_00000144297200724038441010000004947071685081065113_">
						<use xlink:href="#SVGID_00000090978188723017157040000004028177948128260527_"  style="overflow:visible;"/>
					</clipPath>
					<g style="clip-path:url(#SVGID_00000144297200724038441010000004947071685081065113_);">
						<line style="fill:none;stroke:#244163;stroke-miterlimit:10;" x1="166.315" y1="485.513" x2="11.774" y2="330.972"/>
						<line style="fill:none;stroke:#244163;stroke-miterlimit:10;" x1="163.603" y1="488.225" x2="9.063" y2="333.684"/>
						<line style="fill:none;stroke:#244163;stroke-miterlimit:10;" x1="160.891" y1="490.936" x2="6.351" y2="336.396"/>
						<line style="fill:none;stroke:#244163;stroke-miterlimit:10;" x1="158.179" y1="493.648" x2="3.639" y2="339.108"/>
						<line style="fill:none;stroke:#244163;stroke-miterlimit:10;" x1="155.467" y1="496.36" x2="0.927" y2="341.82"/>
						<line style="fill:none;stroke:#244163;stroke-miterlimit:10;" x1="152.756" y1="499.072" x2="-1.785" y2="344.531"/>
						<line style="fill:none;stroke:#244163;stroke-miterlimit:10;" x1="150.044" y1="501.784" x2="-4.497" y2="347.243"/>
						<line style="fill:none;stroke:#244163;stroke-miterlimit:10;" x1="147.332" y1="504.496" x2="-7.208" y2="349.955"/>
						<line style="fill:none;stroke:#244163;stroke-miterlimit:10;" x1="144.62" y1="507.207" x2="-9.92" y2="352.667"/>
						<line style="fill:none;stroke:#244163;stroke-miterlimit:10;" x1="141.908" y1="509.919" x2="-12.632" y2="355.379"/>
						<line style="fill:none;stroke:#244163;stroke-miterlimit:10;" x1="139.196" y1="512.631" x2="-15.344" y2="358.091"/>
						<line style="fill:none;stroke:#244163;stroke-miterlimit:10;" x1="136.485" y1="515.343" x2="-18.056" y2="360.802"/>
						<line style="fill:none;stroke:#244163;stroke-miterlimit:10;" x1="133.773" y1="518.055" x2="-20.768" y2="363.514"/>
						<line style="fill:none;stroke:#244163;stroke-miterlimit:10;" x1="131.061" y1="520.767" x2="-23.479" y2="366.226"/>
						<line style="fill:none;stroke:#244163;stroke-miterlimit:10;" x1="128.349" y1="523.478" x2="-26.191" y2="368.938"/>
						<line style="fill:none;stroke:#244163;stroke-miterlimit:10;" x1="125.637" y1="526.19" x2="-28.903" y2="371.65"/>
						<line style="fill:none;stroke:#244163;stroke-miterlimit:10;" x1="122.925" y1="528.902" x2="-31.615" y2="374.362"/>
						<line style="fill:none;stroke:#244163;stroke-miterlimit:10;" x1="120.214" y1="531.614" x2="-34.327" y2="377.073"/>
						<line style="fill:none;stroke:#244163;stroke-miterlimit:10;" x1="117.502" y1="534.326" x2="-37.039" y2="379.785"/>
						<line style="fill:none;stroke:#244163;stroke-miterlimit:10;" x1="114.79" y1="537.037" x2="-39.75" y2="382.497"/>
						<line style="fill:none;stroke:#244163;stroke-miterlimit:10;" x1="112.078" y1="539.749" x2="-42.462" y2="385.209"/>
						<line style="fill:none;stroke:#244163;stroke-miterlimit:10;" x1="109.366" y1="542.461" x2="-45.174" y2="387.921"/>
						<line style="fill:none;stroke:#244163;stroke-miterlimit:10;" x1="106.655" y1="545.173" x2="-47.886" y2="390.633"/>
						<line style="fill:none;stroke:#244163;stroke-miterlimit:10;" x1="103.943" y1="547.885" x2="-50.598" y2="393.344"/>
						<line style="fill:none;stroke:#244163;stroke-miterlimit:10;" x1="101.231" y1="550.597" x2="-53.31" y2="396.056"/>
						<line style="fill:none;stroke:#244163;stroke-miterlimit:10;" x1="98.519" y1="553.308" x2="-56.021" y2="398.768"/>
						<line style="fill:none;stroke:#244163;stroke-miterlimit:10;" x1="95.807" y1="556.02" x2="-58.733" y2="401.48"/>
						<line style="fill:none;stroke:#244163;stroke-miterlimit:10;" x1="93.095" y1="558.732" x2="-61.445" y2="404.192"/>
						<line style="fill:none;stroke:#244163;stroke-miterlimit:10;" x1="90.383" y1="561.444" x2="-64.157" y2="406.904"/>
						<line style="fill:none;stroke:#244163;stroke-miterlimit:10;" x1="87.672" y1="564.156" x2="-66.869" y2="409.615"/>
						<line style="fill:none;stroke:#244163;stroke-miterlimit:10;" x1="84.96" y1="566.868" x2="-69.581" y2="412.327"/>
						<line style="fill:none;stroke:#244163;stroke-miterlimit:10;" x1="82.248" y1="569.58" x2="-72.292" y2="415.039"/>
						<line style="fill:none;stroke:#244163;stroke-miterlimit:10;" x1="79.536" y1="572.291" x2="-75.004" y2="417.751"/>
						<line style="fill:none;stroke:#244163;stroke-miterlimit:10;" x1="76.824" y1="575.003" x2="-77.716" y2="420.463"/>
						<line style="fill:none;stroke:#244163;stroke-miterlimit:10;" x1="74.113" y1="577.715" x2="-80.428" y2="423.174"/>
						<line style="fill:none;stroke:#244163;stroke-miterlimit:10;" x1="71.401" y1="580.427" x2="-83.14" y2="425.886"/>
						<line style="fill:none;stroke:#244163;stroke-miterlimit:10;" x1="68.689" y1="583.139" x2="-85.852" y2="428.598"/>
						<line style="fill:none;stroke:#244163;stroke-miterlimit:10;" x1="65.977" y1="585.851" x2="-88.563" y2="431.31"/>
						<line style="fill:none;stroke:#244163;stroke-miterlimit:10;" x1="63.265" y1="588.562" x2="-91.275" y2="434.022"/>
						<line style="fill:none;stroke:#244163;stroke-miterlimit:10;" x1="60.553" y1="591.274" x2="-93.987" y2="436.734"/>
						<line style="fill:none;stroke:#244163;stroke-miterlimit:10;" x1="57.841" y1="593.986" x2="-96.699" y2="439.445"/>
						<line style="fill:none;stroke:#244163;stroke-miterlimit:10;" x1="55.13" y1="596.698" x2="-99.411" y2="442.157"/>
						<line style="fill:none;stroke:#244163;stroke-miterlimit:10;" x1="52.418" y1="599.41" x2="-102.123" y2="444.869"/>
						<line style="fill:none;stroke:#244163;stroke-miterlimit:10;" x1="49.706" y1="602.122" x2="-104.834" y2="447.581"/>
						<line style="fill:none;stroke:#244163;stroke-miterlimit:10;" x1="46.994" y1="604.833" x2="-107.546" y2="450.293"/>
						<line style="fill:none;stroke:#244163;stroke-miterlimit:10;" x1="44.282" y1="607.545" x2="-110.258" y2="453.005"/>
						<line style="fill:none;stroke:#244163;stroke-miterlimit:10;" x1="41.57" y1="610.257" x2="-112.97" y2="455.716"/>
						<line style="fill:none;stroke:#244163;stroke-miterlimit:10;" x1="38.859" y1="612.969" x2="-115.682" y2="458.428"/>
					</g>
				</g>
				<g>
					<defs>
						<circle id="SVGID_00000177465120374942680290000012954538252534142603_" cx="695.729" cy="66.749" r="89.872"/>
					</defs>
					<clipPath id="SVGID_00000168818510308687349620000005427373098916832898_">
						<use xlink:href="#SVGID_00000177465120374942680290000012954538252534142603_"  style="overflow:visible;"/>
					</clipPath>
					<g style="clip-path:url(#SVGID_00000168818510308687349620000005427373098916832898_);">
						<line style="fill:none;stroke:#244163;stroke-miterlimit:10;" x1="836.727" y1="80.292" x2="682.186" y2="-74.249"/>
						<line style="fill:none;stroke:#244163;stroke-miterlimit:10;" x1="834.015" y1="83.004" x2="679.475" y2="-71.537"/>
						<line style="fill:none;stroke:#244163;stroke-miterlimit:10;" x1="831.303" y1="85.715" x2="676.763" y2="-68.825"/>
						<line style="fill:none;stroke:#244163;stroke-miterlimit:10;" x1="828.591" y1="88.427" x2="674.051" y2="-66.113"/>
						<line style="fill:none;stroke:#244163;stroke-miterlimit:10;" x1="825.88" y1="91.139" x2="671.339" y2="-63.401"/>
						<line style="fill:none;stroke:#244163;stroke-miterlimit:10;" x1="823.168" y1="93.851" x2="668.627" y2="-60.69"/>
						<line style="fill:none;stroke:#244163;stroke-miterlimit:10;" x1="820.456" y1="96.563" x2="665.915" y2="-57.978"/>
						<line style="fill:none;stroke:#244163;stroke-miterlimit:10;" x1="817.744" y1="99.274" x2="663.204" y2="-55.266"/>
						<line style="fill:none;stroke:#244163;stroke-miterlimit:10;" x1="815.032" y1="101.986" x2="660.492" y2="-52.554"/>
						<line style="fill:none;stroke:#244163;stroke-miterlimit:10;" x1="812.32" y1="104.698" x2="657.78" y2="-49.842"/>
						<line style="fill:none;stroke:#244163;stroke-miterlimit:10;" x1="809.609" y1="107.41" x2="655.068" y2="-47.13"/>
						<line style="fill:none;stroke:#244163;stroke-miterlimit:10;" x1="806.897" y1="110.122" x2="652.356" y2="-44.419"/>
						<line style="fill:none;stroke:#244163;stroke-miterlimit:10;" x1="804.185" y1="112.834" x2="649.645" y2="-41.707"/>
						<line style="fill:none;stroke:#244163;stroke-miterlimit:10;" x1="801.473" y1="115.546" x2="646.933" y2="-38.995"/>
						<line style="fill:none;stroke:#244163;stroke-miterlimit:10;" x1="798.761" y1="118.257" x2="644.221" y2="-36.283"/>
						<line style="fill:none;stroke:#244163;stroke-miterlimit:10;" x1="796.049" y1="120.969" x2="641.509" y2="-33.571"/>
						<line style="fill:none;stroke:#244163;stroke-miterlimit:10;" x1="793.338" y1="123.681" x2="638.797" y2="-30.86"/>
						<line style="fill:none;stroke:#244163;stroke-miterlimit:10;" x1="790.626" y1="126.393" x2="636.085" y2="-28.148"/>
						<line style="fill:none;stroke:#244163;stroke-miterlimit:10;" x1="787.914" y1="129.105" x2="633.374" y2="-25.436"/>
						<line style="fill:none;stroke:#244163;stroke-miterlimit:10;" x1="785.202" y1="131.816" x2="630.662" y2="-22.724"/>
						<line style="fill:none;stroke:#244163;stroke-miterlimit:10;" x1="782.49" y1="134.528" x2="627.95" y2="-20.012"/>
						<line style="fill:none;stroke:#244163;stroke-miterlimit:10;" x1="779.779" y1="137.24" x2="625.238" y2="-17.3"/>
						<line style="fill:none;stroke:#244163;stroke-miterlimit:10;" x1="777.067" y1="139.952" x2="622.526" y2="-14.589"/>
						<line style="fill:none;stroke:#244163;stroke-miterlimit:10;" x1="774.355" y1="142.664" x2="619.814" y2="-11.877"/>
						<line style="fill:none;stroke:#244163;stroke-miterlimit:10;" x1="771.643" y1="145.376" x2="617.103" y2="-9.165"/>
						<line style="fill:none;stroke:#244163;stroke-miterlimit:10;" x1="768.931" y1="148.087" x2="614.391" y2="-6.453"/>
						<line style="fill:none;stroke:#244163;stroke-miterlimit:10;" x1="766.219" y1="150.799" x2="611.679" y2="-3.741"/>
						<line style="fill:none;stroke:#244163;stroke-miterlimit:10;" x1="763.508" y1="153.511" x2="608.967" y2="-1.029"/>
						<line style="fill:none;stroke:#244163;stroke-miterlimit:10;" x1="760.796" y1="156.223" x2="606.255" y2="1.683"/>
						<line style="fill:none;stroke:#244163;stroke-miterlimit:10;" x1="758.084" y1="158.935" x2="603.543" y2="4.394"/>
						<line style="fill:none;stroke:#244163;stroke-miterlimit:10;" x1="755.372" y1="161.647" x2="600.832" y2="7.106"/>
						<line style="fill:none;stroke:#244163;stroke-miterlimit:10;" x1="752.66" y1="164.358" x2="598.12" y2="9.818"/>
						<line style="fill:none;stroke:#244163;stroke-miterlimit:10;" x1="749.948" y1="167.07" x2="595.408" y2="12.53"/>
						<line style="fill:none;stroke:#244163;stroke-miterlimit:10;" x1="747.237" y1="169.782" x2="592.696" y2="15.242"/>
						<line style="fill:none;stroke:#244163;stroke-miterlimit:10;" x1="744.525" y1="172.494" x2="589.984" y2="17.954"/>
						<line style="fill:none;stroke:#244163;stroke-miterlimit:10;" x1="741.813" y1="175.206" x2="587.272" y2="20.665"/>
						<line style="fill:none;stroke:#244163;stroke-miterlimit:10;" x1="739.101" y1="177.918" x2="584.561" y2="23.377"/>
						<line style="fill:none;stroke:#244163;stroke-miterlimit:10;" x1="736.389" y1="180.629" x2="581.849" y2="26.089"/>
						<line style="fill:none;stroke:#244163;stroke-miterlimit:10;" x1="733.677" y1="183.341" x2="579.137" y2="28.801"/>
						<line style="fill:none;stroke:#244163;stroke-miterlimit:10;" x1="730.966" y1="186.053" x2="576.425" y2="31.513"/>
						<line style="fill:none;stroke:#244163;stroke-miterlimit:10;" x1="728.254" y1="188.765" x2="573.713" y2="34.224"/>
						<line style="fill:none;stroke:#244163;stroke-miterlimit:10;" x1="725.542" y1="191.477" x2="571.001" y2="36.936"/>
						<line style="fill:none;stroke:#244163;stroke-miterlimit:10;" x1="722.83" y1="194.189" x2="568.29" y2="39.648"/>
						<line style="fill:none;stroke:#244163;stroke-miterlimit:10;" x1="720.118" y1="196.9" x2="565.578" y2="42.36"/>
						<line style="fill:none;stroke:#244163;stroke-miterlimit:10;" x1="717.406" y1="199.612" x2="562.866" y2="45.072"/>
						<line style="fill:none;stroke:#244163;stroke-miterlimit:10;" x1="714.695" y1="202.324" x2="560.154" y2="47.784"/>
						<line style="fill:none;stroke:#244163;stroke-miterlimit:10;" x1="711.983" y1="205.036" x2="557.442" y2="50.495"/>
						<line style="fill:none;stroke:#244163;stroke-miterlimit:10;" x1="709.271" y1="207.748" x2="554.73" y2="53.207"/>
					</g>
				</g>
			</g>
		</g>
		<g>
			<g>
				<path style="fill:#D060E1;" d="M0,0c0,0,19.234,58.66,78.468,60.702c59.234,2.043,82.601-41.872,142.407-25.532
					C280.681,51.511,301.761,0,301.761,0H0z"/>
				<path style="fill:#B855C7;" d="M289.316,0c-5.642,10.758-28.48,46.094-79.441,32.17c-59.806-16.34-83.173,27.575-142.407,25.532
					c-4.779-0.165-9.294-0.703-13.563-1.544c7.293,2.573,15.453,4.23,24.563,4.544c59.234,2.043,82.601-41.872,142.407-25.532
					C280.681,51.511,301.761,0,301.761,0H289.316z"/>
			</g>
			<g>
				<path style="fill:#00DDFB;" d="M750,463.085c0,0-68.124-25.532-124.211,0c-56.087,25.532-72.014,4.085-116.646,4.085
					c-44.632,0-71.299,32.83-71.299,32.83H750V463.085z"/>
				<g>
					<g>
						<path style="fill:#02BBD4;" d="M641.033,465.726c28.445-12.949,59.982-12.761,84.162-9.433
							c-24.906-5.206-64.487-9.104-99.406,6.792c-27.745,12.63-45.662,13.762-62.088,11.683
							C585.116,479.073,604.604,482.309,641.033,465.726z"/>
						<path style="fill:#02BBD4;" d="M524.387,469.811c6.961,0,13.223,0.522,19.049,1.306c-10.087-2.014-20.896-3.947-34.293-3.947
							c-44.632,0-71.299,32.83-71.299,32.83h17.628C462.907,492.215,487.504,469.811,524.387,469.811z"/>
					</g>
				</g>
			</g>
			<g>
				<path style="fill:#00DDFB;" d="M54.681,500c0,0,36.766-78.471,0-118.608c-36.766-40.137-56.063-99.508-12.255-172.104
					C86.233,136.692,0,82.872,0,82.872V500H54.681z"/>
				<path style="fill:#02BBD4;" d="M54.681,381.392c-36.766-40.137-56.063-99.508-12.255-172.104C86.233,136.692,0,82.872,0,82.872
					v8.727c16.46,11.777,76.466,60.649,38.425,123.689c-43.808,72.596-24.511,131.968,12.255,172.104
					c30.643,33.452,10.21,93.523,2.553,112.608h1.447C54.681,500,91.447,421.529,54.681,381.392z"/>
			</g>
			<g>
				<path style="fill:#D060E1;" d="M695.319,0c0,0-36.766,78.471,0,118.608c36.766,40.137,56.063,99.508,12.255,172.104
					C663.767,363.308,750,417.128,750,417.128V0H695.319z"/>
				<path style="fill:#B855C7;" d="M714.108,280.514c43.808-72.596,24.511-131.968-12.255-172.104
					C673.194,77.123,689.213,22.549,697.671,0h-2.352c0,0-36.766,78.471,0,118.608c36.766,40.137,56.063,99.508,12.255,172.104
					C663.767,363.308,750,417.128,750,417.128v-14.782C730.752,387.892,677.823,340.644,714.108,280.514z"/>
			</g>
		</g>
		<g>
			<g>
				<g>
					<circle style="fill:#FFFFFF;" cx="194.738" cy="76.336" r="1.622"/>
					<path style="fill:#FFFFFF;" d="M206.155,76.336c0,0.896-0.726,1.622-1.622,1.622c-0.895,0-1.621-0.726-1.621-1.622
						s0.726-1.622,1.621-1.622C205.429,74.715,206.155,75.441,206.155,76.336z"/>
					<path style="fill:#FFFFFF;" d="M215.949,76.336c0,0.896-0.726,1.622-1.621,1.622c-0.896,0-1.622-0.726-1.622-1.622
						s0.726-1.622,1.622-1.622C215.223,74.715,215.949,75.441,215.949,76.336z"/>
					<circle style="fill:#FFFFFF;" cx="224.122" cy="76.336" r="1.622"/>
					<path style="fill:#FFFFFF;" d="M235.539,76.336c0,0.896-0.726,1.622-1.622,1.622c-0.896,0-1.622-0.726-1.622-1.622
						s0.726-1.622,1.622-1.622C234.813,74.715,235.539,75.441,235.539,76.336z"/>
					<path style="fill:#FFFFFF;" d="M245.333,76.336c0,0.896-0.726,1.622-1.621,1.622c-0.896,0-1.622-0.726-1.622-1.622
						s0.726-1.622,1.622-1.622C244.607,74.715,245.333,75.441,245.333,76.336z"/>
					<circle style="fill:#FFFFFF;" cx="253.506" cy="76.336" r="1.622"/>
				</g>
				<g>
					<path style="fill:#FFFFFF;" d="M196.36,81.854c0,0.896-0.726,1.622-1.622,1.622s-1.622-0.726-1.622-1.622
						c0-0.896,0.726-1.621,1.622-1.621S196.36,80.958,196.36,81.854z"/>
					<path style="fill:#FFFFFF;" d="M206.155,81.854c0,0.896-0.726,1.622-1.622,1.622c-0.895,0-1.621-0.726-1.621-1.622
						c0-0.896,0.726-1.621,1.621-1.621C205.429,80.232,206.155,80.958,206.155,81.854z"/>
					<path style="fill:#FFFFFF;" d="M215.949,81.854c0,0.896-0.726,1.622-1.621,1.622c-0.896,0-1.622-0.726-1.622-1.622
						c0-0.896,0.726-1.621,1.622-1.621C215.223,80.232,215.949,80.958,215.949,81.854z"/>
					<path style="fill:#FFFFFF;" d="M225.744,81.854c0,0.896-0.726,1.622-1.622,1.622s-1.622-0.726-1.622-1.622
						c0-0.896,0.726-1.621,1.622-1.621S225.744,80.958,225.744,81.854z"/>
					<path style="fill:#FFFFFF;" d="M235.539,81.854c0,0.896-0.726,1.622-1.622,1.622c-0.896,0-1.622-0.726-1.622-1.622
						c0-0.896,0.726-1.621,1.622-1.621C234.813,80.232,235.539,80.958,235.539,81.854z"/>
					<path style="fill:#FFFFFF;" d="M245.333,81.854c0,0.896-0.726,1.622-1.621,1.622c-0.896,0-1.622-0.726-1.622-1.622
						c0-0.896,0.726-1.621,1.622-1.621C244.607,80.232,245.333,80.958,245.333,81.854z"/>
					<path style="fill:#FFFFFF;" d="M255.128,81.854c0,0.896-0.726,1.622-1.622,1.622s-1.622-0.726-1.622-1.622
						c0-0.896,0.726-1.621,1.622-1.621S255.128,80.958,255.128,81.854z"/>
				</g>
				<g>
					<circle style="fill:#FFFFFF;" cx="194.738" cy="87.371" r="1.622"/>
					<path style="fill:#FFFFFF;" d="M206.155,87.371c0,0.896-0.726,1.622-1.622,1.622c-0.895,0-1.621-0.726-1.621-1.622
						s0.726-1.622,1.621-1.622C205.429,85.749,206.155,86.476,206.155,87.371z"/>
					<path style="fill:#FFFFFF;" d="M215.949,87.371c0,0.896-0.726,1.622-1.621,1.622c-0.896,0-1.622-0.726-1.622-1.622
						s0.726-1.622,1.622-1.622C215.223,85.749,215.949,86.476,215.949,87.371z"/>
					<circle style="fill:#FFFFFF;" cx="224.122" cy="87.371" r="1.622"/>
					<path style="fill:#FFFFFF;" d="M235.539,87.371c0,0.896-0.726,1.622-1.622,1.622c-0.896,0-1.622-0.726-1.622-1.622
						s0.726-1.622,1.622-1.622C234.813,85.749,235.539,86.476,235.539,87.371z"/>
					<path style="fill:#FFFFFF;" d="M245.333,87.371c0,0.896-0.726,1.622-1.621,1.622c-0.896,0-1.622-0.726-1.622-1.622
						s0.726-1.622,1.622-1.622C244.607,85.749,245.333,86.476,245.333,87.371z"/>
					<circle style="fill:#FFFFFF;" cx="253.506" cy="87.371" r="1.622"/>
				</g>
			</g>
			<g>
				<g>
					<path style="fill:#FFFFFF;" d="M487.749,399.868c0,0.896-0.726,1.621-1.621,1.621c-0.896,0-1.622-0.726-1.622-1.621
						c0-0.896,0.726-1.622,1.622-1.622C487.023,398.246,487.749,398.972,487.749,399.868z"/>
					<path style="fill:#FFFFFF;" d="M497.543,399.868c0,0.896-0.726,1.621-1.622,1.621s-1.622-0.726-1.622-1.621
						c0-0.896,0.726-1.622,1.622-1.622S497.543,398.972,497.543,399.868z"/>
					<path style="fill:#FFFFFF;" d="M507.338,399.868c0,0.896-0.726,1.621-1.622,1.621c-0.896,0-1.622-0.726-1.622-1.621
						c0-0.896,0.726-1.622,1.622-1.622C506.612,398.246,507.338,398.972,507.338,399.868z"/>
					<path style="fill:#FFFFFF;" d="M517.133,399.868c0,0.896-0.726,1.621-1.622,1.621c-0.896,0-1.622-0.726-1.622-1.621
						c0-0.896,0.726-1.622,1.622-1.622C516.407,398.246,517.133,398.972,517.133,399.868z"/>
					<path style="fill:#FFFFFF;" d="M526.927,399.868c0,0.896-0.726,1.621-1.622,1.621c-0.895,0-1.621-0.726-1.621-1.621
						c0-0.896,0.726-1.622,1.621-1.622C526.201,398.246,526.927,398.972,526.927,399.868z"/>
					<path style="fill:#FFFFFF;" d="M536.722,399.868c0,0.896-0.726,1.621-1.621,1.621c-0.896,0-1.622-0.726-1.622-1.621
						c0-0.896,0.726-1.622,1.622-1.622C535.996,398.246,536.722,398.972,536.722,399.868z"/>
					<path style="fill:#FFFFFF;" d="M546.517,399.868c0,0.896-0.726,1.621-1.622,1.621c-0.896,0-1.622-0.726-1.622-1.621
						c0-0.896,0.726-1.622,1.622-1.622C545.791,398.246,546.517,398.972,546.517,399.868z"/>
				</g>
				<g>
					<path style="fill:#FFFFFF;" d="M487.749,405.385c0,0.896-0.726,1.622-1.621,1.622c-0.896,0-1.622-0.726-1.622-1.622
						s0.726-1.622,1.622-1.622C487.023,403.763,487.749,404.489,487.749,405.385z"/>
					<circle style="fill:#FFFFFF;" cx="495.922" cy="405.385" r="1.622"/>
					<path style="fill:#FFFFFF;" d="M507.338,405.385c0,0.896-0.726,1.622-1.622,1.622c-0.896,0-1.622-0.726-1.622-1.622
						s0.726-1.622,1.622-1.622C506.612,403.763,507.338,404.489,507.338,405.385z"/>
					<circle style="fill:#FFFFFF;" cx="515.511" cy="405.385" r="1.622"/>
					<path style="fill:#FFFFFF;" d="M526.927,405.385c0,0.896-0.726,1.622-1.622,1.622c-0.895,0-1.621-0.726-1.621-1.622
						s0.726-1.622,1.621-1.622C526.201,403.763,526.927,404.489,526.927,405.385z"/>
					<path style="fill:#FFFFFF;" d="M536.722,405.385c0,0.896-0.726,1.622-1.621,1.622c-0.896,0-1.622-0.726-1.622-1.622
						s0.726-1.622,1.622-1.622C535.996,403.763,536.722,404.489,536.722,405.385z"/>
					<circle style="fill:#FFFFFF;" cx="544.895" cy="405.385" r="1.622"/>
				</g>
				<g>
					<path style="fill:#FFFFFF;" d="M487.749,410.902c0,0.896-0.726,1.621-1.621,1.621c-0.896,0-1.622-0.726-1.622-1.621
						c0-0.896,0.726-1.622,1.622-1.622C487.023,409.281,487.749,410.007,487.749,410.902z"/>
					<path style="fill:#FFFFFF;" d="M497.543,410.902c0,0.896-0.726,1.621-1.622,1.621s-1.622-0.726-1.622-1.621
						c0-0.896,0.726-1.622,1.622-1.622S497.543,410.007,497.543,410.902z"/>
					<path style="fill:#FFFFFF;" d="M507.338,410.902c0,0.896-0.726,1.621-1.622,1.621c-0.896,0-1.622-0.726-1.622-1.621
						c0-0.896,0.726-1.622,1.622-1.622C506.612,409.281,507.338,410.007,507.338,410.902z"/>
					<path style="fill:#FFFFFF;" d="M517.133,410.902c0,0.896-0.726,1.621-1.622,1.621c-0.896,0-1.622-0.726-1.622-1.621
						c0-0.896,0.726-1.622,1.622-1.622C516.407,409.281,517.133,410.007,517.133,410.902z"/>
					<path style="fill:#FFFFFF;" d="M526.927,410.902c0,0.896-0.726,1.621-1.622,1.621c-0.895,0-1.621-0.726-1.621-1.621
						c0-0.896,0.726-1.622,1.621-1.622C526.201,409.281,526.927,410.007,526.927,410.902z"/>
					<path style="fill:#FFFFFF;" d="M536.722,410.902c0,0.896-0.726,1.621-1.621,1.621c-0.896,0-1.622-0.726-1.622-1.621
						c0-0.896,0.726-1.622,1.622-1.622C535.996,409.281,536.722,410.007,536.722,410.902z"/>
					<path style="fill:#FFFFFF;" d="M546.517,410.902c0,0.896-0.726,1.621-1.622,1.621c-0.896,0-1.622-0.726-1.622-1.621
						c0-0.896,0.726-1.622,1.622-1.622C545.791,409.281,546.517,410.007,546.517,410.902z"/>
				</g>
			</g>
			<g>
				<g>
					<path style="fill:#FFFFFF;" d="M156.398,340.486c-0.896,0-1.622-0.726-1.622-1.622c0-0.895,0.726-1.621,1.622-1.621
						s1.622,0.726,1.622,1.621C158.019,339.76,157.293,340.486,156.398,340.486z"/>
					<path style="fill:#FFFFFF;" d="M156.398,350.281c-0.896,0-1.622-0.726-1.622-1.622c0-0.896,0.726-1.622,1.622-1.622
						s1.622,0.726,1.622,1.622C158.019,349.555,157.293,350.281,156.398,350.281z"/>
					<circle style="fill:#FFFFFF;" cx="156.398" cy="358.454" r="1.622"/>
					<path style="fill:#FFFFFF;" d="M156.398,369.87c-0.896,0-1.622-0.726-1.622-1.622c0-0.896,0.726-1.621,1.622-1.621
						s1.622,0.726,1.622,1.621C158.019,369.144,157.293,369.87,156.398,369.87z"/>
					<path style="fill:#FFFFFF;" d="M156.398,379.665c-0.896,0-1.622-0.726-1.622-1.621c0-0.896,0.726-1.622,1.622-1.622
						s1.622,0.726,1.622,1.622C158.019,378.939,157.293,379.665,156.398,379.665z"/>
					<circle style="fill:#FFFFFF;" cx="156.398" cy="387.838" r="1.622"/>
					<path style="fill:#FFFFFF;" d="M156.398,399.254c-0.896,0-1.622-0.726-1.622-1.622c0-0.896,0.726-1.622,1.622-1.622
						s1.622,0.726,1.622,1.622C158.019,398.528,157.293,399.254,156.398,399.254z"/>
				</g>
				<g>
					<path style="fill:#FFFFFF;" d="M150.88,340.486c-0.896,0-1.622-0.726-1.622-1.622c0-0.895,0.726-1.621,1.622-1.621
						c0.896,0,1.622,0.726,1.622,1.621C152.502,339.76,151.776,340.486,150.88,340.486z"/>
					<path style="fill:#FFFFFF;" d="M150.88,350.281c-0.896,0-1.622-0.726-1.622-1.622c0-0.896,0.726-1.622,1.622-1.622
						c0.896,0,1.622,0.726,1.622,1.622C152.502,349.555,151.776,350.281,150.88,350.281z"/>
					<path style="fill:#FFFFFF;" d="M150.88,360.076c-0.896,0-1.622-0.726-1.622-1.622s0.726-1.622,1.622-1.622
						c0.896,0,1.622,0.726,1.622,1.622S151.776,360.076,150.88,360.076z"/>
					<path style="fill:#FFFFFF;" d="M150.88,369.87c-0.896,0-1.622-0.726-1.622-1.622c0-0.896,0.726-1.621,1.622-1.621
						c0.896,0,1.622,0.726,1.622,1.621C152.502,369.144,151.776,369.87,150.88,369.87z"/>
					<path style="fill:#FFFFFF;" d="M150.88,379.665c-0.896,0-1.622-0.726-1.622-1.621c0-0.896,0.726-1.622,1.622-1.622
						c0.896,0,1.622,0.726,1.622,1.622C152.502,378.939,151.776,379.665,150.88,379.665z"/>
					<path style="fill:#FFFFFF;" d="M150.88,389.46c-0.896,0-1.622-0.726-1.622-1.622s0.726-1.622,1.622-1.622
						c0.896,0,1.622,0.726,1.622,1.622S151.776,389.46,150.88,389.46z"/>
					<path style="fill:#FFFFFF;" d="M150.88,399.254c-0.896,0-1.622-0.726-1.622-1.622c0-0.896,0.726-1.622,1.622-1.622
						c0.896,0,1.622,0.726,1.622,1.622C152.502,398.528,151.776,399.254,150.88,399.254z"/>
				</g>
				<g>
					<path style="fill:#FFFFFF;" d="M145.363,340.486c-0.896,0-1.622-0.726-1.622-1.622c0-0.895,0.726-1.621,1.622-1.621
						s1.622,0.726,1.622,1.621C146.985,339.76,146.259,340.486,145.363,340.486z"/>
					<path style="fill:#FFFFFF;" d="M145.363,350.281c-0.896,0-1.622-0.726-1.622-1.622c0-0.896,0.726-1.622,1.622-1.622
						s1.622,0.726,1.622,1.622C146.985,349.555,146.259,350.281,145.363,350.281z"/>
					<circle style="fill:#FFFFFF;" cx="145.363" cy="358.454" r="1.622"/>
					<path style="fill:#FFFFFF;" d="M145.363,369.87c-0.896,0-1.622-0.726-1.622-1.622c0-0.896,0.726-1.621,1.622-1.621
						s1.622,0.726,1.622,1.621C146.985,369.144,146.259,369.87,145.363,369.87z"/>
					<path style="fill:#FFFFFF;" d="M145.363,379.665c-0.896,0-1.622-0.726-1.622-1.621c0-0.896,0.726-1.622,1.622-1.622
						s1.622,0.726,1.622,1.622C146.985,378.939,146.259,379.665,145.363,379.665z"/>
					<circle style="fill:#FFFFFF;" cx="145.363" cy="387.838" r="1.622"/>
					<path style="fill:#FFFFFF;" d="M145.363,399.254c-0.896,0-1.622-0.726-1.622-1.622c0-0.896,0.726-1.622,1.622-1.622
						s1.622,0.726,1.622,1.622C146.985,398.528,146.259,399.254,145.363,399.254z"/>
				</g>
			</g>
			<g>
				<g>
					<path style="fill:#FFFFFF;" d="M607.544,115.846c-0.896,0-1.622-0.726-1.622-1.622s0.726-1.622,1.622-1.622
						c0.896,0,1.621,0.726,1.621,1.622S608.44,115.846,607.544,115.846z"/>
					<path style="fill:#FFFFFF;" d="M607.544,125.641c-0.896,0-1.622-0.726-1.622-1.622c0-0.896,0.726-1.621,1.622-1.621
						c0.896,0,1.621,0.726,1.621,1.621C609.165,124.915,608.44,125.641,607.544,125.641z"/>
					<path style="fill:#FFFFFF;" d="M607.544,135.435c-0.896,0-1.622-0.726-1.622-1.622c0-0.896,0.726-1.622,1.622-1.622
						c0.896,0,1.621,0.726,1.621,1.622C609.165,134.709,608.44,135.435,607.544,135.435z"/>
					<path style="fill:#FFFFFF;" d="M607.544,145.23c-0.896,0-1.622-0.726-1.622-1.622s0.726-1.622,1.622-1.622
						c0.896,0,1.621,0.726,1.621,1.622S608.44,145.23,607.544,145.23z"/>
					<path style="fill:#FFFFFF;" d="M607.544,155.025c-0.896,0-1.622-0.726-1.622-1.622c0-0.895,0.726-1.622,1.622-1.622
						c0.896,0,1.621,0.726,1.621,1.622C609.165,154.299,608.44,155.025,607.544,155.025z"/>
					<path style="fill:#FFFFFF;" d="M607.544,164.819c-0.896,0-1.622-0.726-1.622-1.622c0-0.896,0.726-1.622,1.622-1.622
						c0.896,0,1.621,0.726,1.621,1.622C609.165,164.093,608.44,164.819,607.544,164.819z"/>
					<path style="fill:#FFFFFF;" d="M607.544,174.614c-0.896,0-1.622-0.726-1.622-1.622s0.726-1.622,1.622-1.622
						c0.896,0,1.621,0.726,1.621,1.622S608.44,174.614,607.544,174.614z"/>
				</g>
				<g>
					
						<ellipse transform="matrix(0.1595 -0.9872 0.9872 0.1595 393.2343 690.3226)" style="fill:#FFFFFF;" cx="602.027" cy="114.225" rx="1.622" ry="1.622"/>
					<path style="fill:#FFFFFF;" d="M602.027,125.641c-0.896,0-1.622-0.726-1.622-1.622c0-0.896,0.726-1.621,1.622-1.621
						c0.896,0,1.622,0.726,1.622,1.621C603.648,124.915,602.922,125.641,602.027,125.641z"/>
					<path style="fill:#FFFFFF;" d="M602.027,135.435c-0.896,0-1.622-0.726-1.622-1.622c0-0.896,0.726-1.622,1.622-1.622
						c0.896,0,1.622,0.726,1.622,1.622C603.648,134.709,602.922,135.435,602.027,135.435z"/>
					
						<ellipse transform="matrix(0.1595 -0.9872 0.9872 0.1595 364.2266 715.0194)" style="fill:#FFFFFF;" cx="602.027" cy="143.608" rx="1.622" ry="1.622"/>
					<path style="fill:#FFFFFF;" d="M602.027,155.025c-0.896,0-1.622-0.726-1.622-1.622c0-0.895,0.726-1.622,1.622-1.622
						c0.896,0,1.622,0.726,1.622,1.622C603.648,154.299,602.922,155.025,602.027,155.025z"/>
					<path style="fill:#FFFFFF;" d="M602.027,164.819c-0.896,0-1.622-0.726-1.622-1.622c0-0.896,0.726-1.622,1.622-1.622
						c0.896,0,1.622,0.726,1.622,1.622C603.648,164.093,602.922,164.819,602.027,164.819z"/>
					
						<ellipse transform="matrix(0.1595 -0.9872 0.9872 0.1595 335.2189 739.7162)" style="fill:#FFFFFF;" cx="602.027" cy="172.992" rx="1.622" ry="1.622"/>
				</g>
				<g>
					<path style="fill:#FFFFFF;" d="M596.509,115.846c-0.896,0-1.622-0.726-1.622-1.622s0.726-1.622,1.622-1.622
						c0.896,0,1.622,0.726,1.622,1.622S597.405,115.846,596.509,115.846z"/>
					<path style="fill:#FFFFFF;" d="M596.509,125.641c-0.896,0-1.622-0.726-1.622-1.622c0-0.896,0.726-1.621,1.622-1.621
						c0.896,0,1.622,0.726,1.622,1.621C598.131,124.915,597.405,125.641,596.509,125.641z"/>
					<path style="fill:#FFFFFF;" d="M596.509,135.435c-0.896,0-1.622-0.726-1.622-1.622c0-0.896,0.726-1.622,1.622-1.622
						c0.896,0,1.622,0.726,1.622,1.622C598.131,134.709,597.405,135.435,596.509,135.435z"/>
					<path style="fill:#FFFFFF;" d="M596.509,145.23c-0.896,0-1.622-0.726-1.622-1.622s0.726-1.622,1.622-1.622
						c0.896,0,1.622,0.726,1.622,1.622S597.405,145.23,596.509,145.23z"/>
					<path style="fill:#FFFFFF;" d="M596.509,155.025c-0.896,0-1.622-0.726-1.622-1.622c0-0.895,0.726-1.622,1.622-1.622
						c0.896,0,1.622,0.726,1.622,1.622C598.131,154.299,597.405,155.025,596.509,155.025z"/>
					<path style="fill:#FFFFFF;" d="M596.509,164.819c-0.896,0-1.622-0.726-1.622-1.622c0-0.896,0.726-1.622,1.622-1.622
						c0.896,0,1.622,0.726,1.622,1.622C598.131,164.093,597.405,164.819,596.509,164.819z"/>
					<path style="fill:#FFFFFF;" d="M596.509,174.614c-0.896,0-1.622-0.726-1.622-1.622s0.726-1.622,1.622-1.622
						c0.896,0,1.622,0.726,1.622,1.622S597.405,174.614,596.509,174.614z"/>
				</g>
			</g>
			<g>
				<g>
					
						<line style="fill:none;stroke:#99EFFB;stroke-width:3;stroke-linecap:round;stroke-linejoin:round;stroke-miterlimit:10;" x1="298.761" y1="60.771" x2="298.761" y2="72.387"/>
					
						<line style="fill:none;stroke:#99EFFB;stroke-width:3;stroke-linecap:round;stroke-linejoin:round;stroke-miterlimit:10;" x1="304.568" y1="66.579" x2="292.953" y2="66.579"/>
				</g>
				<g>
					
						<line style="fill:none;stroke:#99EFFB;stroke-width:3;stroke-linecap:round;stroke-linejoin:round;stroke-miterlimit:10;" x1="196.36" y1="395.682" x2="196.36" y2="407.297"/>
					
						<line style="fill:none;stroke:#99EFFB;stroke-width:3;stroke-linecap:round;stroke-linejoin:round;stroke-miterlimit:10;" x1="202.168" y1="401.489" x2="190.553" y2="401.489"/>
				</g>
				<g>
					
						<line style="fill:none;stroke:#99EFFB;stroke-width:3;stroke-linecap:round;stroke-linejoin:round;stroke-miterlimit:10;" x1="533.479" y1="360.31" x2="533.479" y2="371.925"/>
					
						<line style="fill:none;stroke:#99EFFB;stroke-width:3;stroke-linecap:round;stroke-linejoin:round;stroke-miterlimit:10;" x1="539.286" y1="366.117" x2="527.671" y2="366.117"/>
				</g>
				<g>
					
						<line style="fill:none;stroke:#99EFFB;stroke-width:3;stroke-linecap:round;stroke-linejoin:round;stroke-miterlimit:10;" x1="61.722" y1="221.593" x2="61.722" y2="233.209"/>
					
						<line style="fill:none;stroke:#99EFFB;stroke-width:3;stroke-linecap:round;stroke-linejoin:round;stroke-miterlimit:10;" x1="67.53" y1="227.401" x2="55.914" y2="227.401"/>
				</g>
				<g>
					
						<line style="fill:none;stroke:#99EFFB;stroke-width:3;stroke-linecap:round;stroke-linejoin:round;stroke-miterlimit:10;" x1="688.425" y1="258.341" x2="688.425" y2="269.956"/>
					
						<line style="fill:none;stroke:#99EFFB;stroke-width:3;stroke-linecap:round;stroke-linejoin:round;stroke-miterlimit:10;" x1="694.233" y1="264.148" x2="682.618" y2="264.148"/>
				</g>
			</g>
			<g>
				<circle style="fill:none;stroke:#FFFFFF;stroke-width:0.75;stroke-miterlimit:10;" cx="323.915" cy="20.532" r="2.553"/>
				<circle style="fill:none;stroke:#FFFFFF;stroke-width:0.75;stroke-miterlimit:10;" cx="116.24" cy="342.897" r="2.553"/>
				<circle style="fill:none;stroke:#FFFFFF;stroke-width:0.75;stroke-miterlimit:10;" cx="437.843" cy="429.517" r="2.553"/>
				<circle style="fill:none;stroke:#FFFFFF;stroke-width:0.75;stroke-miterlimit:10;" cx="581.623" cy="240.5" r="2.553"/>
				<circle style="fill:none;stroke:#FFFFFF;stroke-width:0.75;stroke-miterlimit:10;" cx="649.977" cy="171.371" r="2.553"/>
				
					<ellipse transform="matrix(0.7162 -0.6979 0.6979 0.7162 -27.8321 189.341)" style="fill:none;stroke:#FFFFFF;stroke-width:0.75;stroke-miterlimit:10;" cx="218.875" cy="128.89" rx="8.295" ry="8.295"/>
				
					<ellipse transform="matrix(0.2306 -0.9731 0.9731 0.2306 -218.9047 574.0073)" style="fill:none;stroke:#FFFFFF;stroke-width:0.75;stroke-miterlimit:10;" cx="253.506" cy="425.422" rx="8.295" ry="8.295"/>
				
					<ellipse transform="matrix(0.2202 -0.9755 0.9755 0.2202 -4.1017 887.594)" style="fill:none;stroke:#FFFFFF;stroke-width:0.75;stroke-miterlimit:10;" cx="553.107" cy="446.362" rx="8.295" ry="8.295"/>
				
					<ellipse transform="matrix(0.2289 -0.9734 0.9734 0.2289 322.5901 655.2982)" style="fill:none;stroke:#FFFFFF;stroke-width:0.75;stroke-miterlimit:10;" cx="574.942" cy="124.019" rx="8.295" ry="8.295"/>
			</g>
		</g>
		<g>
			<g>
				
					<ellipse transform="matrix(0.2359 -0.9718 0.9718 0.2359 -179.2624 318.5085)" style="fill:#FFF241;" cx="112.898" cy="273.241" rx="28.452" ry="28.452"/>
				<path style="fill:#FFB041;" d="M122.329,298.979c-14.59,5.346-30.728-2.01-36.313-16.442c0.057,0.164,0.107,0.329,0.167,0.493
					c5.406,14.754,21.75,22.333,36.504,16.926c14.754-5.406,22.332-21.75,16.926-36.504c-0.06-0.164-0.129-0.322-0.191-0.484
					C144.483,277.592,136.919,293.633,122.329,298.979z"/>
				<path style="fill:#FFFFFF;" d="M103.467,247.504c14.59-5.346,30.728,2.01,36.313,16.442c-0.057-0.164-0.107-0.329-0.167-0.493
					c-5.406-14.754-21.75-22.332-36.504-16.926c-14.754,5.406-22.333,21.75-16.926,36.504c0.06,0.164,0.129,0.322,0.191,0.484
					C81.313,268.891,88.877,252.85,103.467,247.504z"/>
				
					<ellipse transform="matrix(0.9017 -0.4323 0.4323 0.9017 -107.0321 75.6621)" style="fill:#FFD541;" cx="112.898" cy="273.241" rx="20.209" ry="20.209"/>
				<path style="fill:#FFB041;" d="M118.466,288.436c-9.842,3.606-20.678-0.922-25.141-10.167c0.166,0.644,0.365,1.287,0.598,1.925
					c3.84,10.48,15.448,15.862,25.928,12.022c10.48-3.84,15.862-15.449,12.022-25.928c-0.234-0.638-0.497-1.257-0.787-1.856
					C133.652,274.372,128.307,284.83,118.466,288.436z"/>
				<g>
					<g>
						
							<text transform="matrix(0.9389 -0.3441 0.3441 0.9389 107.4975 285.3194)" style="fill:#FFB041; font-family:'Raleway-SemiBold'; font-size:31.0646px; letter-spacing:6;">$</text>
					</g>
					<g>
						
							<text transform="matrix(0.9389 -0.3441 0.3441 0.9389 106.3402 285.188)" style="fill:#FFF241; font-family:'Raleway-SemiBold'; font-size:31.0646px; letter-spacing:6;">$</text>
					</g>
				</g>
				<g style="opacity:0.35;">
					<defs>
						
							<ellipse id="SVGID_00000150078792709555584420000015242281013745903505_" transform="matrix(0.2359 -0.9718 0.9718 0.2359 -179.2624 318.5085)" style="opacity:0.35;" cx="112.898" cy="273.241" rx="28.452" ry="28.452"/>
					</defs>
					<clipPath id="SVGID_00000166643558328838478710000008500575796241129399_">
						<use xlink:href="#SVGID_00000150078792709555584420000015242281013745903505_"  style="overflow:visible;"/>
					</clipPath>
					<g style="opacity:0.58;clip-path:url(#SVGID_00000166643558328838478710000008500575796241129399_);">
						
							<rect x="102.692" y="247.516" transform="matrix(0.4206 -0.9072 0.9072 0.4206 -203.4418 262.5562)" style="fill:#FFFFFF;" width="2.314" height="86.096"/>
						
							<rect x="118.96" y="212.433" transform="matrix(0.4207 -0.9072 0.9072 0.4207 -162.1881 256.9774)" style="fill:#FFFFFF;" width="2.314" height="86.096"/>
						
							<rect x="108.3" y="228.844" transform="matrix(0.4207 -0.9072 0.9072 0.4207 -181.4859 259.5881)" style="fill:#FFFFFF;" width="8.414" height="86.095"/>
					</g>
				</g>
			</g>
			<g>
				
					<ellipse transform="matrix(0.6224 -0.7827 0.7827 0.6224 66.7417 415.5656)" style="fill:#FFF241;" cx="464.084" cy="138.608" rx="36.944" ry="36.944"/>
				<path style="fill:#FFB041;" d="M464.316,174.199c-20.176,0.132-36.67-15.938-37.163-36.026c-0.003,0.226-0.014,0.45-0.013,0.676
					c0.133,20.403,16.781,36.835,37.185,36.702c20.403-0.133,36.835-16.781,36.702-37.184c-0.001-0.227-0.016-0.45-0.021-0.676
					C500.775,157.783,484.493,174.068,464.316,174.199z"/>
				<path style="fill:#FFFFFF;" d="M463.852,103.017c20.176-0.132,36.67,15.938,37.163,36.026c0.003-0.226,0.014-0.449,0.013-0.676
					c-0.133-20.403-16.781-36.835-37.184-36.702c-20.403,0.133-36.835,16.781-36.702,37.184c0.001,0.227,0.016,0.45,0.021,0.676
					C427.393,119.433,443.675,103.149,463.852,103.017z"/>
				<path style="fill:#FFD541;" d="M490.324,138.437c0.095,14.492-11.577,26.317-26.069,26.411
					c-14.492,0.095-26.317-11.577-26.411-26.069c-0.095-14.492,11.577-26.317,26.069-26.411
					C478.404,112.274,490.229,123.945,490.324,138.437z"/>
				<path style="fill:#FFB041;" d="M464.221,159.62c-13.61,0.089-24.865-10.2-26.264-23.456c-0.079,0.861-0.119,1.733-0.113,2.615
					c0.095,14.492,11.919,26.163,26.411,26.069c14.492-0.095,26.163-11.919,26.069-26.411c-0.006-0.882-0.057-1.754-0.147-2.613
					C488.951,149.097,477.831,159.532,464.221,159.62z"/>
				<g>
					<g>
						
							<text transform="matrix(1 -0.0065 0.0065 1 452.2056 151.0011)" style="fill:#FFB041; font-family:'Raleway-SemiBold'; font-size:40.3362px; letter-spacing:8;">$</text>
					</g>
					<g>
						
							<text transform="matrix(1 -0.0065 0.0065 1 450.8486 150.3322)" style="fill:#FFF241; font-family:'Raleway-SemiBold'; font-size:40.3362px; letter-spacing:8;">$</text>
					</g>
				</g>
				<g style="opacity:0.35;">
					<defs>
						
							<ellipse id="SVGID_00000055694536635345989010000002604865045942834078_" transform="matrix(0.6224 -0.7827 0.7827 0.6224 66.7417 415.5656)" style="opacity:0.35;" cx="464.084" cy="138.608" rx="36.944" ry="36.944"/>
					</defs>
					<clipPath id="SVGID_00000145753306106609590990000008149741362005770923_">
						<use xlink:href="#SVGID_00000055694536635345989010000002604865045942834078_"  style="overflow:visible;"/>
					</clipPath>
					<g style="opacity:0.58;clip-path:url(#SVGID_00000145753306106609590990000008149741362005770923_);">
						
							<rect x="443.922" y="99.912" transform="matrix(0.7025 -0.7117 0.7117 0.7025 21.6386 363.3759)" style="fill:#FFFFFF;" width="3.004" height="111.792"/>
						
							<rect x="479.196" y="64.174" transform="matrix(0.7025 -0.7117 0.7117 0.7025 57.5624 377.837)" style="fill:#FFFFFF;" width="3.005" height="111.792"/>
						
							<rect x="458.735" y="80.892" transform="matrix(0.7025 -0.7117 0.7117 0.7025 40.7594 371.0746)" style="fill:#FFFFFF;" width="10.925" height="111.792"/>
					</g>
				</g>
			</g>
			<g>
				
					<ellipse transform="matrix(0.2572 -0.9663 0.9663 0.2572 -153.3554 512.1973)" style="fill:#FFF241;" cx="256.511" cy="355.858" rx="36.944" ry="36.944"/>
				<path style="fill:#FFB041;" d="M256.743,391.448c-20.176,0.132-36.67-15.938-37.163-36.026c-0.003,0.226-0.014,0.45-0.013,0.676
					c0.133,20.403,16.781,36.835,37.184,36.702c20.403-0.133,36.835-16.781,36.702-37.185c-0.001-0.227-0.016-0.45-0.022-0.676
					C293.202,375.033,276.919,391.317,256.743,391.448z"/>
				<path style="fill:#FFFFFF;" d="M256.278,320.267c20.176-0.132,36.67,15.938,37.163,36.026c0.003-0.226,0.014-0.449,0.013-0.676
					c-0.133-20.403-16.781-36.835-37.184-36.702c-20.403,0.133-36.835,16.781-36.702,37.184c0.001,0.227,0.016,0.45,0.021,0.676
					C219.82,336.682,236.102,320.398,256.278,320.267z"/>
				
					<ellipse transform="matrix(0.8805 -0.474 0.474 0.8805 -138.0214 164.0848)" style="fill:#FFD541;" cx="256.511" cy="355.858" rx="26.241" ry="26.241"/>
				<path style="fill:#FFB041;" d="M256.648,376.87c-13.61,0.089-24.865-10.2-26.264-23.456c-0.079,0.861-0.119,1.733-0.113,2.615
					c0.095,14.492,11.919,26.163,26.411,26.069c14.492-0.095,26.163-11.919,26.069-26.411c-0.006-0.882-0.057-1.754-0.147-2.613
					C281.378,366.346,270.257,376.781,256.648,376.87z"/>
				<g>
					<g>
						
							<text transform="matrix(1 -0.0065 0.0065 1 244.6322 368.2502)" style="fill:#FFB041; font-family:'Raleway-SemiBold'; font-size:40.3362px; letter-spacing:8;">$</text>
					</g>
					<g>
						
							<text transform="matrix(1 -0.0065 0.0065 1 243.2753 367.5813)" style="fill:#FFF241; font-family:'Raleway-SemiBold'; font-size:40.3362px; letter-spacing:8;">$</text>
					</g>
				</g>
				<g style="opacity:0.35;">
					<defs>
						
							<ellipse id="SVGID_00000165955969378646882730000004601618626977341582_" transform="matrix(0.2572 -0.9663 0.9663 0.2572 -153.3554 512.1973)" style="opacity:0.35;" cx="256.511" cy="355.858" rx="36.944" ry="36.944"/>
					</defs>
					<clipPath id="SVGID_00000012449185707292381930000003209010832513242257_">
						<use xlink:href="#SVGID_00000165955969378646882730000004601618626977341582_"  style="overflow:visible;"/>
					</clipPath>
					<g style="opacity:0.58;clip-path:url(#SVGID_00000012449185707292381930000003209010832513242257_);">
						
							<rect x="236.349" y="317.161" transform="matrix(0.7024 -0.7117 0.7117 0.7024 -194.7444 280.2907)" style="fill:#FFFFFF;" width="3.005" height="111.792"/>
						
							<rect x="271.623" y="281.423" transform="matrix(0.7025 -0.7117 0.7117 0.7025 -158.8109 294.7422)" style="fill:#FFFFFF;" width="3.004" height="111.792"/>
						
							<rect x="251.162" y="298.141" transform="matrix(0.7025 -0.7117 0.7117 0.7025 -175.6193 287.9801)" style="fill:#FFFFFF;" width="10.925" height="111.792"/>
					</g>
				</g>
			</g>
			<g>
				
					<ellipse transform="matrix(0.9527 -0.3039 0.3039 0.9527 -70.9178 201.644)" style="fill:#FFF241;" cx="612.39" cy="328.669" rx="52.711" ry="52.711"/>
				<path style="fill:#FFB041;" d="M589.832,374.166c-25.792-12.788-36.488-43.854-24.218-69.765
					c-0.148,0.286-0.307,0.564-0.45,0.853c-12.932,26.082-2.271,57.709,23.811,70.64c26.082,12.932,57.709,2.271,70.64-23.811
					c0.144-0.29,0.269-0.584,0.407-0.875C646.826,376.661,615.625,386.954,589.832,374.166z"/>
				<path style="fill:#FFFFFF;" d="M634.948,283.172c25.792,12.788,36.488,43.854,24.218,69.765c0.148-0.286,0.307-0.564,0.45-0.853
					c12.932-26.082,2.271-57.709-23.811-70.64c-26.082-12.932-57.709-2.271-70.64,23.811c-0.144,0.29-0.269,0.584-0.407,0.875
					C577.954,280.677,609.156,270.384,634.948,283.172z"/>
				
					<ellipse transform="matrix(0.891 -0.454 0.454 0.891 -82.4664 313.8521)" style="fill:#FFD541;" cx="612.39" cy="328.669" rx="37.44" ry="37.44"/>
				<path style="fill:#FFB041;" d="M599.073,355.529c-17.398-8.626-25.132-28.962-18.403-46.75
					c-0.654,1.045-1.264,2.131-1.823,3.259c-9.185,18.526-1.613,40.989,16.912,50.174s40.989,1.613,50.174-16.912
					c0.559-1.128,1.054-2.271,1.49-3.424C637.339,358.001,616.47,364.155,599.073,355.529z"/>
				<g>
					<g>
						
							<text transform="matrix(0.8959 0.4442 -0.4442 0.8959 589.3387 336.8671)" style="fill:#FFB041; font-family:'Raleway-SemiBold'; font-size:57.5513px; letter-spacing:11;">$</text>
					</g>
					<g>
						
							<text transform="matrix(0.8959 0.4442 -0.4442 0.8959 588.0389 335.1457)" style="fill:#FFF241; font-family:'Raleway-SemiBold'; font-size:57.5513px; letter-spacing:11;">$</text>
					</g>
				</g>
				<g style="opacity:0.35;">
					<defs>
						
							<ellipse id="SVGID_00000133494134540252784450000001880794036052790705_" transform="matrix(0.9527 -0.3039 0.3039 0.9527 -70.9178 201.644)" style="opacity:0.35;" cx="612.39" cy="328.669" rx="52.711" ry="52.711"/>
					</defs>
					<clipPath id="SVGID_00000020397209953182457160000012003342626498726030_">
						<use xlink:href="#SVGID_00000133494134540252784450000001880794036052790705_"  style="overflow:visible;"/>
					</clipPath>
					<g style="opacity:0.58;clip-path:url(#SVGID_00000020397209953182457160000012003342626498726030_);">
						
							<rect x="575.428" y="258.85" transform="matrix(0.9476 -0.3194 0.3194 0.9476 -77.8997 202.2291)" style="fill:#FFFFFF;" width="4.287" height="159.503"/>
						
							<rect x="643.32" y="235.966" transform="matrix(0.9476 -0.3194 0.3194 0.9476 -67.0333 222.7171)" style="fill:#FFFFFF;" width="4.287" height="159.503"/>
						
							<rect x="605.91" y="246.671" transform="matrix(0.9476 -0.3194 0.3194 0.9476 -72.1148 213.1232)" style="fill:#FFFFFF;" width="15.588" height="159.503"/>
					</g>
				</g>
			</g>
			<g>
				
					<ellipse transform="matrix(0.9498 -0.313 0.313 0.9498 -39.1083 211.1708)" style="fill:#FFF241;" cx="638.206" cy="227.401" rx="28.452" ry="28.452"/>
				<path style="fill:#FFB041;" d="M626.03,251.959c-13.922-6.902-19.695-23.671-13.072-37.657c-0.08,0.154-0.166,0.304-0.243,0.461
					c-6.98,14.078-1.226,31.149,12.852,38.13c14.078,6.98,31.149,1.226,38.13-12.852c0.078-0.157,0.145-0.315,0.22-0.472
					C656.794,253.305,639.952,258.861,626.03,251.959z"/>
				<path style="fill:#FFFFFF;" d="M650.382,202.843c13.922,6.902,19.695,23.671,13.072,37.657c0.08-0.154,0.166-0.304,0.243-0.461
					c6.98-14.078,1.226-31.15-12.852-38.13c-14.078-6.98-31.149-1.226-38.13,12.853c-0.078,0.156-0.145,0.315-0.22,0.472
					C619.618,201.496,636.46,195.941,650.382,202.843z"/>
				
					<ellipse transform="matrix(0.9446 -0.3282 0.3282 0.9446 -39.2815 222.0331)" style="fill:#FFD541;" cx="638.206" cy="227.401" rx="20.209" ry="20.209"/>
				<path style="fill:#FFB041;" d="M631.018,241.899c-9.391-4.656-13.566-15.633-9.933-25.234c-0.353,0.564-0.682,1.15-0.984,1.759
					c-4.958,9.999-0.871,22.125,9.129,27.083c10,4.958,22.125,0.871,27.083-9.129c0.302-0.609,0.569-1.226,0.804-1.848
					C651.673,243.233,640.409,246.555,631.018,241.899z"/>
				<g>
					<g>
						
							<text transform="matrix(0.8959 0.4442 -0.4442 0.8959 625.7891 231.8394)" style="fill:#FFB041; font-family:'Raleway-SemiBold'; font-size:31.0646px; letter-spacing:6;">$</text>
					</g>
					<g>
						
							<text transform="matrix(0.8959 0.4442 -0.4442 0.8959 625.0876 230.9095)" style="fill:#FFF241; font-family:'Raleway-SemiBold'; font-size:31.0646px; letter-spacing:6;">$</text>
					</g>
				</g>
				<g style="opacity:0.35;">
					<defs>
						
							<ellipse id="SVGID_00000079483586862329547870000005450692600547805580_" transform="matrix(0.9498 -0.313 0.313 0.9498 -39.1083 211.1708)" style="opacity:0.35;" cx="638.206" cy="227.401" rx="28.452" ry="28.452"/>
					</defs>
					<clipPath id="SVGID_00000125583739530844959420000012332121678072020108_">
						<use xlink:href="#SVGID_00000079483586862329547870000005450692600547805580_"  style="overflow:visible;"/>
					</clipPath>
					<g style="opacity:0.58;clip-path:url(#SVGID_00000125583739530844959420000012332121678072020108_);">
						
							<rect x="618.255" y="189.715" transform="matrix(0.9476 -0.3194 0.3194 0.9476 -41.8998 210.0431)" style="fill:#FFFFFF;" width="2.314" height="86.096"/>
						
							<rect x="654.901" y="177.362" transform="matrix(0.9476 -0.3194 0.3194 0.9476 -36.0346 221.1026)" style="fill:#FFFFFF;" width="2.314" height="86.095"/>
						
							<rect x="634.709" y="183.141" transform="matrix(0.9476 -0.3194 0.3194 0.9476 -38.7783 215.9296)" style="fill:#FFFFFF;" width="8.414" height="86.096"/>
					</g>
				</g>
			</g>
			<g>
				
					<ellipse transform="matrix(0.7071 -0.7071 0.7071 0.7071 -81.2998 146.3922)" style="fill:#FFF241;" cx="136.061" cy="171.334" rx="52.711" ry="52.711"/>
				<path style="fill:#FFB041;" d="M153.533,219.015c-27.031,9.905-56.927-3.723-67.274-30.461c0.105,0.305,0.198,0.61,0.309,0.914
					c10.016,27.335,40.294,41.374,67.629,31.358c27.334-10.016,41.374-40.294,31.358-67.629c-0.111-0.304-0.239-0.597-0.355-0.897
					C194.577,179.393,180.563,209.111,153.533,219.015z"/>
				<path style="fill:#FFFFFF;" d="M118.59,123.652c27.031-9.905,56.927,3.723,67.274,30.461c-0.105-0.305-0.198-0.611-0.309-0.914
					c-10.016-27.334-40.294-41.374-67.629-31.358s-41.374,40.294-31.358,67.629c0.111,0.304,0.239,0.597,0.355,0.898
					C77.545,163.274,91.559,133.557,118.59,123.652z"/>
				
					<ellipse transform="matrix(0.2737 -0.9618 0.9618 0.2737 -65.9743 255.2953)" style="fill:#FFD541;" cx="136.061" cy="171.334" rx="37.44" ry="37.44"/>
				<path style="fill:#FFB041;" d="M146.376,199.484c-18.233,6.681-38.308-1.708-46.578-18.835c0.308,1.194,0.676,2.384,1.109,3.566
					c7.114,19.415,28.62,29.387,48.036,22.273c19.415-7.114,29.387-28.62,22.273-48.036c-0.433-1.182-0.922-2.328-1.458-3.438
					C174.511,173.429,164.609,192.803,146.376,199.484z"/>
				<g>
					<g>
						
							<text transform="matrix(0.9389 -0.3441 0.3441 0.9389 126.0678 193.715)" style="fill:#FFB041; font-family:'Raleway-SemiBold'; font-size:57.5513px; letter-spacing:11;">$</text>
					</g>
					<g>
						
							<text transform="matrix(0.9389 -0.3441 0.3441 0.9389 123.9244 193.4728)" style="fill:#FFF241; font-family:'Raleway-SemiBold'; font-size:57.5513px; letter-spacing:11;">$</text>
					</g>
				</g>
				<g style="opacity:0.35;">
					<defs>
						
							<ellipse id="SVGID_00000152248132747006641380000000927798813247720064_" transform="matrix(0.7071 -0.7071 0.7071 0.7071 -81.2998 146.3922)" style="opacity:0.35;" cx="136.061" cy="171.334" rx="52.711" ry="52.711"/>
					</defs>
					<clipPath id="SVGID_00000139977014512463651580000010374838166045704107_">
						<use xlink:href="#SVGID_00000152248132747006641380000000927798813247720064_"  style="overflow:visible;"/>
					</clipPath>
					<g style="opacity:0.58;clip-path:url(#SVGID_00000139977014512463651580000010374838166045704107_);">
						
							<rect x="117.153" y="123.674" transform="matrix(0.4207 -0.9072 0.9072 0.4207 -115.4387 226.0788)" style="fill:#FFFFFF;" width="4.287" height="159.503"/>
						
							<rect x="147.291" y="58.677" transform="matrix(0.4207 -0.9072 0.9072 0.4207 -39.0125 215.7653)" style="fill:#FFFFFF;" width="4.287" height="159.503"/>
						
							<rect x="127.542" y="89.082" transform="matrix(0.4207 -0.9072 0.9072 0.4207 -74.7632 220.5922)" style="fill:#FFFFFF;" width="15.588" height="159.503"/>
					</g>
				</g>
			</g>
			<g>
				
					<ellipse transform="matrix(0.3075 -0.9515 0.9515 0.3075 277.9851 570.7299)" style="fill:#FFF241;" cx="531.125" cy="94.369" rx="21.983" ry="21.983"/>
				<path style="fill:#FFB041;" d="M531.263,115.547c-12.005,0.078-21.819-9.484-22.113-21.436
					c-0.002,0.134-0.008,0.267-0.008,0.402c0.079,12.14,9.985,21.918,22.126,21.839c12.14-0.079,21.918-9.985,21.839-22.126
					c-0.001-0.135-0.009-0.268-0.013-0.402C552.957,105.779,543.268,115.468,531.263,115.547z"/>
				<path style="fill:#FFFFFF;" d="M530.987,73.192c12.005-0.078,21.819,9.484,22.113,21.436c0.002-0.134,0.008-0.267,0.008-0.402
					c-0.079-12.14-9.985-21.918-22.125-21.839c-12.141,0.079-21.918,9.985-21.839,22.126c0.001,0.135,0.009,0.268,0.013,0.402
					C509.293,82.96,518.981,73.27,530.987,73.192z"/>
				
					<ellipse transform="matrix(0.7071 -0.7071 0.7071 0.7071 88.8337 403.2021)" style="fill:#FFD541;" cx="531.125" cy="94.369" rx="15.614" ry="15.614"/>
				<path style="fill:#FFB041;" d="M531.206,106.872c-8.098,0.053-14.795-6.069-15.628-13.957c-0.047,0.512-0.071,1.031-0.067,1.556
					c0.056,8.623,7.092,15.568,15.715,15.511c8.623-0.056,15.568-7.092,15.511-15.715c-0.003-0.525-0.034-1.044-0.088-1.555
					C545.922,100.61,539.305,106.819,531.206,106.872z"/>
				<g>
					<g>
						
							<text transform="matrix(1 -0.0065 0.0065 1 524.0656 101.7424)" style="fill:#FFB041; font-family:'Raleway-SemiBold'; font-size:24.0009px; letter-spacing:4;">$</text>
					</g>
					<g>
						
							<text transform="matrix(1 -0.0065 0.0065 1 523.2582 101.3443)" style="fill:#FFF241; font-family:'Raleway-SemiBold'; font-size:24.0009px; letter-spacing:4;">$</text>
					</g>
				</g>
				<g style="opacity:0.35;">
					<defs>
						
							<ellipse id="SVGID_00000050621306587148743560000002882890349203818171_" transform="matrix(0.3075 -0.9515 0.9515 0.3075 277.9851 570.7299)" style="opacity:0.35;" cx="531.125" cy="94.369" rx="21.983" ry="21.983"/>
					</defs>
					<clipPath id="SVGID_00000046316955736348047780000009086435836648486275_">
						<use xlink:href="#SVGID_00000050621306587148743560000002882890349203818171_"  style="overflow:visible;"/>
					</clipPath>
					<g style="opacity:0.58;clip-path:url(#SVGID_00000046316955736348047780000009086435836648486275_);">
						
							<rect x="519.128" y="71.344" transform="matrix(0.7024 -0.7117 0.7117 0.7024 80.2835 401.2425)" style="fill:#FFFFFF;" width="1.788" height="66.519"/>
						
							<rect x="540.117" y="50.079" transform="matrix(0.7025 -0.7117 0.7117 0.7025 101.6392 409.8207)" style="fill:#FFFFFF;" width="1.788" height="66.519"/>
						
							<rect x="527.942" y="60.027" transform="matrix(0.7025 -0.7117 0.7117 0.7025 91.6533 405.8128)" style="fill:#FFFFFF;" width="6.501" height="66.519"/>
					</g>
				</g>
			</g>
		</g>
		<g>
			<g>
				<g>
					<g>
						
							<text transform="matrix(1 0 0 1 322.312 389.1331)" style="fill:#FFFFFF; font-family:'Raleway-BoldItalic'; font-size:14.3292px; letter-spacing:2;">www.dollarsandlife.com</text>
					</g>
					<path style="fill:none;stroke-width:0.907;stroke-miterlimit:10;" d="M421.152,398.246h-92.304
						c-7.51,0-13.598-6.088-13.598-13.598v0c0-7.51,6.088-13.598,13.598-13.598h92.304c7.51,0,13.598,6.088,13.598,13.598v0
						C434.75,392.158,428.662,398.246,421.152,398.246z"/>
				</g>
			</g>
			<g>
				<g>
					<path style="fill:#D060E1;" d="M245.415,182.364l-22.381-3.668c-0.826-0.135-1.371,0.834-0.827,1.47l6.253,7.298
						c-35.306,14.387-32.864,49.306-32.833,49.679c0.11,1.325,1.064,2.375,2.29,2.668c0.3,0.072,0.617,0.098,0.941,0.072
						c1.649-0.133,2.879-1.579,2.75-3.228c-0.105-1.334-2.026-30.823,28.879-43.539l0.675,8.638
						c0.065,0.835,1.137,1.133,1.624,0.453L246,183.772C246.388,183.231,246.072,182.471,245.415,182.364z"/>
					<path style="fill:#00DDFB;" d="M508.585,317.636l22.381,3.668c0.826,0.135,1.372-0.834,0.827-1.47l-6.253-7.298
						c35.306-14.387,32.864-49.306,32.833-49.68c-0.11-1.324-1.064-2.375-2.29-2.668c-0.3-0.072-0.617-0.098-0.941-0.072
						c-1.649,0.133-2.879,1.579-2.75,3.228c0.105,1.334,2.026,30.823-28.879,43.539l-0.675-8.638
						c-0.065-0.835-1.137-1.134-1.625-0.453L508,316.228C507.612,316.769,507.928,317.529,508.585,317.636z"/>
				</g>
				<g>
					<g>
						<g>
							<g>
								<polyline style="fill:none;stroke:#99EFFB;stroke-linecap:round;stroke-linejoin:round;" points="575.712,194.069 
									576.883,196.278 575.712,198.487 								"/>
								
									<line style="fill:none;stroke:#99EFFB;stroke-linecap:round;stroke-linejoin:round;stroke-dasharray:5.3946,5.3946;" x1="573.186" y1="203.253" x2="554.242" y2="239.004"/>
								<polyline style="fill:none;stroke:#99EFFB;stroke-linecap:round;stroke-linejoin:round;" points="552.979,241.387 
									551.808,243.596 549.308,243.596 								"/>
								
									<line style="fill:none;stroke:#99EFFB;stroke-linecap:round;stroke-linejoin:round;stroke-dasharray:4.9203,4.9203;" x1="544.388" y1="243.596" x2="261.471" y2="243.596"/>
								<polyline style="fill:none;stroke:#99EFFB;stroke-linecap:round;stroke-linejoin:round;" points="259.011,243.596 
									256.511,243.596 257.681,241.387 								"/>
								
									<line style="fill:none;stroke:#99EFFB;stroke-linecap:round;stroke-linejoin:round;stroke-dasharray:5.3946,5.3946;" x1="260.207" y1="236.62" x2="279.152" y2="200.87"/>
								<polyline style="fill:none;stroke:#99EFFB;stroke-linecap:round;stroke-linejoin:round;" points="280.415,198.487 
									281.586,196.278 280.415,194.069 								"/>
								
									<line style="fill:none;stroke:#99EFFB;stroke-linecap:round;stroke-linejoin:round;stroke-dasharray:5.3936,5.3936;" x1="277.889" y1="189.303" x2="258.945" y2="153.562"/>
								<polyline style="fill:none;stroke:#99EFFB;stroke-linecap:round;stroke-linejoin:round;" points="257.682,151.179 
									256.511,148.97 259.011,148.97 								"/>
								
									<line style="fill:none;stroke:#99EFFB;stroke-linecap:round;stroke-linejoin:round;stroke-dasharray:4.9203,4.9203;" x1="263.931" y1="148.97" x2="546.848" y2="148.97"/>
								<polyline style="fill:none;stroke:#99EFFB;stroke-linecap:round;stroke-linejoin:round;" points="549.308,148.97 
									551.808,148.97 552.979,151.179 								"/>
								
									<line style="fill:none;stroke:#99EFFB;stroke-linecap:round;stroke-linejoin:round;stroke-dasharray:5.3936,5.3936;" x1="555.505" y1="155.945" x2="574.449" y2="191.686"/>
							</g>
						</g>
						<g>
							<polygon style="fill:#00DDFB;" points="569.925,190.916 544.851,238.234 249.553,238.234 274.628,190.916 249.553,143.608 
								544.851,143.608 							"/>
							<polygon style="fill:#02BBD4;" points="249.553,238.234 569.925,190.916 544.851,238.234 							"/>
							
								<line style="fill:none;stroke:#99EFFB;stroke-width:3;stroke-linecap:round;stroke-linejoin:round;stroke-miterlimit:10;" x1="535.968" y1="152.972" x2="450.947" y2="152.972"/>
							
								<line style="fill:none;stroke:#99EFFB;stroke-width:3;stroke-linecap:round;stroke-linejoin:round;stroke-miterlimit:10;" x1="435.628" y1="152.972" x2="404.989" y2="152.972"/>
						</g>
						<g>
							<g>
								
									<text transform="matrix(1 0 0 1 301.7609 217.1852)" style="fill:#0299AD; font-family:'Raleway-BlackItalic'; font-size:65.263px; letter-spacing:13;">CASH</text>
							</g>
							
								<text transform="matrix(1 0 0 1 298.7609 216.1852)" style="fill:#FFFFFF; font-family:'Raleway-BlackItalic'; font-size:65.263px; letter-spacing:13;">CASH</text>
						</g>
					</g>
					<g>
						<g>
							<g>
								<g>
									
										<line style="fill:none;stroke:#EF82FF;stroke-linecap:round;stroke-linejoin:round;" x1="301.761" y1="356.392" x2="304.261" y2="356.392"/>
									
										<line style="fill:none;stroke:#EF82FF;stroke-linecap:round;stroke-linejoin:round;stroke-dasharray:5.0467,5.0467;" x1="309.308" y1="356.392" x2="488.466" y2="356.392"/>
									<polyline style="fill:none;stroke:#EF82FF;stroke-linecap:round;stroke-linejoin:round;" points="490.989,356.392 
										493.489,356.392 492.318,354.183 									"/>
									
										<line style="fill:none;stroke:#EF82FF;stroke-linecap:round;stroke-linejoin:round;stroke-dasharray:5.3946,5.3946;" x1="489.792" y1="349.416" x2="470.848" y2="313.666"/>
									<polyline style="fill:none;stroke:#EF82FF;stroke-linecap:round;stroke-linejoin:round;" points="469.585,311.282 
										468.414,309.073 469.585,306.865 									"/>
									
										<line style="fill:none;stroke:#EF82FF;stroke-linecap:round;stroke-linejoin:round;stroke-dasharray:5.3936,5.3936;" x1="472.111" y1="302.099" x2="491.055" y2="266.357"/>
									<polyline style="fill:none;stroke:#EF82FF;stroke-linecap:round;stroke-linejoin:round;" points="492.318,263.975 
										493.489,261.766 490.989,261.766 									"/>
									
										<line style="fill:none;stroke:#EF82FF;stroke-linecap:round;stroke-linejoin:round;stroke-dasharray:4.9203,4.9203;" x1="486.069" y1="261.766" x2="203.152" y2="261.766"/>
									<polyline style="fill:none;stroke:#EF82FF;stroke-linecap:round;stroke-linejoin:round;" points="200.692,261.766 
										198.192,261.766 197.021,263.975 									"/>
									
										<line style="fill:none;stroke:#EF82FF;stroke-linecap:round;stroke-linejoin:round;stroke-dasharray:5.3936,5.3936;" x1="194.495" y1="268.74" x2="175.551" y2="304.482"/>
									<polyline style="fill:none;stroke:#EF82FF;stroke-linecap:round;stroke-linejoin:round;" points="174.288,306.865 
										173.117,309.073 174.288,311.282 									"/>
									
										<line style="fill:none;stroke:#EF82FF;stroke-linecap:round;stroke-linejoin:round;stroke-dasharray:5.3946,5.3946;" x1="176.814" y1="316.049" x2="195.758" y2="351.799"/>
									<polyline style="fill:none;stroke:#EF82FF;stroke-linecap:round;stroke-linejoin:round;" points="197.021,354.183 
										198.192,356.392 200.692,356.392 									"/>
									
										<line style="fill:none;stroke:#EF82FF;stroke-linecap:round;stroke-linejoin:round;" x1="203.117" y1="356.392" x2="205.617" y2="356.392"/>
								</g>
							</g>
							<g>
								<polygon style="fill:#D060E1;" points="180.074,303.712 205.149,351.03 500.447,351.03 475.372,303.712 500.447,256.404 
									205.149,256.404 								"/>
								<polygon style="fill:#B855C7;" points="500.447,351.03 180.074,303.712 205.149,351.03 								"/>
								
									<line style="fill:none;stroke:#EF82FF;stroke-width:3;stroke-linecap:round;stroke-linejoin:round;stroke-miterlimit:10;" x1="214.032" y1="265.768" x2="299.053" y2="265.768"/>
								
									<line style="fill:none;stroke:#EF82FF;stroke-width:3;stroke-linecap:round;stroke-linejoin:round;stroke-miterlimit:10;" x1="314.372" y1="265.768" x2="345.011" y2="265.768"/>
							</g>
						</g>
						<g>
							<g>
								
									<text transform="matrix(1 0 0 1 230.3144 331.4443)" style="fill:#A74DB5; font-family:'Raleway-BlackItalic'; font-size:65.263px; letter-spacing:13;">BACK</text>
							</g>
							
								<text transform="matrix(1 0 0 1 227.3144 330.4443)" style="fill:#FFFFFF; font-family:'Raleway-BlackItalic'; font-size:65.263px; letter-spacing:13;">BACK</text>
						</g>
					</g>
				</g>
				<g>
					<g>
						<g>
							<path style="fill:#FFFFFF;" d="M243.415,182.364l-22.381-3.668c-0.826-0.135-1.371,0.834-0.827,1.47l6.253,7.298
								c-35.306,14.387-32.864,49.306-32.833,49.679c0.11,1.325,1.064,2.375,2.29,2.668c0.3,0.072,0.617,0.098,0.941,0.072
								c1.649-0.133,2.879-1.579,2.75-3.228c-0.105-1.334-2.026-30.823,28.879-43.539l0.675,8.638
								c0.065,0.835,1.137,1.133,1.624,0.453L244,183.772C244.388,183.231,244.072,182.471,243.415,182.364z"/>
						</g>
						<g>
							<path style="fill:#FFFFFF;" d="M506.585,317.636l22.381,3.668c0.826,0.135,1.371-0.834,0.827-1.47l-6.253-7.298
								c35.306-14.387,32.864-49.306,32.833-49.68c-0.11-1.324-1.064-2.375-2.29-2.668c-0.3-0.072-0.617-0.098-0.941-0.072
								c-1.649,0.133-2.879,1.579-2.75,3.228c0.105,1.334,2.026,30.823-28.879,43.539l-0.675-8.638
								c-0.065-0.835-1.137-1.134-1.625-0.453L506,316.228C505.612,316.769,505.928,317.529,506.585,317.636z"/>
						</g>
					</g>
				</g>
			</g>
		</g>
	</g>
</g>
</svg>
