<?xml version="1.0" encoding="utf-8"?>
<!-- Generator: Adobe Illustrator 27.5.0, SVG Export Plug-In . SVG Version: 6.00 Build 0)  -->
<svg version="1.1" xmlns="http://www.w3.org/2000/svg" xmlns:xlink="http://www.w3.org/1999/xlink" x="0px" y="0px"
	 viewBox="0 0 500 500" style="enable-background:new 0 0 500 500;" xml:space="preserve">
<g id="BACKGROUND">
	<rect style="fill:#4ABAFF;" width="500" height="500"/>
	<rect y="379.634" style="fill:#2496EA;" width="500" height="120.366"/>
</g>
<g id="OBJECTS">
	<g>
		<path style="fill:#E1FFFE;" d="M90.711,293.381v46.9c0,0.952-0.459,1.857-1.228,2.42c-0.773,0.564-1.774,0.729-2.681,0.439
			c-12.64-4.008-25.82-1.918-38.568,0.104c-7.642,1.212-15.544,2.465-23.526,2.465c-6.522,0-12.343-0.84-17.794-2.568
			c-1.252-0.397-2.093-1.546-2.093-2.859v-46.9c0-0.952,0.459-1.857,1.228-2.42c0.768-0.562,1.768-0.725,2.674-0.441
			c12.649,4.01,25.827,1.919,38.573-0.103c13.446-2.13,27.336-4.328,41.322,0.104h0C89.87,290.919,90.711,292.068,90.711,293.381z
			 M372.744,148.134v-14.951c0-1.192-0.706-2.272-1.802-2.75l-15.354-6.689c-0.38-0.165-0.782-0.249-1.196-0.249h-14.342V108.86
			c0-4.24-1.804-8.304-4.948-11.15c-2.768-2.508-6.352-3.889-10.092-3.889H174.99c-4.848,0-9.425,2.357-12.244,6.304
			c-0.665,0.93-1.223,1.936-1.657,2.987c-0.296,0.714-0.538,1.456-0.719,2.208c-0.185,0.767-0.31,1.552-0.373,2.335
			c-0.032,0.398-0.047,0.8-0.047,1.205v21.703h-19.35c-2.581,0-5.106,0.893-7.109,2.513c-2.673,2.161-4.206,5.369-4.206,8.802
			v27.902c0,4.34,2.419,8.23,6.316,10.154c1.566,0.771,3.248,1.162,4.999,1.162h7.762c-0.345,1.092-0.522,2.239-0.522,3.41v27.901
			c0,4.34,2.419,8.23,6.313,10.152c1.564,0.772,3.248,1.164,5.002,1.164h0.795v44.519h-14.342c-0.414,0-0.816,0.084-1.198,0.249
			l-15.354,6.688c-1.094,0.478-1.801,1.557-1.801,2.75v14.122c-8.662,1.054-17.915,1.461-27.354-1.532
			c-0.906-0.283-1.906-0.12-2.675,0.441c-0.769,0.563-1.228,1.468-1.228,2.42v46.9c0,1.313,0.841,2.462,2.093,2.859
			c10.274,3.256,20.39,2.876,29.163,1.853v10.738c0,1.193,0.707,2.272,1.802,2.751l15.355,6.689c0.38,0.164,0.782,0.248,1.196,0.248
			h14.342v25.719c0,1.97,0.376,3.886,1.117,5.696c1.182,2.888,3.292,5.393,5.94,7.053c2.391,1.499,5.151,2.291,7.982,2.291h150.019
			c3.302,0,6.437-1.051,9.064-3.037c3.798-2.872,5.976-7.247,5.976-12.003v-86.92l3.918-0.001c1.654,0,3-1.346,3-3v-59.953
			c0-1.654-1.346-3-3-3h-3.918v-17.594h14.342c0.414,0,0.816-0.083,1.198-0.25l15.354-6.689c1.094-0.478,1.8-1.557,1.8-2.75v-15.458
			c10.406-3.148,17.544-12.675,17.544-23.695C390.288,160.808,383.15,151.282,372.744,148.134z M417.965,147.061
			c-13.657,0-24.768,11.111-24.768,24.769c0,13.657,11.11,24.768,24.768,24.768s24.768-11.111,24.768-24.768
			C442.733,158.173,431.623,147.061,417.965,147.061z M470.411,147.061c-13.657,0-24.768,11.111-24.768,24.769
			c0,13.657,11.11,24.768,24.768,24.768s24.768-11.111,24.768-24.768C495.178,158.173,484.068,147.061,470.411,147.061z"/>
		<g>
			<polygon style="fill:#0F214F;" points="130.256,355.732 145.608,362.42 145.608,271.242 130.256,277.93 			"/>
			<polygon style="fill:#0F214F;" points="369.744,210.984 354.392,217.672 354.392,126.495 369.744,133.182 			"/>
			<g>
				<g>
					<g>
						<path style="fill:#6E9B34;" d="M178.89,340.281c-26.63-8.442-53.26,8.442-79.89,0c0-15.633,0-31.267,0-46.9
							c26.63,8.442,53.26-8.442,79.89,0C178.89,309.014,178.89,324.648,178.89,340.281z"/>
						<g>
							<path style="fill:#FDFFDE;" d="M175.286,335.715c-24.227-5.695-48.454,7.68-72.681,1.985c0-13.251,0-26.502,0-39.753
								c24.227,5.695,48.454-7.68,72.681-1.985C175.286,309.213,175.286,322.464,175.286,335.715z M102.83,337.526
								c24.077,5.542,48.153-7.633,72.23-2.09c0-13.1,0-26.201,0-39.301c-24.076-5.542-48.153,7.633-72.23,2.09
								C102.83,311.326,102.83,324.426,102.83,337.526z"/>
						</g>
						<path style="fill:#FDFFDE;" d="M155.419,314.664c0,9.048-7.376,17.094-16.474,18.642c-9.098,1.547-16.474-5.158-16.474-14.307
							c0-9.048,7.376-17.095,16.474-18.641C148.043,298.81,155.419,305.515,155.419,314.664z"/>
						<g>
							<path style="fill:#6E9B34;" d="M140.922,324.902c0,1.222,0,2.443,0,3.665c-1.062,0.167-2.124,0.336-3.186,0.504
								c0-1.23,0-2.46,0-3.69c-2.252,0.047-4.431-0.553-6.037-1.644c0.567-1.223,1.134-2.447,1.701-3.674
								c1.724,1.229,4.336,1.87,6.084,1.592c1.293-0.205,2.107-0.812,2.107-1.698c0-2.85-8.839,0.273-8.839-5.691
								c0-2.658,1.916-4.783,4.982-5.773c0-1.173,0-2.347,0-3.521c1.062-0.168,2.124-0.337,3.186-0.504c0,1.166,0,2.331,0,3.497
								c1.964-0.095,3.833,0.291,5.246,1.002c-0.551,1.237-1.102,2.475-1.653,3.715c-1.773-0.743-4.025-1.178-5.414-0.957
								c-1.054,0.167-1.749,0.661-1.749,1.428c0,2.77,8.839-0.195,8.839,5.872C146.191,321.971,143.939,324.017,140.922,324.902z"/>
						</g>
						<g>
							<path style="fill:#FDFFDE;" d="M114.587,303.794c0,1.117-2.058,2.015-4.597,1.783c-2.539-0.226-4.597-1.523-4.597-2.642
								c0-1.123,2.058-1.645,4.597-1.418C112.529,301.75,114.587,302.668,114.587,303.794z"/>
							<path style="fill:#FDFFDE;" d="M172.497,330.727c0,1.123-2.058,1.644-4.597,1.418c-2.539-0.233-4.597-1.152-4.597-2.277
								c0-1.117,2.058-2.016,4.597-1.783C170.438,328.312,172.497,329.607,172.497,330.727z"/>
						</g>
					</g>
					<g>
						<path style="fill:#6E9B34;" d="M87.711,340.281c-26.63-8.442-53.26,8.442-79.89,0c0-15.633,0-31.267,0-46.9
							c26.63,8.442,53.26-8.442,79.89,0C87.711,309.014,87.711,324.648,87.711,340.281z"/>
						<g>
							<path style="fill:#FDFFDE;" d="M84.107,335.715c-24.227-5.695-48.454,7.68-72.681,1.985c0-13.251,0-26.502,0-39.753
								c24.227,5.695,48.454-7.68,72.681-1.985C84.107,309.213,84.107,322.464,84.107,335.715z M11.652,337.526
								c24.077,5.542,48.153-7.633,72.23-2.09c0-13.1,0-26.201,0-39.301c-24.077-5.542-48.153,7.633-72.23,2.09
								C11.652,311.326,11.652,324.426,11.652,337.526z"/>
						</g>
						<path style="fill:#FDFFDE;" d="M64.241,314.664c0,9.048-7.376,17.094-16.474,18.642c-9.098,1.547-16.474-5.158-16.474-14.307
							c0-9.048,7.376-17.095,16.474-18.641C56.865,298.81,64.241,305.515,64.241,314.664z"/>
						<g>
							<path style="fill:#6E9B34;" d="M49.743,324.902c0,1.222,0,2.443,0,3.665c-1.062,0.167-2.124,0.336-3.186,0.504
								c0-1.23,0-2.46,0-3.69c-2.252,0.047-4.431-0.553-6.037-1.644c0.567-1.223,1.134-2.447,1.701-3.674
								c1.724,1.229,4.336,1.87,6.084,1.592c1.293-0.205,2.107-0.812,2.107-1.698c0-2.85-8.839,0.273-8.839-5.691
								c0-2.658,1.916-4.783,4.982-5.773c0-1.173,0-2.347,0-3.521c1.062-0.168,2.124-0.337,3.186-0.504c0,1.166,0,2.331,0,3.497
								c1.964-0.095,3.833,0.291,5.246,1.002c-0.551,1.237-1.102,2.475-1.653,3.715c-1.773-0.743-4.025-1.178-5.414-0.957
								c-1.054,0.167-1.749,0.661-1.749,1.428c0,2.77,8.839-0.195,8.839,5.872C55.012,321.971,52.76,324.017,49.743,324.902z"/>
						</g>
						<g>
							<path style="fill:#FDFFDE;" d="M23.408,303.794c0,1.117-2.058,2.015-4.597,1.783c-2.539-0.226-4.597-1.523-4.597-2.642
								c0-1.123,2.058-1.645,4.597-1.418C21.35,301.75,23.408,302.668,23.408,303.794z"/>
							<path style="fill:#FDFFDE;" d="M81.318,330.727c0,1.123-2.058,1.644-4.597,1.418c-2.539-0.233-4.597-1.152-4.597-2.277
								c0-1.117,2.058-2.016,4.597-1.783C79.26,328.312,81.318,329.607,81.318,330.727z"/>
						</g>
					</g>
				</g>
				<g>
					<g>
						<g>
							<circle style="fill:#FFDC0D;" cx="365.52" cy="171.83" r="21.768"/>
							<circle style="fill:#FFB90B;" cx="365.52" cy="171.83" r="16.508"/>
							<path style="fill:#F29106;" d="M365.52,157.923c8.679,0,15.788,6.699,16.452,15.207c0.034-0.43,0.056-0.862,0.056-1.301
								c0-9.117-7.391-16.508-16.508-16.508c-9.117,0-16.508,7.391-16.508,16.508c0,0.438,0.022,0.871,0.056,1.301
								C349.732,164.622,356.841,157.923,365.52,157.923z"/>
						</g>
						<g>
							<path style="fill:#FFDC0D;" d="M369.442,178.172l1.005,3.009l-2.617,0.874l-1.012-3.029c-1.934,0.361-3.981,0.192-5.658-0.45
								l0.456-3.278c1.825,0.746,4.257,0.896,5.693,0.416c1.062-0.355,1.6-0.972,1.357-1.699c-0.782-2.341-7.567,1.499-9.196-3.378
								c-0.729-2.184,0.338-4.223,2.717-5.477l-0.966-2.892l2.617-0.874l0.959,2.872c1.672-0.362,3.39-0.323,4.8,0.037l-0.404,3.305
								c-1.732-0.339-3.797-0.372-4.939,0.01c-0.865,0.289-1.33,0.794-1.12,1.423c0.762,2.281,7.587-1.441,9.242,3.516
								C373.185,174.976,371.808,177.011,369.442,178.172z"/>
						</g>
					</g>
					<g>
						<g>
							<circle style="fill:#FFDC0D;" cx="417.965" cy="171.83" r="21.768"/>
							<circle style="fill:#FFB90B;" cx="417.965" cy="171.83" r="16.508"/>
							<path style="fill:#F29106;" d="M417.965,157.923c8.679,0,15.788,6.699,16.452,15.207c0.034-0.43,0.056-0.862,0.056-1.301
								c0-9.117-7.391-16.508-16.508-16.508s-16.508,7.391-16.508,16.508c0,0.438,0.022,0.871,0.056,1.301
								C402.177,164.622,409.287,157.923,417.965,157.923z"/>
						</g>
						<g>
							<path style="fill:#FFDC0D;" d="M420.656,178.784l0.436,3.143l-2.733,0.379l-0.438-3.163c-1.967,0-3.948-0.542-5.48-1.481
								l1.05-3.139c1.657,1.068,4.02,1.662,5.52,1.454c1.109-0.154,1.751-0.662,1.646-1.421c-0.339-2.444-7.714,0.085-8.42-5.009
								c-0.316-2.281,1.107-4.09,3.677-4.885l-0.419-3.02l2.733-0.379l0.416,2.999c1.71-0.049,3.392,0.305,4.711,0.918l-1.004,3.174
								c-1.64-0.651-3.664-1.062-4.857-0.897c-0.903,0.125-1.453,0.536-1.362,1.194c0.33,2.383,7.722-0.024,8.44,5.153
								C424.922,176.33,423.195,178.077,420.656,178.784z"/>
						</g>
					</g>
					<g>
						<g>
							<circle style="fill:#FFDC0D;" cx="470.411" cy="171.83" r="21.768"/>
							<circle style="fill:#FFB90B;" cx="470.411" cy="171.83" r="16.508"/>
							<path style="fill:#F29106;" d="M470.411,157.923c8.679,0,15.788,6.699,16.452,15.207c0.034-0.43,0.056-0.862,0.056-1.301
								c0-9.117-7.391-16.508-16.508-16.508s-16.508,7.391-16.508,16.508c0,0.438,0.022,0.871,0.056,1.301
								C454.623,164.622,461.732,157.923,470.411,157.923z"/>
						</g>
						<g>
							<path style="fill:#FFDC0D;" d="M469.456,179.226l-1.117,2.97l-2.582-0.971l1.124-2.989c-1.729-0.939-3.211-2.361-4.108-3.917
								l2.42-2.257c0.946,1.73,2.739,3.379,4.157,3.912c1.048,0.394,1.855,0.254,2.125-0.464c0.869-2.31-6.819-3.607-5.009-8.42
								c0.811-2.155,2.925-3.065,5.562-2.539l1.073-2.853l2.582,0.971l-1.066,2.834c1.526,0.773,2.835,1.886,3.702,3.055
								l-2.397,2.31c-1.13-1.355-2.713-2.682-3.84-3.106c-0.853-0.321-1.533-0.222-1.767,0.399
								c-0.847,2.251,6.798,3.665,4.958,8.556C474.376,179.104,472.025,179.816,469.456,179.226z"/>
						</g>
					</g>
				</g>
			</g>
			<rect x="145.608" y="271.242" style="fill:#193063;" width="20.849" height="91.177"/>
			
				<rect x="333.543" y="126.495" transform="matrix(-1 -1.224647e-16 1.224647e-16 -1 687.9348 344.1664)" style="fill:#193063;" width="20.849" height="91.177"/>
			<g>
				<path style="fill:#193063;" d="M325.01,403.179H174.99c-2.347,0-4.537-0.671-6.388-1.833c-3.395-2.129-5.651-5.904-5.651-10.207
					V108.861c0-2.607,0.828-5.02,2.236-6.99c2.183-3.057,5.761-5.049,9.803-5.049H325.01c3.109,0,5.942,1.178,8.078,3.112
					c2.433,2.203,3.961,5.387,3.961,8.927v282.278c0,3.925-1.878,7.412-4.785,9.609C330.247,402.274,327.734,403.179,325.01,403.179
					z"/>
				<rect x="222.828" y="104.92" style="fill:#0F214F;" width="54.344" height="4.924"/>
				<path style="fill:#0F214F;" d="M177.338,403.179h-2.348c-2.347,0-4.537-0.671-6.388-1.833
					c-3.395-2.129-5.651-5.904-5.651-10.207V108.861c0-2.607,0.828-5.02,2.236-6.99c2.183-3.057,5.761-5.049,9.803-5.049h2.348
					V403.179z M322.322,403.179h2.348c2.347,0,4.537-0.671,6.388-1.833c3.395-2.129,5.651-5.904,5.651-10.207V108.861
					c0-2.607-0.828-5.02-2.236-6.99c-2.183-3.057-5.761-5.049-9.803-5.049h-2.348V403.179z"/>
				<rect x="170.014" y="115.943" style="fill:#FFB90B;" width="159.972" height="256.623"/>
				<path style="fill:#F29106;" d="M322.322,115.943h7.664v256.622h-7.664V115.943z M177.338,115.943h-7.324v256.622h7.324V115.943z
					"/>
				<circle style="fill:#0F214F;" cx="250.941" cy="387.337" r="8.305"/>
			</g>
			<g>
				<g>
					<g>
						<polygon style="fill:#F29106;" points="329.516,308.004 209.566,308.004 194.818,278.028 209.566,248.052 329.516,248.052 
													"/>
					</g>
					<polygon style="fill:#F94B5C;" points="343.967,301.218 213.184,301.218 198.436,271.242 213.184,241.266 343.967,241.266 
											"/>
					<rect x="322.322" y="241.266" style="fill:#E02D47;" width="21.645" height="59.952"/>
					<polygon style="fill:#E50E3D;" points="215.674,245.266 202.894,271.243 215.674,297.218 343.967,297.218 343.967,245.266 
											"/>
					<rect x="322.322" y="245.266" style="fill:#C60A3C;" width="21.645" height="51.952"/>
				</g>
				<g>
					<path style="fill:#FDFFDE;" d="M276.12,256.931l-4.594,22.285h-2.977l3.912-22.206h-44.349l4.274,24.263h34.938h0.863h5.016
						l4.594-22.285h4.306v-2.057H276.12z M268.416,268.112h-10.584l0.703-9.045h11.475L268.416,268.112z M244.838,268.112
						l-0.703-9.045h12.337l-0.703,9.045H244.838z M255.61,270.17l-0.703,9.045H245.7l-0.702-9.045H255.61z M242.071,259.067
						l0.702,9.045h-10.617l-1.594-9.045H242.071z M232.519,270.17h10.415l0.703,9.045h-9.524L232.519,270.17z M266.46,279.215h-9.49
						l0.702-9.045h10.381L266.46,279.215z M244.267,286.547c0,1.674-1.357,3.031-3.031,3.031s-3.031-1.357-3.031-3.031
						c0-1.674,1.357-3.031,3.031-3.031S244.267,284.873,244.267,286.547z M263.658,286.547c0,1.674-1.357,3.031-3.031,3.031
						c-1.674,0-3.031-1.357-3.031-3.031c0-1.674,1.357-3.031,3.031-3.031C262.301,283.516,263.658,284.873,263.658,286.547z"/>
					<rect x="290.014" y="256.931" style="fill:#FDFFDE;" width="20.292" height="2.136"/>
					<rect x="286.81" y="262.522" style="fill:#FDFFDE;" width="20.292" height="2.136"/>
					<rect x="282.103" y="268.112" style="fill:#FDFFDE;" width="20.292" height="2.136"/>
				</g>
			</g>
		</g>
		<g>
			<g>
				<path style="fill:#193063;" d="M289.405,353.313h-78.809c-0.95,0-1.848-0.221-2.645-0.615c-1.98-0.977-3.341-3.015-3.341-5.372
					v-20.089c0-1.882,0.868-3.561,2.226-4.658c1.028-0.831,2.336-1.328,3.761-1.328h78.809c1.425,0,2.733,0.498,3.761,1.328
					c1.358,1.098,2.226,2.777,2.226,4.658v20.089c0,1.497-0.55,2.866-1.458,3.916C292.836,352.511,291.214,353.313,289.405,353.313z
					"/>
				
					<text transform="matrix(1 0 0 1 208.6618 342.3665)" style="fill:#FDFFDE; font-family:'Montserrat-Bold'; font-size:15.8203px;">PAYMENT</text>
			</g>
			<g>
				<g>
					<path style="fill:#E50E3D;" d="M250.061,178.097H140.601c-1.319,0-2.566-0.307-3.674-0.854
						c-2.75-1.357-4.641-4.188-4.641-7.462v-27.902c0-2.614,1.206-4.946,3.092-6.47c1.428-1.154,3.245-1.845,5.224-1.845h109.459
						c1.979,0,3.796,0.691,5.224,1.845c1.886,1.524,3.092,3.856,3.092,6.47v27.902c0,2.08-0.763,3.981-2.025,5.439
						C254.826,176.982,252.574,178.097,250.061,178.097z"/>
					<path style="fill:#193063;" d="M268.615,220.724H159.156c-1.319,0-2.566-0.307-3.674-0.854
						c-2.75-1.357-4.641-4.188-4.641-7.462v-27.902c0-2.614,1.206-4.946,3.092-6.47c1.428-1.154,3.245-1.845,5.224-1.845h109.459
						c1.979,0,3.796,0.691,5.224,1.845c1.886,1.524,3.092,3.856,3.092,6.47v27.902c0,2.08-0.763,3.981-2.025,5.439
						C273.381,219.609,271.128,220.724,268.615,220.724z"/>
				</g>
				<g>
					
						<text transform="matrix(1 0 0 1 141.3507 168.8328)" style="fill:#FFFFFF; font-family:'Montserrat-Bold'; font-size:36.6585px;">CASH</text>
					
						<text transform="matrix(1 0 0 1 158.8238 211.4598)" style="fill:#FFDC0D; font-family:'Montserrat-Bold'; font-size:36.6585px;">BACK</text>
				</g>
			</g>
		</g>
	</g>
</g>
</svg>
