<?xml version="1.0" encoding="UTF-8"?><svg id="Layer_1" xmlns="http://www.w3.org/2000/svg" viewBox="0 0 98.38 24.76"><defs><style>.cls-1{fill:#2684fc;}.cls-2{fill:#00ac47;}.cls-3{fill:#e94235;}.cls-4{fill:#c5221f;}.cls-5{fill:#5f6368;}.cls-6{fill:#ffba00;}</style></defs><path class="cls-4" d="M0,3.38v3l3.44,3.33,4.06,2.3.75-5.05-.75-4.7-2.1-1.57C3.17-.99,0,.6,0,3.38Z"/><path class="cls-6" d="M25.5,2.26l-.75,4.76.75,4.99,3.68-1.82,3.82-3.8v-3c0-2.78-3.17-4.37-5.4-2.7l-2.1,1.57Z"/><path class="cls-1" d="M2.25,24.76h5.25v-12.75L0,6.38v16.12c0,1.24,1.01,2.25,2.25,2.25Z"/><path class="cls-2" d="M25.5,24.76h5.25c1.24,0,2.25-1.01,2.25-2.25V6.38l-7.5,5.62v12.75Z"/><path class="cls-3" d="M16.5,9.01L7.5,2.26v9.75l9,6.75,9-6.75V2.26l-9,6.75Z"/><path class="cls-5" d="M59.24,13.02c0,2.2-.65,3.95-1.96,5.26-1.47,1.55-3.4,2.33-5.79,2.33s-4.22-.79-5.81-2.38-2.38-3.53-2.38-5.85.79-4.27,2.38-5.85c1.58-1.58,3.52-2.38,5.81-2.38,1.16,0,2.25.21,3.28.62,1.03.41,1.87.99,2.53,1.74l-1.45,1.45c-.48-.59-1.11-1.04-1.89-1.36-.76-.34-1.58-.51-2.46-.51-1.72,0-3.17.59-4.36,1.78-1.17,1.2-1.76,2.71-1.76,4.51s.59,3.31,1.76,4.51c1.19,1.19,2.64,1.78,4.36,1.78,1.57,0,2.87-.44,3.92-1.32,1.04-.88,1.64-2.09,1.8-3.63h-5.72v-1.89h7.63c.07.41.11.81.11,1.19ZM63.46,20.26h-2.02v-10.78h1.94v1.5h.09c.31-.53.78-.97,1.41-1.32.65-.35,1.28-.53,1.91-.53.79,0,1.49.18,2.09.55.6.37,1.04.87,1.32,1.52.89-1.38,2.13-2.07,3.72-2.07,1.25,0,2.21.38,2.88,1.14.67.76,1.01,1.85,1.01,3.26v6.73h-2.02v-6.42c0-1.01-.18-1.74-.55-2.18-.37-.45-.98-.68-1.85-.68-.78,0-1.43.33-1.96.99s-.79,1.44-.79,2.33v5.96h-2.02v-6.42c0-1.01-.18-1.74-.55-2.18-.37-.45-.98-.68-1.85-.68-.78,0-1.43.33-1.96.99s-.79,1.44-.79,2.33v5.96ZM81.61,16.96c0,.53.22.97.66,1.32.45.35.98.53,1.58.53.85,0,1.61-.32,2.27-.95.67-.63,1.01-1.37,1.01-2.22-.63-.5-1.51-.75-2.64-.75-.82,0-1.51.2-2.07.59-.54.4-.81.89-.81,1.47ZM84.23,9.12c1.5,0,2.68.4,3.54,1.21.87.79,1.3,1.88,1.3,3.28v6.64h-1.94v-1.5h-.09c-.84,1.23-1.95,1.85-3.34,1.85-1.19,0-2.19-.35-2.99-1.06-.79-.7-1.19-1.58-1.19-2.64,0-1.11.42-2,1.25-2.66.85-.66,1.98-.99,3.39-.99,1.2,0,2.19.22,2.97.66v-.46c0-.7-.28-1.3-.84-1.78-.56-.5-1.21-.75-1.96-.75-1.13,0-2.02.48-2.68,1.43l-1.78-1.12c.98-1.41,2.43-2.11,4.36-2.11ZM94.05,5.76c0,.4-.14.73-.42,1.01-.28.28-.62.42-1.01.42s-.73-.14-1.01-.42c-.28-.28-.42-.62-.42-1.01s.14-.73.42-1.01c.28-.28.62-.42,1.01-.42s.73.14,1.01.42c.28.28.42.62.42,1.01ZM93.64,9.48v10.78h-2.02v-10.78h2.02ZM98.38,4.5v15.75h-2.02V4.5h2.02Z"/></svg>