<?xml version="1.0" encoding="utf-8"?>
<!-- Generator: Adobe Illustrator 27.5.0, SVG Export Plug-In . SVG Version: 6.00 Build 0)  -->
<svg version="1.1" xmlns="http://www.w3.org/2000/svg" xmlns:xlink="http://www.w3.org/1999/xlink" x="0px" y="0px"
	 viewBox="0 0 3710 3710" style="enable-background:new 0 0 3710 3710;" xml:space="preserve">
<g id="Background">
	<g>
		<g>
			<rect style="fill:#FFFFFF;" width="3710" height="3710"/>
		</g>
	</g>
</g>
<g id="Illustration">
	<g>
		<linearGradient id="SVGID_1_" gradientUnits="userSpaceOnUse" x1="3598.4399" y1="4058.0493" x2="1140.3387" y2="1005.2419">
			<stop  offset="0" style="stop-color:#B37CFF"/>
			<stop  offset="1" style="stop-color:#F895E7"/>
		</linearGradient>
		<path style="opacity:0.3;fill:url(#SVGID_1_);" d="M2920.692,2855.175c-56.379,59.497-109.724,97.866-151.871,128.18
			c-495.43,356.338-1081.654,252.467-1206.244,227.101c-183.979-37.458-539.607-109.863-796.72-412.955
			c-388.99-458.553-328.418-1180.99-26.692-1657.881c55.191-87.232,346.723-571.386,939.262-649.03
			c358.598-46.989,776.608,47.782,1079.32,302.009C3393.166,1326.244,3347.931,2404.302,2920.692,2855.175z"/>
		<g>
			
				<linearGradient id="SVGID_00000032633936107730185640000016008434663780788402_" gradientUnits="userSpaceOnUse" x1="1007.9947" y1="2602.884" x2="1299.0447" y2="1338.3218">
				<stop  offset="0" style="stop-color:#B37CFF"/>
				<stop  offset="1" style="stop-color:#F895E7"/>
			</linearGradient>
			<path style="fill:url(#SVGID_00000032633936107730185640000016008434663780788402_);" d="M1630.015,2291.517
				c0,0-115.999-1133.804-552.157-1806.198c-29.32-45.2-93.472-38.676-113.006,11.656
				C834.227,833.531,538.103,1868.844,1630.015,2291.517z"/>
			<path style="opacity:0.5;fill:#FFFFFF;" d="M1535.566,2205.852c2.211,2.985-1.605,6.649-4.169,4.003
				c-94.501-97.546-449.77-561.101-504.086-1390.517c-0.174-2.664,3.523-3.136,3.913-0.494
				C1059.906,1013.427,1185.933,1733.852,1535.566,2205.852z"/>
		</g>
		<g>
			
				<linearGradient id="SVGID_00000047051695659075277830000005277243884664018570_" gradientUnits="userSpaceOnUse" x1="540.4594" y1="1550.6995" x2="299.6231" y2="721.1517" gradientTransform="matrix(0.9983 -0.0589 0.0589 0.9983 107.3452 26.4731)">
				<stop  offset="0" style="stop-color:#B37CFF"/>
				<stop  offset="1" style="stop-color:#F895E7"/>
			</linearGradient>
			<path style="fill:url(#SVGID_00000047051695659075277830000005277243884664018570_);" d="M500.308,670.809
				c-4.339-14.56,15.852-25.599,29.178-16.035c135.321,97.11,464.112,392.418,419.092,945.023
				c-56.484,693.325,124.186,934.446,339.685,1075.317c0,0-287.803-55.253-481.217-299.326
				C332.171,1776.529,577.456,929.692,500.308,670.809z"/>
			<path style="fill:#FFFFFF;" d="M611.253,879.781c20.669,75.595,39.596,151.528,55.271,227.998
				c16.138,76.379,29.582,153.186,40.229,230.287c10.303,77.134,18.927,154.449,23.732,232.022
				c5.208,77.545,6.553,155.254,7.588,233.284c1.538,77.972,2.575,156.537,12.922,235.11
				c10.243,78.417,31.502,156.876,68.786,229.402c9.317,18.074,19.054,36.065,29.931,53.363
				c10.507,17.485,21.92,34.56,33.687,51.445c23.734,33.674,50.122,66.005,79.2,96.455
				c58.346,60.778,127.51,113.667,202.848,157.438c7.929,4.607,18.789,2.719,24.258-4.216c5.369-6.809,3.541-15.955-4.035-20.645
				l-0.054-0.033c-17.966-11.1-35.76-22.365-52.898-34.287c-8.684-5.842-17.042-12.009-25.534-18.036
				c-8.212-6.301-16.716-12.324-24.689-18.842c-32.403-25.587-62.65-53.142-90.349-82.529
				c-55.679-58.47-101.39-124.587-137.15-193.815c-17.429-34.807-31.839-70.707-42.983-107.49
				c-11.112-36.794-18.956-74.432-24.313-112.523c-10.724-76.224-12.494-153.967-14.68-231.916
				c-2.304-77.962-5.24-156.282-11.902-234.32c-3.209-39.023-7.229-77.981-12.056-116.844c-2.284-19.444-5.003-38.841-7.682-58.239
				c-2.895-19.373-5.913-38.728-9.114-58.054c-12.97-77.287-28.668-154.153-47.163-230.441
				c-18.919-76.205-40.181-151.915-64.796-226.738c-0.705-2.139-3.289-3.349-5.776-2.704
				C612.119,875.542,610.688,877.699,611.253,879.781z"/>
		</g>
		<g>
			<g>
				
					<linearGradient id="SVGID_00000175303744575432041980000006914289046907843234_" gradientUnits="userSpaceOnUse" x1="1991.7572" y1="3216.198" x2="1964.864" y2="2683.7188">
					<stop  offset="0" style="stop-color:#2B3582"/>
					<stop  offset="1" style="stop-color:#150E42"/>
				</linearGradient>
				<polygon style="fill:url(#SVGID_00000175303744575432041980000006914289046907843234_);" points="1707.217,2614.714 
					1650.132,3008.654 2312.418,3008.654 2226.154,2614.714 				"/>
				
					<linearGradient id="SVGID_00000173846995499871052360000015955635544119142799_" gradientUnits="userSpaceOnUse" x1="594.6957" y1="1979.4911" x2="3238.3457" y2="1979.4911">
					<stop  offset="0" style="stop-color:#2B3582"/>
					<stop  offset="1" style="stop-color:#150E42"/>
				</linearGradient>
				<path style="fill:url(#SVGID_00000173846995499871052360000015955635544119142799_);" d="M594.696,1353.346v1172.529
					c0,96.456,76.864,175.334,173.288,177.821c428.265,11.043,1926.128,37.821,2333.808,31.811
					c70.07-1.033,126.832-57.105,128.854-127.153c7.862-272.394,20.629-927.412-26.619-1231.511
					c-9.95-64.04-64.005-111.928-128.781-113.999c-358.832-11.479-1946.666-47.93-2354.155-38.778
					C650.813,1225.643,594.696,1283.051,594.696,1353.346z"/>
				
					<linearGradient id="SVGID_00000060029282488861468610000015490369973939595959_" gradientUnits="userSpaceOnUse" x1="1944.0886" y1="1371.938" x2="1742.7841" y2="4317.3545">
					<stop  offset="0" style="stop-color:#53D8FF"/>
					<stop  offset="1" style="stop-color:#3840F7"/>
				</linearGradient>
				<path style="fill:url(#SVGID_00000060029282488861468610000015490369973939595959_);" d="M668.268,1347.639v1113.983
					c0,56.316,45.207,102.204,101.517,103.046l2273.355,28.086c55.827,0.835,101.589-44.08,101.797-99.914l3.803-1104.03
					c0.149-39.922-31.657-72.633-71.567-73.604l-2327.494-47.021C705.041,1267.099,668.268,1302.988,668.268,1347.639z"/>
				<path style="opacity:0.65;fill:#FFFFFF;" d="M3162.053,2638.41c-0.019,0-0.037,0-0.055,0l-2493.783-42.491
					c-1.741-0.031-3.128-1.465-3.098-3.205c0.029-1.746,1.484-3.072,3.206-3.1l2493.783,42.491c1.741,0.031,3.128,1.465,3.098,3.205
					C3165.174,2637.034,3163.768,2638.41,3162.053,2638.41z"/>
				<path style="opacity:0.65;fill:#FFFFFF;" d="M1939.76,2690.305c-16.044,0-29.098-13.055-29.098-29.1s13.054-29.1,29.098-29.1
					c16.046,0,29.1,13.055,29.1,29.1S1955.806,2690.305,1939.76,2690.305z M1939.76,2638.41c-12.569,0-22.794,10.226-22.794,22.795
					S1927.191,2684,1939.76,2684s22.795-10.226,22.795-22.795S1952.329,2638.41,1939.76,2638.41z"/>
				
					<linearGradient id="SVGID_00000057119700844875856090000001175885130596603781_" gradientUnits="userSpaceOnUse" x1="1996.5768" y1="3012.4746" x2="1680.3739" y2="3706.7454">
					<stop  offset="0" style="stop-color:#2B3582"/>
					<stop  offset="1" style="stop-color:#150E42"/>
				</linearGradient>
				<path style="fill:url(#SVGID_00000057119700844875856090000001175885130596603781_);" d="M2455.074,3113.401h-969.3
					c-26.333,0-46.108-18.746-41.016-38.882l12.438-49.189c3.74-14.792,20.015-25.653,39.344-26.256l934.44-29.158
					c20.194-0.63,38.075,10.089,42.475,25.463l22.422,78.347C2501.702,3094.081,2481.832,3113.401,2455.074,3113.401z"/>
				<path style="fill:#FFFFFF;" d="M2007.566,3012.391c-1.719,0-3.125-1.382-3.151-3.106c-0.025-1.742,1.365-3.174,3.106-3.198
					l40.042-0.585c1.673,0.009,3.172,1.367,3.198,3.106c0.025,1.742-1.365,3.174-3.106,3.198l-40.042,0.585
					C2007.598,3012.391,2007.583,3012.391,2007.566,3012.391z"/>
				<path style="fill:#FFFFFF;" d="M1480.645,3086.275c-0.166,0-0.334-0.012-0.502-0.04c-1.719-0.274-2.891-1.89-2.615-3.608
					l5.714-35.777c3.068-19.221,19.421-33.379,38.886-33.665l424.705-6.212c0.015,0,0.032,0,0.048,0
					c1.719,0,3.125,1.382,3.151,3.106c0.025,1.742-1.365,3.174-3.106,3.198l-424.705,6.212
					c-16.394,0.24-30.169,12.163-32.754,28.352l-5.713,35.777C1483.505,3085.17,1482.165,3086.275,1480.645,3086.275z"/>
			</g>
		</g>
		<g>
			
				<linearGradient id="SVGID_00000117636175003408459620000017329955179543627404_" gradientUnits="userSpaceOnUse" x1="2306.2234" y1="1315.7708" x2="1095.9617" y2="2788.9946">
				<stop  offset="0" style="stop-color:#FDF53F"/>
				<stop  offset="1" style="stop-color:#D93C65"/>
			</linearGradient>
			<path style="fill:url(#SVGID_00000117636175003408459620000017329955179543627404_);" d="M1277.36,2506.598h652.176
				c5.118,0,9.266-4.149,9.266-9.266v-652.176c0-5.118-4.149-9.266-9.266-9.266H1277.36c-5.118,0-9.266,4.149-9.266,9.266v652.176
				C1268.094,2502.449,1272.242,2506.598,1277.36,2506.598z"/>
			
				<linearGradient id="SVGID_00000029751212452411102060000001010003399511235975_" gradientUnits="userSpaceOnUse" x1="1842.2029" y1="1901.2751" x2="1279.6588" y2="2739.4272">
				<stop  offset="0" style="stop-color:#FDF53F"/>
				<stop  offset="1" style="stop-color:#D93C65"/>
			</linearGradient>
			<path style="fill:url(#SVGID_00000029751212452411102060000001010003399511235975_);" d="M1346.568,2507.61h627.522
				c5.118,0,9.266-4.149,9.266-9.266v-652.176c0-5.118-4.149-9.266-9.266-9.266h-627.522c-5.118,0-9.266,4.149-9.266,9.266v652.176
				C1337.301,2503.461,1341.45,2507.61,1346.568,2507.61z"/>
			<g>
				<path style="fill:#FFFFFF;" d="M1421.86,2288.588c0-6.376,1.709-11.198,5.127-14.462c3.414-3.263,8.385-4.897,14.916-4.897
					c6.302,0,11.179,1.671,14.633,5.011c3.454,3.342,5.181,8.125,5.181,14.349c0,5.999-1.745,10.724-5.236,14.177
					c-3.494,3.454-8.352,5.182-14.578,5.182c-6.375,0-11.313-1.691-14.803-5.068
					C1423.605,2299.503,1421.86,2294.738,1421.86,2288.588z"/>
				<path style="fill:#FFFFFF;" d="M1614.792,2240.988c0,20.725-5.464,36.936-16.396,48.626
					c-10.932,11.692-26.156,17.537-45.665,17.537c-12.224,0-23.003-2.676-32.342-8.028s-16.512-13.039-21.523-23.06
					s-7.514-21.711-7.514-35.074c0-20.8,5.424-36.971,16.284-48.511c10.856-11.539,26.116-17.31,45.778-17.31
					c12.224,0,23.003,2.658,32.342,7.971c9.335,5.315,16.512,12.945,21.523,22.89
					C1612.289,2215.974,1614.792,2227.627,1614.792,2240.988z M1526.767,2240.988c0,12.603,2.068,22.131,6.204,28.583
					c4.136,6.454,10.877,9.679,20.213,9.679c9.263,0,15.924-3.207,19.988-9.622c4.06-6.415,6.092-15.961,6.092-28.64
					c0-12.601-2.05-22.052-6.15-28.356c-4.1-6.301-10.819-9.452-20.155-9.452c-9.266,0-15.946,3.132-20.042,9.395
					C1528.817,2218.839,1526.767,2228.31,1526.767,2240.988z"/>
				<path style="fill:#FFFFFF;" d="M1720.378,2175.167c4.706,0,8.613,0.342,11.73,1.025l-2.62,32.569
					c-2.812-0.758-6.226-1.139-10.25-1.139c-11.084,0-19.72,2.847-25.906,8.541c-6.19,5.694-9.281,13.666-9.281,23.915v64.796
					h-34.733v-127.315h26.305l5.123,21.409h1.709c3.948-7.135,9.281-12.886,16.001-17.252
					C1705.176,2177.35,1712.479,2175.167,1720.378,2175.167z"/>
				<path style="fill:#FFFFFF;" d="M1871.861,2177.558v17.652l-19.93,5.125c3.643,5.694,5.468,12.07,5.468,19.131
					c0,13.666-4.768,24.313-14.292,31.943c-9.531,7.629-22.76,11.444-39.686,11.444l-6.266-0.342l-5.123-0.57
					c-3.57,2.734-5.352,5.771-5.352,9.111c0,5.01,6.375,7.516,19.132,7.516h21.635c13.969,0,24.614,3,31.943,8.996
					c7.326,5.999,10.99,14.804,10.99,26.42c0,14.879-6.208,26.419-18.62,34.618c-12.412,8.2-30.234,12.299-53.466,12.299
					c-17.764,0-31.333-3.094-40.709-9.281c-9.379-6.188-14.067-14.86-14.067-26.021c0-7.668,2.391-14.083,7.177-19.245
					c4.782-5.162,11.803-8.843,21.066-11.046c-3.57-1.518-6.68-4.003-9.339-7.459c-2.656-3.454-3.984-7.118-3.984-10.989
					c0-4.857,1.404-8.9,4.212-12.128c2.808-3.226,6.872-6.395,12.187-9.509c-6.683-2.884-11.977-7.516-15.888-13.893
					c-3.911-6.377-5.863-13.893-5.863-22.548c0-13.894,4.514-24.635,13.552-32.227c9.034-7.591,21.94-11.388,38.717-11.388
					c3.567,0,7.801,0.324,12.699,0.968c4.895,0.646,8.026,1.121,9.393,1.423H1871.861z M1773.583,2322.865
					c0,4.783,2.297,8.541,6.89,11.274c4.593,2.733,11.026,4.1,19.302,4.1c12.452,0,22.205-1.708,29.266-5.125
					c7.061-3.416,10.591-8.085,10.591-14.007c0-4.783-2.086-8.085-6.262-9.907c-4.176-1.822-10.631-2.733-19.36-2.733h-17.992
					c-6.375,0-11.708,1.498-15.997,4.498C1775.727,2313.964,1773.583,2317.93,1773.583,2322.865z M1786.224,2219.237
					c0,6.909,1.575,12.375,4.728,16.399c3.149,4.025,7.949,6.035,14.404,6.035c6.527,0,11.313-2.01,14.35-6.035
					c3.033-4.024,4.553-9.49,4.553-16.399c0-15.334-6.302-23.003-18.903-23.003
					C1792.602,2196.234,1786.224,2203.903,1786.224,2219.237z"/>
			</g>
		</g>
		<g>
			
				<linearGradient id="SVGID_00000134240738482516615080000007533851081045244576_" gradientUnits="userSpaceOnUse" x1="1129.7312" y1="1580.8326" x2="-128.3264" y2="2662.4556" gradientTransform="matrix(0.9826 -0.1856 0.1856 0.9826 264.5906 -120.6919)">
				<stop  offset="0" style="stop-color:#CE1567"/>
				<stop  offset="1" style="stop-color:#7A1DBC"/>
			</linearGradient>
			<path style="fill:url(#SVGID_00000134240738482516615080000007533851081045244576_);" d="M605.159,2576.577l744.28-140.602
				c5.029-0.95,8.335-5.797,7.385-10.825l-124.437-658.71c-0.95-5.029-5.797-8.335-10.825-7.385l-744.28,140.602
				c-5.029,0.95-8.335,5.797-7.385,10.825l124.437,658.71C595.284,2574.221,600.13,2577.527,605.159,2576.577z"/>
			
				<linearGradient id="SVGID_00000136370359051046099750000004889968874980231819_" gradientUnits="userSpaceOnUse" x1="-88.1561" y1="2790.9829" x2="652.837" y2="1917.1689" gradientTransform="matrix(0.9826 -0.1856 0.1856 0.9826 264.5906 -120.6919)">
				<stop  offset="0" style="stop-color:#A737D5"/>
				<stop  offset="1" style="stop-color:#EF497A"/>
			</linearGradient>
			<path style="fill:url(#SVGID_00000136370359051046099750000004889968874980231819_);" d="M707.631,2553.168l641.069-121.104
				c5.029-0.95,8.335-5.797,7.385-10.825l-121.104-641.069c-0.95-5.029-5.797-8.335-10.825-7.385l-641.069,121.104
				c-5.029,0.95-8.335,5.797-7.385,10.825l121.104,641.069C697.756,2550.811,702.603,2554.118,707.631,2553.168z"/>
			<g>
				<path style="fill:#FFFFFF;" d="M726.205,2326.544c-1.273-5.822-0.675-10.565,1.794-14.228c2.466-3.661,6.678-6.145,12.641-7.448
					c5.754-1.258,10.54-0.706,14.36,1.654c3.821,2.362,6.352,6.384,7.595,12.067c1.197,5.477,0.547,10.14-1.951,13.99
					c-2.501,3.851-6.592,6.399-12.276,7.641c-5.821,1.272-10.667,0.714-14.528-1.672
					C729.977,2336.162,727.433,2332.158,726.205,2326.544z"/>
				<path style="fill:#FFFFFF;" d="M907.275,2302.541l-31.71,6.932l-14.842-67.896c-1.833-8.386-4.703-14.351-8.597-17.894
					c-3.898-3.542-9.104-4.602-15.62-3.177c-8.875,1.94-14.637,6.304-17.29,13.094c-2.657,6.791-2.483,17.048,0.517,30.773
					l11.956,54.691l-31.713,6.933l-25.411-116.245l24.226-5.296l7.514,13.936l1.766-0.386c2.307-6.387,6.249-11.697,11.825-15.93
					c5.573-4.231,12.314-7.213,20.215-8.94c13.516-2.955,24.575-1.54,33.174,4.242c8.602,5.783,14.407,15.572,17.423,29.365
					L907.275,2302.541z"/>
				<path style="fill:#FFFFFF;" d="M998.314,2284.819c-18.714,4.091-34.468,2.125-47.264-5.9
					c-12.796-8.025-21.257-21.5-25.394-40.423c-4.258-19.478-2.683-35.6,4.73-48.371c7.414-12.769,19.714-21.032,36.907-24.791
					c16.428-3.591,30.238-1.707,41.434,5.65c11.195,7.358,18.597,19.286,22.203,35.782l3.364,15.389l-74.965,16.387
					c2.315,8.936,6.523,15.389,12.621,19.356c6.095,3.97,13.648,4.969,22.662,2.999c7-1.53,13.46-3.705,19.379-6.524
					c5.923-2.82,11.928-6.565,18.026-11.24l5.364,24.538c-4.939,3.985-10.415,7.343-16.427,10.073
					C1014.942,2280.475,1007.394,2282.833,998.314,2284.819z M972.434,2187.85c-6.725,1.47-11.529,4.754-14.407,9.85
					c-2.881,5.097-3.742,11.623-2.583,19.576l44.5-9.728c-1.851-7.802-5.217-13.403-10.102-16.803
					C984.958,2187.346,979.155,2186.381,972.434,2187.85z"/>
				<path style="fill:#FFFFFF;" d="M1120.286,2231.681c5.546-1.212,11.933-3.878,19.167-8.003l5.16,23.603
					c-7.128,5.263-16.448,9.152-27.953,11.667c-12.685,2.773-22.625,1.588-29.814-3.56c-7.189-5.146-12.183-14.131-14.987-26.956
					l-12.251-56.043l-15.182,3.319l-2.932-13.412l15.15-14.425l3.786-26.538l20.274-4.432l5.409,24.746l32.545-7.114l5.205,23.811
					l-32.545,7.114l12.251,56.043c0.985,4.507,2.978,7.557,5.979,9.152C1112.548,2232.248,1116.125,2232.591,1120.286,2231.681z"/>
			</g>
		</g>
		<g>
			
				<linearGradient id="SVGID_00000087378195438812343370000015684617711117278378_" gradientUnits="userSpaceOnUse" x1="2642.4861" y1="537.5366" x2="1375.2271" y2="2080.1418">
				<stop  offset="0" style="stop-color:#CE1567"/>
				<stop  offset="1" style="stop-color:#7A1DBC"/>
			</linearGradient>
			<path style="fill:url(#SVGID_00000087378195438812343370000015684617711117278378_);" d="M1564.858,1784.319h683.51
				c5.118,0,9.266-4.149,9.266-9.266v-683.511c0-5.118-4.149-9.266-9.266-9.266h-683.51c-5.118,0-9.266,4.149-9.266,9.266v683.511
				C1555.592,1780.17,1559.74,1784.319,1564.858,1784.319z"/>
			
				<linearGradient id="SVGID_00000007406672730113698960000003260128118562100908_" gradientUnits="userSpaceOnUse" x1="1663.6575" y1="1826.4791" x2="2353.6868" y2="931.9961">
				<stop  offset="0" style="stop-color:#A737D5"/>
				<stop  offset="1" style="stop-color:#EF497A"/>
			</linearGradient>
			<path style="fill:url(#SVGID_00000007406672730113698960000003260128118562100908_);" d="M1637.299,1785.378h657.705
				c5.118,0,9.266-4.149,9.266-9.266v-683.511c0-5.118-4.149-9.266-9.266-9.266h-657.705c-5.118,0-9.266,4.149-9.266,9.266v683.511
				C1628.033,1781.23,1632.181,1785.378,1637.299,1785.378z"/>
			<g>
				<path style="fill:#FFFFFF;" d="M1647.343,1501.723c0-6.749,1.809-11.852,5.426-15.307c3.614-3.454,8.875-5.183,15.787-5.183
					c6.671,0,11.832,1.768,15.488,5.303c3.656,3.537,5.484,8.599,5.484,15.187c0,6.349-1.847,11.351-5.542,15.006
					c-3.698,3.656-8.84,5.485-15.43,5.485c-6.747,0-11.974-1.789-15.668-5.364
					C1649.19,1513.276,1647.343,1508.231,1647.343,1501.723z"/>
				<path style="fill:#FFFFFF;" d="M1783.81,1521.37c-41.943,0-62.915-23.021-62.915-69.064c0-22.901,5.703-40.397,17.112-52.491
					c11.409-12.093,27.765-18.14,49.059-18.14c15.587,0,29.57,3.055,41.943,9.16l-10.849,28.446
					c-5.783-2.329-11.167-4.238-16.148-5.725c-4.985-1.486-9.965-2.23-14.946-2.23c-19.128,0-28.687,13.581-28.687,40.739
					c0,26.358,9.558,39.534,28.687,39.534c7.07,0,13.617-0.944,19.647-2.832c6.025-1.887,12.051-4.84,18.08-8.859v31.459
					c-5.948,3.778-11.955,6.388-18.022,7.834C1800.703,1520.647,1793.05,1521.37,1783.81,1521.37z"/>
				<path style="fill:#FFFFFF;" d="M1984.636,1451.341c0,21.936-5.784,39.094-17.354,51.467
					c-11.571,12.375-27.684,18.562-48.333,18.562c-12.938,0-24.347-2.832-34.232-8.497s-17.477-13.801-22.78-24.408
					c-5.303-10.607-7.953-22.98-7.953-37.124c0-22.015,5.741-39.131,17.235-51.346c11.49-12.213,27.642-18.321,48.452-18.321
					c12.938,0,24.347,2.814,34.232,8.437c9.881,5.626,17.477,13.701,22.78,24.227
					C1981.986,1424.866,1984.636,1437.199,1984.636,1451.341z M1891.467,1451.341c0,13.339,2.189,23.425,6.567,30.253
					c4.378,6.831,11.513,10.245,21.394,10.245c9.804,0,16.855-3.394,21.156-10.184c4.297-6.79,6.448-16.893,6.448-30.314
					c0-13.337-2.17-23.341-6.509-30.012c-4.339-6.669-11.452-10.004-21.333-10.004c-9.808,0-16.878,3.315-21.214,9.944
					C1893.637,1427.898,1891.467,1437.922,1891.467,1451.341z"/>
				<path style="fill:#FFFFFF;" d="M2141.832,1518.959h-36.759v-78.707c0-9.722-1.628-17.014-4.881-21.876
					c-3.257-4.861-8.379-7.293-15.369-7.293c-9.401,0-16.233,3.456-20.491,10.366c-4.259,6.911-6.386,18.281-6.386,34.11v63.4
					h-36.763v-134.754h28.084l4.942,17.236h2.047c3.617-6.187,8.84-11.028,15.668-14.524c6.832-3.495,14.666-5.243,23.506-5.243
					c20.169,0,33.829,6.59,40.979,19.767h3.257c3.614-6.267,8.936-11.128,15.968-14.584c7.031-3.453,14.966-5.182,23.806-5.182
					c15.265,0,26.816,3.917,34.654,11.752c7.834,7.834,11.751,20.39,11.751,37.666v87.867h-36.882v-78.707
					c0-9.722-1.628-17.014-4.885-21.876c-3.253-4.861-8.376-7.293-15.365-7.293c-9.002,0-15.73,3.215-20.192,9.643
					c-4.458,6.43-6.69,16.633-6.69,30.615V1518.959z"/>
			</g>
		</g>
		<g>
			
				<linearGradient id="SVGID_00000152238065490830503430000009473133569652429996_" gradientUnits="userSpaceOnUse" x1="3150.2585" y1="1168.9763" x2="1963.6298" y2="2613.4321">
				<stop  offset="0" style="stop-color:#CE1567"/>
				<stop  offset="1" style="stop-color:#7A1DBC"/>
			</linearGradient>
			<path style="fill:url(#SVGID_00000152238065490830503430000009473133569652429996_);" d="M2032.901,2444.484h663.171
				c5.118,0,9.266-4.148,9.266-9.266V1815.74c0-5.118-4.149-9.266-9.266-9.266h-663.171c-5.118,0-9.266,4.149-9.266,9.266v619.478
				C2023.634,2440.335,2027.783,2444.484,2032.901,2444.484z"/>
			
				<linearGradient id="SVGID_00000040558075303520162240000014721314640943679645_" gradientUnits="userSpaceOnUse" x1="2613.3782" y1="1868.7764" x2="2078.4756" y2="2665.7446">
				<stop  offset="0" style="stop-color:#A737D5"/>
				<stop  offset="1" style="stop-color:#EF497A"/>
			</linearGradient>
			<path style="fill:url(#SVGID_00000040558075303520162240000014721314640943679645_);" d="M2142.427,2445.447h596.026
				c5.118,0,9.266-4.149,9.266-9.266v-619.478c0-5.118-4.149-9.266-9.266-9.266h-596.026c-5.118,0-9.266,4.149-9.266,9.266v619.478
				C2133.161,2441.298,2137.31,2445.447,2142.427,2445.447z"/>
			<g>
				<path style="fill:#FFFFFF;" d="M2174.038,2230.486c0-5.832,1.563-10.24,4.688-13.226c3.122-2.985,7.668-4.479,13.641-4.479
					c5.764,0,10.223,1.528,13.382,4.582c3.159,3.056,4.738,7.43,4.738,13.122c0,5.486-1.596,9.808-4.788,12.966
					c-3.195,3.159-7.638,4.739-13.332,4.739c-5.83,0-10.346-1.546-13.538-4.635
					C2175.634,2240.467,2174.038,2236.109,2174.038,2230.486z"/>
				<path style="fill:#FFFFFF;" d="M2243.316,2098.85c0-10.344,5.76-15.517,17.287-15.517c11.524,0,17.287,5.173,17.287,15.517
					c0,4.93-1.44,8.765-4.32,11.508c-2.884,2.743-7.207,4.114-12.967,4.114C2249.076,2114.471,2243.316,2109.263,2243.316,2098.85z
					 M2276.434,2245.378h-31.764v-116.432h31.764V2245.378z"/>
				<path style="fill:#FFFFFF;" d="M2422.563,2245.378h-31.761v-68.005c0-8.4-1.497-14.701-4.479-18.901
					c-2.986-4.2-7.741-6.301-14.268-6.301c-8.889,0-15.31,2.968-19.265,8.904c-3.958,5.936-5.936,15.778-5.936,29.524v54.779
					h-31.764v-116.432h24.265l4.271,14.892h1.769c3.541-5.623,8.418-9.875,14.633-12.757c6.211-2.88,13.279-4.322,21.193-4.322
					c13.538,0,23.814,3.663,30.825,10.987c7.014,7.325,10.518,17.896,10.518,31.712V2245.378z"/>
				<path style="fill:#FFFFFF;" d="M2524.959,2152.795h-27.494v92.583h-31.764v-92.583h-17.496v-15.309l17.496-8.54v-8.539
					c0-13.261,3.262-22.945,9.788-29.056c6.527-6.108,16.975-9.165,31.346-9.165c10.97,0,20.725,1.632,29.266,4.894l-8.123,23.328
					c-6.391-2.012-12.29-3.02-17.705-3.02c-4.513,0-7.778,1.337-9.788,4.009c-2.014,2.674-3.02,6.092-3.02,10.258v7.29h27.494
					V2152.795z"/>
				<path style="fill:#FFFFFF;" d="M2654.322,2186.954c0,18.954-4.997,33.778-14.995,44.469
					c-9.997,10.692-23.92,16.038-41.761,16.038c-11.178,0-21.037-2.447-29.577-7.342s-15.101-11.924-19.683-21.089
					c-4.583-9.165-6.872-19.855-6.872-32.076c0-19.022,4.96-33.811,14.892-44.365c9.928-10.552,23.884-15.83,41.864-15.83
					c11.179,0,21.037,2.431,29.578,7.29c8.537,4.861,15.101,11.838,19.683,20.933
					C2652.032,2164.078,2654.322,2174.735,2654.322,2186.954z M2573.822,2186.954c0,11.525,1.891,20.24,5.674,26.14
					c3.783,5.902,9.948,8.852,18.485,8.852c8.471,0,14.563-2.933,18.279-8.8c3.713-5.866,5.571-14.596,5.571-26.192
					c0-11.524-1.875-20.167-5.624-25.932c-3.75-5.762-9.895-8.644-18.432-8.644c-8.475,0-14.583,2.864-18.329,8.592
					C2575.696,2166.698,2573.822,2175.36,2573.822,2186.954z"/>
			</g>
		</g>
		<g>
			
				<linearGradient id="SVGID_00000157989231300742313240000003893592962470314914_" gradientUnits="userSpaceOnUse" x1="-324.8716" y1="2184.6086" x2="-441.6555" y2="2542.5759" gradientTransform="matrix(0.7738 -0.6335 0.6335 0.7738 1621.637 -47.8667)">
				<stop  offset="0" style="stop-color:#F9B776"/>
				<stop  offset="1" style="stop-color:#F47960"/>
			</linearGradient>
			<path style="fill:url(#SVGID_00000157989231300742313240000003893592962470314914_);" d="M2712.515,1982.248
				c0,0,5.301,230.727,247.9,271.188l43.552-42.995c0,0-210.074-71.425-264.757-220.69l11.681-79.16l-8.232-52.387
				L2712.515,1982.248z"/>
			<g>
				
					<linearGradient id="SVGID_00000034073588897867792600000016357237616185573562_" gradientUnits="userSpaceOnUse" x1="540.8143" y1="2971.4014" x2="755.9758" y2="2971.4014" gradientTransform="matrix(1 0 0 1 2406.262 0)">
					<stop  offset="0" style="stop-color:#F9B776"/>
					<stop  offset="1" style="stop-color:#F47960"/>
				</linearGradient>
				<path style="fill:url(#SVGID_00000034073588897867792600000016357237616185573562_);" d="M2947.076,2772.775
					c0,0,115.099,250.861,175.487,354.767c0,0,11.994,65.379,0,85.939l-10.222,4.543l47.704-1.42c0,0,4.238-87.942,0.929-92.854
					c-3.31-4.912-9.929-4.59-9.929-4.59s-20.455-162.057-79.694-196.643l-57.41-197.737L2947.076,2772.775z"/>
				
					<linearGradient id="SVGID_00000178176501409161191330000014297131039559674522_" gradientUnits="userSpaceOnUse" x1="836.5596" y1="2490.2351" x2="730.005" y2="3182.8367" gradientTransform="matrix(1 0 0 1 2406.262 0)">
					<stop  offset="0" style="stop-color:#53D8FF"/>
					<stop  offset="1" style="stop-color:#3840F7"/>
				</linearGradient>
				<path style="fill:url(#SVGID_00000178176501409161191330000014297131039559674522_);" d="M3091.968,3230.34
					c-0.071,1.151,37.25,0.625,57.524,0.255c7.486-0.137,13.868-5.398,15.463-12.713l15.31-80.436
					c1.455-7.644-3.399-15.069-10.984-16.802l-8.546-1.953c0,0-12.191,16.723-8.354,32.469c3.838,15.745,7.253,56.531-2.445,61.283
					c-9.698,4.752-37.595,5.583-37.595,5.583S3092.606,3219.981,3091.968,3230.34z"/>
				
					<linearGradient id="SVGID_00000027574386358902609270000008224594145924257697_" gradientUnits="userSpaceOnUse" x1="611.101" y1="2455.5518" x2="504.5463" y2="3148.1541" gradientTransform="matrix(1 0 0 1 2406.262 0)">
					<stop  offset="0" style="stop-color:#53D8FF"/>
					<stop  offset="1" style="stop-color:#3840F7"/>
				</linearGradient>
				<path style="fill:url(#SVGID_00000027574386358902609270000008224594145924257697_);" d="M2837.982,3231.8
					c-3.775,2.151-2.218,7.914,2.126,7.87c33.927-0.341,109.951-1.414,116.706-4.224c8.722-3.627-3.178-34.967-15.702-45.574
					l-69.152,22.57L2837.982,3231.8z"/>
				
					<linearGradient id="SVGID_00000142893387196450224150000016462146268847699881_" gradientUnits="userSpaceOnUse" x1="410.255" y1="2987.4001" x2="534.8511" y2="2987.4001" gradientTransform="matrix(1 0 0 1 2406.262 0)">
					<stop  offset="0" style="stop-color:#F9B776"/>
					<stop  offset="1" style="stop-color:#F47960"/>
				</linearGradient>
				<path style="fill:url(#SVGID_00000142893387196450224150000016462146268847699881_);" d="M2816.517,2756.776
					c0,0,74.38,359.823,95.421,430.012l-49.775,31.236c0,0,24.944-4.242,43.44-5.583c18.497-1.341,35.51-22.57,35.51-22.57
					l-5.963-9.511c0,0-18.652-357.863-14.112-398.499L2816.517,2756.776z"/>
				
					<linearGradient id="SVGID_00000041265672682112348870000004404089562396553107_" gradientUnits="userSpaceOnUse" x1="141.8531" y1="2052.6021" x2="385.7722" y2="2052.6021" gradientTransform="matrix(1 0 0 1 2406.262 0)">
					<stop  offset="0" style="stop-color:#F9B776"/>
					<stop  offset="1" style="stop-color:#F47960"/>
				</linearGradient>
				<path style="fill:url(#SVGID_00000041265672682112348870000004404089562396553107_);" d="M2631.881,1917.489
					c0,0-10.259,187.177,160.153,282.824l-41.028,93.572c0,0-154.286-93.32-148.58-347.841c0.164-7.304-2.471-14.398-7.241-19.932
					l-32.791-38.041c-12.493-14.494-17.162-34.155-12.518-52.718l4.316-17.253c1.445-5.776,8.024-8.555,13.172-5.565l3.429,1.992
					c10.917,6.34,19.563,15.952,24.718,27.476l16.101,35.992c6.014,13.444,19.881,21.607,34.555,20.34l9.956-0.859
					L2631.881,1917.489z"/>
				
					<linearGradient id="SVGID_00000013908899997042974800000007761058369999539873_" gradientUnits="userSpaceOnUse" x1="409.1469" y1="2185.2014" x2="866.4428" y2="3090.9138" gradientTransform="matrix(1 0 0 1 2406.262 0)">
					<stop  offset="0" style="stop-color:#FDF53F"/>
					<stop  offset="1" style="stop-color:#D93C65"/>
				</linearGradient>
				<path style="fill:url(#SVGID_00000013908899997042974800000007761058369999539873_);" d="M2786.103,2186.287
					c28.51,7.906,125.097,33.314,185.394,32.276l-37.021,208.917l2.946,34.075l-120.706-0.541c0,0-33.979-78.914-60.788-118.257
					c-7.743-11.363-1.98-24.916,2.408-37.947l-6.029-4.014c-6.135-4.085-8.796-11.758-6.507-18.765l29.394-89.932
					C2776.72,2187.566,2781.493,2185.008,2786.103,2186.287z"/>
				
					<linearGradient id="SVGID_00000124150552094346583260000008911275582361219213_" gradientUnits="userSpaceOnUse" x1="300.2492" y1="2424.5291" x2="699.8278" y2="2875.1648" gradientTransform="matrix(1 0 0 1 2406.262 0)">
					<stop  offset="0" style="stop-color:#CB236D"/>
					<stop  offset="1" style="stop-color:#4C246D"/>
				</linearGradient>
				<path style="fill:url(#SVGID_00000124150552094346583260000008911275582361219213_);" d="M2807.044,2443.184l2.375,20.644
					c0,0-34.111,102.155,17.055,340.751c0,0,110.817,31.394,201.895-43.728c0,0-25.692-225.198-32.709-235.688
					c-34.954-52.249-58.239-63.607-58.239-63.607l-1.05-22.553C2936.371,2439.002,2838.957,2456.615,2807.044,2443.184z"/>
				
					<linearGradient id="SVGID_00000041294632416104969070000010341258794635794090_" gradientUnits="userSpaceOnUse" x1="448.0267" y1="2172.3547" x2="524.2729" y2="2172.3547" gradientTransform="matrix(1 0 0 1 2406.262 0)">
					<stop  offset="0" style="stop-color:#F9B776"/>
					<stop  offset="1" style="stop-color:#F47960"/>
				</linearGradient>
				<path style="fill:url(#SVGID_00000041294632416104969070000010341258794635794090_);" d="M2854.294,2203.124
					c-0.423-0.559,25.2-77.36,25.2-77.36l36.702,3.33l14.338,87.126C2930.535,2216.22,2873.013,2227.831,2854.294,2203.124z"/>
				
					<linearGradient id="SVGID_00000177460014724515771940000002751797038627494295_" gradientUnits="userSpaceOnUse" x1="569.2054" y1="2073.8232" x2="1124.1761" y2="2111.561" gradientTransform="matrix(1 0 0 1 2406.262 0)">
					<stop  offset="0" style="stop-color:#F9B776"/>
					<stop  offset="1" style="stop-color:#F47960"/>
				</linearGradient>
				<path style="fill:url(#SVGID_00000177460014724515771940000002751797038627494295_);" d="M2907.41,2004.648
					c-2.447,1.524-78.43,32.925-62.104,111.808c0.965,4.661,4.075,8.612,8.423,10.552c11.15,4.973,35.154,13.489,63.865,10.572
					c39.804-4.045,65.886-73.504,64.777-93.717C2981.261,2023.649,2931.666,1989.544,2907.41,2004.648z"/>
				
					<linearGradient id="SVGID_00000165213034492963403100000011006456392801086113_" gradientUnits="userSpaceOnUse" x1="660.4231" y1="2040.3704" x2="465.0738" y2="2431.0681" gradientTransform="matrix(1 0 0 1 2406.262 0)">
					<stop  offset="0" style="stop-color:#2B3582"/>
					<stop  offset="1" style="stop-color:#150E42"/>
				</linearGradient>
				<path style="fill:url(#SVGID_00000165213034492963403100000011006456392801086113_);" d="M2930.535,1973.98
					c-1.998,0.262-43.91,14.859-23.125,45.23c20.784,30.37,28.581,48.248,18.75,61.584c-8.956,12.15-28.796,5.225-27.065,30.503
					c0.346,5.059-1.842,9.972-6.042,12.815c-18.696,12.656-64.309,51.609-19.117,107.161c3.673,4.515,4.43,10.749,1.596,15.832
					c-13.236,23.741-41.04,93.29,59.618,131.87c99.465,38.122,135.378-26.896,145.411-52.884c2.17-5.621,7.704-9.062,13.722-8.778
					c10.929,0.516,26.418-1.302,25.705-15.908c-0.432-8.871-5.968-16.822-12.51-23.196c-6.475-6.309-5.195-17.355,2.665-21.821
					c5.937-3.373,11.191-8.64,13.409-16.857c6.027-22.337-6.007-89.124-70.024-100.443c-5.34-0.944-10.932-5.95-11.709-11.317
					c-0.012-0.08-0.024-0.159-0.037-0.239c-0.858-5.19,0.898-10.498,5.14-13.609c10.222-7.499,23.332-22.596,12.684-46.806
					c-9.443-21.472-27.555-28.716-41.008-31.024c-7.899-1.355-13.092-8.825-11.427-16.665
					C3011.709,1998.068,3007.754,1963.855,2930.535,1973.98z"/>
			</g>
		</g>
		<g>
			<g>
				<g>
					
						<linearGradient id="SVGID_00000173843780744143429140000015374849777088870315_" gradientUnits="userSpaceOnUse" x1="3074.6462" y1="1961.2189" x2="3288.4856" y2="1713.0127" gradientTransform="matrix(0.9917 -0.1287 0.1287 0.9917 -1437.7258 -129.9612)">
						<stop  offset="0" style="stop-color:#FDF53F"/>
						<stop  offset="1" style="stop-color:#D93C65"/>
					</linearGradient>
					
						<circle style="fill:url(#SVGID_00000173843780744143429140000015374849777088870315_);" cx="2047.568" cy="1140.078" r="159.428"/>
					
						<linearGradient id="SVGID_00000031179118983185205640000004074183462890645160_" gradientUnits="userSpaceOnUse" x1="3409.3186" y1="1531.9802" x2="2776.9902" y2="2487.2485" gradientTransform="matrix(0.9917 -0.1287 0.1287 0.9917 -1437.7258 -129.9612)">
						<stop  offset="0" style="stop-color:#FDF53F"/>
						<stop  offset="1" style="stop-color:#D93C65"/>
					</linearGradient>
					
						<circle style="fill:url(#SVGID_00000031179118983185205640000004074183462890645160_);" cx="2047.568" cy="1140.078" r="154.126"/>
					<path style="fill:#FFFFFF;" d="M1913.951,1098.059c-0.774,0.101-1.583,0.028-2.37-0.25c-2.686-0.946-4.096-3.89-3.15-6.57
						c18.597-52.851,64.638-90.155,120.157-97.362c8.86-1.15,17.836-1.504,26.678-1.052c2.841,0.144,5.028,2.566,4.884,5.407
						c-0.144,2.845-2.55,5.051-5.411,4.884c-8.223-0.415-16.576-0.087-24.824,0.984c-51.638,6.703-94.462,41.402-111.762,90.557
						C1917.486,1096.555,1915.82,1097.817,1913.951,1098.059z"/>
					
						<ellipse transform="matrix(0.7071 -0.7071 0.7071 0.7071 -207.3851 1785.2798)" style="opacity:0.78;fill:#FFFFFF;" cx="2051.331" cy="1142.976" rx="130.449" ry="130.449"/>
					<g>
						
							<linearGradient id="SVGID_00000052824187858023260610000002587379872376768389_" gradientUnits="userSpaceOnUse" x1="3390.4546" y1="1559.3542" x2="3053.7583" y2="2124.6113" gradientTransform="matrix(0.9917 -0.1287 0.1287 0.9917 -1437.7258 -129.9612)">
							<stop  offset="0" style="stop-color:#FDF53F"/>
							<stop  offset="1" style="stop-color:#D93C65"/>
						</linearGradient>
						<path style="fill:url(#SVGID_00000052824187858023260610000002587379872376768389_);" d="M2051.12,1240.794l-1.827-14.074
							c-14.748,1.317-29.71-0.262-40.602-3.436c-3.889-1.133-6.302-5.02-5.748-9.033l1.874-13.574
							c0.687-4.98,5.594-8.146,10.442-6.816c10.781,2.959,23.845,4.711,37.458,2.944c14.132-1.834,24.049-7.993,22.774-17.814
							c-1.15-8.861-9.978-13.073-30.302-15.793c-29.018-4.027-50.724-13.631-53.926-38.302
							c-2.892-22.276,11.189-41.396,38.861-49.615l-1.827-14.075c-0.588-4.529,2.606-8.677,7.136-9.265l8.27-1.073
							c4.528-0.588,8.677,2.608,9.265,7.136l1.64,12.637c13.647-1.219,23.831-0.18,32.031,1.557c4.202,0.89,6.959,4.934,6.378,9.189
							l-1.714,12.551c-0.661,4.84-5.325,8.05-10.078,6.924c-7.575-1.793-18.154-3.311-31.424-1.589
							c-16.767,2.177-20.655,9.744-19.846,15.972c0.995,7.664,11.738,11.627,34.406,15.506c32.35,5.299,46.962,16.554,49.978,39.787
							c2.767,21.317-10.553,42.531-40.591,51.301l2.045,15.751c0.588,4.529-2.607,8.677-7.135,9.265l-8.27,1.074
							C2055.856,1248.518,2051.708,1245.323,2051.12,1240.794z"/>
					</g>
				</g>
				<g>
					
						<linearGradient id="SVGID_00000066504848452849374540000016065902685285704600_" gradientUnits="userSpaceOnUse" x1="3356.3264" y1="1767.3086" x2="3705.3118" y2="1362.2371" gradientTransform="matrix(0.9917 -0.1287 0.1287 0.9917 -1437.7258 -129.9612)">
						<stop  offset="0" style="stop-color:#FDF53F"/>
						<stop  offset="1" style="stop-color:#D93C65"/>
					</linearGradient>
					
						<circle style="fill:url(#SVGID_00000066504848452849374540000016065902685285704600_);" cx="2418.089" cy="735.074" r="260.186"/>
					
						<linearGradient id="SVGID_00000150102292359397918140000010903869410851043236_" gradientUnits="userSpaceOnUse" x1="3902.5112" y1="1066.7924" x2="2870.552" y2="2625.7883" gradientTransform="matrix(0.9917 -0.1287 0.1287 0.9917 -1437.7258 -129.9612)">
						<stop  offset="0" style="stop-color:#FDF53F"/>
						<stop  offset="1" style="stop-color:#D93C65"/>
					</linearGradient>
					
						<circle style="fill:url(#SVGID_00000150102292359397918140000010903869410851043236_);" cx="2418.089" cy="735.074" r="251.534"/>
					<path style="fill:#FFFFFF;" d="M2199.57,662.95c-0.726,0.094-1.484,0.026-2.222-0.235c-2.518-0.886-3.841-3.646-2.953-6.159
						c29.899-84.969,103.922-144.95,193.182-156.537c14.244-1.849,28.677-2.419,42.895-1.685c2.666,0.134,4.716,2.404,4.579,5.073
						c-0.137,2.663-2.401,4.742-5.073,4.575c-13.639-0.699-27.488-0.153-41.156,1.621
						c-85.622,11.114-156.628,68.654-185.312,150.158C2202.884,661.539,2201.323,662.723,2199.57,662.95z"/>
					
						<ellipse transform="matrix(0.7071 -0.7071 0.7071 0.7071 186.9205 1930.8729)" style="opacity:0.78;fill:#FFFFFF;" cx="2424.23" cy="739.804" rx="212.893" ry="212.893"/>
					<g>
						
							<linearGradient id="SVGID_00000033364107816425769240000017068050390073966775_" gradientUnits="userSpaceOnUse" x1="3871.7249" y1="1111.4659" x2="3322.2361" y2="2033.9667" gradientTransform="matrix(0.9917 -0.1287 0.1287 0.9917 -1437.7258 -129.9612)">
							<stop  offset="0" style="stop-color:#FDF53F"/>
							<stop  offset="1" style="stop-color:#D93C65"/>
						</linearGradient>
						<path style="fill:url(#SVGID_00000033364107816425769240000017068050390073966775_);" d="M2423.885,899.443l-2.982-22.969
							c-24.069,2.149-48.486-0.427-66.263-5.607c-6.348-1.849-10.285-8.193-9.381-14.743l3.058-22.152
							c1.122-8.126,9.13-13.294,17.042-11.122c17.594,4.829,38.916,7.688,61.132,4.804c23.063-2.994,39.247-13.045,37.167-29.072
							c-1.877-14.462-16.284-21.336-49.454-25.774c-47.357-6.572-82.781-22.246-88.008-62.508
							c-4.719-36.355,18.26-67.558,63.421-80.971l-2.982-22.971c-0.959-7.391,4.255-14.161,11.646-15.12l13.495-1.752
							c7.392-0.959,14.161,4.254,15.121,11.646l2.677,20.624c22.271-1.989,38.891-0.294,52.274,2.542
							c6.857,1.453,11.357,8.052,10.409,14.996l-2.798,20.484c-1.078,7.898-8.69,13.136-16.448,11.3
							c-12.363-2.927-29.626-5.404-51.283-2.593c-27.363,3.552-33.707,15.902-32.388,26.066
							c1.624,12.508,19.157,18.976,56.148,25.305c52.796,8.648,76.643,27.016,81.565,64.933c4.517,34.79-17.223,69.41-66.242,83.724
							l3.337,25.705c0.959,7.392-4.254,14.161-11.646,15.121l-13.497,1.752C2431.615,912.049,2424.845,906.835,2423.885,899.443z"/>
					</g>
				</g>
				<g>
					
						<linearGradient id="SVGID_00000109725858325510514340000012954616560711499173_" gradientUnits="userSpaceOnUse" x1="3525.4614" y1="2360.4119" x2="3884.5632" y2="1943.598" gradientTransform="matrix(0.9917 -0.1287 0.1287 0.9917 -1437.7258 -129.9612)">
						<stop  offset="0" style="stop-color:#FDF53F"/>
						<stop  offset="1" style="stop-color:#D93C65"/>
					</linearGradient>
					
						<circle style="fill:url(#SVGID_00000109725858325510514340000012954616560711499173_);" cx="2670.846" cy="1288.278" r="267.728"/>
					
						<linearGradient id="SVGID_00000161614640772224370380000016039751399520097948_" gradientUnits="userSpaceOnUse" x1="4087.479" y1="1639.5887" x2="3025.6057" y2="3243.7764" gradientTransform="matrix(0.9917 -0.1287 0.1287 0.9917 -1437.7258 -129.9612)">
						<stop  offset="0" style="stop-color:#FDF53F"/>
						<stop  offset="1" style="stop-color:#D93C65"/>
					</linearGradient>
					
						<circle style="fill:url(#SVGID_00000161614640772224370380000016039751399520097948_);" cx="2670.846" cy="1288.278" r="258.826"/>
					<path style="fill:#FFFFFF;" d="M2445.974,1213.925c-0.725,0.094-1.484,0.026-2.222-0.235c-2.518-0.887-3.84-3.646-2.953-6.16
						c30.748-87.382,106.872-149.063,198.667-160.979c14.647-1.901,29.489-2.486,44.114-1.734c2.666,0.135,4.716,2.405,4.58,5.073
						c-0.137,2.663-2.387,4.726-5.073,4.575c-14.047-0.717-28.304-0.156-42.376,1.67c-88.157,11.444-161.266,70.683-190.797,154.6
						C2449.289,1212.515,2447.727,1213.697,2445.974,1213.925z"/>
					
						<ellipse transform="matrix(0.7071 -0.7071 0.7071 0.7071 -130.2685 2271.7949)" style="opacity:0.78;fill:#FFFFFF;" cx="2677.165" cy="1293.146" rx="219.064" ry="219.064"/>
					<g>
						
							<linearGradient id="SVGID_00000005959675747656414460000011470957781749128891_" gradientUnits="userSpaceOnUse" x1="4055.8003" y1="1685.5575" x2="3490.3828" y2="2634.7996" gradientTransform="matrix(0.9917 -0.1287 0.1287 0.9917 -1437.7258 -129.9612)">
							<stop  offset="0" style="stop-color:#FDF53F"/>
							<stop  offset="1" style="stop-color:#D93C65"/>
						</linearGradient>
						<path style="fill:url(#SVGID_00000005959675747656414460000011470957781749128891_);" d="M2676.811,1457.413l-3.068-23.635
							c-24.767,2.212-49.892-0.44-68.184-5.77c-6.532-1.903-10.583-8.431-9.653-15.17l3.146-22.794
							c1.154-8.362,9.395-13.68,17.535-11.445c18.105,4.969,40.044,7.912,62.904,4.944c23.731-3.08,40.385-13.423,38.244-29.915
							c-1.932-14.881-16.755-21.954-50.886-26.521c-48.731-6.762-85.182-22.89-90.56-64.32
							c-4.856-37.409,18.79-69.516,65.259-83.318l-3.068-23.637c-0.987-7.606,4.378-14.571,11.984-15.559l13.886-1.803
							c7.606-0.987,14.572,4.378,15.559,11.983l2.755,21.222c22.918-2.047,40.019-0.302,53.791,2.616
							c7.055,1.495,11.687,8.285,10.71,15.431l-2.879,21.077c-1.11,8.128-8.943,13.518-16.926,11.629
							c-12.721-3.012-30.485-5.561-52.769-2.668c-28.156,3.655-34.685,16.363-33.328,26.821
							c1.671,12.871,19.712,19.526,57.776,26.039c54.326,8.899,78.865,27.799,83.929,66.815
							c4.647,35.797-17.721,71.422-68.162,86.151l3.433,26.45c0.988,7.606-4.378,14.572-11.984,15.559l-13.888,1.803
							C2684.764,1470.384,2677.798,1465.019,2676.811,1457.413z"/>
					</g>
				</g>
				<g>
					
						<linearGradient id="SVGID_00000051349914361713723030000018134618100070383796_" gradientUnits="userSpaceOnUse" x1="3933.1362" y1="1829.4087" x2="4220.333" y2="1496.0558" gradientTransform="matrix(0.9917 -0.1287 0.1287 0.9917 -1437.7258 -129.9612)">
						<stop  offset="0" style="stop-color:#FDF53F"/>
						<stop  offset="1" style="stop-color:#D93C65"/>
					</linearGradient>
					
						<circle style="fill:url(#SVGID_00000051349914361713723030000018134618100070383796_);" cx="2945.007" cy="803.096" r="214.119"/>
					
						<linearGradient id="SVGID_00000016037461590581875020000015815950145304218019_" gradientUnits="userSpaceOnUse" x1="4382.6172" y1="1252.9204" x2="3533.3696" y2="2535.8916" gradientTransform="matrix(0.9917 -0.1287 0.1287 0.9917 -1437.7258 -129.9612)">
						<stop  offset="0" style="stop-color:#FDF53F"/>
						<stop  offset="1" style="stop-color:#D93C65"/>
					</linearGradient>
					
						<circle style="fill:url(#SVGID_00000016037461590581875020000015815950145304218019_);" cx="2945.007" cy="803.096" r="206.999"/>
					<path style="fill:#FFFFFF;" d="M2765.342,745.028c-0.791,0.103-1.619,0.028-2.425-0.256c-2.748-0.968-4.191-3.98-3.223-6.724
						c24.77-70.389,86.093-120.078,160.035-129.676c11.784-1.53,23.739-2.001,35.535-1.398c2.907,0.147,5.145,2.625,4.998,5.532
						c-0.15,2.907-2.599,5.183-5.537,4.998c-11.163-0.566-22.48-0.12-33.639,1.328c-69.97,9.083-128.002,56.106-151.444,122.713
						C2768.959,743.488,2767.255,744.779,2765.342,745.028z"/>
					
						<ellipse transform="matrix(0.7071 -0.7071 0.7071 0.7071 293.4256 2322.3691)" style="opacity:0.78;fill:#FFFFFF;" cx="2950.06" cy="806.989" rx="175.199" ry="175.2"/>
					<g>
						
							<linearGradient id="SVGID_00000010282572054135176270000009244269397111963051_" gradientUnits="userSpaceOnUse" x1="4357.2827" y1="1289.6842" x2="3905.0818" y2="2048.8542" gradientTransform="matrix(0.9917 -0.1287 0.1287 0.9917 -1437.7258 -129.9612)">
							<stop  offset="0" style="stop-color:#FDF53F"/>
							<stop  offset="1" style="stop-color:#D93C65"/>
						</linearGradient>
						<path style="fill:url(#SVGID_00000010282572054135176270000009244269397111963051_);" d="M2949.777,938.364l-2.454-18.902
							c-19.807,1.769-39.902-0.352-54.531-4.615c-5.223-1.522-8.463-6.742-7.719-12.133l2.516-18.23
							c0.924-6.688,7.515-10.94,14.025-9.154c14.48,3.974,32.026,6.328,50.309,3.955c18.979-2.464,32.298-10.736,30.585-23.926
							c-1.544-11.901-13.4-17.558-40.697-21.21c-38.973-5.409-68.125-18.307-72.426-51.441
							c-3.884-29.918,15.027-55.597,52.192-66.634l-2.454-18.905c-0.79-6.083,3.501-11.654,9.583-12.444l11.105-1.442
							c6.083-0.789,11.655,3.502,12.444,9.585l2.203,16.972c18.328-1.637,32.005-0.242,43.019,2.093
							c5.643,1.195,9.346,6.626,8.566,12.341l-2.302,16.857c-0.888,6.5-7.152,10.811-13.537,9.299
							c-10.174-2.408-24.381-4.447-42.203-2.133c-22.519,2.923-27.74,13.086-26.654,21.451
							c1.336,10.293,15.765,15.617,46.208,20.824c43.448,7.117,63.073,22.233,67.123,53.436
							c3.717,28.63-14.173,57.121-54.514,68.901l2.746,21.154c0.79,6.083-3.5,11.654-9.584,12.443l-11.107,1.442
							C2956.138,948.737,2950.567,944.446,2949.777,938.364z"/>
					</g>
				</g>
			</g>
		</g>
	</g>
</g>
</svg>
