<?xml version="1.0" encoding="utf-8"?>
<!-- Generator: Adobe Illustrator 27.5.0, SVG Export Plug-In . SVG Version: 6.00 Build 0)  -->
<svg version="1.1" id="Layer_1" xmlns="http://www.w3.org/2000/svg" xmlns:xlink="http://www.w3.org/1999/xlink" x="0px" y="0px"
	 viewBox="0 0 2324.614 2000" style="enable-background:new 0 0 2324.614 2000;" xml:space="preserve">
<rect x="0" style="fill:#FFFFFF;" width="2324.614" height="2000"/>
<g>
	<g>
		<g>
			<path style="fill:#DDF5F4;" d="M2022.107,1823.632c120.601-205.041,197.594-572.892,92.125-774.66
				c-80.259-153.54-114.879-131.845-182.78-249.812c-66.284-115.158,102.521-358.637-280.645-588.53
				c-226.755-136.05-574.141,40.059-696.681,122.752c-122.54,82.693-180.028,28.943-251.131-4.135
				c-71.103-33.077-378.247-26.014-506.835,361.789c-91.784,276.808-54.419,775.862,152.612,1132.597H2022.107z"/>
		</g>
	</g>
	<g>
		<g>
			<path style="fill:#FFFFFF;" d="M1932.634,893.423c0.285-3.856-0.912-7.885-4.061-11.242
				c-5.731-6.107-15.508-11.082-31.952-12.233c0,0,5.663-101.952-71.348-108.706c-88.324-7.746-89.393,92.418-89.393,92.418
				s-40.145-38.111-69.098,10.207c0,0-50.037-28.921-75.278,24.495c-0.795,1.681-0.97,3.428-0.685,5.06H1932.634z"/>
		</g>
	</g>
	<g>
		<g>
			<path style="fill:#FFFFFF;" d="M223.187,817.04c-0.22-2.984,0.706-6.102,3.143-8.699c4.435-4.726,12-8.576,24.725-9.466
				c0,0-4.382-78.893,55.21-84.119c68.348-5.994,69.175,71.515,69.175,71.515s31.065-29.491,53.47,7.898
				c0,0,38.72-22.379,58.252,18.955c0.615,1.301,0.75,2.653,0.53,3.915H223.187z"/>
		</g>
	</g>
	<g>
		<g>
			<g>
				<path style="fill:#FFFFFF;" d="M1367.057,452.953c23.353-1.337,78.101-3.671,125.694,0.342
					c19.69,1.66,36.691-14.069,36.248-33.824c-0.181-8.086-3.081-17.492-10.586-28.151c-28.897-41.04-79.127-1.847-78.645,18.986
					c0,0-10.154-31.369-40.997-25.877c-30.843,5.492-19.936,51.113-19.936,51.113s-9.953-2.103-16.852,2.607
					C1355.199,442.78,1358.856,453.423,1367.057,452.953z"/>
			</g>
		</g>
	</g>
	<g>
		<rect x="259.776" y="1821.422" style="fill:#33182C;" width="1816.757" height="4.42"/>
	</g>
	<g>
		<g>
			<g>
				<g>
					<g>
						<g>
							<g>
								<g>
									<g>
										<path style="fill:#A6E0DD;" d="M507.555,1779.695h583.892c15.977,0,28.929-12.952,28.929-28.929V538.851
											c0-18.321-14.853-33.174-33.174-33.174H511.801c-18.321,0-33.174,14.852-33.174,33.174v1211.915
											C478.626,1766.743,491.578,1779.695,507.555,1779.695z"/>
									</g>
								</g>
							</g>
						</g>
					</g>
					<g>
						<g>
							<g>
								<g>
									<path style="fill:#CDEDFA;" d="M505.452,505.677h588.099c14.815,0,26.825,12.011,26.825,26.828V596.8h-641.75v-64.296
										C478.626,517.688,490.637,505.677,505.452,505.677z"/>
								</g>
							</g>
						</g>
					</g>
					<g>
						<g>
							<g>
								<g>
									<g>
										<path style="fill:#3A1F33;" d="M451.544,544.876V1755.62c0,36.326,29.446,65.775,65.77,65.775h564.376
											c36.323,0,65.769-29.449,65.769-65.775V544.876c0-36.327-29.446-65.775-65.769-65.775H517.314
											C480.99,479.101,451.544,508.549,451.544,544.876z M478.626,545.54c0-22.016,17.846-39.864,39.86-39.864h562.03
											c22.014,0,39.86,17.848,39.86,39.864v1198.423c0,19.734-15.996,35.731-35.728,35.731H514.354
											c-19.732,0-35.728-15.997-35.728-35.731V545.54z"/>
									</g>
								</g>
							</g>
						</g>
					</g>
					<g>
						<g>
							<g>
								<g>
									
										<ellipse transform="matrix(0.9999 -0.0132 0.0132 0.9999 -7.1659 14.2289)" style="fill:#4CB7D8;" cx="1077.859" cy="551.741" rx="8.858" ry="8.859"/>
								</g>
							</g>
						</g>
					</g>
					<g>
						<g>
							<g>
								<g>
									<path style="fill:#4CB7D8;" d="M1041.597,551.741c0,4.893,3.966,8.859,8.858,8.859c4.892,0,8.858-3.966,8.858-8.859
										c0-4.892-3.966-8.859-8.858-8.859C1045.563,542.883,1041.597,546.849,1041.597,551.741z"/>
								</g>
							</g>
						</g>
					</g>
					<g>
						<g>
							<g>
								<g>
									<path style="fill:#4CB7D8;" d="M1014.194,551.741c0,4.893,3.966,8.859,8.858,8.859s8.858-3.966,8.858-8.859
										c0-4.892-3.966-8.859-8.858-8.859S1014.194,546.849,1014.194,551.741z"/>
								</g>
							</g>
						</g>
					</g>
					<g>
						<g>
							<g>
								<g>
									<g>
										<path style="fill:#4CB7D8;" d="M525.173,535.796V560.6h69.636v-7.632h3.577v-10.852h-3.577v-6.32H525.173z
											 M527.558,537.823h64.866v20.749h-64.866V537.823z"/>
									</g>
								</g>
							</g>
						</g>
						<g>
							<g>
								<g>
									<g>
										
											<rect x="531.507" y="541.056" transform="matrix(-1 -1.224647e-16 1.224647e-16 -1 1069.8939 1096.2915)" style="fill:#4CB7D8;" width="6.88" height="14.18"/>
									</g>
								</g>
							</g>
						</g>
						<g>
							<g>
								<g>
									<g>
										
											<rect x="543.045" y="541.056" transform="matrix(-1 -1.224647e-16 1.224647e-16 -1 1092.9701 1096.2915)" style="fill:#4CB7D8;" width="6.88" height="14.18"/>
									</g>
								</g>
							</g>
						</g>
						<g>
							<g>
								<g>
									<g>
										
											<rect x="554.9" y="541.056" transform="matrix(-1 -1.224647e-16 1.224647e-16 -1 1116.6799 1096.2915)" style="fill:#4CB7D8;" width="6.88" height="14.18"/>
									</g>
								</g>
							</g>
						</g>
					</g>
				</g>
			</g>
			<g>
				<g>
					<g>
						<path style="fill:#FEBAC7;" d="M1429.023,1659.441c0,0,69.55,146.292,25.59,161.324
							c-29.218,9.992-113.642-100.114-113.642-100.114L1429.023,1659.441z"/>
					</g>
					<g>
						<path style="fill:#FEBAC7;" d="M1035.084,1659.441c0,0-69.55,146.292-25.59,161.324
							c29.218,9.992,113.642-100.114,113.642-100.114L1035.084,1659.441z"/>
					</g>
					<g>
						<path style="fill:#FEBAC7;" d="M1043.584,1328.163c-54.234-74.437-124.842-75.933-130.74-75.693
							c17.741,115.657,54.33,146.506,54.33,146.506C986.209,1366.821,1043.584,1328.163,1043.584,1328.163z"/>
					</g>
					<g>
						<g>
							<path style="fill:#F7597F;" d="M1631.419,1430.56l-0.663-6.62c13.72-1.375,21.487-9.166,25.593-15.478
								c-1.167-0.621-2.276-1.278-3.32-1.96c-9.193-6.005-14.236-14.291-12.846-21.11c0.667-3.276,3.466-9.072,14.713-11.082
								c4.162-0.744,7.848,0.594,10.385,3.766c4.59,5.736,4.708,16.643,0.295,27.144c9.808,3.304,22.326,3.388,33.817-4.72
								l3.835,5.436c-13.912,9.815-29.08,9.449-40.728,5.25C1657.789,1418.842,1648.462,1428.852,1631.419,1430.56z
								 M1657.115,1380.759c-0.328,0-0.678,0.034-1.05,0.1c-3.166,0.566-8.594,2.08-9.364,5.86
								c-0.814,4.003,3.283,9.847,9.966,14.213c0.88,0.575,1.816,1.129,2.799,1.655c3.77-9.013,3.137-17.209,0.62-20.355
								C1659.287,1381.233,1658.347,1380.759,1657.115,1380.759z"/>
						</g>
					</g>
					<g>
						<path style="fill:#FEBAC7;" d="M1650.305,1497.195c0,161.088-154.16,275.016-356.816,275.016
							c-202.656,0-366.941-113.928-366.941-275.016s164.285-291.676,366.941-291.676
							C1496.145,1205.519,1650.305,1336.107,1650.305,1497.195z"/>
					</g>
					<g>
						<g>
							<path d="M1293.489,1773.874c-99.764,0-192.26-27.495-260.45-77.421c-69.745-51.065-108.155-121.829-108.155-199.258
								c0-46.964,13.522-91.828,40.19-133.348c25.409-39.56,62.499-74.609,107.258-101.36l1.706,2.855
								c-92.676,55.387-145.828,139.894-145.828,231.852c0,76.341,37.927,146.152,106.794,196.574
								c67.624,49.512,159.422,76.779,258.484,76.779c158.482,0,290.811-71.566,337.124-182.322l3.068,1.283
								c-23.016,55.041-66.894,101.412-126.89,134.1C1446.434,1756.493,1372.676,1773.874,1293.489,1773.874z"/>
						</g>
					</g>
					<g>
						<ellipse style="fill:#F7597F;" cx="1072.413" cy="1540.288" rx="78.997" ry="64.924"/>
					</g>
					<g>
						<path style="fill:#49263E;" d="M1010.07,1582.552c-11.811-11.862-18.316-26.871-18.316-42.264
							c0-36.717,36.184-66.588,80.66-66.588c10.121,0,19.991,1.527,29.335,4.538l-1.02,3.166
							c-9.015-2.905-18.541-4.378-28.315-4.378c-42.642,0-77.333,28.379-77.333,63.261c0,14.507,6.16,28.684,17.347,39.917
							L1010.07,1582.552z"/>
					</g>
					<g>
						<circle style="fill:#49263E;" cx="1009.494" cy="1452.326" r="14.784"/>
					</g>
					<g>
						<circle style="fill:#49263E;" cx="1137.919" cy="1452.326" r="14.784"/>
					</g>
					<g>
						<g>
							
								<ellipse transform="matrix(0.7071 -0.7071 0.7071 0.7071 -783.4891 1189.0656)" style="fill:#49263E;" cx="1043.584" cy="1540.288" rx="8.501" ry="8.501"/>
						</g>
						<g>
							
								<ellipse transform="matrix(0.2298 -0.9732 0.9732 0.2298 -650.8566 2258.1819)" style="fill:#49263E;" cx="1101.241" cy="1540.288" rx="8.501" ry="8.501"/>
						</g>
					</g>
					<g>
						<g>
							<path d="M1255.316,1437.147l-1.427-3.004c0.203-0.097,20.532-10,35.22-35.062c13.485-23.009,24.836-63.875,2.68-128.143
								c-4.693,0.396-22.295,2.382-43.99,11.037c-23.299,9.295-56.238,28.415-80.842,66.713l-2.799-1.798
								c25.112-39.089,58.743-58.584,82.533-68.054c25.789-10.267,45.353-11.272,46.173-11.309l1.237-0.057l0.41,1.17
								c23.174,66.278,11.358,108.527-2.636,132.298C1276.65,1426.802,1256.18,1436.737,1255.316,1437.147z"/>
						</g>
					</g>
					<g>
						<path style="fill:#FEBAC7;" d="M1163.293,1659.441c0,0-69.55,146.292-25.59,161.324
							c29.218,9.992,113.642-100.114,113.642-100.114L1163.293,1659.441z"/>
					</g>
					<g>
						<path style="fill:#FEBAC7;" d="M1557.232,1659.441c0,0,69.55,146.292,25.59,161.324
							c-29.218,9.992-113.642-100.114-113.642-100.114L1557.232,1659.441z"/>
					</g>
					<g>
						<path d="M1450.616,1823.05c-11.231,0.001-28.348-11.134-51.01-33.202l2.321-2.383c31.131,30.316,45.544,33.987,52.149,31.727
							c18.772-6.419,14.375-40.276,7.381-67.547l3.222-0.826c10.68,41.644,7.475,65.707-9.526,71.521
							C1453.766,1822.813,1452.253,1823.049,1450.616,1823.05z"/>
					</g>
					<g>
						<path d="M1136.994,1822.27c-8.198-3.862-13.029-11.133-14.769-22.229c-2.097-13.365,0.332-31.902,7.424-56.671l3.198,0.916
							c-12.284,42.9-10.463,67.425,5.565,74.975L1136.994,1822.27z"/>
					</g>
					<g>
						<path d="M1013.036,1823.171c-4.218,0-7.907-1.546-10.99-4.612c-7.986-7.94-9.546-23.734-8.646-32.412l3.309,0.343
							c-0.802,7.736,0.574,22.643,7.683,29.71c2.813,2.797,6.27,3.992,10.28,3.553c34.571-3.787,93.145-82.634,93.732-83.43
							l2.677,1.976c-2.435,3.298-60.041,80.816-96.047,84.76C1014.355,1823.134,1013.689,1823.171,1013.036,1823.171z"/>
					</g>
					<g>
						<path d="M1580.237,1822.614c-18.39,0.002-48.665-29.137-49.952-30.385l2.315-2.388c0.306,0.296,30.587,29.446,47.62,29.447
							c0.094,0,0.187-0.001,0.281-0.003c2.791-0.053,4.951-0.918,6.6-2.643c15.929-16.66,8.798-59.207-23.118-137.955l3.083-1.25
							c32.914,81.209,39.625,123.528,22.44,141.503c-2.262,2.365-5.27,3.6-8.942,3.67
							C1580.455,1822.613,1580.345,1822.614,1580.237,1822.614z"/>
					</g>
				</g>
			</g>
			<g>
				<g>
					<g>
						<g>
							<g>
								<path style="fill:#F49D75;" d="M1225.382,762.639c-16.507,22.535-60.015,30.36-85.491,50.987
									c-25.47,20.632-64.177-8.18-64.177-8.18s44.498-39.496,57.071-43.62c7.903-2.589,41.325-14.493,65.789-22.8
									c10.707-3.638,19.691-6.589,24.069-7.763c0.676-0.183,1.239-0.322,1.688-0.416c0.074-0.015,0.148-0.03,0.212-0.045
									c0.459-0.084,0.755-0.114,0.889-0.08C1228.224,731.466,1241.884,740.109,1225.382,762.639z"/>
							</g>
						</g>
						<g>
							<g>
								<g>
									<path style="fill:#F07162;" d="M1222.644,731.263c0.676-0.183,1.239-0.322,1.688-0.416
										c0.575,2.113,1.065,4.379,1.403,6.788c0.343,2.454-1.383,4.845-3.965,5.613c-0.128,0.04-0.252,0.074-0.38,0.104
										l-14.376,3.291c0,0-2.563-0.022-5.904-3.812c-1.038-1.174-1.879-2.517-2.536-3.805
										C1209.281,735.388,1218.266,732.437,1222.644,731.263z"/>
								</g>
								<g>
									<path style="fill:#F07162;" d="M1223.53,728.161l0.005,0.005c-0.059-0.01-0.118-0.02-0.183-0.025
										C1223.412,728.142,1223.471,728.152,1223.53,728.161z"/>
								</g>
							</g>
							<g>
								<g>
									<path style="fill:#FDC9BC;" d="M1224.333,730.847c0.074-0.015,0.148-0.03,0.212-0.045c0.599,2.029,1.11,4.255,1.443,6.64
										c0.308,2.162-1.358,5.156-3.703,5.696l-0.538,0.124l0.025-0.015c1.579-0.9,2.604-3.459,2.36-5.172
										c-0.343-2.454-0.873-4.729-1.487-6.813C1223.321,731.08,1223.883,730.941,1224.333,730.847z"/>
								</g>
								<g>
									<path style="fill:#FDC9BC;" d="M1221.698,728.079c-0.049,0-0.089,0-0.128,0.01v-0.01
										C1221.609,728.079,1221.654,728.074,1221.698,728.079z"/>
								</g>
							</g>
						</g>
						<g>
							<g>
								<path d="M1231.611,754.22l-1.801-0.753c2.911-6.961,3.37-12.555,1.362-16.625c-1.718-3.483-4.822-4.782-5.73-5.097
									c-5.733,1.927-89.717,30.174-98.94,34.418c-9.421,4.334-49.735,39.662-50.141,40.018l-1.287-1.466
									c1.667-1.463,40.936-35.873,50.613-40.324c9.596-4.415,95.771-33.366,99.435-34.596l0.274-0.092l0.28,0.072
									c0.195,0.05,4.797,1.28,7.229,6.167C1235.194,740.543,1234.759,746.693,1231.611,754.22z"/>
							</g>
						</g>
						<g>
							<g>
								<path style="fill:#F49D75;" d="M1277.667,802.164c-26.361,24.282-83.075,23.354-120.263,43.013
									c-37.183,19.665-78.774-26.195-78.774-26.195s65.805-38.709,82.66-40.778c10.176-1.248,52.155-7.492,84.577-11.89
									c15.799-2.137,29.331-3.843,35.799-4.312c0.948-0.07,1.738-0.11,2.365-0.126c0.143-0.005,0.271-0.005,0.4-0.005
									c0.637-0.005,1.047,0.039,1.215,0.117C1288.975,763.626,1304.033,777.887,1277.667,802.164z"/>
							</g>
						</g>
						<g>
							<g>
								<g>
									<path style="fill:#F07162;" d="M1281.666,762.003c0.948-0.07,1.738-0.11,2.365-0.126c0.258,1.294,0.481,2.621,0.675,3.979
										c0.492,3.451-1.949,6.816-5.587,7.89l-0.005,0.005c-0.168,0.049-0.336,0.089-0.503,0.129l-20.161,4.62
										c0,0-3.6-0.031-8.29-5.345c-1.868-2.112-3.273-4.609-4.292-6.84C1261.666,764.178,1275.198,762.472,1281.666,762.003z"/>
								</g>
								<g>
									<path style="fill:#F07162;" d="M1281.618,752.572l0.005,0.005c-0.138-0.03-0.281-0.044-0.415-0.059
										C1281.342,752.533,1281.48,752.552,1281.618,752.572z"/>
								</g>
							</g>
							<g>
								<g>
									<path style="fill:#FDC9BC;" d="M1284.031,761.877c0.143-0.005,0.271-0.005,0.4-0.005c0.238,1.205,0.456,2.439,0.635,3.713
										c0.427,3.031-1.914,7.245-5.202,7.999l-0.745,0.164c2.236-1.241,3.679-4.852,3.341-7.271
										c-0.219-1.541-0.486-3.031-0.794-4.473C1282.614,761.933,1283.404,761.892,1284.031,761.877z"/>
								</g>
								<g>
									<path style="fill:#FDC9BC;" d="M1279.036,752.451c-0.054,0.005-0.114,0.005-0.168,0.01l-0.005-0.005
										C1278.917,752.451,1278.977,752.451,1279.036,752.451z"/>
								</g>
							</g>
						</g>
						<g>
							<g>
								<path d="M1284.547,796.766l-1.427-1.331c9.327-9.999,9.405-18.676,7.829-24.194c-1.48-5.182-4.576-8.043-5.558-8.308
									c-1.493-0.24-19.285,1.498-121.293,15.909l-4.245,0.599c-9.92,1.391-52.457,24.414-52.885,24.647l-0.931-1.715
									c1.762-0.956,43.279-23.424,53.545-24.864l4.243-0.599c118.707-16.77,121.242-16.085,122.074-15.86
									c2.173,0.586,5.438,4.445,6.926,9.656C1294.229,775.619,1295.02,785.539,1284.547,796.766z"/>
							</g>
						</g>
						<g>
							<g>
								<path style="fill:#F49D75;" d="M1312.682,920.57c0,0,0.074,0.143,0.173,0.43c0.921,2.557,4.004,16.222-28.515,27.962
									c-36.043,13.018-109.177-51.345-123.121-51.817c-13.939-0.467-75.022-22.045-96.606,33.26c0,0-5.735,36.544,11.584,50.951
									c0,0,64.903,3.311,74.042,1.856c8.027-1.271,57.273-10.384,75.638,20.065c3.13,5.197,2.104,11.523-1.734,15.565
									c-0.128,0.138-0.257,0.267-0.395,0.395c-0.789,0.771-1.683,1.438-2.685,1.987c-0.78,0.445-1.629,0.811-2.537,1.089
									c-11.195,3.427-27.811,8.339-42.488,11.962c-9.898,2.443-18.917,4.293-24.788,4.707c-7.91,0.56-24.672,1.972-42.362,3.503
									c-33.026,2.848-65.539,9.859-96.908,20.556c-30.318,10.336-75.483,21.234-121.758,16.075
									c-69.568-7.761-411.595-85.233-411.595-85.233V743.775l372.446,158.597c0,0,220.16-97.937,237.947-102.273
									c17.786-4.346,95.708,41.738,104.367,44.619c5.487,1.827,51.987,31.837,85.276,53.553
									c14.93,9.734,27.197,17.806,31.925,20.918c1.136,0.75,1.838,1.213,2.036,1.341
									C1312.662,920.56,1312.682,920.57,1312.682,920.57z"/>
							</g>
						</g>
						<g>
							<g>
								<path style="fill:#F49D75;" d="M1352.85,827.132c2.886,2.881,13.48,23.067-22.566,38.963
									c-36.041,15.891-94.714-5.206-140.38,2.043c-45.667,7.249-72.646-55.223-72.646-55.223s82.197-16.899,100.475-13.069
									c10.959,2.296,56.353,10.621,91.55,17.538c15.774,3.097,29.498,5.914,37.153,7.774c0.909,0.226,1.729,0.433,2.455,0.625
									c0.123,0.025,0.237,0.059,0.351,0.094C1351.319,826.432,1352.578,826.861,1352.85,827.132z"/>
							</g>
						</g>
						<g>
							<g>
								<path d="M1077.247,981.029l-1.414,1.344c-0.222-0.233-22.04-23.706-9.937-56.315l1.829,0.679
									C1056.057,958.177,1077.035,980.804,1077.247,981.029z"/>
							</g>
						</g>
						<g>
							<g>
								<g>
									<path style="fill:#F07162;" d="M1312.966,920.874c-0.227,0.494-0.463,0.998-0.71,1.492
										c-1.597,3.241-5.65,4.701-9.384,3.499h-0.01c-0.173-0.054-0.341-0.113-0.504-0.177l-19.965-7.804
										c0,0-3.073-2.12-3.988-9.408c-0.443-3.5,0.013-7.091,0.599-9.861c14.93,9.734,27.197,17.806,31.925,20.918
										C1312.067,920.282,1312.769,920.745,1312.966,920.874z"/>
								</g>
								<g>
									<path style="fill:#F07162;" d="M1317.356,909.182l-0.005,0.005c-0.119-0.118-0.242-0.232-0.371-0.34
										C1317.109,908.956,1317.232,909.069,1317.356,909.182z"/>
								</g>
							</g>
							<g>
								<g>
									<path style="fill:#FDC9BC;" d="M1313.026,920.913c0,0,0.074,0.143,0.173,0.43c-0.158,0.336-0.315,0.672-0.478,1.003
										c-1.4,2.845-5.857,5.086-9.112,3.81l-0.736-0.291c2.637,0.235,5.983-2.01,7.097-4.282c0.34-0.687,0.66-1.373,0.961-2.05
										c1.136,0.75,1.838,1.213,2.036,1.341C1313.006,920.903,1313.026,920.913,1313.026,920.913z"/>
								</g>
								<g>
									<path style="fill:#FDC9BC;" d="M1315.182,907.555c-0.035-0.025-0.079-0.049-0.124-0.074l0.005-0.005
										C1315.108,907.501,1315.142,907.525,1315.182,907.555z"/>
								</g>
							</g>
						</g>
						<g>
							<g>
								<g>
									<path style="fill:#F07162;" d="M1346.434,825.158c0.909,0.226,1.729,0.433,2.455,0.625c-0.2,2.602-0.544,5.308-1.055,8.094
										c-0.658,3.546-4.162,6.057-8.083,5.912l-0.015,0.005c-0.178-0.01-0.355-0.019-0.533-0.039l-21.332-2.085
										c0,0-3.531-1.207-6.391-7.979c-1.855-4.388-2.191-9.36-2.198-12.308C1325.055,820.481,1338.779,823.298,1346.434,825.158z"
										/>
								</g>
								<g>
									<path style="fill:#F07162;" d="M1349.16,819.798l-0.005,0.015c-0.143-0.084-0.296-0.158-0.45-0.232
										C1348.859,819.645,1349.012,819.719,1349.16,819.798z"/>
								</g>
							</g>
							<g>
								<g>
									<path style="fill:#FDC9BC;" d="M1349.239,825.876c-0.161,2.494-0.469,5.126-0.971,7.852
										c-0.57,3.121-4.256,6.487-7.737,6.149l-0.795-0.083l0.015-0.005c2.602-0.491,5.211-3.56,5.668-6.044
										c0.545-2.988,0.864-5.867,1.014-8.587c0.909,0.226,1.729,0.433,2.455,0.625
										C1349.012,825.807,1349.126,825.842,1349.239,825.876z"/>
								</g>
							</g>
						</g>
						<g>
							<g>
								<path d="M1308.761,936.805c-4.247,4.255-11.487,8.996-23.743,13.42c-24.74,8.93-65.221-17.015-94.778-35.959
									c-13.108-8.401-24.428-15.656-28.709-15.8l0.066-1.951c4.817,0.162,15.252,6.85,29.696,16.107
									c27.568,17.669,69.229,44.37,93.063,35.766c18.998-6.858,25.419-14.286,27.46-19.31c1.586-3.901,0.739-6.716,0.432-7.508
									c-5.81-3.83-110.581-72.846-118.825-75.586c-2.331-0.775-9.204-4.412-18.715-9.446
									c-25.274-13.377-72.319-38.276-85.113-35.152c-8.105,1.979-68.482,23.679-120.563,50.315l-0.888-1.738
									c52.217-26.705,112.842-48.484,120.989-50.474c13.514-3.3,59.195,20.878,86.488,35.323
									c9.073,4.803,16.241,8.596,18.418,9.319c8.678,2.885,115.005,72.987,119.527,75.97l0.218,0.144l0.117,0.233
									c0.078,0.156,1.896,3.894-0.24,9.244C1312.839,931.779,1311.359,934.202,1308.761,936.805z"/>
							</g>
						</g>
						<g>
							<g>
								<path d="M1350.512,854.126c-2.959,2.966-6.815,5.867-11.556,8.694l-1-1.677c11.33-6.755,17.337-13.818,17.852-20.995
									c0.51-7.104-4.689-12.095-5.712-13.004c-6.411-1.273-128.693-25.542-138.145-26.873
									c-9.535-1.343-84.787,11.691-85.547,11.823l-0.334-1.922c3.112-0.541,76.316-13.218,86.153-11.833
									c9.713,1.368,133.251,25.898,138.505,26.941l0.236,0.047l0.188,0.152c0.296,0.24,7.237,5.97,6.603,14.81
									C1357.416,845.013,1354.988,849.642,1350.512,854.126z"/>
							</g>
						</g>
						<g>
							<path d="M937.838,1070.375c-14.182,2.696-26.846-6.292-27.379-6.676l0.98-1.359c0.125,0.09,12.625,8.948,26.086,6.389
								L937.838,1070.375z"/>
						</g>
						<g>
							<path d="M952.678,1061.032c-13.099,6.069-27.57,0.436-28.18,0.193l0.619-1.557c0.143,0.057,14.424,5.604,26.857-0.156
								L952.678,1061.032z"/>
						</g>
					</g>
					<g>
						<g>
							<path style="fill:#F7AB48;" d="M1280.548,923.427c64.724-17.211,133.821,8.309,171.82,63.46
								c58.454,84.838,24.759,197.354-64.48,238.451c-80.673,37.151-176.187,1.87-213.338-78.801
								C1133.455,1057.299,1180.987,949.901,1280.548,923.427z"/>
							<path style="fill:#FEC786;" d="M1451.99,1018.769c33.412,72.553,1.682,158.456-70.872,191.868
								c-72.554,33.413-158.455,1.683-191.869-70.871c-33.412-72.554-1.682-158.456,70.872-191.869
								C1332.674,914.486,1418.576,946.216,1451.99,1018.769z"/>
							<path style="fill:#F7AB48;" d="M1324.156,1034.115c-4.81-5.557-10.178-9.477-18.457-9.267
								c0.287,1.111,0.38,1.988,0.728,2.747c4.715,10.284,9.537,20.519,14.153,30.845c1.012,2.263,2.2,2.715,4.813,2.341
								c6.091-0.871,12.239-1.504,18.356-1.735c21.484-0.812,34.583,10.589,40.321,28.669c6.913,21.78,0.261,39.222-19.527,53.799
								c-3.611,2.66-4.022,4.777-2.077,8.083c1.418,2.408,2.394,5.068,3.684,7.869c-4.785,2.203-9.296,4.28-14.239,6.557
								c-1.854-4.027-3.687-8.007-5.485-11.909c-33.198,9.638-52.109-6.838-60.54-21.723c8.023-4.738,16.057-9.484,24.298-14.35
								c6.395,7.527,14.028,12.411,25.695,13.324c-2.632-5.715-4.897-10.638-7.166-15.56c-3.099-6.726-6.321-13.4-9.238-20.205
								c-1.075-2.509-2.419-3.338-5.383-2.918c-9.455,1.34-18.854,1.51-27.851-1.382c-18.223-5.858-27.063-19.376-29.321-36.653
								c-2.109-16.132,5.772-29.276,19.959-39.134c0.947-0.658,1.904-1.302,2.836-1.98c0.345-0.251,0.628-0.581,1.217-1.139
								c-1.453-3.157-2.951-6.408-4.58-9.947c4.842-2.23,9.36-4.31,14.457-6.657c1.09,2.366,2.375,4.704,3.255,7.191
								c0.932,2.633,2.464,2.905,5.188,2.124c12.154-3.489,23.833-3.17,34.56,2.961c5.669,3.239,10.222,7.575,14.018,13.375
								C1339.886,1024.364,1332.212,1029.121,1324.156,1034.115z M1334.432,1087.783c5.573,12.102,10.988,23.862,16.411,35.637
								c8.448-4.852,12.188-15.387,8.893-24.708C1356.514,1089.592,1346.895,1085.256,1334.432,1087.783z M1290.42,1031.57
								c-6.711,6.857-8.671,15.803-5.257,22.11c3.77,6.963,12.168,10.911,19.758,9.381
								C1300.167,1052.737,1295.402,1042.388,1290.42,1031.57z"/>
						</g>
						<path d="M1263.503,955.245c-1.135,0.523-2.278,1.068-3.397,1.621c-20.574,10.162-37.928,25.084-50.874,43.426
							c-0.367,0.52-0.246,1.242,0.267,1.618l0.146,0.107c0.528,0.387,1.265,0.261,1.641-0.274
							c12.448-17.755,29.284-32.691,49.827-42.838c1.101-0.544,2.225-1.08,3.342-1.595c67.248-30.969,147.154-1.454,178.124,65.794
							c3.498,7.596,6.207,15.378,8.171,23.249c0.161,0.646,0.825,1.028,1.463,0.837l0,0c0.599-0.179,0.955-0.8,0.801-1.406
							c-2.043-8.042-4.832-15.95-8.37-23.632C1413.149,953.766,1331.89,923.751,1263.503,955.245z"/>
						<path d="M1481.379,1087.541c-0.566-0.029-1.045,0.405-1.076,0.971c-3.048,55.531-35.228,107.38-88.897,133.888
							c-1.315,0.65-2.659,1.291-3.994,1.906c-79.974,36.829-175,1.729-211.83-78.244c-31.518-68.441-11.385-146.641,45.125-191.485
							c0.445-0.353,0.522-0.997,0.17-1.442l-0.094-0.118c-0.354-0.448-1.008-0.525-1.455-0.169
							c-23.34,18.642-41.118,43.47-51.338,72.268c-14.204,40.024-12.241,83.314,5.527,121.898
							c18.095,39.292,50.408,69.186,90.987,84.175c40.579,14.989,84.566,13.278,123.859-4.817c1.354-0.623,2.716-1.273,4.05-1.932
							c37.949-18.744,66.657-51.068,80.835-91.017c5.19-14.624,8.22-29.683,9.111-44.79
							C1482.392,1088.06,1481.95,1087.57,1481.379,1087.541L1481.379,1087.541z"/>
						<path d="M1447.272,1124.656l-0.027,0c-0.477,0.007-0.898,0.307-1.063,0.755c-11.422,31.106-34.307,58.06-66.292,73.858
							c-8.774,4.333-17.799,7.606-26.929,9.88c-0.469,0.117-0.815,0.511-0.867,0.992l0,0c-0.086,0.796,0.647,1.442,1.424,1.247
							c9.354-2.348,18.526-5.708,27.379-10.081c31.56-15.588,55.406-42.177,67.479-75.104
							C1448.653,1125.447,1448.079,1124.645,1447.272,1124.656z"/>
					</g>
				</g>
				<path style="fill:#F49D75;" d="M1083.896,981.731c17.466,0.822,59.153,2.626,66.342,1.482
					c8.028-1.271,57.272-10.385,75.638,20.065c3.13,5.196,2.103,11.522-1.734,15.565c-0.128,0.138-0.256,0.266-0.395,0.395
					c-0.79,0.771-1.683,1.439-2.685,1.987c-0.779,0.445-1.629,0.811-2.537,1.089c-11.196,3.426-27.811,8.339-42.488,11.961
					c-9.898,2.443-18.917,4.292-24.788,4.707c-7.91,0.56-24.671,1.972-42.362,3.504c-19.247,1.66-38.316,4.743-57.089,9.136
					L1083.896,981.731z"/>
				<path style="fill:#F07162;" d="M1218.607,1022.284c-0.028,0.009-0.054,0.021-0.082,0.03c-9.262,2.835-22.231,6.685-34.745,9.981
					c-1.376-13.427,1.123-21.752,1.123-21.752c34.482-3.497,39.127,0.807,39.127,0.807
					C1223.12,1014.919,1220.845,1018.932,1218.607,1022.284z"/>
			</g>
			<path style="fill:#FEBAC7;" d="M1266.064,1231.437c44.391-10.168,118.594,6.704,118.594,6.704
				c-14.135,32.735-54.31,45.135-68.942,35.959C1301.085,1264.924,1266.064,1231.437,1266.064,1231.437z"/>
			<g>
				<g>
					<path style="fill:#F7597F;" d="M1192.262,1257.999c-1.977,0-3.889-1.06-4.89-2.925c-1.448-2.698-0.433-6.059,2.265-7.506
						c50.96-27.333,112.326-26.814,154.828-21.565c45.798,5.655,79.196,17.518,80.596,18.021c2.881,1.034,4.378,4.208,3.345,7.089
						c-1.033,2.882-4.214,4.379-7.089,3.347c-0.333-0.119-33.832-12.001-78.458-17.483c-40.836-5.016-99.656-5.556-147.98,20.363
						C1194.044,1257.787,1193.146,1257.999,1192.262,1257.999z"/>
				</g>
			</g>
		</g>
	</g>
</g>
</svg>
