<?xml version="1.0" encoding="utf-8"?>
<!-- Generator: Adobe Illustrator 27.5.0, SVG Export Plug-In . SVG Version: 6.00 Build 0)  -->
<svg version="1.1" xmlns="http://www.w3.org/2000/svg" xmlns:xlink="http://www.w3.org/1999/xlink"
    x="0px" y="0px"
    viewBox="0 0 500 500" style="enable-background:new 0 0 500 500;" xml:space="preserve">
<g id="BACKGROUND">
	<rect style="fill:#1D262D;" width="500" height="500"/>
</g>
<g id="OBJECTS">
	
		<linearGradient id="SVGID_1_" gradientUnits="userSpaceOnUse" x1="181.3319" y1="370.529" x2="243.0526" y2="459.9447" gradientTransform="matrix(-0.9939 0.1107 -0.1107 -0.9939 533.239 752.1)">
		<stop  offset="0" style="stop-color:#E84C88"/>
		<stop  offset="1" style="stop-color:#BF3A6C"/>
	</linearGradient>
	<path style="fill:url(#SVGID_1_);" d="M301.282,383.505c-1.195-0.44-2.548-0.197-3.711,0.321c-1.479,0.658-2.778,1.782-3.485,3.238
		c-0.706,1.456-0.768,3.25-0.006,4.678c0.761,1.428,2.384,2.4,3.994,2.235c1.806-0.185,3.241-1.668,4.033-3.302
		C303.129,388.567,304.212,384.583,301.282,383.505z"/>
	<rect x="112.413" y="24.121" style="fill:none;" width="275.173" height="14.28"/>
	<text transform="matrix(1 0 0 1 169.1113 35.5215)" style="fill:#ACB7C6; font-family:'OpenSans-Bold'; font-size:15px;">Social media logos</text>
	<g>
		
			<linearGradient id="SVGID_00000080179708079662659850000004047156837314953360_" gradientUnits="userSpaceOnUse" x1="143.7135" y1="460.8096" x2="78.0333" y2="332.6143">
			<stop  offset="0" style="stop-color:#FFFB00"/>
			<stop  offset="1" style="stop-color:#FFBC36"/>
		</linearGradient>
		<path style="opacity:0.3;fill:url(#SVGID_00000080179708079662659850000004047156837314953360_);" d="M167.506,347.643
			c-6.27-6.834-16.286-9.508-25.13-6.788c-6.846-8.418-18.508-13.296-31.193-12.41c-7.225,0.507-13.714,2.552-19.44,4.355
			c-2.787,0.878-5.42,1.708-7.914,2.298c-1.127,0.267-2.279,0.505-3.437,0.747c-6.904,1.441-16.36,3.415-23.577,10.916
			c-6.442,6.697-8.277,14.676-9.751,21.087c-0.494,2.147-0.96,4.177-1.519,5.743c-0.668,1.874-1.833,4.06-3.067,6.373
			c-2.415,4.528-5.152,9.66-6.379,16.099c-3.093,16.234,6.024,33.398,21.21,39.926c5.533,2.377,10.83,3.063,15.504,3.667
			c2.348,0.303,4.565,0.59,6.313,1.053c2.646,0.701,5.689,2.198,8.912,3.783c5.321,2.616,11.352,5.582,18.683,6.693
			c2.048,0.31,4.137,0.467,6.278,0.467c4.771,0,9.803-0.773,15.226-2.332c16.262-4.672,29.151-14.334,36.292-27.208
			c6.741-12.153,7.468-26.594,2.602-38.507c1.84-1.726,3.809-3.967,5.275-6.948c1.635-3.325,3.23-8.856,1.537-16.321
			C172.794,355.321,170.632,351.051,167.506,347.643z"/>
		
			<linearGradient id="SVGID_00000079484925197702246930000008249903398686667191_" gradientUnits="userSpaceOnUse" x1="131.3175" y1="329.1608" x2="176.4232" y2="418.5809">
			<stop  offset="0" style="stop-color:#FFFB00"/>
			<stop  offset="1" style="stop-color:#FFBC36"/>
		</linearGradient>
		<path style="fill:url(#SVGID_00000079484925197702246930000008249903398686667191_);" d="M140.503,370.218
			c1.723,2.174,4.313,3.442,6.802,4.666c1.462,0.719,3.021,1.465,4.641,1.299c1.581-0.162,2.935-1.166,4.154-2.185
			c1.283-1.072,2.545-2.241,3.283-3.741c1.009-2.052,0.912-4.485,0.407-6.716c-0.505-2.229-1.423-4.411-2.968-6.096
			c-2.567-2.798-6.836-3.89-10.431-2.668C140.931,356.634,136.548,365.228,140.503,370.218z"/>
		
			<linearGradient id="SVGID_00000075158428196379466390000010783141977368539525_" gradientUnits="userSpaceOnUse" x1="80.0417" y1="355.0255" x2="125.1472" y2="444.4453">
			<stop  offset="0" style="stop-color:#FFFB00"/>
			<stop  offset="1" style="stop-color:#FFBC36"/>
		</linearGradient>
		<path style="fill:url(#SVGID_00000075158428196379466390000010783141977368539525_);" d="M133.457,354.129
			c-2.821-8.146-12.661-11.82-21.26-11.218c-8.6,0.602-16.641,4.314-25.03,6.298c-7.023,1.661-14.899,2.405-19.902,7.606
			c-5.398,5.611-5.448,14.308-8.061,21.643c-2.487,6.982-7.474,13.038-8.861,20.319c-1.824,9.572,3.739,20.043,12.691,23.89
			c6.207,2.668,13.278,2.296,19.808,4.027c9.039,2.396,16.807,8.755,26.052,10.156c5.114,0.775,10.356-0.038,15.328-1.466
			c11.27-3.237,21.927-10.051,27.615-20.305c5.688-10.254,5.411-24.147-2.406-32.887c-3.566-3.987-10.08-6.307-13.016-10.455
			C133.062,367,135.306,359.467,133.457,354.129z"/>
		<path style="fill:#F9FBFC;" d="M79.41,403.897c0-0.264,0-0.528,0-0.792c0.325-0.377,0.668-0.697,1.195-0.801
			c4.161-0.824,6.944-3.477,9.043-6.96c1.765-2.928,1.482-3.598-1.771-4.749c-0.186-0.066-0.378-0.12-0.56-0.195
			c-0.703-0.289-1.398-0.597-1.979-1.102c-1.457-1.266-0.595-3.09,1.122-3.504c1.256-0.302,2.349,0.505,3.568,0.657
			c0.814,0.101,1.14-0.173,1.04-1.04c-0.258-2.234-0.251-4.48-0.146-6.723c0.2-4.277,2.304-7.535,5.867-9.647
			c5.203-3.083,10.641-3.122,15.881-0.048c3.271,1.919,5.382,4.824,5.84,8.717c0.298,2.534,0.18,5.072-0.02,7.609
			c-0.087,1.101,0.138,1.304,1.228,1.049c1.352-0.317,2.486-1.014,3.891-0.396c0.752,0.33,1.408,1.041,1.387,1.862
			c-0.014,0.562-0.342,1.08-0.766,1.449c-0.65,0.565-1.496,0.879-2.284,1.199c-0.611,0.247-1.246,0.44-1.842,0.719
			c-1.229,0.576-1.582,1.336-1.007,2.552c1.99,4.208,4.916,7.403,9.647,8.512c0.577,0.135,1.04,0.371,1.39,0.839
			c0,0.264,0,0.528,0,0.792c-0.448,0.923-1.251,1.431-2.161,1.776c-0.924,0.35-1.854,0.742-2.848,0.806
			c-1.371,0.088-2.093,0.686-2.302,2.114c-0.199,1.358-0.608,1.551-1.993,1.439c-0.328-0.026-0.654-0.087-0.978-0.145
			c-2.712-0.482-5.257-0.207-7.488,1.594c-0.435,0.352-0.918,0.645-1.389,0.95c-3.799,2.465-7.69,2.747-11.659,0.433
			c-1.082-0.631-2.107-1.358-3.157-2.044c-0.869-0.568-1.802-0.885-2.845-1.043c-1.645-0.249-3.221,0.12-4.821,0.296
			c-0.823,0.091-1.618-0.144-1.664-0.995c-0.112-2.051-1.369-2.552-3.093-2.742c-0.803-0.088-1.597-0.415-2.354-0.731
			C80.556,405.261,79.804,404.77,79.41,403.897z"/>
	</g>
 </g>
</svg>