<?xml version="1.0" encoding="utf-8"?>
<!-- Generator: Adobe Illustrator 27.5.0, SVG Export Plug-In . SVG Version: 6.00 Build 0)  -->
<svg version="1.1" xmlns="http://www.w3.org/2000/svg" xmlns:xlink="http://www.w3.org/1999/xlink" x="0px" y="0px"
	 viewBox="20 40 150 150"  xml:space="preserve">
<g id="OBJECTS">
	
		<linearGradient id="SVGID_1_" gradientUnits="userSpaceOnUse" x1="181.3319" y1="370.529" x2="243.0526" y2="459.9447" gradientTransform="matrix(-0.9939 0.1107 -0.1107 -0.9939 533.239 752.1)">

	</linearGradient>
	<path style="fill:url(#SVGID_1_);" d="M301.282,383.505c-1.195-0.44-2.548-0.197-3.711,0.321c-1.479,0.658-2.778,1.782-3.485,3.238
		c-0.706,1.456-0.768,3.25-0.006,4.678c0.761,1.428,2.384,2.4,3.994,2.235c1.806-0.185,3.241-1.668,4.033-3.302
		C303.129,388.567,304.212,384.583,301.282,383.505z"/>
	<rect x="112.413" y="24.121" style="fill:none;" width="275.173" height="14.28"/>
	
	<g>
			<linearGradient id="SVGID_00000018224216742360486770000003310322698550476932_" gradientUnits="userSpaceOnUse" x1="138.9904" y1="175.2328" x2="63.023" y2="57.3251">
			<stop  offset="0" style="stop-color:#245A9C"/>
			<stop  offset="1" style="stop-color:#2B1882"/>
		</linearGradient>
		<path style="opacity:0.3;fill:url(#SVGID_00000018224216742360486770000003310322698550476932_);" d="M69.383,159.381
			c1.772,0.133,3.373,0.104,4.661,0.081c0.73-0.013,1.731-0.03,2.069,0.012c1.056,0.137,3.923,2.144,5.821,3.472
			c2.563,1.795,5.469,3.829,8.946,5.515c5.501,2.668,11.646,3.981,17.97,3.98c8.989,0,18.336-2.655,26.686-7.847
			c21.677-13.479,32.626-41.16,26.034-65.819c-6.592-24.661-29.893-43.186-55.404-44.051c-16.046-0.55-24.833,7.274-31.929,15.805
			c-3.067,3.688-6.931,6.659-11.405,10.101c-2.967,2.282-6.036,4.643-9.161,7.437l0-0.001
			c-11.461,10.247-17.553,24.56-16.296,38.286C38.959,143.653,53.018,158.161,69.383,159.381z"/>
		
			<linearGradient id="SVGID_00000093156114543525009540000016788346872532328380_" gradientUnits="userSpaceOnUse" x1="79.9673" y1="78.9993" x2="125.9671" y2="161.6658">
			<stop  offset="0" style="stop-color:#245A9C"/>
			<stop  offset="1" style="stop-color:#2B1882"/>
		</linearGradient>
		<path style="fill:url(#SVGID_00000093156114543525009540000016788346872532328380_);" d="M63.336,98.876
			c-7.367,6.587-12.423,16.313-11.522,26.155c0.901,9.841,8.791,19.156,18.646,19.891c2.499,0.186,5.025-0.148,7.51,0.173
			c7.278,0.94,12.634,7.118,19.236,10.32c9.653,4.681,21.561,2.531,30.672-3.133c16.226-10.089,24.617-31.302,19.683-49.761
			c-4.934-18.459-22.791-32.656-41.887-33.303c-9.725-0.329-14.628,3.779-20.29,10.586C78.924,87.57,70.785,92.215,63.336,98.876z"
			/>
		<path style="fill-rule:evenodd;clip-rule:evenodd;fill:#F9FBFC;" d="M99.043,111.51v21.324c0,0.307,0.248,0.555,0.555,0.555h7.919
			c0.307,0,0.555-0.249,0.555-0.555v-21.671h5.741c0.289,0,0.529-0.221,0.553-0.509l0.552-6.53c0.027-0.324-0.228-0.602-0.553-0.602
			h-6.293v-4.632c0-1.086,0.88-1.966,1.966-1.966h4.424c0.307,0,0.555-0.249,0.555-0.555v-6.53c0-0.307-0.249-0.555-0.555-0.555
			h-7.476c-4.387,0-7.943,3.556-7.943,7.944v6.295h-3.96c-0.307,0-0.555,0.249-0.555,0.556v6.53c0,0.307,0.249,0.555,0.555,0.555
			h3.96V111.51z"/>
	</g>
</g>
</svg>
