<?xml version="1.0" encoding="utf-8"?>
<!-- Generator: Adobe Illustrator 27.5.0, SVG Export Plug-In . SVG Version: 6.00 Build 0)  -->
<svg version="1.1" xmlns="http://www.w3.org/2000/svg" xmlns:xlink="http://www.w3.org/1999/xlink" x="0px" y="0px"
	 viewBox="160 40 150 150"  xml:space="preserve">
<g id="OBJECTS">
	
		<linearGradient id="SVGID_1_" gradientUnits="userSpaceOnUse" x1="181.3319" y1="370.529" x2="243.0526" y2="459.9447" gradientTransform="matrix(-0.9939 0.1107 -0.1107 -0.9939 533.239 752.1)">
	</linearGradient>
	<path style="fill:url(#SVGID_1_);" d="M301.282,383.505c-1.195-0.44-2.548-0.197-3.711,0.321c-1.479,0.658-2.778,1.782-3.485,3.238
		c-0.706,1.456-0.768,3.25-0.006,4.678c0.761,1.428,2.384,2.4,3.994,2.235c1.806-0.185,3.241-1.668,4.033-3.302
		C303.129,388.567,304.212,384.583,301.282,383.505z"/>
	<rect x="112.413" y="24.121" style="fill:none;" width="275.173" height="14.28"/>
	
	<g>
		
			<linearGradient id="SVGID_00000179611148332188065630000017560814198177429933_" gradientUnits="userSpaceOnUse" x1="282.8274" y1="178.9091" x2="206.0689" y2="45.9664">
			<stop  offset="0" style="stop-color:#FFE286"/>
			<stop  offset="0.2095" style="stop-color:#FFBC36"/>
			<stop  offset="0.3776" style="stop-color:#FF5176"/>
			<stop  offset="0.5282" style="stop-color:#F73396"/>
			<stop  offset="0.741" style="stop-color:#A536D3"/>
			<stop  offset="1" style="stop-color:#5A4BDB"/>
		</linearGradient>
		<path style="opacity:0.3;fill:url(#SVGID_00000179611148332188065630000017560814198177429933_);" d="M189.086,133.253
			c0.338,0.229,0.684,0.438,1.031,0.643c0.319,12.082,6.355,24.172,16.719,31.381c6.839,4.757,15.129,7.169,23.726,7.169
			c6.82,0,13.835-1.519,20.469-4.588c2.146-0.994,4.14-2.085,5.899-3.047c2.443-1.337,4.752-2.6,6.429-3.027
			c1.704-0.433,4.359-0.469,7.169-0.506c7.436-0.099,17.619-0.235,26.227-8.048c3.637-3.301,6.507-7.655,8.775-13.314
			c7.223-18.023,5.136-39.558-5.448-56.201c-10.271-16.152-27.635-26.521-46.448-27.737c-18.546-1.194-31.575,9.212-42.037,17.578
			c-1.269,1.014-2.544,2.035-3.835,3.041c-3.631,2.829-10.048,7.847-12.816,16.19c-4.928,1.362-9.216,4.817-12.039,9.891
			c-2.564,4.608-3.547,10.151-2.767,15.613C181.05,124.644,184.227,129.957,189.086,133.253z"/>
		
			<linearGradient id="SVGID_00000008143318000369069790000001731587060645041562_" gradientUnits="userSpaceOnUse" x1="184.8895" y1="98.6233" x2="276.2227" y2="195.2898">
			<stop  offset="0" style="stop-color:#FFE286"/>
			<stop  offset="0.2095" style="stop-color:#FFBC36"/>
			<stop  offset="0.3776" style="stop-color:#FF5176"/>
			<stop  offset="0.5282" style="stop-color:#F73396"/>
			<stop  offset="0.741" style="stop-color:#A536D3"/>
			<stop  offset="1" style="stop-color:#5A4BDB"/>
		</linearGradient>
		<path style="fill:url(#SVGID_00000008143318000369069790000001731587060645041562_);" d="M205.534,111.752
			c1.12,2.593,0.996,5.816-0.749,8.037c-1.746,2.221-5.222,3.049-7.56,1.464c-1.623-1.101-2.452-3.076-2.729-5.017
			c-0.317-2.216-0.004-4.552,1.084-6.508C198.692,104.132,203.448,106.923,205.534,111.752z"/>
		
			<linearGradient id="SVGID_00000164497002901538610380000017061508955001505207_" gradientUnits="userSpaceOnUse" x1="208.3194" y1="76.4861" x2="299.6529" y2="173.153">
			<stop  offset="0" style="stop-color:#FFE286"/>
			<stop  offset="0.2095" style="stop-color:#FFBC36"/>
			<stop  offset="0.3776" style="stop-color:#FF5176"/>
			<stop  offset="0.5282" style="stop-color:#F73396"/>
			<stop  offset="0.741" style="stop-color:#A536D3"/>
			<stop  offset="1" style="stop-color:#5A4BDB"/>
		</linearGradient>
		<path style="fill:url(#SVGID_00000164497002901538610380000017061508955001505207_);" d="M216.673,88.035
			c-3.57,2.781-7.404,5.984-8.33,10.654c-1.183,5.965,2.869,12.126,1.51,18.047c-0.606,2.64-2.219,4.848-3.353,7.273
			c-4.697,10.042-0.108,23.297,8.616,29.365s20.297,5.734,29.825,1.324c4.97-2.3,9.587-5.631,14.845-6.968
			c9.13-2.321,20.024,1.297,27.225-5.238c2.3-2.087,3.863-4.984,5.06-7.971c5.534-13.808,3.653-30.639-4.224-43.026
			c-7.877-12.387-21.331-20.155-35.148-21.048C237.999,69.497,227.924,79.271,216.673,88.035z"/>
		<path style="fill:#F9FBFC;" d="M261.721,98.105c-1.434,0-2.595,1.162-2.595,2.595c0,1.433,1.162,2.595,2.595,2.595
			c1.433,0,2.595-1.162,2.595-2.595C264.316,99.267,263.154,98.105,261.721,98.105z"/>
		<path style="fill:#F9FBFC;" d="M250.182,101.433c-6.012,0-10.903,4.891-10.903,10.903c0,6.012,4.891,10.903,10.903,10.903
			c6.012,0,10.903-4.891,10.903-10.903C261.085,106.324,256.194,101.433,250.182,101.433z M250.182,119.32
			c-3.851,0-6.984-3.133-6.984-6.984c0-3.851,3.133-6.984,6.984-6.984c3.851,0,6.984,3.133,6.984,6.984
			C257.166,116.187,254.033,119.32,250.182,119.32z"/>
		<path style="fill:#F9FBFC;" d="M258.837,134.472h-17.675c-7.333,0-13.298-5.965-13.298-13.298v-17.676
			c0-7.333,5.965-13.298,13.298-13.298h17.675c7.332,0,13.298,5.965,13.298,13.298v17.676
			C272.136,128.507,266.17,134.472,258.837,134.472z M241.162,94.365c-5.036,0-9.133,4.097-9.133,9.133v17.676
			c0,5.036,4.097,9.133,9.133,9.133h17.675c5.036,0,9.134-4.097,9.134-9.133v-17.676c0-5.036-4.097-9.133-9.134-9.133H241.162z"/>
	</g>
</g>
</svg>
