<?xml version="1.0" encoding="utf-8"?>
<!-- Generator: Adobe Illustrator 27.5.0, SVG Export Plug-In . SVG Version: 6.00 Build 0)  -->
<svg version="1.1" xmlns="http://www.w3.org/2000/svg" xmlns:xlink="http://www.w3.org/1999/xlink" x="0px" y="0px"
	 viewBox="170 165 150 160"  xml:space="preserve">

<g id="OBJECTS">
	
		<linearGradient id="SVGID_1_" gradientUnits="userSpaceOnUse" x1="181.3319" y1="370.529" x2="243.0526" y2="459.9447" gradientTransform="matrix(-0.9939 0.1107 -0.1107 -0.9939 533.239 752.1)">
	</linearGradient>
	<path style="fill:url(#SVGID_1_);" d="M301.282,383.505c-1.195-0.44-2.548-0.197-3.711,0.321c-1.479,0.658-2.778,1.782-3.485,3.238
		c-0.706,1.456-0.768,3.25-0.006,4.678c0.761,1.428,2.384,2.4,3.994,2.235c1.806-0.185,3.241-1.668,4.033-3.302
		C303.129,388.567,304.212,384.583,301.282,383.505z"/>
	<g>
		
			<linearGradient id="SVGID_00000085947761085013293100000003043564099491244962_" gradientUnits="userSpaceOnUse" x1="279.1792" y1="305.8204" x2="222.2035" y2="198.991">
			<stop  offset="0" style="stop-color:#FF0000"/>
			<stop  offset="1" style="stop-color:#9B0000"/>
		</linearGradient>
		<path style="opacity:0.3;fill:url(#SVGID_00000085947761085013293100000003043564099491244962_);" d="M311.262,244.463
			c2.462-9.194,1.171-19.776-3.869-30.209c-3.142-6.502-6.921-11.511-11.552-15.313c-16.115-13.23-33.889-8.481-46.867-5.016
			c-3.568,0.953-6.939,1.854-9.892,2.313c-1.638,0.255-3.757,0.434-6.001,0.622c-6.226,0.524-13.974,1.177-20.966,4.26
			c-10.305,4.543-16.519,13.311-17.498,24.692c-0.07,0.815-0.098,1.548-0.114,2.177c-0.198,0.241-0.41,0.494-0.594,0.712
			l-0.176,0.21c-3.951,4.712-8.216,10.547-9.888,18.098c-2.041,9.223,0.634,18.47,6.723,24.496c-0.17,0.665-0.32,1.339-0.431,2.03
			c-1.236,7.695,1.641,15.692,7.695,21.39c1.6,1.506,3.137,2.599,4.371,3.477c0.395,0.28,0.794,0.557,1.17,0.854
			c0.166,0.131,0.329,0.267,0.495,0.402c1.678,1.377,4.487,3.684,8.696,4.886c1.746,0.499,3.525,0.739,5.297,0.739
			c4.719-0.001,9.365-1.711,13.105-4.749c6.266,4.122,13.75,6.396,21.384,6.396c2.294,0,4.603-0.204,6.894-0.624
			c9.566-1.752,18.364-7.215,24.546-14.924c0.806,0.102,1.621,0.162,2.443,0.162c2.193,0,4.43-0.368,6.62-1.143
			c5.734-2.03,9.232-6.054,11.11-8.214c2.869-3.3,6.176-7.192,9.114-11.645c5.305-8.036,4.543-14.711,2.971-18.894
			C314.997,248.855,313.349,246.419,311.262,244.463z"/>
		
			<linearGradient id="SVGID_00000018204254543591318230000008573537517976324484_" gradientUnits="userSpaceOnUse" x1="187.2463" y1="235.759" x2="242.6393" y2="322.0137">
			<stop  offset="0" style="stop-color:#FF0000"/>
			<stop  offset="1" style="stop-color:#9B0000"/>
		</linearGradient>
		<path style="fill:url(#SVGID_00000018204254543591318230000008573537517976324484_);" d="M204.453,275.837
			c-0.504,3.136,1.005,6.355,3.318,8.531c1.401,1.319,3.072,2.313,4.583,3.505c1.321,1.042,2.583,2.269,4.2,2.732
			c2.719,0.778,5.696-0.974,7.05-3.456c1.354-2.483,1.379-5.484,0.929-8.276c-0.296-1.839-0.801-3.687-1.853-5.224
			C218.584,267.659,205.833,267.243,204.453,275.837z"/>
		
			<linearGradient id="SVGID_00000016765789027199963740000010870443087490235562_" gradientUnits="userSpaceOnUse" x1="248.1037" y1="196.6765" x2="303.4965" y2="282.9307">
			<stop  offset="0" style="stop-color:#FF0000"/>
			<stop  offset="1" style="stop-color:#9B0000"/>
		</linearGradient>
		<path style="fill:url(#SVGID_00000016765789027199963740000010870443087490235562_);" d="M289.006,257.564
			c-3.472,3.923-5.825,8.824-6.715,13.987c-0.188,1.09-0.305,2.25,0.125,3.27c0.845,2.003,3.548,2.638,5.597,1.912
			c2.049-0.726,3.581-2.419,5.007-4.059c2.817-3.24,5.59-6.536,7.955-10.119c1.145-1.734,2.229-3.859,1.498-5.804
			C300.394,251.215,291.646,254.581,289.006,257.564z"/>
		
			<linearGradient id="SVGID_00000124136942359409601770000001325967399011011774_" gradientUnits="userSpaceOnUse" x1="227.65" y1="209.8117" x2="283.043" y2="296.0664">
			<stop  offset="0" style="stop-color:#FF0000"/>
			<stop  offset="1" style="stop-color:#9B0000"/>
		</linearGradient>
		<path style="fill:url(#SVGID_00000124136942359409601770000001325967399011011774_);" d="M209.064,227.057
			c-0.141,1.645,0.011,3.324-0.371,4.93c-0.572,2.401-2.263,4.351-3.849,6.243c-2.972,3.544-5.841,7.398-6.841,11.914
			c-1,4.516,0.347,9.853,4.288,12.276c4.789,2.944,11.191,0.668,16.496,2.525c7.693,2.693,9.87,12.329,14.918,18.728
			c5.294,6.712,14.518,9.913,22.927,8.373c8.409-1.54,15.752-7.574,19.331-15.337c2.664-5.78,3.408-12.442,6.98-17.71
			c3.419-5.041,9.093-8.274,12.267-13.473c4.527-7.415,2.908-17.139-0.871-24.961c-1.893-3.918-4.334-7.654-7.697-10.415
			c-13.808-11.336-30.43-1.9-45.329,0.418C229.602,212.388,210.507,210.266,209.064,227.057z"/>
		<path style="fill:#F9FBFC;" d="M275.447,235.313c0-6.168-5-11.168-11.168-11.168h-28.558c-6.168,0-11.168,5-11.168,11.168v13.29
			c0,6.168,5,11.168,11.168,11.168h28.558c6.168,0,11.168-5,11.168-11.168V235.313z M258.652,242.953l-12.806,6.336
			c-0.502,0.272-2.208-0.092-2.208-0.663v-13.005c0-0.578,1.72-0.941,2.222-0.655l12.258,6.669
			C258.633,241.928,259.172,242.672,258.652,242.953z"/>
	</g>
	</g>
</svg>
