<?xml version="1.0" encoding="utf-8"?>
<!-- Generator: Adobe Illustrator 27.5.0, SVG Export Plug-In . SVG Version: 6.00 Build 0)  -->
<svg version="1.1" xmlns="http://www.w3.org/2000/svg" xmlns:xlink="http://www.w3.org/1999/xlink" x="0px" y="0px"
	 viewBox="0 0 3710 3710" style="enable-background:new 0 0 3710 3710;" xml:space="preserve">
<g id="Background">
	<g>
		<g>
			<rect style="fill:#FFFFFF;" width="3710" height="3710"/>
		</g>
	</g>
</g>
<g id="Illustration">
	<g id="Digital_PR">
		<path style="fill:#F4F7FA;" d="M1061.881,623.292c-92.736,135.184,15.999,354.351-121.605,456.02
			c-133.948,98.968-298.498-63.254-424.735,21.938c-187.265,126.376-153.067,704.648,120.725,1063.94
			c82.339,108.052,151.138,150.093,181.608,272.294c65.429,262.397-164.522,418.487-120.763,548.264
			c98.53,292.211,1613.858,537.41,2221.876-340.78c283.969-410.151,326.457-1002.412,72.74-1452.238
			C2533.263,379.902,1269.965,319.963,1061.881,623.292z"/>
		<g>
			<path style="fill:#BFC6D1;" d="M1664.868,1274.7c40.29,3.393,75.931-29.222,79.604-72.848
				c3.675-43.625-26.008-81.743-66.298-85.136c-2.088-0.176-4.154-0.197-6.213-0.184c-1.921-22.533-5.434-44.603-10.491-66.055
				c1.913-0.783,3.821-1.595,5.702-2.563c36.73-18.875,52.754-66.177,35.79-105.655c-16.963-39.479-60.489-56.182-97.219-37.309
				c-1.92,0.988-3.748,2.096-5.553,3.232c-11.992-18.108-25.271-35.16-39.726-51.014c1.336-1.737,2.65-3.506,3.869-5.392
				c23.327-36.083,15.441-85.402-17.614-110.153c-33.055-24.751-78.762-15.565-102.089,20.518c-1.195,1.85-2.254,3.752-3.285,5.667
				c-18.661-9.006-38.142-16.463-58.313-22.297c0.359-2.197,0.686-4.41,0.876-6.669c3.674-43.627,11.625-92.88-28.714-95.641
				c-93.315-6.39-113.515,39.727-117.19,83.352c-0.19,2.259-0.237,4.495-0.251,6.721c-20.863,2.379-41.317,6.472-61.222,12.23
				c-0.697-2.059-1.422-4.112-2.292-6.135c-16.963-39.477-13.9-65.812-52.455-51.021c-84.076,32.257-97.517,79.893-80.554,119.371
				c0.886,2.063,1.887,4.026,2.914,5.963c-16.903,13.212-32.848,27.804-47.699,43.652c-1.59-1.422-3.206-2.821-4.935-4.116
				c-33.054-24.751-78.762-15.564-102.089,20.522c-23.327,36.085-15.441,85.401,17.614,110.152c1.693,1.269,3.439,2.389,5.193,3.481
				c-8.575,20.305-15.729,41.476-21.393,63.37c-2.027-0.357-4.068-0.682-6.155-0.858c-40.289-3.393-75.931,29.221-79.605,72.848
				c-3.674,43.626,26.009,81.743,66.299,85.136c2.087,0.176,4.154,0.197,6.212,0.184c1.922,22.533,5.434,44.603,10.492,66.055
				c-1.914,0.783-3.821,1.595-5.703,2.56c-36.729,18.876-52.753,66.179-35.79,105.657c16.964,39.479,60.49,56.18,97.219,37.306
				c1.919-0.986,3.75-2.094,5.554-3.231c11.991,18.109,25.271,35.162,39.726,51.016c-1.336,1.738-2.649,3.506-3.87,5.392
				c-23.327,36.083-15.441,85.401,17.614,110.153c33.055,24.751,104.61,13.427,127.936-22.656c1.196-1.851-23.593-1.615-22.562-3.53
				c18.66,9.006,38.142,16.463,58.313,22.297c-0.359,2.197-0.686,4.41-0.876,6.669c-3.675,43.626,26.008,81.743,66.298,85.137
				c40.29,3.393,75.93-29.223,79.605-72.848c0.19-2.26,0.237-4.496,0.251-6.722c20.863-2.378,41.318-6.471,61.22-12.229
				c0.697,2.06,1.424,4.112,2.292,6.136c16.964,39.476,60.49,56.179,97.219,37.305c36.73-18.874,52.754-66.179,35.79-105.655
				c-0.886-2.063-1.886-4.026-2.913-5.963c16.903-13.212,32.848-27.804,47.699-43.652c1.589,1.423,3.208,2.821,4.934,4.114
				c33.055,24.751,78.762,15.567,102.089-20.52c23.327-36.085,15.441-85.401-17.614-110.156c-1.693-1.266-3.438-2.386-5.193-3.477
				c8.573-20.304,15.729-41.475,21.391-63.37C1660.74,1274.198,1662.78,1274.524,1664.868,1274.7z M1250.619,1449.093
				c-146.284-12.321-254.056-150.713-240.716-309.11c13.341-158.397,142.742-276.813,289.027-264.492
				c146.286,12.321,254.057,150.713,240.716,309.11C1526.305,1342.998,1396.905,1461.414,1250.619,1449.093z"/>
			<path style="fill:#BFC6D1;" d="M1667.172,1047.914c36.729-18.875,52.753-66.178,35.791-105.656
				c-16.964-39.478-60.49-56.182-97.219-37.306c-1.92,0.986-3.749,2.096-5.553,3.231c-11.991-18.109-25.271-35.16-39.726-51.014
				c1.336-1.737,2.65-3.506,3.869-5.392c23.327-36.083,41.249-107.659,5.83-128.889c-67.224-40.293-102.206,3.173-125.532,39.255
				c-1.195,1.85-2.254,3.751-3.286,5.665c-18.66-9.005-38.141-16.461-58.313-22.296c0.36-2.198,0.687-4.409,0.877-6.668
				c2-23.743-5.932-45.804-20.026-61.573c-8.981,68.217-17.444,136.494-25.227,204.849
				c125.545,31.604,213.09,158.809,200.99,302.483c-10.254,121.75-89.106,219.8-191.459,253.096
				c0.236,13.309,0.578,26.648,0.455,39.974c-0.334,36.162-2.679,72.402-5.061,108.608c9.93-2.007,19.75-4.4,29.436-7.201
				c0.697,2.061,1.423,4.113,2.292,6.136c16.963,39.478,54.862,63.48,122.441,31.767c37.384-17.544,27.531-60.638,10.567-100.116
				c-0.886-2.063-1.886-4.026-2.912-5.962c16.903-13.213,32.847-27.805,47.698-43.652c1.59,1.422,3.209,2.821,4.935,4.114
				c33.055,24.752,107.21,10.856,130.537-25.229c23.328-36.086-13.007-80.691-46.061-105.445c-1.693-1.268-3.439-2.388-5.194-3.48
				c8.574-20.303,15.728-41.475,21.392-63.368c2.029,0.358,4.068,0.683,6.156,0.857c40.29,3.395,75.931-29.223,79.605-72.848
				c3.674-43.624-26.009-81.743-66.299-85.135c-2.088-0.176-4.154-0.197-6.212-0.183c-1.921-22.533-5.434-44.604-10.491-66.054
				C1663.383,1049.693,1665.291,1048.881,1667.172,1047.914z"/>
			<linearGradient id="SVGID_1_" gradientUnits="userSpaceOnUse" x1="842.3552" y1="1151.7867" x2="1782.3658" y2="1151.7867">
				<stop  offset="0" style="stop-color:#FFC444"/>
				<stop  offset="0.9964" style="stop-color:#F36F56"/>
			</linearGradient>
			<path style="fill:url(#SVGID_1_);" d="M1702.453,1264.194c40.29,3.394,75.93-29.221,79.605-72.847
				c3.675-43.627-26.01-81.744-66.3-85.136c-2.087-0.176-4.153-0.198-6.211-0.184c-1.922-22.534-5.434-44.604-10.491-66.056
				c1.912-0.783,3.821-1.595,5.702-2.563c36.73-18.874,52.754-66.176,35.791-105.655c-16.963-39.478-60.489-56.182-97.219-37.307
				c-1.92,0.988-3.748,2.096-5.553,3.232c-11.992-18.109-25.272-35.161-39.726-51.015c1.336-1.737,2.65-3.506,3.869-5.392
				c23.327-36.083,15.441-85.401-17.614-110.152c-33.055-24.753-78.762-15.564-102.089,20.518c-1.195,1.85-2.253,3.752-3.286,5.666
				c-18.661-9.006-38.141-16.462-58.313-22.296c0.358-2.198,0.687-4.41,0.877-6.67c3.675-43.626-26.009-81.743-66.299-85.135
				c-40.29-3.393-75.93,29.221-79.605,72.847c-0.19,2.26-0.237,4.496-0.252,6.723c-20.863,2.378-41.317,6.471-61.22,12.229
				c-0.698-2.06-1.423-4.112-2.292-6.135c-16.963-39.477-60.49-56.181-97.219-37.306c-36.729,18.874-52.753,66.179-35.791,105.655
				c0.887,2.064,1.886,4.026,2.914,5.963c-16.903,13.214-32.848,27.805-47.699,43.652c-1.589-1.422-3.207-2.82-4.935-4.116
				c-33.055-24.751-78.762-15.564-102.089,20.522c-23.328,36.086-15.441,85.401,17.613,110.153c1.694,1.268,3.439,2.388,5.194,3.48
				c-8.575,20.304-15.728,41.475-21.393,63.37c-2.027-0.358-4.068-0.682-6.155-0.858c-40.29-3.394-75.931,29.221-79.605,72.847
				c-3.674,43.626,26.009,81.742,66.299,85.137c2.087,0.176,4.153,0.197,6.212,0.184c1.923,22.533,5.434,44.604,10.491,66.055
				c-1.912,0.783-3.82,1.596-5.702,2.561c-36.73,18.876-52.753,66.178-35.79,105.657c16.963,39.479,60.49,56.179,97.219,37.306
				c1.919-0.986,3.749-2.094,5.554-3.231c11.991,18.109,25.27,35.161,39.725,51.016c-1.337,1.737-2.65,3.506-3.87,5.392
				c-23.327,36.083-15.441,85.401,17.614,110.152c33.055,24.752,78.762,15.565,102.089-20.519c1.196-1.85,2.254-3.752,3.287-5.666
				c18.659,9.005,38.141,16.462,58.312,22.297c-0.358,2.198-0.686,4.409-0.877,6.67c-3.674,43.625,26.009,81.742,66.299,85.136
				c40.29,3.393,75.931-29.221,79.604-72.848c0.191-2.259,0.238-4.495,0.252-6.722c20.863-2.378,41.318-6.471,61.22-12.229
				c0.698,2.06,1.424,4.112,2.292,6.135c16.964,39.477,60.49,56.18,97.219,37.306c36.73-18.874,52.754-66.178,35.791-105.654
				c-0.887-2.064-1.886-4.027-2.913-5.964c16.903-13.213,32.847-27.804,47.699-43.651c1.589,1.422,3.207,2.82,4.935,4.113
				c33.055,24.752,78.762,15.567,102.089-20.519c23.328-36.085,15.442-85.402-17.613-110.156c-1.694-1.266-3.439-2.386-5.194-3.478
				c8.574-20.304,15.728-41.475,21.392-63.37C1698.326,1263.693,1700.366,1264.018,1702.453,1264.194z M1288.205,1438.588
				c-146.284-12.321-254.056-150.713-240.715-309.11c13.341-158.397,142.743-276.813,289.027-264.493
				c146.284,12.321,254.057,150.713,240.715,309.11C1563.891,1332.492,1434.49,1450.908,1288.205,1438.588z"/>
		</g>
		<g>
			<g>
				<path style="fill:#97A6B7;" d="M2167.569,2868.387c-36.662-12.16-64.063-43.275-71.791-81.518l-53.361-264.097l-456.461,16.209
					l-56.177,275.13c-7.868,38.531,23.627,77.189,59.898,91.38l190.974,74.721c35.519,13.898,73.7,19.433,111.649,16.187
					l403.595-34.527c11.798-1.01,21.261-10.283,22.635-22.182c1.373-11.898,9.639-25.258-1.611-28.989L2167.569,2868.387z"/>
				<path style="fill:#FFFFFF;" d="M2172.086,2852.326c-36.625-12.008-64-42.731-71.719-80.494l-53.306-260.776l-445.333,16.022
					l-56.121,271.671c-7.86,38.047,12.936,76.201,49.171,90.214l190.781,73.781c35.484,13.723,73.627,19.189,111.537,15.983
					l403.188-34.093c11.786-0.997,21.24-10.155,22.612-21.903c1.372-11.748-5.719-22.838-16.958-26.523L2172.086,2852.326z"/>
			</g>
			<g>
				<g>
					<path style="fill:#97A6B7;" d="M653.243,2698.305c-49.5,2.951-89.996-29.162-89.996-71.599V1097.156
						c0-42.437,40.496-75.209,89.996-73.064l67.12,45.05l2222.054,54.138c36.341,1.575,65.768,32.214,65.768,68.307v1300.87
						c0,36.093-29.427,67.212-65.768,69.378L653.243,2698.305z"/>
					
						<linearGradient id="SVGID_00000168830326572436547800000006497672120307800198_" gradientUnits="userSpaceOnUse" x1="583.8204" y1="1861.2426" x2="3028.7595" y2="1861.2426">
						<stop  offset="0.0036" style="stop-color:#26264F"/>
						<stop  offset="1" style="stop-color:#444B8C"/>
					</linearGradient>
					<path style="fill:url(#SVGID_00000168830326572436547800000006497672120307800198_);" d="M673.816,2698.305
						c-49.5,2.951-89.995-29.162-89.995-71.599V1097.156c0-42.437,40.496-75.209,89.995-73.064l2289.175,99.188
						c36.342,1.575,65.768,32.214,65.768,68.307v1300.87c0,36.093-29.427,67.212-65.768,69.378L673.816,2698.305z"/>
					<path style="opacity:0.3;fill:#D8DEE8;" d="M2962.992,1153.895l-2289.175-94.173c-26.463-1.089-47.979,16.397-47.979,39.057
						v1189.586v336.032c0,22.661,21.516,39.795,47.979,38.276l2289.175-131.455c19.479-1.119,35.23-17.721,35.23-37.086v-297.375
						V1190.407C2998.221,1171.042,2982.471,1154.696,2962.992,1153.895z"/>
					<path style="fill:#D8DEE8;" d="M673.816,2532.735c-10.302,0.51-18.693-6.249-18.693-15.062V1099.91
						c0-8.813,8.391-15.654,18.693-15.246l2289.175,90.662c7.597,0.301,13.773,6.695,13.773,14.252v1215.604
						c0,7.556-6.176,14.012-13.773,14.388L673.816,2532.735z"/>
				</g>
				<path style="opacity:0.6;fill:#FFFFFF;" d="M2724.011,2467.16c-192.587-119.13-58.071-457.848-274.352-628.035
					c-218.051-171.579-524.875,38.861-677.616-138.828c-113.729-132.306,19.345-292.06-89.247-416.486
					c-170.297-195.128-606.241,73.238-806.529-118.996c-28.437-27.294-57.134-68.701-73.465-135.134l-128.986-5.589
					c-49.5-2.145-89.996,30.627-89.996,73.064v1529.549c0,42.438,40.496,74.55,89.996,71.599l2289.175-136.47
					c36.341-2.166,65.768-33.285,65.768-69.378v-23.128C2876.758,2520.907,2783.836,2504.166,2724.011,2467.16z"/>
			</g>
		</g>
		<g>
			<g>
				<g>
					
						<linearGradient id="SVGID_00000034084224809470945650000003320344818267828872_" gradientUnits="userSpaceOnUse" x1="1338.2239" y1="1193.2037" x2="502.4465" y2="2823.9917">
						<stop  offset="0" style="stop-color:#311944"/>
						<stop  offset="1" style="stop-color:#893976"/>
					</linearGradient>
					<path style="fill:url(#SVGID_00000034084224809470945650000003320344818267828872_);" d="M1393.688,1218.969l-598.095-24.017
						l-5.694-10.35l-2.49-0.096c-27.735-1.07-50.264,19.998-50.264,47.061v896.181c0,27.062,22.528,49,50.264,49h8.308l2.567-5.328
						l592.134-14.586c26.379-0.017,51.587-1.425,51.587-27.747v-871.66C1442.005,1231.105,1420.073,1219.997,1393.688,1218.969z"/>
				</g>
				<g>
					<path style="fill:#FFFFFF;" d="M1404.944,1207.594l-607.271-23.421c-27.754-1.07-50.297,20.006-50.297,47.077v896.48
						c0,27.071,22.543,49.017,50.297,49.017h607.271c26.404,0,47.768-21.346,47.768-47.676v-871.959
						C1452.712,1230.781,1431.348,1208.612,1404.944,1207.594z"/>
				</g>
				
					<linearGradient id="SVGID_00000154397267312339193440000010884538458101509506_" gradientUnits="userSpaceOnUse" x1="802.7053" y1="1568.4795" x2="1400.1449" y2="1568.4795">
					<stop  offset="0" style="stop-color:#FFC444"/>
					<stop  offset="0.9964" style="stop-color:#F36F56"/>
				</linearGradient>
				<polygon style="fill:url(#SVGID_00000154397267312339193440000010884538458101509506_);" points="1400.145,1747.656 
					802.705,1737.456 802.705,1389.303 1400.145,1407.587 				"/>
				<g>
					<path style="fill:#FFFFFF;" d="M1205.701,1565.837c0,54.891-45.016,98.48-100.767,97.354
						c-55.997-1.131-101.572-46.905-101.572-102.234c0-55.329,45.576-98.905,101.572-97.334
						C1160.685,1465.186,1205.701,1510.946,1205.701,1565.837z"/>
					
						<linearGradient id="SVGID_00000145035054529680548760000013750887315382170022_" gradientUnits="userSpaceOnUse" x1="1071.6885" y1="1562.8177" x2="1159.4066" y2="1562.8177">
						<stop  offset="0.0036" style="stop-color:#E38DDD"/>
						<stop  offset="1" style="stop-color:#9571F6"/>
					</linearGradient>
					<path style="fill:url(#SVGID_00000145035054529680548760000013750887315382170022_);" d="M1155.134,1557.178l-70.103-43.074
						c-5.879-3.611-13.343,0.368-13.343,7.117v82.769c0,6.749,7.464,11.089,13.343,7.76l70.103-39.692
						C1160.831,1568.832,1160.831,1560.678,1155.134,1557.178z"/>
				</g>
				
					<linearGradient id="SVGID_00000022540945264418526300000004321937855703512232_" gradientUnits="userSpaceOnUse" x1="802.7053" y1="1312.9984" x2="1400.1449" y2="1312.9984">
					<stop  offset="0.0036" style="stop-color:#E38DDD"/>
					<stop  offset="1" style="stop-color:#9571F6"/>
				</linearGradient>
				<polygon style="opacity:0.5;fill:url(#SVGID_00000022540945264418526300000004321937855703512232_);" points="
					1400.145,1370.866 802.705,1351.71 802.705,1255.13 1400.145,1276.529 				"/>
				
					<linearGradient id="SVGID_00000098919577538848413040000001878578268843048577_" gradientUnits="userSpaceOnUse" x1="802.7053" y1="1871.0197" x2="1400.1449" y2="1871.0197">
					<stop  offset="0.0036" style="stop-color:#E38DDD"/>
					<stop  offset="1" style="stop-color:#9571F6"/>
				</linearGradient>
				<polygon style="opacity:0.5;fill:url(#SVGID_00000098919577538848413040000001878578268843048577_);" points="
					1400.145,1895.653 802.705,1888.971 802.705,1846.387 1400.145,1854.057 				"/>
				
					<linearGradient id="SVGID_00000145023233936761598950000013466748065568595585_" gradientUnits="userSpaceOnUse" x1="802.7053" y1="1947.2073" x2="1400.1449" y2="1947.2073">
					<stop  offset="0.0036" style="stop-color:#E38DDD"/>
					<stop  offset="1" style="stop-color:#9571F6"/>
				</linearGradient>
				<polygon style="opacity:0.5;fill:url(#SVGID_00000145023233936761598950000013466748065568595585_);" points="
					1400.145,1970.945 802.705,1966.053 802.705,1923.469 1400.145,1929.35 				"/>
				
					<linearGradient id="SVGID_00000002374788481085262960000013764365299860656778_" gradientUnits="userSpaceOnUse" x1="802.7053" y1="2023.3947" x2="1400.1449" y2="2023.3947">
					<stop  offset="0.0036" style="stop-color:#E38DDD"/>
					<stop  offset="1" style="stop-color:#9571F6"/>
				</linearGradient>
				<polygon style="opacity:0.5;fill:url(#SVGID_00000002374788481085262960000013764365299860656778_);" points="
					1400.145,2046.238 802.705,2043.136 802.705,2000.552 1400.145,2004.643 				"/>
			</g>
		</g>
		<g>
			<g>
				<path style="fill:#FFFFFF;" d="M1199.54,2262.989l-333.721-1.191c-15.175-0.054-27.497,12.572-27.497,28.202v303.558
					c0,15.63,12.321,27.749,27.497,27.069l333.721-14.941c14.583-0.653,26.387-13.574,26.387-28.862v-286.061
					C1225.927,2275.476,1214.123,2263.041,1199.54,2262.989z"/>
			</g>
			
				<linearGradient id="SVGID_00000129175373000112173160000009165822452676651181_" gradientUnits="userSpaceOnUse" x1="868.5715" y1="2537.8052" x2="1196.8898" y2="2537.8052">
				<stop  offset="0" style="stop-color:#AA80F9"/>
				<stop  offset="0.9964" style="stop-color:#6165D7"/>
			</linearGradient>
			<polygon style="fill:url(#SVGID_00000129175373000112173160000009165822452676651181_);" points="1196.89,2543.401 
				868.571,2556.35 868.571,2531.752 1196.89,2519.261 			"/>
			
				<linearGradient id="SVGID_00000150784813114715813670000000574325355352865965_" gradientUnits="userSpaceOnUse" x1="868.5715" y1="2400.0647" x2="1196.8898" y2="2400.0647">
				<stop  offset="0" style="stop-color:#FFC444"/>
				<stop  offset="0.9964" style="stop-color:#F36F56"/>
			</linearGradient>
			<polygon style="fill:url(#SVGID_00000150784813114715813670000000574325355352865965_);" points="1196.89,2495.4 
				868.571,2502.091 868.571,2300.994 1196.89,2298.039 			"/>
			<g>
				<path style="fill:#FFFFFF;" d="M1119.799,2330.247l-176.033,2.523c-2.905,0.065-5.506,1.239-7.537,3.376
					c-2.031,2.136-3.166,4.946-3.197,7.911l-1.187,114.345c-0.041,3.943,1.415,7.59,4.103,10.272c2.544,2.54,5.861,3.887,9.34,3.831
					c0.197-0.003,0.394-0.011,0.591-0.022l172.889-6.557c7.53-0.458,13.501-6.938,13.589-14.754l1.196-106.703
					C1133.641,2336.506,1127.467,2330.125,1119.799,2330.247z M1120.56,2347.743l-64.252,61.038
					c-4.219,4.009-9.477,6.106-14.739,6.208c-4.396,0.086-8.794-1.22-12.594-3.966l-81.637-58.978
					c-1.358-0.98-1.663-2.958-0.683-4.415c0.981-1.455,2.878-1.843,4.237-0.865l81.673,58.967c6.014,4.344,14.103,3.68,19.677-1.619
					l64.221-61.043c1.282-1.219,3.243-1.16,4.372,0.129C1121.967,2344.488,1121.844,2346.524,1120.56,2347.743z"/>
			</g>
		</g>
		<g>
			<g>
				
					<linearGradient id="SVGID_00000054956430295409961350000011285809950232848775_" gradientUnits="userSpaceOnUse" x1="1213.1716" y1="1651.3256" x2="3814.1741" y2="1894.536">
					<stop  offset="0.0036" style="stop-color:#E38DDD"/>
					<stop  offset="1" style="stop-color:#9571F6"/>
				</linearGradient>
				<path style="fill:url(#SVGID_00000054956430295409961350000011285809950232848775_);" d="M1413.407,1424.963l510.606,5.094
					c21.773,0.217,39.603,18.816,39.897,41.545l5.707,442.014c0.294,22.788-17.082,41.373-38.883,41.507l-511.27,3.145
					c-23.827,0.147-43.429-19.146-43.698-43.089l-5.027-447.414C1370.471,1443.888,1389.611,1424.725,1413.407,1424.963z"/>
			</g>
			<polygon style="fill:#FFFFFF;" points="1421.825,1786.342 1924.548,1781.619 1920.784,1487.311 1418.336,1479.464 			"/>
			
				<linearGradient id="SVGID_00000175282375217897802010000006657021757441839524_" gradientUnits="userSpaceOnUse" x1="1033.4799" y1="1643.6642" x2="3708.8079" y2="1657.1759">
				<stop  offset="0" style="stop-color:#FFC444"/>
				<stop  offset="0.9964" style="stop-color:#F36F56"/>
			</linearGradient>
			<path style="fill:url(#SVGID_00000175282375217897802010000006657021757441839524_);" d="M1729.953,1686.297
				c8.083-12.726,13.692-29.085,15.194-45.503c0.957-10.538-0.994-21.77-5.643-32.491c-7.292-16.843-20.411-26.819-33.084-36.459
				c-9.458-7.193-18.396-13.985-24.573-23.312l-1.108-1.663c-3.653-5.476-7.777-11.681-8.304-16.725
				c-0.526-5.102-4.894-8.961-9.803-8.948c-4.986,0.066-8.973,4.072-9.133,9.193l-5.418,173.509
				c-7.802-5.401-17.505-8.999-28.234-9.611c-26.167-1.495-48.018,14.756-48.689,36.235c-0.671,21.479,20.089,40.164,46.256,41.659
				c26.167,1.495,48.018-14.756,48.689-36.235l3.544-113.492c14.086,6.404,36.979,21.972,42.359,55.58
				c-1.253,1.743-2.453,3.625-3.831,5.107c-3.601,3.833-3.413,10.008,0.426,13.778c3.8,3.807,9.814,3.721,13.415-0.111
				c2.637-2.815,5.005-6.152,7.283-9.65C1729.534,1686.897,1729.753,1686.617,1729.953,1686.297z"/>
		</g>
		<g>
			<g>
				<g>
					<path style="fill:#D8DEE8;" d="M2789.752,998.266l-806.83-4.853l-6.415-11.108l-2.705-0.062
						c-30.085-0.684-53.981,22.457-53.374,51.692l-2.743,620.525c0.607,29.29,25.466,53.038,55.524,53.038h9.016l2.666-5.781
						l798.745-36.851c30.594-0.082,59.855-1.724,59.18-31.283l4.046-593.044C2846.188,1011.029,2820.4,998.958,2789.752,998.266z"/>
				</g>
				<g>
					<path style="fill:#FFFFFF;" d="M2800.985,1687.162c30.662-0.039,54.971-24.056,54.294-53.638l4.046-593.507
						c-0.677-29.532-26.111-54.01-56.807-54.677l-817.581-3.632c-30.129-0.683-54.061,22.476-53.452,51.732l-2.741,620.981
						c0.608,29.312,25.504,53.077,55.606,53.077L2800.985,1687.162z"/>
				</g>
			</g>
			<g>
				<g>
					<path style="fill:#D8DEE8;" d="M2791.241,1619.191l-792.145,23.755c-11.759,0.353-21.194-9.99-21.063-23.1l5.652-563.239
						c0.131-13.107,9.776-23.747,21.53-23.764l791.811-1.176c10.888-0.016,19.606,10.183,19.482,22.781l-5.329,541.337
						C2811.056,1608.385,2802.134,1618.865,2791.241,1619.191z"/>
					<path style="opacity:0.48;fill:#FFFFFF;" d="M2610.404,1470.764c-69.161-40.839-123.886,6.532-175.412-43.165
						c-31.071-29.968-15.479-51.278-53.54-95.635c-41.934-48.871-69.576-33.304-111.385-77.095
						c-52.538-55.028-25.625-96.846-70.823-136.146c-54.47-47.363-113.7-4.421-164.786-49.497
						c-21.927-19.347-33.758-47.332-39.779-77.046l-49.815-0.001c-8.695,0-15.825,7.611-15.918,17.001l-6.588,664.432
						c-0.093,9.392,6.889,16.793,15.588,16.53l897.349-27.168c4.668-0.141,8.833-2.746,11.529-6.665
						c-69.329-5.467-111.408-30.864-138.098-56.34C2656.776,1550.384,2666.3,1503.77,2610.404,1470.764z"/>
				</g>
			</g>
			<g>
				<defs>
					<path id="SVGID_00000044867702292419203250000000619432642748862094_" d="M2130.679,1638.172l514.98-14.093l666.225-201.909
						l-424.434-612.09l-969.515,43.388C1917.936,853.469,1854.644,1571.385,2130.679,1638.172z"/>
				</defs>
				<clipPath id="SVGID_00000160170235442755498100000010080188844769436060_">
					<use xlink:href="#SVGID_00000044867702292419203250000000619432642748862094_"  style="overflow:visible;"/>
				</clipPath>
				<g style="clip-path:url(#SVGID_00000160170235442755498100000010080188844769436060_);">
					<g>
						
							<linearGradient id="SVGID_00000049907997837278188340000001904681969531547025_" gradientUnits="userSpaceOnUse" x1="2792.0674" y1="872.067" x2="3518.0488" y2="966.8208">
							<stop  offset="0" style="stop-color:#FFC444"/>
							<stop  offset="0.9964" style="stop-color:#F36F56"/>
						</linearGradient>
						<path style="fill:url(#SVGID_00000049907997837278188340000001904681969531547025_);" d="M2830.991,921.915l-3.596-23.463
							c0,0-25.177-23.558-24.856-35.447c0.345-12.812,0.888-30.49,8.866-32.667c9.648-2.633,24.671,18.235,31.348,34.631
							c4.75,11.664,5.748,22.224,5.843,29.251l9.632,31.119L2830.991,921.915z"/>
						
							<linearGradient id="SVGID_00000120529333986497994730000008410034418120065922_" gradientUnits="userSpaceOnUse" x1="2791.5701" y1="875.8765" x2="3517.5537" y2="970.6306">
							<stop  offset="0" style="stop-color:#FFC444"/>
							<stop  offset="0.9964" style="stop-color:#F36F56"/>
						</linearGradient>
						<path style="fill:url(#SVGID_00000120529333986497994730000008410034418120065922_);" d="M2813.017,893.804
							c0,0-14.371-8.652-17.079-25.546c-2.708-16.888,4.358,0.209,17.904,6.696c13.57,6.499,13.57,6.499,13.57,6.499
							s14.535,6.359,11.557,11.865C2835.991,898.821,2813.017,893.804,2813.017,893.804z"/>
						
							<linearGradient id="SVGID_00000109737157564133387700000006475687948497227696_" gradientUnits="userSpaceOnUse" x1="2.8672" y1="3680.2793" x2="325.9175" y2="2933.8362" gradientTransform="matrix(-0.6817 -0.7316 0.7316 -0.6817 298.0234 3548.5254)">
							<stop  offset="0" style="stop-color:#FF9085"/>
							<stop  offset="1" style="stop-color:#FB6FBB"/>
						</linearGradient>
						<path style="fill:url(#SVGID_00000109737157564133387700000006475687948497227696_);" d="M2814.45,928.685
							c13.381-14.99,26.445-21.406,38.497-22.88c53.64-6.558,120.819,80.815,127.228,164.452c0.46,6.004,6.35,99.616-66.787,161.741
							c-105.563,89.669-299.323,49.008-333.178-24.562c-11.122-24.168-8.962-60.149-8.586-66.422
							c2.415-40.244,17.85-70.191,27.194-85.477c83.155,20.942,186.923,32.078,217.867-8.545
							C2839.814,1016.629,2848.722,973.029,2814.45,928.685z"/>
						
							<linearGradient id="SVGID_00000172432974154552522480000002979654414577942947_" gradientUnits="userSpaceOnUse" x1="-2624.3835" y1="1593.7632" x2="-2310.0098" y2="867.3681" gradientTransform="matrix(0.9994 0.0353 -0.0353 0.9994 4958.4868 63.2228)">
							<stop  offset="0" style="stop-color:#FF9085"/>
							<stop  offset="1" style="stop-color:#FB6FBB"/>
						</linearGradient>
						<path style="fill:url(#SVGID_00000172432974154552522480000002979654414577942947_);" d="M2152.633,1074.631
							c65.509-21.612,166.459-45.71,291.395-40.354c73.307,3.142,136.791,15.629,187.421,29.542
							c6.528,37.098,13.061,74.231,19.6,111.395c1.225,37.222,1.246,87.629-3.684,147.088c-4.927,59.423-9.189,60.214-19.95,143.906
							c-17.517,136.233-11.101,172.232-39.753,187.461c-18.58,9.876-24.937,8.47-118.381-4.492
							c-62.036-8.606-88.073-10.703-119.326-1.697c-42.357,12.204-62.216,21.539-79.446,13.15
							c-16.486-8.028-18.315-36.267-19.829-85.416c-2.335-75.792-1.639-127.22-1.742-145.639
							c-0.472-84.499-21.495-149.393-48.333-232.235C2183.871,1145.679,2166.16,1103.925,2152.633,1074.631z"/>
						
							<linearGradient id="SVGID_00000180352216032327644790000018390082444484532917_" gradientUnits="userSpaceOnUse" x1="-2566.8728" y1="1621.1429" x2="-2260.3359" y2="912.8559" gradientTransform="matrix(0.9994 0.0353 -0.0353 0.9994 4958.4868 63.2228)">
							<stop  offset="0" style="stop-color:#FF9085"/>
							<stop  offset="1" style="stop-color:#FB6FBB"/>
						</linearGradient>
						<path style="opacity:0.3;fill:url(#SVGID_00000180352216032327644790000018390082444484532917_);" d="M2551.494,1607.402
							c-45.889-20.826-45.238-60.163-87.87-78.063c-60.43-25.372-127.428,26.276-137.608,10.979
							c-10.579-15.896,69.126-60.978,59.001-108.44c-8.037-37.671-63.365-32.498-92.301-84.234
							c-27.347-48.894,0.064-93.043-24.41-110.233c-8.758-6.152-24.262-8.764-53.742,3.526
							c19.835,63.476,33.989,119.514,34.375,188.638c0.103,18.419-0.593,69.847,1.742,145.639
							c1.514,49.149,3.344,77.388,19.829,85.416c17.23,8.389,37.09-0.946,79.446-13.15c31.253-9.006,57.106-18.529,119.139-9.97
							c93.441,12.892,99.988,26.035,118.568,16.159c12.124-6.444,17.964-16.662,22.002-36.598
							C2590.693,1618.286,2570.651,1616.095,2551.494,1607.402z"/>
						<g>
							
								<linearGradient id="SVGID_00000126297648164719287720000000541397364761876881_" gradientUnits="userSpaceOnUse" x1="-1824.1936" y1="2393.9529" x2="-1816.0647" y2="2177.4255" gradientTransform="matrix(0.8781 0.4784 -0.4784 0.8781 5135.833 -113.645)">
								<stop  offset="0" style="stop-color:#FFC444"/>
								<stop  offset="0.9964" style="stop-color:#F36F56"/>
							</linearGradient>
							<path style="fill:url(#SVGID_00000126297648164719287720000000541397364761876881_);" d="M2436.519,949.593
								c-1.203,21.487-4.76,38.391-7.838,49.93c-3.523,13.215-5.663,16.563-8.289,19.23c-3.951,4.014-9.752,7.244-41.652,13.14
								c-17.303,3.198-19.486,2.965-19.969,4.597c-2.351,7.964,42.388,38.123,91.163,34.239
								c30.003-2.389,58.233-17.393,57.127-26.174c-1.114-8.837-31.22-5.782-39.061-22.051
								c-5.448-11.306,2.466-26.528,11.473-39.019C2472.491,968.666,2443.468,964.369,2436.519,949.593z"/>
							<g>
								
									<linearGradient id="SVGID_00000106844149956892154960000008066627547821835423_" gradientUnits="userSpaceOnUse" x1="4106.0151" y1="1116.438" x2="4050.4734" y2="975.3719" gradientTransform="matrix(-0.9495 -0.3138 -0.3138 0.9495 6634.8696 1267.5063)">
									<stop  offset="0" style="stop-color:#444B8C"/>
									<stop  offset="0.9964" style="stop-color:#26264F"/>
								</linearGradient>
								<path style="fill:url(#SVGID_00000106844149956892154960000008066627547821835423_);" d="M2496.339,967.072
									c9.503-6.801,14.721-21.939,9.966-33.802c-4.09-10.202-14.252-14.37-20.329-16.865c-17.583-7.215-42.844-6.3-55.914,7.765
									c-7.734,8.324-3.834,31.317-3.369,35.384c0.529,4.6,3.366,6.942,5.431,10.9c2.861,5.49,7.311,14.194,14.493,28.686
									c1.891-3.119,4.468-6.911,7.904-10.839c1.323-1.513,6.58-7.396,13.082-11.661
									C2480.646,968.076,2487.342,973.51,2496.339,967.072z"/>
								
									<linearGradient id="SVGID_00000005962427232158312970000012187618102921293993_" gradientUnits="userSpaceOnUse" x1="-2603.7961" y1="806.5195" x2="-2606.3291" y2="1010.5905" gradientTransform="matrix(0.9669 0.2551 -0.2551 0.9669 5187.7432 842.1304)">
									<stop  offset="0" style="stop-color:#FFC444"/>
									<stop  offset="0.9964" style="stop-color:#F36F56"/>
								</linearGradient>
								<path style="fill:url(#SVGID_00000005962427232158312970000012187618102921293993_);" d="M2434.285,985.136
									c0,0,5.931,22.555,30.19,27.942c21.784,4.836,39.625-40.988,29.065-54.827c-3.521-4.613-12.216-8.594-20.264-8.685
									c-4.75-0.053-6.788,1.296-14.537,1.06c-7.142-0.216-8.785-1.466-11.294-0.397c-3.138,1.339-6.542,5.843-6.647,20.659
									c-2.799-5.178-7.182-8.116-11.126-7.516c-0.629,0.098-2.39,0.648-3.671,1.882
									C2421.369,969.715,2424.207,977.933,2434.285,985.136z"/>
								
									<linearGradient id="SVGID_00000124868656045765283890000017737739733412945287_" gradientUnits="userSpaceOnUse" x1="4087.6223" y1="1121.0159" x2="4034.0017" y2="984.8294" gradientTransform="matrix(-0.9495 -0.3138 -0.3138 0.9495 6634.8696 1267.5063)">
									<stop  offset="0" style="stop-color:#444B8C"/>
									<stop  offset="0.9964" style="stop-color:#26264F"/>
								</linearGradient>
								<path style="fill:url(#SVGID_00000124868656045765283890000017737739733412945287_);" d="M2447.356,947.165
									c0.792,1.041-3.517,3.884-5.409,9.11c-3.674,10.139,3.101,25.528,13.639,29.706c6.238,2.472,9.194-0.801,20.186,1.169
									c6.814,1.222,12.055,3.624,15.284,5.357c-0.198,12.26-6.894,22.601-16.28,25.575c-10.091,3.198-19.645-3.29-23.636-6
									c-2.667-1.812-11.219-7.595-13.514-17.536c-2.39-10.355,4.359-14.234,0.306-21.939c-2.043-3.884-5.56-6.323-7.548-13.275
									c-0.539-1.888-0.792-3.494-0.919-4.561C2436.724,950.664,2446.209,945.657,2447.356,947.165z"/>
								
									<linearGradient id="SVGID_00000150821060489063301190000012089735772566359946_" gradientUnits="userSpaceOnUse" x1="4033.8647" y1="1036.8068" x2="4036.9043" y2="1063.9058" gradientTransform="matrix(-0.9495 -0.3138 -0.3138 0.9495 6634.8696 1267.5063)">
									<stop  offset="0" style="stop-color:#FFC444"/>
									<stop  offset="1" style="stop-color:#F36F56"/>
								</linearGradient>
								<path style="fill:url(#SVGID_00000150821060489063301190000012089735772566359946_);" d="M2481.975,994.454
									c0,0-5.354,1.018-13.185-1.718c-0.38-0.133-0.843-0.146-0.953,0.036c-0.414,0.684,3.658,5.461,8.774,5.532
									c3.635,0.048,7.211-2.287,7.008-3.202C2483.533,994.715,2482.761,994.54,2481.975,994.454z"/>
							</g>
						</g>
						
							<linearGradient id="SVGID_00000034803163043040895200000007358349311209837956_" gradientUnits="userSpaceOnUse" x1="2099.7285" y1="1533.6224" x2="2636.2048" y2="1157.3926">
							<stop  offset="0" style="stop-color:#FFC444"/>
							<stop  offset="0.9964" style="stop-color:#F36F56"/>
						</linearGradient>
						<path style="fill:url(#SVGID_00000034803163043040895200000007358349311209837956_);" d="M2209.374,1428.515l21.732-0.579
							c0,0,24.063-19.041,34.94-17.513c10.892,1.529,27.159,9.436,29.138,11.058c1.98,1.621-6.086,10.162-14.048,9.082
							c-7.954-1.079-25.734,2.64-28.97,9.441c-3.235,6.799-17.003,10.551-19.293,6.443l-29.247,4.854L2209.374,1428.515z"/>
						
							<linearGradient id="SVGID_00000039830421264839886400000008501095972593844132_" gradientUnits="userSpaceOnUse" x1="-2868.55" y1="1492.6034" x2="-2562.6438" y2="785.7734" gradientTransform="matrix(0.9994 0.0353 -0.0353 0.9994 4958.4868 63.2228)">
							<stop  offset="0" style="stop-color:#FF9085"/>
							<stop  offset="1" style="stop-color:#FB6FBB"/>
						</linearGradient>
						<path style="fill:url(#SVGID_00000039830421264839886400000008501095972593844132_);" d="M2216.012,1421.196
							c1.347,17.644-2.65,29.483-9.199,37.481c-28.962,35.372-125.235,17.475-181.492-32.396
							c-41.371-36.674-62.824-92.259-61.525-141.528c2.537-96.149,92.727-189.781,227.795-221.905
							c19.563,59.71,39.178,119.578,58.845,179.608c-84.021-0.108-119.047,58.624-111.99,103.275
							C2143.709,1379.024,2166.179,1412.49,2216.012,1421.196z"/>
					</g>
				</g>
			</g>
		</g>
		<g>
			<g>
				<g>
					
						<linearGradient id="SVGID_00000076564651616199099360000007002740059828822196_" gradientUnits="userSpaceOnUse" x1="-7299.585" y1="1845.7893" x2="-7566.0459" y2="2160.0398" gradientTransform="matrix(0.9524 -0.3049 0.3049 0.9524 8204.3398 -1732.7537)">
						<stop  offset="0" style="stop-color:#311944"/>
						<stop  offset="1" style="stop-color:#893976"/>
					</linearGradient>
					<path style="fill:url(#SVGID_00000076564651616199099360000007002740059828822196_);" d="M1919.71,2720.329
						c-33.444,8.392-71.039-2.465-94.59-30.18l-332.089-390.843c-30.237-35.589-25.83-88.234,9.989-117.868
						c36.073-29.841,106.843-30.948,137.66,4.935l338.515,394.178c31.914,37.165,26.483,90.714-11.969,119.324
						C1957.757,2706.921,1930.743,2717.56,1919.71,2720.329z"/>
					
						<linearGradient id="SVGID_00000083056740910961992170000001475747381141360813_" gradientUnits="userSpaceOnUse" x1="-7332.4058" y1="1817.9596" x2="-7598.8682" y2="2132.2112" gradientTransform="matrix(0.9524 -0.3049 0.3049 0.9524 8204.3398 -1732.7537)">
						<stop  offset="0" style="stop-color:#311944"/>
						<stop  offset="1" style="stop-color:#893976"/>
					</linearGradient>
					<path style="opacity:0.3;fill:url(#SVGID_00000083056740910961992170000001475747381141360813_);" d="M1503.021,2181.438
						c36.073-29.841,106.843-30.948,137.66,4.934l309.519,360.414c-31.896,1.862-66.568,13.711-109.459-4.934
						c-71.402-31.039-64.029-102.469-126.083-144.128c-28.365-19.043-74.338-33.933-153.006-17.658l-68.62-80.76
						C1462.795,2263.716,1467.202,2211.072,1503.021,2181.438z"/>
				</g>
				<g>
					
						<linearGradient id="SVGID_00000032611207678122985300000018387997394528889500_" gradientUnits="userSpaceOnUse" x1="7090.9336" y1="1622.4014" x2="6875.8569" y2="1876.0519" gradientTransform="matrix(-0.9524 0.3049 0.3049 0.9524 7579.728 -1532.4877)">
						<stop  offset="0" style="stop-color:#311944"/>
						<stop  offset="1" style="stop-color:#893976"/>
					</linearGradient>
					<path style="fill:url(#SVGID_00000032611207678122985300000018387997394528889500_);" d="M1361.357,2128.131
						c1.614-0.517,3.253-0.907,4.911-1.197l115.644-38.424l96.593,301.748l-112.554,34.337c-2.647,1.654-5.457,2.977-8.434,3.929
						c-39.774,12.732-93.544-44.192-120.098-127.144S1321.583,2140.863,1361.357,2128.131z"/>
					
						<linearGradient id="SVGID_00000183231814975054680290000007435917781692772236_" gradientUnits="userSpaceOnUse" x1="-7176.5415" y1="1269.2006" x2="-6930.6421" y2="2629.3269" gradientTransform="matrix(0.9524 -0.3049 0.3049 0.9524 8204.3398 -1732.7537)">
						<stop  offset="0" style="stop-color:#AA80F9"/>
						<stop  offset="0.9964" style="stop-color:#6165D7"/>
					</linearGradient>
					<path style="fill:url(#SVGID_00000183231814975054680290000007435917781692772236_);" d="M1481.912,2088.51
						c-11.794,114.55,20.256,214.669,96.593,301.748l952.105,1.208l-262.193-849.768L1481.912,2088.51z"/>
					
						<linearGradient id="SVGID_00000134972532939309849870000017740030008137580440_" gradientUnits="userSpaceOnUse" x1="-7260.6924" y1="1271.6542" x2="-7011.7227" y2="2648.7632" gradientTransform="matrix(0.9524 -0.3049 0.3049 0.9524 8204.3398 -1732.7537)">
						<stop  offset="0" style="stop-color:#AA80F9"/>
						<stop  offset="0.9964" style="stop-color:#6165D7"/>
					</linearGradient>
					<path style="opacity:0.3;fill:url(#SVGID_00000134972532939309849870000017740030008137580440_);" d="M2217.884,2217.122
						c-92.032-4.822-155.654-115.735-252.23-89.238c-75.778,20.791-75.064,100.602-150.833,116.224
						c-77.561,15.991-116.038-60.833-209.147-62.448c-42.334-0.734-81.515,14.449-116.782,37.815
						c14,61.673,43.792,118.516,89.613,170.785l952.105,1.208l-143.118-271.207
						C2318.269,2197.159,2262.501,2219.459,2217.884,2217.122z"/>
					
						<linearGradient id="SVGID_00000154401880344785482070000004352650825962704307_" gradientUnits="userSpaceOnUse" x1="6205.9683" y1="1460.6698" x2="5716.1436" y2="2038.343" gradientTransform="matrix(-0.9524 0.3049 0.3049 0.9524 7579.728 -1532.4877)">
						<stop  offset="0.0036" style="stop-color:#E38DDD"/>
						<stop  offset="1" style="stop-color:#9571F6"/>
					</linearGradient>
					<path style="fill:url(#SVGID_00000154401880344785482070000004352650825962704307_);" d="M2225.855,2018.488
						c77.425,241.87,234.206,407.848,350.179,370.724s147.223-263.294,69.797-505.163
						c-77.425-241.869-234.206-407.848-350.179-370.724C2179.679,1550.449,2148.43,1776.618,2225.855,2018.488z"/>
					
						<linearGradient id="SVGID_00000012454590010067477990000014126467067284754341_" gradientUnits="userSpaceOnUse" x1="6240.272" y1="1742.3929" x2="5768.0732" y2="1754.4231" gradientTransform="matrix(-0.9524 0.3049 0.3049 0.9524 7579.728 -1532.4877)">
						<stop  offset="0" style="stop-color:#311944"/>
						<stop  offset="1" style="stop-color:#893976"/>
					</linearGradient>
					<path style="fill:url(#SVGID_00000012454590010067477990000014126467067284754341_);" d="M2571.278,2374.353
						c24.621-7.881,45.508-25.955,62.08-53.718c16.866-28.257,28.523-65.05,34.645-109.36c12.87-93.147-0.281-207.669-37.03-322.47
						c-36.749-114.8-92.548-215.669-157.117-284.027c-30.716-32.518-61.572-55.702-91.712-68.912
						c-29.614-12.979-57.114-15.563-81.735-7.682s-45.508,25.955-62.08,53.718c-16.866,28.257-28.523,65.05-34.645,109.36
						c-5.381,38.947-6.213,81.631-2.673,126.51c4.927,62.454,63.834,110.441,85.217,177.24
						c22.738,71.031,7.254,155.446,42.143,211.409c21.498,34.486,44.842,65.275,69.46,91.338
						c30.716,32.518,61.573,55.702,91.712,68.912C2519.157,2379.65,2546.657,2382.234,2571.278,2374.353z"/>
					<g>
						<defs>
							<path id="SVGID_00000181784790503692766660000011336317654554233500_" d="M2571.278,2374.353
								c24.621-7.881,45.508-25.955,62.08-53.718c16.866-28.257,28.523-65.05,34.645-109.36
								c12.87-93.147-0.281-207.669-37.03-322.47c-36.749-114.8-92.548-215.669-157.117-284.027
								c-30.716-32.518-61.572-55.702-91.712-68.912c-29.614-12.979-57.114-15.563-81.735-7.682s-45.508,25.955-62.08,53.718
								c-16.866,28.257-28.523,65.05-34.645,109.36c-12.869,93.147,0.281,207.669,37.03,322.469
								c36.749,114.801,92.548,215.67,157.117,284.029c30.716,32.518,61.573,55.702,91.712,68.912
								C2519.157,2379.65,2546.657,2382.234,2571.278,2374.353z"/>
						</defs>
						<clipPath id="SVGID_00000049196093189339958520000010567562467850273173_">
							<use xlink:href="#SVGID_00000181784790503692766660000011336317654554233500_"  style="overflow:visible;"/>
						</clipPath>
						
							<linearGradient id="SVGID_00000133490366127235508940000009825695808167554714_" gradientUnits="userSpaceOnUse" x1="-6847.3657" y1="1312.168" x2="-6686.8135" y2="2200.2205" gradientTransform="matrix(0.9524 -0.3049 0.3049 0.9524 8204.3398 -1732.7537)">
							<stop  offset="0" style="stop-color:#FFC444"/>
							<stop  offset="0.9964" style="stop-color:#F36F56"/>
						</linearGradient>
						
							<path style="clip-path:url(#SVGID_00000049196093189339958520000010567562467850273173_);fill:url(#SVGID_00000133490366127235508940000009825695808167554714_);" d="
							M2454.965,1951.482c35.518,110.954-9.75,222.572-99.821,248.927c-88.677,25.948-187.555-40.754-222.084-148.62
							c-34.529-107.867,7.582-218.501,95.278-247.512C2317.412,1774.81,2419.447,1840.527,2454.965,1951.482z"/>
						
							<linearGradient id="SVGID_00000155131021568683320180000005645903353223192475_" gradientUnits="userSpaceOnUse" x1="-6754.7852" y1="1426.5725" x2="-6636.3223" y2="2081.8186" gradientTransform="matrix(0.9524 -0.3049 0.3049 0.9524 8204.3398 -1732.7537)">
							<stop  offset="0" style="stop-color:#FFC444"/>
							<stop  offset="0.9964" style="stop-color:#F36F56"/>
						</linearGradient>
						
							<path style="opacity:0.3;clip-path:url(#SVGID_00000049196093189339958520000010567562467850273173_);fill:url(#SVGID_00000155131021568683320180000005645903353223192475_);" d="
							M2440.27,1954.195c26.375,82.392,11.519,159.271-32.551,171.539c-43.388,12.078-98.857-43.2-124.498-123.299
							c-25.641-80.099-12.325-156.505,30.335-170.858C2356.885,1816.999,2413.896,1871.803,2440.27,1954.195z"/>
					</g>
				</g>
			</g>
			<g>
				
					<linearGradient id="SVGID_00000085239565452078362340000000987450595883707316_" gradientUnits="userSpaceOnUse" x1="2063.0798" y1="1110.6285" x2="2268.0022" y2="1490.6991" gradientTransform="matrix(0.9414 -0.3374 0.3374 0.9414 132.7335 1193.2424)">
					<stop  offset="0" style="stop-color:#FFC444"/>
					<stop  offset="0.9964" style="stop-color:#F36F56"/>
				</linearGradient>
				<path style="fill:url(#SVGID_00000085239565452078362340000000987450595883707316_);" d="M2682.221,1568.553
					c22.961,64.064-23.665,139.38-104.142,168.224c-80.477,28.843-164.33,0.292-187.291-63.772
					c-22.961-64.064,23.665-139.38,104.142-168.224C2575.407,1475.937,2659.26,1504.489,2682.221,1568.553z"/>
				<path style="fill:#FFFFFF;" d="M2510.722,1692.276l-39.546-110.34c-2.539-7.083,1.733-13.873,7.967-12.665l112.736,21.852
					c7.13,1.382,10.86,11.789,6.231,17.385l-73.189,88.488C2520.873,1701.89,2513.26,1699.359,2510.722,1692.276z"/>
				<g style="opacity:0.3;">
					
						<linearGradient id="SVGID_00000059278928854724134560000002500742533576805796_" gradientUnits="userSpaceOnUse" x1="2003.823" y1="1133.725" x2="2204.7739" y2="1536.9852" gradientTransform="matrix(0.9414 -0.3374 0.3374 0.9414 132.7335 1193.2424)">
						<stop  offset="0" style="stop-color:#FFC444"/>
						<stop  offset="0.9964" style="stop-color:#F36F56"/>
					</linearGradient>
					<path style="fill:url(#SVGID_00000059278928854724134560000002500742533576805796_);" d="M2602.868,1694.55
						c-29.856-27.956-23.562-66.348-55.264-79.968c-32.207-13.837-56.089,18.317-96.42,12.108
						c-15.593-2.401-34.963-10.745-55.747-34.764c-11.743,26.234-14.133,54.617-4.649,81.079
						c22.961,64.064,106.814,92.616,187.291,63.772c18.436-6.608,35.094-15.656,49.548-26.447
						C2617.007,1705.906,2609.021,1700.311,2602.868,1694.55z"/>
				</g>
			</g>
			<g>
				
					<linearGradient id="SVGID_00000070812351931491607440000000677252023221800839_" gradientUnits="userSpaceOnUse" x1="2405.4761" y1="1607.1702" x2="2658.073" y2="2075.6631" gradientTransform="matrix(0.9814 -0.1921 0.1921 0.9814 -9.9071 641.6286)">
					<stop  offset="0" style="stop-color:#AA80F9"/>
					<stop  offset="0.9964" style="stop-color:#6165D7"/>
				</linearGradient>
				<path style="fill:url(#SVGID_00000070812351931491607440000000677252023221800839_);" d="M2938.205,1831.39
					c16.116,82.324-54.654,165.471-158.069,185.716c-103.415,20.245-200.313-30.08-216.429-112.404
					c-16.116-82.324,54.654-165.472,158.069-185.716C2825.19,1698.741,2922.089,1749.066,2938.205,1831.39z"/>
				<path style="fill:#FFFFFF;" d="M2731.865,1770.524c-36.989,7.241-61.105,43.097-53.864,80.086
					c4.693,23.97,43.734,74.226,70.636,106.633c11.183,13.471,32.823,9.235,38.101-7.459
					c12.696-40.16,29.906-101.427,25.213-125.397C2804.71,1787.399,2768.854,1763.283,2731.865,1770.524z M2752.015,1873.459
					c-19.86,3.888-39.111-9.06-42.999-28.92c-3.888-19.86,9.06-39.111,28.92-42.999c19.86-3.888,39.112,9.06,43,28.92
					C2784.823,1850.32,2771.875,1869.571,2752.015,1873.459z"/>
				<g style="opacity:0.3;">
					
						<linearGradient id="SVGID_00000160149786517866605230000004602364765493212546_" gradientUnits="userSpaceOnUse" x1="2332.4336" y1="1635.6412" x2="2580.1345" y2="2132.7175" gradientTransform="matrix(0.9814 -0.1921 0.1921 0.9814 -9.9071 641.6286)">
						<stop  offset="0" style="stop-color:#AA80F9"/>
						<stop  offset="0.9964" style="stop-color:#6165D7"/>
					</linearGradient>
					<path style="fill:url(#SVGID_00000160149786517866605230000004602364765493212546_);" d="M2818.166,1970.238
						c-31.206-39.597-16.425-85.218-52.536-107.688c-36.685-22.827-71.745,11.933-119.744-3.103
						c-18.557-5.813-40.617-19.569-61.497-52.69c-19.17,29.795-27.339,63.94-20.682,97.945
						c16.116,82.324,113.014,132.649,216.429,112.404c23.691-4.638,45.667-12.579,65.279-23.053
						C2833.292,1986.696,2824.597,1978.399,2818.166,1970.238z"/>
				</g>
			</g>
			<g>
				
					<linearGradient id="SVGID_00000128445608614063712600000009774221632926541191_" gradientUnits="userSpaceOnUse" x1="3069.7795" y1="2215.8999" x2="3272.1472" y2="2591.2322" gradientTransform="matrix(0.9691 0.2468 -0.2468 0.9691 216.0009 -816.2211)">
					<stop  offset="0" style="stop-color:#FF9085"/>
					<stop  offset="1" style="stop-color:#FB6FBB"/>
				</linearGradient>
				<path style="fill:url(#SVGID_00000128445608614063712600000009774221632926541191_);" d="M2815.331,2238.739
					c-16.434,64.522-92.611,100.984-171.311,81.146c-80.016-20.169-132.141-90.667-115.207-157.156
					c16.934-66.488,96.101-102.157,175.611-80.006C2782.627,2104.511,2831.764,2174.217,2815.331,2238.739z"/>
				
					<linearGradient id="SVGID_00000023996136824141683360000002031448457984095884_" gradientUnits="userSpaceOnUse" x1="3069.7795" y1="2215.8999" x2="3272.1472" y2="2591.2322" gradientTransform="matrix(0.9691 0.2468 -0.2468 0.9691 216.0009 -816.2211)">
					<stop  offset="0" style="stop-color:#FF9085"/>
					<stop  offset="1" style="stop-color:#FB6FBB"/>
				</linearGradient>
				<path style="fill:url(#SVGID_00000023996136824141683360000002031448457984095884_);" d="M2815.331,2238.739
					c-16.434,64.522-92.611,100.984-171.311,81.146c-80.016-20.169-132.141-90.667-115.207-157.156
					c16.934-66.488,96.101-102.157,175.611-80.006C2782.627,2104.511,2831.764,2174.217,2815.331,2238.739z"/>
				<g>
					<path style="fill:#FFFFFF;" d="M2762.219,2190.835L2762.219,2190.835c-1.768-18.16-13.657-33.927-31.117-38.677
						c-22.868-6.221-46.604,8.802-52.916,33.583c6.312-24.781-7.264-49.955-30.424-56.256c-17.835-4.852-36.164,2.891-46.627,18.041
						l0,0c-38.902,53.978,51.854,137.147,51.854,137.147S2769.839,2255.936,2762.219,2190.835z"/>
				</g>
				<g style="opacity:0.3;">
					
						<linearGradient id="SVGID_00000161630174080129954350000005031645729957227950_" gradientUnits="userSpaceOnUse" x1="3013.7136" y1="2237.2979" x2="3212.8167" y2="2636.8496" gradientTransform="matrix(0.9691 0.2468 -0.2468 0.9691 216.0009 -816.2211)">
						<stop  offset="0" style="stop-color:#FF9085"/>
						<stop  offset="1" style="stop-color:#FB6FBB"/>
					</linearGradient>
					<path style="fill:url(#SVGID_00000161630174080129954350000005031645729957227950_);" d="M2686.443,2298.552
						c-8.322-39.354,17.382-67.459-0.121-96.18c-17.87-29.323-54.337-16.162-83.136-43.961c-11.189-10.8-22.171-28.707-25.66-60.486
						c-24.02,15.076-41.717,37.342-48.712,64.805c-16.934,66.489,35.191,136.987,115.207,157.156
						c18.144,4.573,36.143,6.155,53.294,5.102C2691.389,2315.59,2688.154,2306.644,2686.443,2298.552z"/>
				</g>
			</g>
		</g>
		<g>
			<path style="fill:#C9CED6;" d="M2567.332,2769.806c-13.433-6.821-30.31-0.558-37.696,13.988
				c-7.385,14.546-2.482,31.867,10.952,38.687c0.697,0.353,1.406,0.65,2.119,0.934c-2.496,8.049-4.378,16.161-5.64,24.275
				c-0.77,0.002-1.543,0.015-2.328,0.086c-15.326,1.366-27.49,15.449-27.169,31.457c0.321,16.008,13.005,27.877,28.332,26.51
				c0.801-0.072,1.588-0.198,2.37-0.337c1.601,7.933,3.794,15.682,6.562,23.182c-0.705,0.413-1.406,0.839-2.091,1.319
				c-13.113,9.187-17.305,27.318-9.364,40.498c7.941,13.179,25.009,16.416,38.121,7.23c0.672-0.471,1.304-0.979,1.928-1.495
				c5.179,5.725,10.859,11.031,17.005,15.873c-0.432,0.709-0.855,1.427-1.238,2.18c-7.385,14.546-17.036,30.435-3.497,37.044
				c31.32,15.289,44.759,2.201,52.145-12.345c0.382-0.753,0.712-1.518,1.029-2.285c7.536,2.104,15.171,3.559,22.85,4.362
				c-0.048,0.809-0.085,1.619-0.069,2.439c0.321,16.007-4.428,24.669,10.956,24.969c33.548,0.652,44.867-13.909,44.546-29.916
				c-0.016-0.837-0.086-1.655-0.169-2.467c7.688-2.191,15.238-4.993,22.587-8.382c0.349,0.714,0.712,1.423,1.127,2.113
				c7.941,13.18,25.008,16.417,38.121,7.229c13.113-9.188,17.305-27.319,9.364-40.498c-0.407-0.675-0.852-1.307-1.305-1.93
				c5.807-5.807,11.245-12.113,16.271-18.878c0.65,0.408,1.309,0.806,2.004,1.159c13.433,6.821,30.311,0.558,37.696-13.988
				c7.385-14.545,2.482-31.867-10.951-38.687c-0.696-0.354-1.407-0.65-2.119-0.935c2.496-8.049,4.378-16.16,5.64-24.275
				c0.77-0.002,1.543-0.015,2.327-0.084c15.327-1.367,27.491-15.45,27.17-31.458c-0.321-16.007-13.006-27.875-28.333-26.51
				c-0.8,0.071-1.587,0.197-2.37,0.336c-1.601-7.933-3.794-15.682-6.562-23.182c0.705-0.412,1.406-0.839,2.092-1.319
				c13.113-9.186,17.305-27.318,9.364-40.498c-7.941-13.179-34.231-19.302-47.344-10.116c-0.672,0.471,7.919,3.865,7.294,4.382
				c-5.18-5.725-10.86-11.031-17.005-15.874c0.432-0.708,0.855-1.426,1.238-2.18c7.385-14.545,2.482-31.866-10.951-38.687
				s-30.311-0.558-37.696,13.988c-0.383,0.753-0.712,1.519-1.029,2.285c-7.536-2.104-15.171-3.559-22.85-4.362
				c0.048-0.809,0.085-1.619,0.069-2.439c-0.321-16.007-13.006-27.876-28.332-26.51c-15.326,1.366-27.491,15.451-27.17,31.458
				c0.017,0.836,0.086,1.654,0.17,2.467c-7.688,2.191-15.239,4.993-22.588,8.382c-0.349-0.714-0.712-1.424-1.127-2.112
				c-7.941-13.18-25.008-16.417-38.121-7.23c-13.113,9.187-17.305,27.318-9.364,40.498c0.407,0.675,0.853,1.306,1.305,1.929
				c-5.807,5.807-11.245,12.113-16.271,18.878C2568.687,2770.557,2568.028,2770.159,2567.332,2769.806z M2734.794,2767.681
				c48.774,24.764,66.577,87.651,39.762,140.464c-26.814,52.813-88.09,75.551-136.865,50.787
				c-48.774-24.764-66.577-87.652-39.762-140.464C2624.743,2765.655,2686.02,2742.917,2734.794,2767.681z"/>
			<path style="fill:#C9CED6;" d="M2534.739,2847.775c-15.326,1.367-27.49,15.45-27.169,31.458
				c0.321,16.007,13.005,27.877,28.332,26.51c0.801-0.071,1.588-0.198,2.37-0.337c1.601,7.933,3.794,15.681,6.562,23.181
				c-0.705,0.412-1.406,0.839-2.091,1.319c-13.113,9.186-29.335,31.384-20.084,43.679c17.558,23.336,35.729,13.235,48.841,4.049
				c0.672-0.471,1.304-0.979,1.928-1.495c5.179,5.725,10.859,11.031,17.005,15.873c-0.432,0.709-0.855,1.426-1.238,2.179
				c-4.019,7.916-4.374,16.644-1.72,24.064c12.666-22.291,25.16-44.676,37.431-67.183c-38.911-28.513-51.299-84.702-26.977-132.606
				c20.611-40.594,61.58-63.388,101.584-60.532c1.785-4.628,3.537-9.281,5.448-13.864c5.186-12.438,11.077-24.619,16.975-36.785
				c-3.709-0.7-7.436-1.25-11.172-1.641c0.048-0.809,0.086-1.619,0.069-2.439c-0.321-16.008-10.039-29.608-37.816-28.135
				c-15.366,0.815-18.006,17.075-17.685,33.082c0.017,0.836,0.086,1.654,0.169,2.466c-7.688,2.191-15.238,4.994-22.587,8.382
				c-0.349-0.714-0.712-1.424-1.127-2.112c-7.941-13.18-35.49-18.78-48.602-9.593c-13.113,9.187-6.823,29.681,1.117,42.861
				c0.407,0.675,0.853,1.306,1.305,1.929c-5.807,5.807-11.245,12.113-16.271,18.877c-0.649-0.408-1.309-0.806-2.005-1.159
				c-13.433-6.822-30.31-0.558-37.696,13.988c-7.385,14.545-2.482,31.867,10.952,38.687c0.697,0.353,1.406,0.65,2.119,0.934
				c-2.496,8.049-4.378,16.161-5.64,24.275C2536.297,2847.693,2535.524,2847.706,2534.739,2847.775z"/>
			
				<linearGradient id="SVGID_00000176743675617931003110000001624514870537125300_" gradientUnits="userSpaceOnUse" x1="2493.1143" y1="2861.6633" x2="2850.4744" y2="2861.6633">
				<stop  offset="0" style="stop-color:#FFC444"/>
				<stop  offset="0.9964" style="stop-color:#F36F56"/>
			</linearGradient>
			<path style="fill:url(#SVGID_00000176743675617931003110000001624514870537125300_);" d="M2552.883,2768.163
				c-13.433-6.821-30.31-0.558-37.696,13.988c-7.385,14.546-2.482,31.867,10.952,38.687c0.696,0.354,1.406,0.651,2.119,0.935
				c-2.496,8.049-4.378,16.161-5.64,24.275c-0.77,0.002-1.543,0.015-2.328,0.086c-15.326,1.366-27.49,15.449-27.17,31.457
				c0.321,16.008,13.006,27.877,28.332,26.51c0.802-0.072,1.588-0.198,2.37-0.337c1.601,7.933,3.795,15.682,6.562,23.182
				c-0.705,0.413-1.407,0.839-2.092,1.319c-13.112,9.186-17.305,27.318-9.364,40.498c7.941,13.18,25.009,16.416,38.121,7.23
				c0.672-0.471,1.304-0.979,1.929-1.496c5.179,5.726,10.86,11.031,17.005,15.874c-0.432,0.708-0.855,1.426-1.238,2.18
				c-7.385,14.546-2.482,31.867,10.951,38.688c13.434,6.821,30.311,0.558,37.696-13.988c0.382-0.753,0.712-1.519,1.029-2.285
				c7.536,2.104,15.171,3.559,22.85,4.362c-0.048,0.809-0.085,1.619-0.069,2.439c0.321,16.007,13.006,27.876,28.333,26.51
				s27.491-15.45,27.17-31.457c-0.017-0.837-0.087-1.655-0.17-2.467c7.688-2.191,15.238-4.993,22.587-8.382
				c0.349,0.714,0.712,1.423,1.127,2.113c7.941,13.18,25.009,16.417,38.121,7.229c13.113-9.188,17.305-27.318,9.364-40.498
				c-0.406-0.675-0.852-1.307-1.305-1.93c5.807-5.807,11.245-12.113,16.27-18.877c0.65,0.407,1.309,0.806,2.005,1.159
				c13.433,6.821,30.31,0.558,37.695-13.988c7.385-14.545,2.482-31.867-10.951-38.687c-0.696-0.353-1.406-0.65-2.119-0.935
				c2.496-8.049,4.378-16.16,5.64-24.275c0.77-0.002,1.543-0.015,2.328-0.084c15.326-1.367,27.49-15.451,27.17-31.458
				c-0.321-16.008-13.006-27.876-28.333-26.51c-0.801,0.071-1.588,0.197-2.37,0.336c-1.601-7.932-3.794-15.682-6.562-23.182
				c0.705-0.413,1.407-0.838,2.092-1.319c13.112-9.186,17.305-27.318,9.364-40.497c-7.941-13.18-25.009-16.417-38.121-7.23
				c-0.672,0.471-1.304,0.979-1.929,1.495c-5.179-5.725-10.86-11.031-17.005-15.873c0.432-0.708,0.855-1.426,1.238-2.18
				c7.385-14.545,2.482-31.867-10.951-38.687c-13.434-6.821-30.311-0.558-37.696,13.988c-0.383,0.753-0.712,1.519-1.029,2.285
				c-7.536-2.104-15.171-3.559-22.85-4.362c0.048-0.809,0.085-1.619,0.069-2.439c-0.321-16.007-13.006-27.876-28.333-26.51
				c-15.326,1.366-27.491,15.45-27.169,31.457c0.017,0.836,0.087,1.654,0.169,2.467c-7.688,2.191-15.238,4.993-22.587,8.382
				c-0.349-0.714-0.712-1.424-1.127-2.112c-7.941-13.18-25.009-16.417-38.121-7.23c-13.113,9.187-17.305,27.318-9.364,40.498
				c0.407,0.675,0.853,1.306,1.305,1.929c-5.807,5.807-11.245,12.114-16.27,18.878
				C2554.238,2768.914,2553.579,2768.516,2552.883,2768.163z M2720.345,2766.038c48.775,24.764,66.577,87.651,39.763,140.464
				c-26.814,52.813-88.091,75.551-136.865,50.787c-48.775-24.764-66.577-87.652-39.763-140.464
				C2610.295,2764.012,2671.571,2741.274,2720.345,2766.038z"/>
		</g>
	</g>
</g>
</svg>
