<?xml version="1.0" encoding="utf-8"?>
<!-- Generator: Adobe Illustrator 27.5.0, SVG Export Plug-In . SVG Version: 6.00 Build 0)  -->
<svg version="1.1" xmlns="http://www.w3.org/2000/svg" xmlns:xlink="http://www.w3.org/1999/xlink" x="0px" y="0px"
	 viewBox="0 0 750 500" style="enable-background:new 0 0 750 500;" xml:space="preserve">
<g id="BACKGROUND">
	<rect style="fill:#FFFFFF;" width="750" height="500"/>
</g>
<g id="OBJECT">
	<g>
		<path style="fill:#DCFBFF;" d="M355.133,174.288c3.686-8.776,5.769-18.392,5.88-28.482c0.458-41.289-32.758-75.739-74.038-76.713
			c-42.744-1.009-77.712,33.34-77.712,75.856c0,10.118,1.982,19.771,5.578,28.594c9.539,23.406,7.559,49.984-4.654,72.113
			c-6.608,11.973-10.388,25.725-10.438,40.358c-0.153,45.178,35.842,82.788,80.987,84.504c48.041,1.827,87.562-36.577,87.562-84.212
			c0-14.621-3.726-28.369-10.279-40.35C345.941,223.873,345.386,197.493,355.133,174.288z"/>
		<g>
			<g>
				<g>
					<path style="fill:#F2C9AD;" d="M322.318,136.334L322.318,136.334c6.198,1.743,10.871,6.85,12.06,13.178l9.76,51.966h-18.025
						l-7.897-40.71L322.318,136.334z"/>
					<path style="fill:#E4E4E0;" d="M322.318,136.334l0.943,0.265c5.697,1.602,10.145,6.063,11.731,11.764l9.146,32.875
						l-22.453,3.795l-3.47-24.266L322.318,136.334z"/>
					<polygon style="fill:#422C4F;" points="340.454,181.862 322.883,184.831 324.386,192.575 340.987,184.701 					"/>
					<path style="fill:#EBA58E;" d="M326.113,201.478h15.535l-1.663-1.07c-4.274-2.751-9.667-3.093-14.255-0.906l0,0
						L326.113,201.478z"/>
					<path style="fill:#D4CFBE;" d="M318.215,160.768l2.411-14.36l0,0c2.366,7.782,3.057,15.977,2.029,24.045l-1.44,11.293
						L318.215,160.768z"/>
				</g>
				<g>
					<path style="fill:#F2C9AD;" d="M242.627,136.334L242.627,136.334c-6.198,1.743-10.871,6.85-12.06,13.178l-9.76,51.966h18.025
						l7.897-40.71L242.627,136.334z"/>
					<path style="fill:#E4E4E0;" d="M242.627,136.334l-0.943,0.265c-5.697,1.602-10.145,6.063-11.731,11.764l-9.146,32.875
						l22.452,3.795l3.47-24.266L242.627,136.334z"/>
					<polygon style="fill:#422C4F;" points="224.491,181.862 242.062,184.831 240.559,192.575 223.958,184.701 					"/>
					<path style="fill:#EBA58E;" d="M238.832,201.478h-15.535l1.663-1.07c4.274-2.751,9.667-3.093,14.255-0.906l0,0L238.832,201.478
						z"/>
					<path style="fill:#D4CFBE;" d="M246.73,160.768l-2.411-14.36l0,0c-2.366,7.782-3.057,15.977-2.029,24.045l1.44,11.293
						L246.73,160.768z"/>
				</g>
				<g>
					<path style="fill:#E4E4E0;" d="M315.26,178.369l7.058-42.035l-39.845-10.999l-39.845,10.999l7.058,42.035
						c2.404,14.319,0.333,29.031-5.93,42.13v0c-6.164,12.892-8.27,27.351-6.038,41.465l9.536,60.315h35.219h35.219l9.536-60.315
						c2.231-14.114,0.126-28.573-6.038-41.465v0C314.927,207.4,312.856,192.688,315.26,178.369z"/>
					<g>
						<g>
							<path style="fill:#D4CFBE;" d="M310.215,186.163c-2.917-1.996-6.609-3.873-10.789-5.254
								c-4.175-1.389-8.827-2.277-13.518-2.514c-4.691-0.228-9.408,0.196-13.7,1.165c-4.297,0.96-8.156,2.464-11.256,4.161
								c3.482-0.642,7.435-1.289,11.651-1.669c4.213-0.387,8.682-0.512,13.139-0.297c4.456,0.227,8.891,0.792,13.045,1.595
								C302.943,184.146,306.814,185.18,310.215,186.163z"/>
						</g>
						<g>
							<path style="fill:#D4CFBE;" d="M310.97,225.535c-4.163-0.092-8.883-0.216-13.866-0.598
								c-4.983-0.375-10.224-1.006-15.418-1.928c-5.191-0.932-10.327-2.156-15.132-3.528c-4.807-1.367-9.279-2.884-13.216-4.239
								c3.31,2.516,7.479,4.993,12.216,7.034c4.732,2.049,10.024,3.659,15.436,4.63c5.413,0.963,10.935,1.284,16.084,1
								C302.226,227.63,306.994,226.75,310.97,225.535z"/>
						</g>
						<g>
							<path style="fill:#D4CFBE;" d="M311.132,209.576c-3.862,2.361-8.962,5.017-14.425,6.706
								c-5.45,1.734-11.153,2.467-15.671,2.735c2.19,0.563,4.822,0.884,7.639,0.794c2.815-0.084,5.807-0.577,8.677-1.474
								c2.868-0.902,5.605-2.206,7.964-3.746C307.679,213.055,309.656,211.289,311.132,209.576z"/>
						</g>
						<g>
							<path style="fill:#D4CFBE;" d="M311.882,313.794c-16.25-2.562-42.584-2.489-58.819,0.163
								C269.313,316.519,295.647,316.446,311.882,313.794z"/>
						</g>
						<g>
							<path style="fill:#D4CFBE;" d="M259.246,284.095c4.23-0.401,9.068-1.344,14.085-2.883c5.018-1.532,10.208-3.658,15.153-6.257
								c4.942-2.605,9.633-5.681,13.736-8.95c4.108-3.265,7.624-6.72,10.35-9.98c-7.203,4.52-16.364,10.328-25.969,15.352
								C277.023,276.452,267.049,280.716,259.246,284.095z"/>
						</g>
						<g>
							<path style="fill:#D4CFBE;" d="M299.224,259.959c-6.484,1.573-14.775,3.405-23.21,4.242
								c-8.429,0.89-16.92,0.776-23.588,0.548c3.135,1.134,6.906,2.048,11.009,2.525c4.1,0.483,8.524,0.527,12.902,0.082
								c4.377-0.451,8.701-1.391,12.618-2.695C292.875,263.364,296.384,261.704,299.224,259.959z"/>
						</g>
					</g>
					<path style="opacity:0.2;fill:#402C49;" d="M270.298,204.482l-22.15,4.189c-1.106,4.046-2.566,8.007-4.393,11.828l0,0
						c-0.777,1.626-1.489,3.277-2.137,4.949l23.896-10.206l-5.218,6.382l1.423,2.569l48.495,4.482l6.116-11.739l3.667,0.926
						c-1.299-3.03-2.372-6.138-3.231-9.297L270.298,204.482z"/>
				</g>
				<g>
					<path style="fill:#6A3649;" d="M317.692,113.357c-6.144-6.144-9.595-14.476-9.595-23.165V88.75
						c0-14.152-11.472-25.624-25.624-25.624l0,0h0c-14.152,0-25.624,11.472-25.624,25.624v1.442c0,8.688-3.451,17.021-9.595,23.165
						l0,0l0,0C268.017,129.327,296.928,129.327,317.692,113.357L317.692,113.357L317.692,113.357z"/>
					<path style="fill:#E4E4E0;" d="M282.473,48.579c-10.791,0-19.391,3.883-24.852,8.015c-2.115,1.6-2.439,4.66-0.772,6.722
						l9.812,12.143l15.812-6.957l15.812,6.957l9.812-12.143c1.667-2.063,1.343-5.122-0.772-6.722
						C301.863,52.463,293.263,48.579,282.473,48.579z"/>
				</g>
				<g>
					<g>
						<path style="fill:#F2C9AD;" d="M275.555,121.149v6.095l6.918,3.714l6.918-3.714v-6.095c-2.112,1.136-4.449,1.785-6.918,1.785
							C280.004,122.934,277.667,122.286,275.555,121.149z"/>
						<path style="fill:#422C4F;" d="M275.555,114.909v6.24c2.112,1.136,4.449,1.785,6.918,1.785c2.468,0,4.805-0.648,6.918-1.785
							v-6.24H275.555z"/>
					</g>
					<polygon style="fill:#F2C9AD;" points="282.473,125.335 275.555,127.244 282.473,149.932 289.39,127.244 					"/>
				</g>
				<g>
					<path style="fill:#D4CFBE;" d="M298.047,142.844l3.35-0.893c1.423-0.38,2.105-2.026,1.335-3.281
						c-2.31-3.766-5.191-7.158-8.543-10.054l-0.079-0.068l-4.72-1.303l-6.918,22.688l2.525,8.282l16.212-7.104
						c1.348-0.59,1.756-2.306,0.82-3.441L298.047,142.844z"/>
					<path style="fill:#E4E4E0;" d="M294.727,140.998l3.758-1.108c1.279-0.377,1.938-1.79,1.405-3.012h0
						c-2.172-4.981-5.842-9.161-10.5-11.96v2.325l-6.918,22.688l2.307,7.567l13.803-8.04c1.2-0.699,1.469-2.317,0.559-3.367
						L294.727,140.998z"/>
					<path style="fill:#D4CFBE;" d="M285.776,160.768l-10.221-33.524l-4.72,1.303l-0.079,0.068
						c-3.352,2.896-6.233,6.288-8.543,10.054c-0.77,1.255-0.088,2.902,1.335,3.281l3.35,0.893l-3.983,4.826
						c-0.936,1.135-0.528,2.85,0.82,3.441L285.776,160.768z"/>
					<path style="fill:#E4E4E0;" d="M285.776,160.768l-10.221-33.524v-2.325l0,0c-4.658,2.798-8.328,6.979-10.5,11.96l0,0
						c-0.533,1.222,0.126,2.635,1.405,3.012l3.758,1.108l-4.415,5.094c-0.91,1.05-0.641,2.667,0.559,3.367L285.776,160.768z"/>
					<polygon style="fill:#D4CFBE;" points="284.78,157.499 283.943,145.111 282.473,149.932 					"/>
				</g>
				<g>
					<g>
						<path style="fill:#F2C9AD;" d="M254.96,322.279L254.96,322.279c-4.705,20.074-5.749,40.833-3.082,61.277l5.928,45.451h12.57
							l4.01-60.336c0.646-9.723,0.462-19.483-0.551-29.174l-1.799-17.218H254.96z"/>
						<g>
							<path style="fill:#F2C9AD;" d="M266.572,435.072l-0.287,1.229c1.139-1.139,2.684-1.779,4.294-1.779h0.266l-0.469-5.514
								h-12.57l-2.967,3.736h9.885C265.947,432.743,266.85,433.882,266.572,435.072z"/>
							<path style="fill:#E4E4E0;" d="M270.58,434.522c-1.611,0-3.155,0.64-4.294,1.779l0.287-1.229
								c0.278-1.19-0.626-2.329-1.848-2.329h-9.885l-10.315,12.985H271.8l-0.954-11.206H270.58z"/>
						</g>
						<rect x="244.525" y="445.728" style="fill:#D4CFBE;" width="27.275" height="3.439"/>
						<path style="fill:#EBA58E;" d="M272.037,322.279H254.96c-0.835,3.564-1.549,7.15-2.154,10.752h20.354L272.037,322.279z"/>
					</g>
					<g>
						<path style="fill:#F2C9AD;" d="M309.985,322.279L309.985,322.279c4.705,20.074,5.749,40.833,3.082,61.277l-5.928,45.451
							h-12.57l-4.01-60.336c-0.646-9.723-0.462-19.483,0.551-29.174l1.799-17.218H309.985z"/>
						<g>
							<path style="fill:#F2C9AD;" d="M298.373,435.072l0.287,1.229c-1.139-1.139-2.684-1.779-4.294-1.779h-0.266l0.469-5.514h12.57
								l2.967,3.736h-9.885C298.999,432.743,298.095,433.882,298.373,435.072z"/>
							<path style="fill:#E4E4E0;" d="M294.365,434.522c1.611,0,3.155,0.64,4.294,1.779l-0.287-1.229
								c-0.278-1.19,0.626-2.329,1.848-2.329h9.885l10.315,12.985h-27.275l0.954-11.206H294.365z"/>
						</g>
						<rect x="293.145" y="445.728" style="fill:#D4CFBE;" width="27.275" height="3.439"/>
						<path style="fill:#EBA58E;" d="M292.908,322.279h17.077c0.835,3.564,1.549,7.15,2.154,10.752h-20.354L292.908,322.279z"/>
					</g>
				</g>
				<g>
					<g>
						<path style="fill:#EBA58E;" d="M266.582,100.363c0,3.646-2.956,6.601-6.601,6.601c-3.646,0-6.601-2.955-6.601-6.601
							c0-3.646,2.956-6.601,6.601-6.601C263.626,93.761,266.582,96.717,266.582,100.363z"/>
						<circle style="fill:#E78882;" cx="259.98" cy="100.363" r="3.399"/>
					</g>
					<g>
						<path style="fill:#EBA58E;" d="M298.363,100.363c0,3.646,2.956,6.601,6.601,6.601c3.646,0,6.601-2.955,6.601-6.601
							c0-3.646-2.956-6.601-6.601-6.601C301.319,93.761,298.363,96.717,298.363,100.363z"/>
						<circle style="fill:#E78882;" cx="304.965" cy="100.363" r="3.399"/>
					</g>
					<path style="fill:#F2C9AD;" d="M282.473,64.097c-11.078,0-20.059,8.981-20.059,20.059v14.41
						c0,11.078,8.981,20.059,20.059,20.059c11.078,0,20.059-8.981,20.059-20.059v-14.41
						C302.531,73.077,293.551,64.097,282.473,64.097z"/>
					<path style="fill:#6A3649;" d="M303.661,85.144c-11.995-0.309-21.621-2.521-29.547-10.129
						c-2.962,4.97-7.592,8.918-12.946,11.104v-1.746c0-11.734,9.512-21.246,21.246-21.246l0,0c11.734,0,21.246,9.512,21.246,21.246
						V85.144z"/>
					<circle style="fill:#422C4F;" cx="273.413" cy="91.911" r="1.85"/>
					<path style="fill:#422C4F;" d="M289.682,91.911c0,1.022,0.828,1.85,1.85,1.85c1.022,0,1.85-0.828,1.85-1.85
						c0-1.022-0.828-1.85-1.85-1.85C290.51,90.061,289.682,90.889,289.682,91.911z"/>
					<g>
						<path style="fill:#6A3649;" d="M273.413,84.242c-2.196,0-4.141,1.051-5.376,2.673h10.752
							C277.554,85.294,275.608,84.242,273.413,84.242z"/>
					</g>
					<g>
						<path style="fill:#6A3649;" d="M291.532,84.242c2.195,0,4.141,1.051,5.376,2.673h-10.752
							C287.392,85.294,289.337,84.242,291.532,84.242z"/>
					</g>
					<path style="fill:#EBA58E;" d="M279.676,101.291c0.582,1.171,1.612,1.957,2.797,1.957c1.185,0,2.215-0.786,2.797-1.957H279.676
						z"/>
					<path style="fill:#FFFFFF;" d="M274.172,107.193c1.727,3.474,4.786,5.807,8.301,5.807s6.574-2.333,8.301-5.807H274.172z"/>
				</g>
				<g>
					<polygon style="fill:#6C6FC3;" points="313.986,224.191 268.436,218.462 301.952,161.08 347.501,166.809 					"/>
					<polygon style="fill:#56438C;" points="347.501,166.809 346.553,165.208 301.003,159.479 301.952,161.08 					"/>
					<polygon style="fill:#402C49;" points="267.488,216.861 268.436,218.462 301.952,161.08 301.003,159.479 					"/>
				</g>
				<g>
					<path style="opacity:0.3;fill:#402C49;" d="M273.988,208.957l9.196,4.854l6.601-0.882l-4.272,4.411
						c-1.613,1.665-4.387,1.243-5.431-0.827l-1.563-3.097L273.988,208.957z"/>
					<path style="fill:#F2C9AD;" d="M238.832,201.478l38.634-1.702l8.93,4.31c0.848,0.409,1.526,1.103,1.916,1.96l1.68,3.689
						c0.663,1.456,0.221,3.178-1.062,4.135l-2.059,1.536c-1.814,1.353-4.363,1.081-5.851-0.623l-2.036-2.332l-6.335-4.428
						l-37.31,7.915c-8.642,1.833-16.322-5.808-14.533-14.459h0H238.832z"/>
				</g>
				<g>
					<polygon style="opacity:0.3;fill:#402C49;" points="281.413,196.244 321.313,211.646 317.767,217.718 280.682,197.495 					"/>
					<g>
						<path style="fill:#F2C9AD;" d="M344.138,201.478L344.138,201.478h-18.025l-32.019-10.443l-6.391-8.785l-1.589-0.222
							c-1.484-0.207-2.934,0.563-3.594,1.908l-3.066,6.256c-1.182,2.411-0.042,5.318,2.464,6.283l46.285,17.824
							C336.676,217.562,345.512,210.453,344.138,201.478z"/>
						<path style="fill:#F2C9AD;" d="M293.573,181.793l-2.443-4.072c-0.761,1.675-0.852,3.579-0.252,5.318l0.252,0.73l-1.013,1.798
							l3.977,5.467l0.42-5.226C294.626,184.405,294.297,183.001,293.573,181.793z"/>
					</g>
				</g>
			</g>
			<path style="fill:#BCF0EB;" d="M343.011,449.168H221.934c-0.622,0-1.126,0.504-1.126,1.126s0.504,1.127,1.126,1.127h121.078
				c0.622,0,1.127-0.504,1.127-1.127S343.634,449.168,343.011,449.168z"/>
		</g>
	</g>
	<g>
		<path style="fill:#DCFBFF;" d="M173.174,174.288c3.686-8.776,5.769-18.392,5.88-28.482c0.458-41.289-32.758-75.739-74.038-76.713
			c-42.744-1.009-77.712,33.34-77.712,75.856c0,10.118,1.982,19.771,5.578,28.594c9.539,23.406,7.559,49.984-4.654,72.113
			c-6.608,11.973-10.388,25.725-10.438,40.358c-0.153,45.178,35.842,82.788,80.987,84.504c48.041,1.827,87.562-36.577,87.562-84.212
			c0-14.621-3.726-28.369-10.279-40.35C163.982,223.873,163.427,197.493,173.174,174.288z"/>
		<g>
			<path style="fill:#BCF0EB;" d="M162.604,449.168H41.526c-0.622,0-1.127,0.504-1.127,1.126s0.504,1.127,1.127,1.127h121.078
				c0.622,0,1.127-0.504,1.127-1.127S163.226,449.168,162.604,449.168z"/>
			<g>
				<polygon style="fill:#D4CFBE;" points="105.716,255.04 98.413,255.04 89.622,255.04 89.622,308.404 98.413,308.404 
					102.065,277.43 105.716,308.404 114.507,308.404 114.507,255.04 				"/>
				<g>
					<g>
						<path style="fill:#454F6B;" d="M102.065,228.793H64.117v200.215h26.247l4.587-162.134c0.109-3.85,3.261-6.915,7.113-6.915
							s7.004,3.065,7.113,6.915l4.587,162.134h26.247V228.793H102.065z"/>
						<polygon style="fill:#422C4F;" points="87.629,228.793 90.206,315.599 64.117,315.599 64.117,228.793 						"/>
						<polygon style="fill:#422C4F;" points="116.5,228.793 113.923,315.599 140.013,315.599 140.013,228.793 						"/>
					</g>
					<g>
						<path style="fill:#A64F5A;" d="M86.913,433.277H64.375l-2.468,3.629c-0.833,1.225-1.952,2.23-3.259,2.929l-2.335,1.248
							c-1.924,1.028-3.372,2.69-4.165,4.646h36.23L86.913,433.277z"/>
						<polygon style="fill:#8C404C;" points="86.411,429.008 67.279,429.008 64.375,433.277 86.913,433.277 						"/>
						<path style="fill:#422C4F;" d="M52.149,445.728c-0.436,1.076-0.681,2.238-0.681,3.439h37.315l-0.405-3.439H52.149z"/>
					</g>
					<g>
						<polygon style="fill:#8C404C;" points="136.85,429.008 117.718,429.008 117.216,433.277 139.754,433.277 						"/>
						<path style="fill:#A64F5A;" d="M151.981,445.728c-0.793-1.955-2.241-3.617-4.165-4.646l-2.335-1.248
							c-1.307-0.699-2.425-1.704-3.259-2.929l-2.468-3.629h-22.538l-1.465,12.452H151.981z"/>
						<path style="fill:#422C4F;" d="M115.346,449.168h37.315c0-1.201-0.245-2.363-0.681-3.439h-36.23L115.346,449.168z"/>
					</g>
				</g>
				<g>
					<g>
						<path style="fill:#F2C9AD;" d="M95.147,121.149v3.961l6.918,3.714l6.918-3.714v-3.961c-2.112,1.136-4.449,1.785-6.918,1.785
							C99.596,122.934,97.259,122.286,95.147,121.149z"/>
						<path style="fill:#422C4F;" d="M95.147,114.909v6.24c2.112,1.136,4.449,1.785,6.918,1.785c2.468,0,4.805-0.648,6.918-1.785
							v-6.24H95.147z"/>
					</g>
					<polygon style="fill:#F2C9AD;" points="102.065,123.2 95.147,125.11 102.065,137.401 108.982,125.11 					"/>
				</g>
				<g>
					<polygon style="fill:#5CAAFF;" points="111.124,128.824 102.065,137.401 93.005,128.824 57.001,137.633 64.117,221.623 
						102.065,221.623 140.013,221.623 147.128,137.633 					"/>
					<polygon style="fill:#6BC5FF;" points="102.065,137.401 96.372,143.924 93.005,128.824 95.147,125.11 					"/>
					<polygon style="fill:#6BC5FF;" points="102.065,137.401 107.757,143.924 111.124,128.824 108.982,125.11 					"/>
					<polygon style="fill:#5297F4;" points="102.065,137.401 102.065,221.623 99.268,167.285 					"/>
				</g>
				<g>
					<rect x="64.117" y="221.623" style="fill:#422C4F;" width="75.896" height="7.17"/>
					<path style="fill:#F0BF6C;" d="M107.203,220.338H96.926c-1.048,0-1.897,0.85-1.897,1.897v5.944c0,1.048,0.85,1.897,1.897,1.897
						h10.278c1.048,0,1.897-0.85,1.897-1.897v-5.944C109.101,221.188,108.251,220.338,107.203,220.338z"/>
				</g>
				<g>
					<path style="fill:#E4E4E0;" d="M57.001,137.633L57.001,137.633c-7.68,1.947-13.465,8.277-14.716,16.1l-7.019,43.889
						l-3.405,63.673h18.446l1.419-60.498l7.695-34.609L57.001,137.633z"/>
					<path style="fill:#F2C9AD;" d="M35.181,261.295l-1.516,12.527c-0.352,2.913,0.14,5.866,1.417,8.507h0
						c1.783,3.684,4.966,6.501,8.84,7.822l0.903,0.308l3.637,3.795l0,0c2.05-0.891,3.064-3.214,2.324-5.323l-1.849-5.271
						l-0.316-9.013l3.479,2.53l0.419,2.273c0.395,2.143,2.306,3.668,4.483,3.577l0,0l-0.774-6.422
						c-0.527-4.376-2.3-8.508-5.108-11.905l-2.814-3.405H35.181z"/>
					<polygon style="fill:#422C4F;" points="48.305,261.295 35.181,261.295 34.66,265.603 					"/>
					<path style="fill:#D4CFBE;" d="M59.421,166.188l-1.437-16.958l0,0c-2.329,10.235-3.12,20.761-2.345,31.229l0.152,2.052
						L59.421,166.188z"/>
				</g>
				<g>
					<path style="fill:#E4E4E0;" d="M147.128,137.633L147.128,137.633c7.68,1.947,13.465,8.277,14.716,16.1l7.019,43.889
						l3.405,63.673h-18.446l-1.419-60.498l-7.695-34.609L147.128,137.633z"/>
					<path style="fill:#F2C9AD;" d="M168.948,261.295l1.516,12.527c0.352,2.913-0.14,5.866-1.418,8.507l0,0
						c-1.783,3.684-4.967,6.501-8.84,7.822l-0.903,0.308l-3.637,3.795l0,0c-2.05-0.891-3.064-3.214-2.324-5.323l1.849-5.271
						l0.316-9.013l-3.479,2.53l-0.419,2.273c-0.395,2.143-2.306,3.668-4.483,3.577l0,0l0.774-6.422
						c0.527-4.376,2.3-8.508,5.108-11.905l2.814-3.405H168.948z"/>
					<polygon style="fill:#422C4F;" points="155.824,261.295 168.948,261.295 169.469,265.603 					"/>
					<path style="fill:#D4CFBE;" d="M144.709,166.188l1.437-16.958l0,0c2.329,10.235,3.119,20.761,2.345,31.229l-0.152,2.052
						L144.709,166.188z"/>
				</g>
				<g>
					<path style="fill:#E4E4E0;" d="M57.001,137.633l30.627-7.333v180.238H55.351l2.907-43.658
						c2.007-30.153,2.508-60.388,1.5-90.591l-0.337-10.102L57.001,137.633z"/>
					<path style="fill:#D4CFBE;" d="M87.629,130.301l-10.601,9.088c-4.471,3.833-4.406,10.772,0.137,14.52l0.881,0.727l-5.18,6.292
						c-2.306,2.801-2.813,6.672-1.305,9.973l16.067,35.163V130.301z"/>
					<path style="fill:#E4E4E0;" d="M87.629,130.301l-9.345,10.27c-2.9,3.187-2.568,8.145,0.729,10.917l2.993,2.516l-6.387,8.216
						c-1.642,2.112-2.05,4.932-1.076,7.423l13.086,33.456V130.301z"/>
					<path style="fill:#D4CFBE;" d="M76.88,248.598l-8.396,3.931c-0.51,0.239-1.099,0.239-1.609,0l-8.396-3.931
						c-0.667-0.312-1.093-0.982-1.093-1.718v-5.003c0-1.048,0.849-1.897,1.897-1.897h16.792c1.048,0,1.897,0.85,1.897,1.897v5.003
						C77.973,247.616,77.547,248.286,76.88,248.598z"/>
				</g>
				<g>
					<path style="fill:#E4E4E0;" d="M147.128,137.633l-30.627-7.333v180.238h32.278l-2.906-43.658
						c-2.007-30.153-2.508-60.388-1.5-90.591l0.337-10.102L147.128,137.633z"/>
					<path style="fill:#D4CFBE;" d="M116.5,130.301l10.6,9.088c4.471,3.833,4.406,10.772-0.137,14.52l-0.881,0.727l5.18,6.292
						c2.306,2.801,2.813,6.672,1.305,9.973L116.5,206.063V130.301z"/>
					<path style="fill:#E4E4E0;" d="M116.5,130.301l9.345,10.27c2.9,3.187,2.568,8.145-0.729,10.917l-2.992,2.516l6.387,8.216
						c1.642,2.112,2.051,4.932,1.076,7.423L116.5,203.099V130.301z"/>
					<path style="fill:#D4CFBE;" d="M127.249,248.598l8.396,3.931c0.51,0.239,1.099,0.239,1.609,0l8.396-3.931
						c0.667-0.312,1.093-0.982,1.093-1.718v-5.003c0-1.048-0.85-1.897-1.897-1.897h-16.792c-1.048,0-1.897,0.85-1.897,1.897v5.003
						C126.157,247.616,126.583,248.286,127.249,248.598z"/>
				</g>
				<g>
					<g>
						<path style="fill:#EBA58E;" d="M86.174,100.363c0,3.646-2.955,6.601-6.601,6.601c-3.646,0-6.601-2.955-6.601-6.601
							c0-3.646,2.955-6.601,6.601-6.601C83.218,93.761,86.174,96.717,86.174,100.363z"/>
						<circle style="fill:#E78882;" cx="79.573" cy="100.363" r="3.399"/>
					</g>
					<g>
						<path style="fill:#EBA58E;" d="M117.955,100.363c0,3.646,2.956,6.601,6.601,6.601s6.601-2.955,6.601-6.601
							c0-3.646-2.956-6.601-6.601-6.601S117.955,96.717,117.955,100.363z"/>
						<circle style="fill:#E78882;" cx="124.557" cy="100.363" r="3.399"/>
					</g>
					<path style="fill:#F2C9AD;" d="M102.065,64.097c-11.078,0-20.059,8.981-20.059,20.059v14.41
						c0,11.078,8.981,20.059,20.059,20.059c11.078,0,20.059-8.981,20.059-20.059v-14.41
						C122.124,73.077,113.143,64.097,102.065,64.097z"/>
					<path style="fill:#422C4F;" d="M94.855,91.911c0,1.022-0.828,1.85-1.85,1.85c-1.022,0-1.85-0.828-1.85-1.85
						c0-1.022,0.828-1.85,1.85-1.85C94.027,90.061,94.855,90.889,94.855,91.911z"/>
					<path style="fill:#422C4F;" d="M109.274,91.911c0,1.022,0.828,1.85,1.85,1.85c1.022,0,1.85-0.828,1.85-1.85
						c0-1.022-0.828-1.85-1.85-1.85C110.103,90.061,109.274,90.889,109.274,91.911z"/>
					<g>
						<path style="fill:#8C404C;" d="M93.005,84.242c-2.195,0-4.141,1.051-5.376,2.673h10.752
							C97.146,85.294,95.2,84.242,93.005,84.242z"/>
					</g>
					<g>
						<path style="fill:#8C404C;" d="M111.124,84.242c2.196,0,4.141,1.051,5.376,2.673h-10.752
							C106.984,85.294,108.929,84.242,111.124,84.242z"/>
					</g>
					<path style="fill:#FFFFFF;" d="M93.763,107.193c1.727,3.474,4.786,5.807,8.301,5.807c3.516,0,6.574-2.333,8.301-5.807H93.763z"
						/>
					<path style="fill:#EBA58E;" d="M99.268,101.291c0.582,1.171,1.612,1.957,2.797,1.957c1.185,0,2.215-0.786,2.797-1.957H99.268z"
						/>
					<path style="fill:#8C404C;" d="M110.905,57.612h-8.841h-8.841c-8.322,0-14.961,6.944-14.588,15.257l0.695,15.512
						c0.159,3.546,1.071,7.018,2.674,10.185V86.761c0-1.668,0.663-3.269,1.842-4.448v0c1.18-1.18,1.842-2.78,1.842-4.448v-1.496
						c0-2.096,1.699-3.795,3.795-3.795h12.579h12.579c2.096,0,3.795,1.699,3.795,3.795v1.496c0,1.668,0.663,3.269,1.843,4.448v0
						c1.18,1.18,1.843,2.78,1.843,4.448v11.805c1.604-3.167,2.515-6.639,2.674-10.185l0.695-15.512
						C125.866,64.555,119.227,57.612,110.905,57.612z"/>
					<g>
						<path style="fill:#A05261;" d="M95.281,57.612h-2.057c-1.293,0-2.538,0.186-3.73,0.5c-0.15,5.002,1.006,10.046,3.354,14.463
							h2.808C94.233,67.733,94.117,62.521,95.281,57.612z"/>
						<path style="fill:#A05261;" d="M118.516,59.769c-1.556-0.954-3.301-1.621-5.174-1.936c0.224,5.035-0.691,10.124-2.709,14.741
							h3.33C116.838,68.97,118.447,64.379,118.516,59.769z"/>
						<path style="fill:#A05261;" d="M107.651,57.612h-2.924c1.433,4.833,1.759,9.984,0.967,14.963h1.782
							C108.671,67.685,108.74,62.526,107.651,57.612z"/>
					</g>
				</g>
			</g>
		</g>
	</g>
	<g>
		<path style="fill:#DCFBFF;" d="M537.4,174.288c3.686-8.776,5.769-18.392,5.88-28.482c0.458-41.289-32.758-75.739-74.038-76.713
			c-42.744-1.009-77.712,33.34-77.712,75.856c0,10.118,1.982,19.771,5.578,28.594c9.539,23.406,7.559,49.984-4.654,72.113
			c-6.608,11.973-10.388,25.725-10.438,40.358c-0.153,45.178,35.842,82.788,80.987,84.504c48.041,1.827,87.562-36.577,87.562-84.212
			c0-14.621-3.726-28.369-10.279-40.35C528.208,223.873,527.654,197.493,537.4,174.288z"/>
		<g>
			<path style="fill:#BCF0EB;" d="M526.83,449.168H405.752c-0.622,0-1.126,0.504-1.126,1.126s0.504,1.127,1.126,1.127H526.83
				c0.622,0,1.127-0.504,1.127-1.127S527.452,449.168,526.83,449.168z"/>
			<g>
				<g>
					<g>
						<g>
							<g>
								<path style="fill:#9EE6E0;" d="M428.343,228.793L428.343,228.793c-3.125,20.74-4.485,41.708-4.064,62.678l2.759,137.537
									h29.765L461.4,264.4c0.385-4.261,3.589-4.439,4.892-4.439v-31.169H428.343z"/>
								<path style="fill:#7BC1BA;" d="M466.291,259.961v-31.169h-37.948c-2.335,15.499-3.683,31.124-4.04,46.783
									c9.917,8.976,23.001,14.403,36.365,15.033L461.4,264.4C461.785,260.139,464.988,259.961,466.291,259.961z"/>
							</g>
							<polygon style="fill:#7BC1BA;" points="434.49,270.06 431.822,341.846 434.49,421.537 435.301,342.162 							"/>
						</g>
						<g>
							<path style="fill:#454F6B;" d="M451.14,433.277h-22.538l-2.468,3.629c-0.833,1.225-1.952,2.23-3.259,2.929l-2.335,1.248
								c-1.924,1.028-3.372,2.69-4.164,4.646h36.23L451.14,433.277z"/>
							<polygon style="fill:#422C4F;" points="450.638,429.008 431.506,429.008 428.602,433.277 451.14,433.277 							"/>
							<path style="fill:#422C4F;" d="M416.375,445.728c-0.436,1.076-0.681,2.238-0.681,3.439h37.315l-0.405-3.439H416.375z"/>
						</g>
					</g>
					<g>
						<g>
							<g>
								<path style="fill:#9EE6E0;" d="M504.239,228.793L504.239,228.793c3.125,20.74,4.485,41.708,4.064,62.678l-2.759,137.537
									h-29.765L471.183,264.4c-0.385-4.261-3.589-4.439-4.892-4.439v-31.169H504.239z"/>
								<path style="fill:#7BC1BA;" d="M466.291,259.961v-31.169h37.948c2.335,15.499,3.683,31.124,4.04,46.783
									c-9.917,8.976-23.001,14.403-36.365,15.033l-0.732-26.208C470.798,260.139,467.594,259.961,466.291,259.961z"/>
							</g>
							<polygon style="fill:#7BC1BA;" points="498.092,270.06 500.761,341.846 498.092,421.537 497.282,342.162 							"/>
						</g>
						<g>
							<polygon style="fill:#422C4F;" points="501.077,429.008 481.945,429.008 481.443,433.277 503.981,433.277 							"/>
							<path style="fill:#454F6B;" d="M516.207,445.728c-0.793-1.955-2.24-3.617-4.165-4.646l-2.335-1.248
								c-1.307-0.699-2.425-1.704-3.259-2.929l-2.468-3.629h-22.538l-1.465,12.452H516.207z"/>
							<path style="fill:#422C4F;" d="M479.573,449.168h37.315c0-1.201-0.245-2.363-0.681-3.439h-36.23L479.573,449.168z"/>
						</g>
					</g>
				</g>
				<g>
					<path style="fill:#BD6C67;" d="M457.232,121.149v7.674l9.06,8.578l9.06-8.578v-7.674c-2.766,1.136-5.827,1.785-9.06,1.785
						S459.998,122.286,457.232,121.149z"/>
					<path style="fill:#422C4F;" d="M457.232,114.909v6.24c2.766,1.136,5.827,1.785,9.06,1.785s6.293-0.648,9.06-1.785v-6.24
						H457.232z"/>
				</g>
				<g>
					<path style="fill:#BD6C67;" d="M421.228,137.633L421.228,137.633c-7.68,1.947-13.465,8.277-14.716,16.1l-7.019,43.889
						l-0.085,63.673h13.124l3.42-60.498l7.695-34.609L421.228,137.633z"/>
					<path style="fill:#F5D896;" d="M399.408,261.295l-1.516,12.527c-0.352,2.913,0.14,5.866,1.418,8.507l0,0
						c1.783,3.684,4.966,6.501,8.84,7.822l0.903,0.308l3.637,3.795l0,0c2.05-0.891,3.064-3.214,2.324-5.323l-1.849-5.271
						l-0.316-9.013l3.479,2.53l0.419,2.273c0.395,2.143,2.306,3.668,4.483,3.577l0,0l-0.774-6.422
						c-0.527-4.376-2.3-8.508-5.108-11.905l-2.814-3.405H399.408z"/>
					<path style="fill:#F5D896;" d="M399.408,261.295l-0.949-9.694l0,0c4.869-0.785,9.834-0.772,14.699,0.038l1.192,0.199
						l-1.818,9.456H399.408z"/>
					<path style="fill:#9EE6E0;" d="M421.228,137.633l-0.922,0.234c-7.204,1.827-12.783,7.527-14.456,14.768l-8.972,38.842
						l24.35,3.795l2.419-29.084L421.228,137.633z"/>
					<path style="fill:#7BC1BA;" d="M423.647,166.188l-1.47-18.351l0,0c-2.612,12.303-2.91,24.984-0.877,37.396l0.506,3.09
						L423.647,166.188z"/>
					<polygon style="fill:#422C4F;" points="400.388,192.024 417.316,194.662 415.952,200.797 399.995,194.481 					"/>
				</g>
				<g>
					<path style="fill:#BD6C67;" d="M511.354,137.633L511.354,137.633c7.68,1.947,13.465,8.277,14.716,16.1l7.019,43.889
						l0.085,63.673h-13.124l-3.42-60.498l-7.695-34.609L511.354,137.633z"/>
					<path style="fill:#F5D896;" d="M533.174,261.295l1.516,12.527c0.352,2.913-0.14,5.866-1.418,8.507l0,0
						c-1.783,3.684-4.967,6.501-8.841,7.822l-0.903,0.308l-3.637,3.795l0,0c-2.05-0.891-3.064-3.214-2.324-5.323l1.849-5.271
						l0.316-9.013l-3.479,2.53l-0.419,2.273c-0.395,2.143-2.306,3.668-4.483,3.577l0,0l0.774-6.422
						c0.527-4.376,2.3-8.508,5.108-11.905l2.815-3.405H533.174z"/>
					<path style="fill:#F5D896;" d="M533.174,261.295l0.949-9.694l0,0c-4.869-0.785-9.834-0.772-14.698,0.038l-1.192,0.199
						l1.818,9.456H533.174z"/>
					<path style="fill:#9EE6E0;" d="M511.354,137.633l0.922,0.234c7.204,1.827,12.783,7.527,14.456,14.768l8.972,38.842
						l-24.35,3.795l-2.419-29.084L511.354,137.633z"/>
					<path style="fill:#7BC1BA;" d="M508.935,166.188l1.47-18.351l0,0c2.612,12.303,2.91,24.984,0.877,37.396l-0.506,3.09
						L508.935,166.188z"/>
					<polygon style="fill:#422C4F;" points="532.194,192.024 515.266,194.662 516.63,200.797 532.587,194.481 					"/>
				</g>
				<g>
					<path style="fill:#9EE6E0;" d="M506.906,190.143l4.448-52.509l-36.003-8.81l-9.06,8.578l-9.06-8.578l-36.003,8.81l4.448,52.509
						c1.77,20.895,0.766,41.932-2.987,62.563l-2.721,14.958c9.285,6.03,20.074,9.646,28.901,11.784
						c11.457,2.775,23.385,2.775,34.843,0c8.828-2.139,19.616-5.754,28.901-11.784l-2.721-14.958
						C506.14,232.075,505.136,211.038,506.906,190.143z"/>
					<polygon style="fill:#D1F4F5;" points="500.444,186.259 489.455,190.054 478.466,186.259 478.466,162.542 500.444,162.542 
											"/>
					<g>
						<g>
							<path style="fill:#7BC1BA;" d="M497.875,268.482c-4.798,0.386-10.237,0.753-16.002,0.785
								c-5.763,0.041-11.846-0.249-17.886-0.944c-6.039-0.709-12.026-1.821-17.626-3.182c-5.604-1.353-10.814-2.958-15.396-4.433
								c3.883,2.832,8.792,5.564,14.37,7.707c5.57,2.153,11.796,3.711,18.124,4.452c6.33,0.73,12.747,0.641,18.662-0.178
								C488.042,271.882,493.447,270.348,497.875,268.482z"/>
						</g>
						<g>
							<path style="fill:#7BC1BA;" d="M502.24,255.774c-5.206,1.749-11.848,3.957-18.663,5.528
								c-6.805,1.609-13.739,2.572-19.181,3.309c5.392,1.008,12.733,0.903,19.774-0.767
								C491.224,262.223,497.852,259.066,502.24,255.774z"/>
						</g>
						<g>
							<path style="fill:#7BC1BA;" d="M498.136,217.419c-4.459,0.13-9.502,0.132-14.806-0.308
								c-5.303-0.429-10.859-1.293-16.306-2.627c-5.444-1.349-10.765-3.165-15.66-5.248c-4.901-2.075-9.366-4.418-13.255-6.605
								c3.002,3.288,7.027,6.632,11.821,9.443c4.784,2.821,10.322,5.102,16.08,6.526c5.761,1.413,11.724,1.965,17.271,1.69
								C488.833,220.027,493.951,218.936,498.136,217.419z"/>
						</g>
						<g>
							<path style="fill:#7BC1BA;" d="M498.496,203.469c-4.153,1.274-9.448,2.898-14.862,4.041
								c-5.408,1.173-10.904,1.857-15.214,2.395c4.256,0.842,10.056,0.84,15.646-0.375
								C489.664,208.351,494.957,205.98,498.496,203.469z"/>
						</g>
						<g>
							<path style="fill:#7BC1BA;" d="M462.982,155.372c-3.961-1.441-9-3.303-13.829-5.642c-4.842-2.312-9.443-5.085-13.041-7.279
								c2.724,3.21,7.157,6.695,12.173,9.085C453.283,153.961,458.773,155.249,462.982,155.372z"/>
						</g>
						<g>
							<path style="fill:#7BC1BA;" d="M502.178,141.814c-4.066,1.311-9.192,3.27-14.336,5.177
								c-5.139,1.921-10.297,3.791-14.231,5.458c4.255-0.351,9.72-1.603,14.939-3.555
								C493.776,146.958,498.729,144.331,502.178,141.814z"/>
						</g>
						<g>
							<path style="fill:#7BC1BA;" d="M462.177,149.107c-1.962-4.159-6.964-9.031-11.174-10.883
								C452.965,142.383,457.968,147.256,462.177,149.107z"/>
						</g>
						<g>
							<path style="fill:#7BC1BA;" d="M477.788,138.234c-2.924,1.214-6.437,4.496-7.847,7.331
								C472.865,144.35,476.379,141.068,477.788,138.234z"/>
						</g>
					</g>
				</g>
				<g>
					<g>
						<path style="fill:#A64F5A;" d="M450.401,100.363c0,3.646-2.956,6.601-6.601,6.601s-6.601-2.955-6.601-6.601
							c0-3.646,2.955-6.601,6.601-6.601S450.401,96.717,450.401,100.363z"/>
						<circle style="fill:#8C404C;" cx="443.799" cy="100.363" r="3.399"/>
					</g>
					<path style="fill:#422C4F;" d="M443.799,85.579L443.799,85.579c0,5.406,1.03,10.761,3.036,15.781l0.364,0.91V80.321
						L443.799,85.579z"/>
					<path style="fill:#422C4F;" d="M488.783,85.579L488.783,85.579c0,5.406-1.03,10.761-3.036,15.781l-0.364,0.91V80.321
						L488.783,85.579z"/>
					<g>
						<path style="fill:#A64F5A;" d="M482.182,100.363c0,3.646,2.955,6.601,6.601,6.601c3.646,0,6.601-2.955,6.601-6.601
							c0-3.646-2.956-6.601-6.601-6.601C485.137,93.761,482.182,96.717,482.182,100.363z"/>
						<path style="fill:#8C404C;" d="M485.384,100.363c0,1.877,1.522,3.399,3.4,3.399c1.878,0,3.4-1.522,3.4-3.399
							c0-1.878-1.522-3.4-3.4-3.4C486.906,96.963,485.384,98.485,485.384,100.363z"/>
					</g>
					<path style="fill:#BD6C67;" d="M466.291,64.097c-11.078,0-20.059,8.981-20.059,20.059v14.41
						c0,11.078,8.981,20.059,20.059,20.059c11.078,0,20.059-8.981,20.059-20.059v-14.41
						C486.35,73.077,477.369,64.097,466.291,64.097z"/>
					<circle style="fill:#422C4F;" cx="457.232" cy="91.911" r="1.85"/>
					<path style="fill:#422C4F;" d="M473.501,91.911c0,1.022,0.828,1.85,1.85,1.85c1.022,0,1.85-0.828,1.85-1.85
						c0-1.022-0.828-1.85-1.85-1.85C474.329,90.061,473.501,90.889,473.501,91.911z"/>
					<g>
						<path style="fill:#8C404C;" d="M457.232,84.242c-2.195,0-4.141,1.051-5.376,2.673h10.752
							C461.372,85.294,459.427,84.242,457.232,84.242z"/>
					</g>
					<g>
						<path style="fill:#8C404C;" d="M475.351,84.242c2.195,0,4.141,1.051,5.376,2.673h-10.752
							C471.21,85.294,473.155,84.242,475.351,84.242z"/>
					</g>
					<path style="fill:#FFFFFF;" d="M457.99,107.193c1.727,3.474,4.786,5.807,8.301,5.807s6.574-2.333,8.301-5.807H457.99z"/>
					<path style="fill:#A64F5A;" d="M461.943,101.291c0.905,1.171,2.507,1.957,4.348,1.957c1.841,0,3.443-0.786,4.348-1.957H461.943
						z"/>
					<path style="fill:#9EE6E0;" d="M469.974,57.236h-3.683h-3.683c-10.388,0-18.809,8.421-18.809,18.809v9.533
						c4.19-4.892,10.309-7.708,16.75-7.708h5.742h5.742c6.441,0,12.56,2.816,16.75,7.708v-9.533
						C488.783,65.658,480.362,57.236,469.974,57.236z"/>
					<g>
						<g>
							<path style="fill:#7BC1BA;" d="M484.627,75.837c-4.713-2.243-11.597-3.777-18.512-3.528
								c-6.916,0.19-13.689,2.158-18.251,4.696c5.135-0.974,11.7-2.023,18.329-2.212C472.822,74.56,479.441,75.19,484.627,75.837z"
								/>
						</g>
						<g>
							<path style="fill:#7BC1BA;" d="M478.737,68.224c-3.907-0.966-9.328-1.102-14.528,0.056
								c-5.209,1.117-10.079,3.503-13.227,6.01c3.782-1.392,8.631-3.061,13.636-4.139C469.615,69.043,474.719,68.537,478.737,68.224
								z"/>
						</g>
						<g>
							<path style="fill:#7BC1BA;" d="M475.353,65.219c-2.148-1.062-5.244-1.892-8.401-2.036c-3.156-0.166-6.318,0.356-8.56,1.202
								c2.397-0.099,5.453-0.221,8.504-0.063C469.948,64.464,472.977,64.885,475.353,65.219z"/>
						</g>
					</g>
				</g>
				<path style="fill:#D1F4F5;" d="M483.568,124.625c-1.507-1.844-4.132-2.273-6.172-1.044c-2.572,1.549-6.468,3.266-11.105,3.266
					c-4.637,0-8.533-1.717-11.105-3.266c-2.04-1.229-4.665-0.8-6.172,1.044h0c-1.117,1.367-1.386,3.239-0.698,4.865l0.35,0.827
					c2.545,6.019,8.445,9.931,14.98,9.931h2.645h2.645c6.535,0,12.436-3.911,14.98-9.931l0.35-0.827
					C484.954,127.864,484.685,125.992,483.568,124.625L483.568,124.625z"/>
			</g>
		</g>
	</g>
	<g>
		<path style="fill:#DCFBFF;" d="M719.044,174.288c3.686-8.776,5.769-18.392,5.88-28.482c0.458-41.289-32.758-75.739-74.038-76.713
			c-42.744-1.009-77.712,33.34-77.712,75.856c0,10.118,1.982,19.771,5.578,28.594c9.539,23.406,7.559,49.984-4.654,72.113
			c-6.608,11.973-10.388,25.725-10.438,40.358c-0.153,45.178,35.842,82.788,80.987,84.504c48.042,1.827,87.562-36.577,87.562-84.212
			c0-14.621-3.726-28.369-10.279-40.35C709.853,223.873,709.298,197.493,719.044,174.288z"/>
		<g>
			<path style="fill:#BCF0EB;" d="M708.474,449.168H587.396c-0.622,0-1.126,0.504-1.126,1.126s0.504,1.127,1.126,1.127h121.078
				c0.622,0,1.127-0.504,1.127-1.127S709.096,449.168,708.474,449.168z"/>
			<g>
				<polygon style="fill:#CC6164;" points="647.935,103.248 629.979,99.292 631.008,130.008 647.935,130.008 664.863,130.008 
					665.892,99.292 				"/>
				<path style="fill:#7DD3E9;" d="M680.723,178.369l7.058-42.035l-39.845-10.999l-39.845,10.999l7.058,42.035
					c2.404,14.319,0.333,29.031-5.93,42.13v0c-6.164,12.892-8.269,27.351-6.038,41.465l9.536,60.315h35.219h35.219l9.536-60.315
					c2.232-14.114,0.126-28.573-6.038-41.465v0C680.389,207.4,678.319,192.688,680.723,178.369z"/>
				<g>
					<path style="fill:#F2C9AD;" d="M641.018,121.149v6.095l5.257,8.26l1.66,18.209l1.661-18.209l5.257-8.26v-6.095
						c-2.112,1.136-4.449,1.785-6.918,1.785C645.467,122.934,643.13,122.286,641.018,121.149z"/>
					<path style="fill:#422C4F;" d="M641.018,114.909v6.24c2.112,1.136,4.449,1.785,6.918,1.785c2.468,0,4.805-0.648,6.918-1.785
						v-6.24H641.018z"/>
				</g>
				<g>
					<rect x="606.664" y="445.728" style="fill:#D4CFBE;" width="27.275" height="3.439"/>
					<g>
						<g>
							<path style="fill:#F2C9AD;" d="M628.712,435.072l-0.287,1.229c1.139-1.139,2.684-1.779,4.294-1.779h0.266l-0.469-5.514
								h-12.57l-2.967,3.736h9.885C628.086,432.743,628.99,433.882,628.712,435.072z"/>
							<path style="fill:#454F6B;" d="M632.72,434.522c-1.611,0-3.155,0.64-4.294,1.779l0.287-1.229
								c0.278-1.19-0.626-2.329-1.848-2.329h-9.885l-10.315,12.985h27.275l-0.954-11.206H632.72z"/>
						</g>
						<g>
							<polygon style="fill:#5FA5CC;" points="639.051,322.279 612.716,322.279 612.086,331.726 639.051,331.726 							"/>
							<path style="fill:#7DD3E9;" d="M612.086,331.726l-0.764,11.467c-0.909,13.63-0.802,27.308,0.318,40.921l3.694,44.893h23.717
								v-97.281H612.086z"/>
						</g>
					</g>
				</g>
				<g>
					<rect x="661.931" y="445.728" style="fill:#D4CFBE;" width="27.275" height="3.439"/>
					<g>
						<g>
							<path style="fill:#F2C9AD;" d="M667.159,435.072l0.287,1.229c-1.139-1.139-2.684-1.779-4.294-1.779h-0.266l0.469-5.514h12.57
								l2.967,3.736h-9.885C667.784,432.743,666.881,433.882,667.159,435.072z"/>
							<path style="fill:#454F6B;" d="M663.151,434.522c1.611,0,3.155,0.64,4.294,1.779l-0.287-1.229
								c-0.278-1.19,0.626-2.329,1.848-2.329h9.885l10.315,12.985h-27.275l0.954-11.206H663.151z"/>
						</g>
						<g>
							<polygon style="fill:#5FA5CC;" points="656.82,322.279 683.154,322.279 683.784,331.726 656.82,331.726 							"/>
							<path style="fill:#7DD3E9;" d="M683.784,331.726l0.764,11.467c0.909,13.63,0.802,27.308-0.318,40.921l-3.694,44.893H656.82
								v-97.281H683.784z"/>
						</g>
					</g>
				</g>
				<g>
					<path style="fill:#E4E4E0;" d="M637.025,128.346l-28.935,7.988l4.482,34.62c2.149,16.595,0.102,33.464-5.953,49.063l0,0
						c-4.482,11.547-6.781,23.827-6.781,36.213v52.411h39.213L637.025,128.346z"/>
					<path style="fill:#D4CFBE;" d="M605.277,285.914l-0.616-1.938l6.997,1.107l-0.78-8.717c-0.5-5.589-2.393-10.964-5.505-15.633
						l-0.598-35.523c-3.262,10.006-4.936,20.474-4.936,31.021v40.671l2.884-2.366C605.258,292.455,606.27,289.039,605.277,285.914z"
						/>
					<path style="fill:#D4CFBE;" d="M637.165,128.851l-10.601,9.088c-4.471,3.833-4.406,10.772,0.137,14.52l0.881,0.727l-5.18,6.292
						c-2.306,2.801-2.813,6.673-1.305,9.973l16.067,35.163V128.851z"/>
					<path style="fill:#E4E4E0;" d="M637.165,128.851l-9.345,10.27c-2.9,3.187-2.568,8.145,0.729,10.918l2.992,2.516l-6.387,8.216
						c-1.642,2.112-2.051,4.932-1.076,7.423l13.086,33.456V128.851z"/>
					<path style="fill:#D4CFBE;" d="M626.416,247.148l-8.396,3.931c-0.51,0.239-1.099,0.239-1.609,0l-8.396-3.931
						c-0.667-0.312-1.093-0.982-1.093-1.718v-5.003c0-1.048,0.849-1.897,1.897-1.897h16.792c1.048,0,1.897,0.849,1.897,1.897v5.003
						C627.509,246.166,627.083,246.836,626.416,247.148z"/>
				</g>
				<g>
					<path style="fill:#E4E4E0;" d="M608.09,136.334L608.09,136.334c-7.121,1.794-12.489,7.657-13.648,14.908l-7.169,44.828
						l-3.405,63.673h18.446l1.419-60.498l7.926-35.073L608.09,136.334z"/>
					<path style="fill:#F2C9AD;" d="M587.187,259.743l-1.516,12.527c-0.352,2.913,0.14,5.866,1.418,8.507l0,0
						c1.783,3.684,4.966,6.501,8.841,7.822l0.903,0.308l3.637,3.795l0,0c2.05-0.891,3.064-3.214,2.324-5.323l-1.849-5.271
						l-0.316-9.013l3.479,2.53l0.419,2.273c0.395,2.143,2.306,3.668,4.483,3.577l0,0l-0.774-6.422
						c-0.527-4.376-2.3-8.508-5.108-11.905l-2.814-3.405H587.187z"/>
					<polygon style="fill:#422C4F;" points="600.311,259.743 587.187,259.743 586.666,264.051 					"/>
					<path style="fill:#D4CFBE;" d="M611.657,164.172l-2.098-16.37l-0.92,6.661c-0.987,7.149-0.869,14.406,0.348,21.519l0,0
						L611.657,164.172z"/>
				</g>
				<g>
					<path style="fill:#E4E4E0;" d="M658.845,128.346l28.935,7.988l-4.482,34.62c-2.148,16.595-0.102,33.464,5.953,49.063l0,0
						c4.482,11.547,6.781,23.827,6.781,36.213v52.411H656.82L658.845,128.346z"/>
					<path style="fill:#D4CFBE;" d="M690.594,285.914l0.616-1.938l-6.997,1.107l0.78-8.717c0.5-5.589,2.393-10.964,5.505-15.633
						l0.598-35.523c3.262,10.006,4.936,20.474,4.936,31.021v40.671l-2.884-2.366C690.612,292.455,689.6,289.039,690.594,285.914z"/>
					<path style="fill:#D4CFBE;" d="M658.705,128.851l10.601,9.088c4.471,3.833,4.406,10.772-0.137,14.52l-0.881,0.727l5.18,6.292
						c2.306,2.801,2.813,6.673,1.305,9.973l-16.067,35.163V128.851z"/>
					<path style="fill:#E4E4E0;" d="M658.705,128.851l9.345,10.27c2.9,3.187,2.568,8.145-0.729,10.918l-2.992,2.516l6.387,8.216
						c1.642,2.112,2.051,4.932,1.076,7.423l-13.086,33.456V128.851z"/>
					<path style="fill:#D4CFBE;" d="M669.454,247.148l8.396,3.931c0.51,0.239,1.099,0.239,1.609,0l8.396-3.931
						c0.667-0.312,1.093-0.982,1.093-1.718v-5.003c0-1.048-0.849-1.897-1.897-1.897h-16.792c-1.048,0-1.897,0.849-1.897,1.897v5.003
						C668.362,246.166,668.788,246.836,669.454,247.148z"/>
				</g>
				<g>
					<path style="fill:#E4E4E0;" d="M687.781,136.334L687.781,136.334c7.121,1.794,12.489,7.657,13.648,14.908l7.169,44.828
						l3.405,63.673h-18.446l-1.419-60.498l-7.926-35.073L687.781,136.334z"/>
					<path style="fill:#F2C9AD;" d="M708.683,259.743l1.516,12.527c0.352,2.913-0.14,5.866-1.418,8.507l0,0
						c-1.783,3.684-4.967,6.501-8.841,7.822l-0.903,0.308l-3.637,3.795l0,0c-2.05-0.891-3.064-3.214-2.324-5.323l1.849-5.271
						l0.316-9.013l-3.479,2.53l-0.419,2.273c-0.395,2.143-2.306,3.668-4.483,3.577l0,0l0.774-6.422
						c0.527-4.376,2.3-8.508,5.108-11.905l2.815-3.405H708.683z"/>
					<polygon style="fill:#422C4F;" points="695.56,259.743 708.683,259.743 709.205,264.051 					"/>
					<path style="fill:#D4CFBE;" d="M684.214,164.172l2.098-16.37l0.92,6.661c0.987,7.149,0.869,14.406-0.349,21.519l0,0
						L684.214,164.172z"/>
				</g>
				<g>
					<g>
						<path style="fill:#EBA58E;" d="M632.045,100.363c0,3.646-2.956,6.601-6.601,6.601c-3.646,0-6.601-2.955-6.601-6.601
							c0-3.646,2.956-6.601,6.601-6.601C629.089,93.761,632.045,96.717,632.045,100.363z"/>
						<circle style="fill:#E78882;" cx="625.443" cy="100.363" r="3.399"/>
					</g>
					<g>
						<path style="fill:#EBA58E;" d="M663.826,100.363c0,3.646,2.956,6.601,6.601,6.601c3.646,0,6.601-2.955,6.601-6.601
							c0-3.646-2.956-6.601-6.601-6.601C666.782,93.761,663.826,96.717,663.826,100.363z"/>
						<path style="fill:#E78882;" d="M667.028,100.363c0,1.877,1.522,3.399,3.4,3.399c1.877,0,3.4-1.522,3.4-3.399
							c0-1.878-1.522-3.4-3.4-3.4C668.55,96.963,667.028,98.485,667.028,100.363z"/>
					</g>
					<path style="fill:#F2C9AD;" d="M647.935,64.097c-11.078,0-20.059,8.981-20.059,20.059v14.41
						c0,11.078,8.981,20.059,20.059,20.059s20.059-8.981,20.059-20.059v-14.41C667.994,73.077,659.014,64.097,647.935,64.097z"/>
					<circle style="fill:#495375;" cx="638.876" cy="91.911" r="1.85"/>
					<path style="fill:#495375;" d="M655.145,91.911c0,1.022,0.828,1.85,1.85,1.85c1.022,0,1.85-0.828,1.85-1.85
						c0-1.022-0.828-1.85-1.85-1.85C655.973,90.061,655.145,90.889,655.145,91.911z"/>
					<g>
						<path style="fill:#EBA25D;" d="M638.876,84.242c-2.195,0-4.141,1.051-5.376,2.673h10.752
							C643.016,85.294,641.071,84.242,638.876,84.242z"/>
					</g>
					<g>
						<path style="fill:#EBA25D;" d="M656.995,84.242c2.195,0,4.141,1.051,5.376,2.673h-10.752
							C652.854,85.294,654.8,84.242,656.995,84.242z"/>
					</g>
					<path style="fill:#EBA58E;" d="M645.138,101.291c0.582,1.171,1.612,1.957,2.797,1.957c1.185,0,2.215-0.786,2.797-1.957H645.138
						z"/>
					<path style="fill:#FFFFFF;" d="M639.634,107.193c1.727,3.474,4.786,5.807,8.301,5.807s6.574-2.333,8.301-5.807H639.634z"/>
					<g>
						<path style="fill:#EBA25D;" d="M647.935,56.288v14.529h-2.851c-4.721,0-8.904,3.042-10.358,7.534l-0.588,1.817
							c-0.422,1.303-1.086,2.514-1.957,3.571l0,0c-1.687,2.047-2.569,4.639-2.48,7.289l1.307,38.979l-12.166,3.358V82.03
							c0-12.803,8.941-23.867,21.459-26.555h0C642.867,54.924,645.542,55.209,647.935,56.288L647.935,56.288z"/>
						<path style="fill:#EBA25D;" d="M647.935,56.288v14.529h2.851c4.721,0,8.904,3.042,10.358,7.534l0.588,1.817
							c0.422,1.303,1.086,2.514,1.957,3.571l0,0c1.687,2.047,2.569,4.639,2.48,7.289l-1.306,38.979l12.166,3.358V82.03
							c0-12.803-8.941-23.867-21.459-26.555l0,0C653.003,54.924,650.328,55.209,647.935,56.288L647.935,56.288z"/>
						<path style="fill:#CC6164;" d="M647.935,56.288v14.529l1.118-1.552C651.939,65.258,651.464,59.743,647.935,56.288
							L647.935,56.288z"/>
					</g>
				</g>
			</g>
		</g>
	</g>
</g>
</svg>
