<?xml version="1.0" encoding="utf-8"?>
<!-- Generator: Adobe Illustrator 27.5.0, SVG Export Plug-In . SVG Version: 6.00 Build 0)  -->
<svg version="1.1" xmlns="http://www.w3.org/2000/svg" xmlns:xlink="http://www.w3.org/1999/xlink" x="0px" y="0px"
	 viewBox="0 0 500 500" style="enable-background:new 0 0 500 500;" xml:space="preserve">
<g id="BACKGROUND">
	<rect style="fill:#1D262D;" width="500" height="500"/>
</g>
<g id="OBJECTS">
	
		<linearGradient id="SVGID_1_" gradientUnits="userSpaceOnUse" x1="181.3319" y1="370.529" x2="243.0526" y2="459.9447" gradientTransform="matrix(-0.9939 0.1107 -0.1107 -0.9939 533.239 752.1)">
		<stop  offset="0" style="stop-color:#E84C88"/>
		<stop  offset="1" style="stop-color:#BF3A6C"/>
	</linearGradient>
	<path style="fill:url(#SVGID_1_);" d="M301.282,383.505c-1.195-0.44-2.548-0.197-3.711,0.321c-1.479,0.658-2.778,1.782-3.485,3.238
		c-0.706,1.456-0.768,3.25-0.006,4.678c0.761,1.428,2.384,2.4,3.994,2.235c1.806-0.185,3.241-1.668,4.033-3.302
		C303.129,388.567,304.212,384.583,301.282,383.505z"/>
	<rect x="112.413" y="24.121" style="fill:none;" width="275.173" height="14.28"/>
	<text transform="matrix(1 0 0 1 169.1113 35.5215)" style="fill:#ACB7C6; font-family:'OpenSans-Bold'; font-size:15px;">Social media logos</text>
	<g>
		
			<linearGradient id="SVGID_00000080179708079662659850000004047156837314953360_" gradientUnits="userSpaceOnUse" x1="143.7135" y1="460.8096" x2="78.0333" y2="332.6143">
			<stop  offset="0" style="stop-color:#FFFB00"/>
			<stop  offset="1" style="stop-color:#FFBC36"/>
		</linearGradient>
		<path style="opacity:0.3;fill:url(#SVGID_00000080179708079662659850000004047156837314953360_);" d="M167.506,347.643
			c-6.27-6.834-16.286-9.508-25.13-6.788c-6.846-8.418-18.508-13.296-31.193-12.41c-7.225,0.507-13.714,2.552-19.44,4.355
			c-2.787,0.878-5.42,1.708-7.914,2.298c-1.127,0.267-2.279,0.505-3.437,0.747c-6.904,1.441-16.36,3.415-23.577,10.916
			c-6.442,6.697-8.277,14.676-9.751,21.087c-0.494,2.147-0.96,4.177-1.519,5.743c-0.668,1.874-1.833,4.06-3.067,6.373
			c-2.415,4.528-5.152,9.66-6.379,16.099c-3.093,16.234,6.024,33.398,21.21,39.926c5.533,2.377,10.83,3.063,15.504,3.667
			c2.348,0.303,4.565,0.59,6.313,1.053c2.646,0.701,5.689,2.198,8.912,3.783c5.321,2.616,11.352,5.582,18.683,6.693
			c2.048,0.31,4.137,0.467,6.278,0.467c4.771,0,9.803-0.773,15.226-2.332c16.262-4.672,29.151-14.334,36.292-27.208
			c6.741-12.153,7.468-26.594,2.602-38.507c1.84-1.726,3.809-3.967,5.275-6.948c1.635-3.325,3.23-8.856,1.537-16.321
			C172.794,355.321,170.632,351.051,167.506,347.643z"/>
		
			<linearGradient id="SVGID_00000079484925197702246930000008249903398686667191_" gradientUnits="userSpaceOnUse" x1="131.3175" y1="329.1608" x2="176.4232" y2="418.5809">
			<stop  offset="0" style="stop-color:#FFFB00"/>
			<stop  offset="1" style="stop-color:#FFBC36"/>
		</linearGradient>
		<path style="fill:url(#SVGID_00000079484925197702246930000008249903398686667191_);" d="M140.503,370.218
			c1.723,2.174,4.313,3.442,6.802,4.666c1.462,0.719,3.021,1.465,4.641,1.299c1.581-0.162,2.935-1.166,4.154-2.185
			c1.283-1.072,2.545-2.241,3.283-3.741c1.009-2.052,0.912-4.485,0.407-6.716c-0.505-2.229-1.423-4.411-2.968-6.096
			c-2.567-2.798-6.836-3.89-10.431-2.668C140.931,356.634,136.548,365.228,140.503,370.218z"/>
		
			<linearGradient id="SVGID_00000075158428196379466390000010783141977368539525_" gradientUnits="userSpaceOnUse" x1="80.0417" y1="355.0255" x2="125.1472" y2="444.4453">
			<stop  offset="0" style="stop-color:#FFFB00"/>
			<stop  offset="1" style="stop-color:#FFBC36"/>
		</linearGradient>
		<path style="fill:url(#SVGID_00000075158428196379466390000010783141977368539525_);" d="M133.457,354.129
			c-2.821-8.146-12.661-11.82-21.26-11.218c-8.6,0.602-16.641,4.314-25.03,6.298c-7.023,1.661-14.899,2.405-19.902,7.606
			c-5.398,5.611-5.448,14.308-8.061,21.643c-2.487,6.982-7.474,13.038-8.861,20.319c-1.824,9.572,3.739,20.043,12.691,23.89
			c6.207,2.668,13.278,2.296,19.808,4.027c9.039,2.396,16.807,8.755,26.052,10.156c5.114,0.775,10.356-0.038,15.328-1.466
			c11.27-3.237,21.927-10.051,27.615-20.305c5.688-10.254,5.411-24.147-2.406-32.887c-3.566-3.987-10.08-6.307-13.016-10.455
			C133.062,367,135.306,359.467,133.457,354.129z"/>
		<path style="fill:#F9FBFC;" d="M79.41,403.897c0-0.264,0-0.528,0-0.792c0.325-0.377,0.668-0.697,1.195-0.801
			c4.161-0.824,6.944-3.477,9.043-6.96c1.765-2.928,1.482-3.598-1.771-4.749c-0.186-0.066-0.378-0.12-0.56-0.195
			c-0.703-0.289-1.398-0.597-1.979-1.102c-1.457-1.266-0.595-3.09,1.122-3.504c1.256-0.302,2.349,0.505,3.568,0.657
			c0.814,0.101,1.14-0.173,1.04-1.04c-0.258-2.234-0.251-4.48-0.146-6.723c0.2-4.277,2.304-7.535,5.867-9.647
			c5.203-3.083,10.641-3.122,15.881-0.048c3.271,1.919,5.382,4.824,5.84,8.717c0.298,2.534,0.18,5.072-0.02,7.609
			c-0.087,1.101,0.138,1.304,1.228,1.049c1.352-0.317,2.486-1.014,3.891-0.396c0.752,0.33,1.408,1.041,1.387,1.862
			c-0.014,0.562-0.342,1.08-0.766,1.449c-0.65,0.565-1.496,0.879-2.284,1.199c-0.611,0.247-1.246,0.44-1.842,0.719
			c-1.229,0.576-1.582,1.336-1.007,2.552c1.99,4.208,4.916,7.403,9.647,8.512c0.577,0.135,1.04,0.371,1.39,0.839
			c0,0.264,0,0.528,0,0.792c-0.448,0.923-1.251,1.431-2.161,1.776c-0.924,0.35-1.854,0.742-2.848,0.806
			c-1.371,0.088-2.093,0.686-2.302,2.114c-0.199,1.358-0.608,1.551-1.993,1.439c-0.328-0.026-0.654-0.087-0.978-0.145
			c-2.712-0.482-5.257-0.207-7.488,1.594c-0.435,0.352-0.918,0.645-1.389,0.95c-3.799,2.465-7.69,2.747-11.659,0.433
			c-1.082-0.631-2.107-1.358-3.157-2.044c-0.869-0.568-1.802-0.885-2.845-1.043c-1.645-0.249-3.221,0.12-4.821,0.296
			c-0.823,0.091-1.618-0.144-1.664-0.995c-0.112-2.051-1.369-2.552-3.093-2.742c-0.803-0.088-1.597-0.415-2.354-0.731
			C80.556,405.261,79.804,404.77,79.41,403.897z"/>
	</g>
	<g>
		
			<linearGradient id="SVGID_00000052805263635365427470000017432584480840443063_" gradientUnits="userSpaceOnUse" x1="264.5934" y1="448.397" x2="202.8731" y2="329.704" gradientTransform="matrix(-0.9939 0.1107 -0.1107 -0.9939 533.239 752.1)">
			<stop  offset="0" style="stop-color:#E84C88"/>
			<stop  offset="1" style="stop-color:#BF3A6C"/>
		</linearGradient>
		<path style="opacity:0.3;fill:url(#SVGID_00000052805263635365427470000017432584480840443063_);" d="M225.083,445.913
			c18.405,8.849,37.966,8.636,52.321-0.574c16.246-10.42,25.431-23.278,27.392-38.286c4.392-1.844,8.09-5.367,10.362-10.057
			c1.673-3.455,4.054-10.307,1.203-17.373c-1.086-2.691-2.79-4.983-4.95-6.773c0.215-0.93,0.431-1.86,0.614-2.795
			c0.788-4.009,1.442-9.337-0.505-14.993c-2.05-5.958-6.141-9.763-8.586-12.038c-4.574-4.254-13.018-12.101-24.116-14.128
			c-1.25-2.182-2.969-4.145-5.122-5.721c-3.34-2.443-7.278-3.741-12.035-3.965c-2.28-0.109-4.452,0.014-6.478,0.24
			c-2.187,0.243-4.2,0.606-5.989,0.929l-14.53,2.626c-1.488,0.269-4.258,0.769-7.211,2.443c-4.502,2.55-7.775,6.982-8.98,12.159
			c-0.403,1.732-0.545,3.492-0.488,5.237c-6.037,2.692-10.859,6.341-14.559,11.006c-7.831,9.872-8.665,21.919-9.218,29.89
			c-0.533,7.69-1.264,18.222,1.719,28.609C200.005,426.548,210.904,439.094,225.083,445.913z"/>
		
			<linearGradient id="SVGID_00000011712708847433202340000017791225223273494178_" gradientUnits="userSpaceOnUse" x1="185.8421" y1="367.412" x2="247.565" y2="456.831" gradientTransform="matrix(-0.9939 0.1107 -0.1107 -0.9939 533.239 752.1)">
			<stop  offset="0" style="stop-color:#E84C88"/>
			<stop  offset="1" style="stop-color:#BF3A6C"/>
		</linearGradient>
		<path style="fill:url(#SVGID_00000011712708847433202340000017791225223273494178_);" d="M261.212,341.449
			c1.991-0.547,4.505-0.816,5.283-2.729c0.551-1.356-0.178-2.978-1.359-3.842c-1.181-0.864-2.7-1.116-4.162-1.185
			c-3.087-0.146-6.159,0.406-9.2,0.955c-4.844,0.875-9.689,1.751-14.533,2.626c-0.909,0.164-1.838,0.336-2.642,0.791
			c-2.37,1.342-2.769,4.912-1.236,7.163c1.534,2.25,4.431,3.252,7.154,3.199C248.568,348.27,253.908,343.456,261.212,341.449z"/>
		
			<linearGradient id="SVGID_00000030474684690145786270000012838440021306437506_" gradientUnits="userSpaceOnUse" x1="207.8581" y1="352.2202" x2="269.5788" y2="441.636" gradientTransform="matrix(-0.9939 0.1107 -0.1107 -0.9939 533.239 752.1)">
			<stop  offset="0" style="stop-color:#E84C88"/>
			<stop  offset="1" style="stop-color:#BF3A6C"/>
		</linearGradient>
		<path style="fill:url(#SVGID_00000030474684690145786270000012838440021306437506_);" d="M290.7,400.77
			c-0.007-3.476-0.537-6.97-0.061-10.413c0.513-3.709,2.163-7.145,3.527-10.632c1.579-4.036,2.796-8.213,3.63-12.465
			c0.486-2.476,0.834-5.094,0.013-7.48c-0.851-2.473-2.835-4.358-4.751-6.139c-6.142-5.712-13.556-11.845-21.845-10.563
			c-4.151,0.642-7.759,3.095-11.611,4.771c-7.376,3.21-15.619,3.555-23.56,4.834c-7.941,1.279-16.258,3.876-21.256,10.178
			c-4.783,6.029-5.581,14.205-6.113,21.883c-0.548,7.901-0.996,15.99,1.19,23.603c3.089,10.759,11.413,19.647,21.501,24.497
			c11.797,5.672,26.908,7.539,38.209,0.29C281.257,425.641,290.73,415.569,290.7,400.77z"/>
		<path style="fill-rule:evenodd;clip-rule:evenodd;fill:#F9FBFC;" d="M277.061,386.018c-0.362-1.774-0.906-3.523-1.611-5.192
			c-0.692-1.639-1.549-3.217-2.547-4.692c-0.988-1.462-2.123-2.837-3.371-4.085c-1.249-1.251-2.624-2.385-4.087-3.372
			c-1.475-1-3.056-1.855-4.692-2.549c-1.669-0.703-3.416-1.248-5.191-1.608c-1.819-0.373-3.691-0.563-5.561-0.563
			c-1.873,0-3.744,0.19-5.564,0.563c-1.774,0.36-3.521,0.906-5.19,1.608c-1.637,0.694-3.217,1.55-4.693,2.549
			c-1.462,0.987-2.837,2.121-4.087,3.372c-1.248,1.248-2.382,2.623-3.37,4.085c-0.997,1.475-1.855,3.053-2.547,4.692
			c-0.706,1.67-1.248,3.418-1.612,5.192c-0.372,1.816-0.561,3.688-0.561,5.559c0,1.875,0.189,3.747,0.561,5.565
			c0.363,1.774,0.906,3.523,1.612,5.19c0.692,1.637,1.55,3.219,2.547,4.695c0.988,1.462,2.122,2.835,3.37,4.085
			c1.249,1.248,2.624,2.381,4.087,3.37c1.477,0.997,3.056,1.855,4.693,2.547c1.669,0.707,3.415,1.246,5.19,1.611
			c1.82,0.375,3.692,0.563,5.564,0.563c1.87,0,3.742-0.188,5.561-0.563c1.775-0.365,3.522-0.904,5.191-1.611
			c1.637-0.692,3.217-1.55,4.692-2.547c1.462-0.989,2.837-2.121,4.087-3.37c1.248-1.25,2.383-2.623,3.371-4.085
			c0.997-1.475,1.855-3.058,2.547-4.695c0.705-1.667,1.248-3.415,1.611-5.19c0.373-1.818,0.562-3.691,0.562-5.565
			C277.623,389.707,277.434,387.834,277.061,386.018z M273.583,391.344c-0.341-0.074-8.325-1.792-16.431-0.773
			c-0.166-0.404-0.334-0.81-0.509-1.218c-0.491-1.155-1.019-2.298-1.568-3.422c9.316-3.802,13.098-9.271,13.143-9.337
			C271.527,380.612,273.528,385.746,273.583,391.344z M265.581,373.875c-0.058,0.092-3.418,5.205-12.322,8.542
			c-4.032-7.41-8.463-13.296-8.817-13.763c1.783-0.432,3.643-0.666,5.56-0.666C255.973,367.989,261.424,370.215,265.581,373.875z
			 M244.351,368.674c-0.001,0.002-0.004,0.004-0.004,0.004s-0.027,0.007-0.071,0.015
			C244.299,368.687,244.326,368.683,244.351,368.674z M239.935,370.243c0.313,0.421,4.676,6.336,8.76,13.593
			c-11.327,3.01-21.157,2.892-21.78,2.881C228.448,379.41,233.356,373.351,239.935,370.243z M226.411,391.577
			c0-0.251,0.011-0.498,0.02-0.744c0.416,0.009,12.072,0.273,24.218-3.361c0.677,1.323,1.323,2.667,1.914,4.009
			c-0.312,0.087-0.621,0.181-0.93,0.281c-12.731,4.114-19.187,15.57-19.187,15.57s0.008,0.007,0.009,0.011
			C228.698,403.164,226.411,397.638,226.411,391.577z M250.001,415.17c-5.71,0-10.946-2.03-15.027-5.406
			c0.311,0.251,0.528,0.413,0.528,0.413s4.522-9.863,18.513-14.736c0.051-0.02,0.104-0.035,0.156-0.05
			c3.319,8.625,4.69,15.849,5.039,17.912C256.38,414.504,253.267,415.17,250.001,415.17z M263.182,411.145
			c-0.24-1.425-1.497-8.348-4.592-16.851c7.616-1.218,14.215,0.871,14.701,1.03C272.242,401.898,268.479,407.568,263.182,411.145z"
			/>
	</g>
	<g>
		
			<linearGradient id="SVGID_00000086690994947942118960000002519992915064793007_" gradientUnits="userSpaceOnUse" x1="436.9051" y1="457.79" x2="364.1028" y2="345.4213">
			<stop  offset="0" style="stop-color:#007DF8"/>
			<stop  offset="1" style="stop-color:#003FD1"/>
		</linearGradient>
		<path style="opacity:0.3;fill:url(#SVGID_00000086690994947942118960000002519992915064793007_);" d="M464.41,358.728
			c-5.9-8.872-15.316-13.763-24.587-12.756c-1.089,0.118-2.162,0.327-3.217,0.605c-4.015-6.648-9.953-12.133-17.082-15.381
			c-12.436-5.668-27.638-4.169-38.727,3.817c-2.441,1.757-4.54,3.556-6.393,5.143c-2.691,2.307-4.817,4.128-7.032,5.069
			c-7.693,3.271-15.755,7.237-22.59,14.05l0,0.001c-9.76,9.728-14.141,23.187-11.433,35.123c0.506,2.231,1.205,4.221,1.767,5.819
			c0.131,0.373,0.282,0.802,0.42,1.21c-0.346,0.402-0.723,0.827-1.03,1.172c-0.511,0.574-1.02,1.148-1.511,1.725
			c-6.894,8.098-8.895,17.396-5.491,25.51c1.765,4.207,4.783,7.673,9.23,10.597c8.6,5.652,19.284,7.577,29.311,5.281
			c2.982-0.683,5.557-1.646,7.828-2.496c1.802-0.674,3.665-1.371,4.692-1.483c2.267-0.242,6.369,1.756,10.338,3.69
			c3.072,1.496,6.554,3.192,10.358,4.491c5.616,1.917,11.732,2.876,18.292,2.876c5.017,0,10.295-0.562,15.805-1.685
			c4.004-0.817,8.663-2.152,12.851-5.848c3.195-2.816,4.964-5.983,6.4-8.988c2.548-5.331,6.037-13.501,6.912-22.849
			c0.477-5.096,0.112-10.074-1.031-14.721c0.681-0.445,1.349-0.916,1.987-1.435c5.929-4.817,9.506-12.471,9.571-20.474
			C470.099,370.599,468.149,364.352,464.41,358.728z"/>
		
			<linearGradient id="SVGID_00000057139696381326981860000011454929184234162051_" gradientUnits="userSpaceOnUse" x1="401.0137" y1="316.8238" x2="474.6071" y2="415.7399">
			<stop  offset="0" style="stop-color:#007DF8"/>
			<stop  offset="1" style="stop-color:#003FD1"/>
		</linearGradient>
		<path style="fill:url(#SVGID_00000057139696381326981860000011454929184234162051_);" d="M431.803,376.576
			c1.227,2.994,3.58,5.359,5.876,7.639c1.144,1.136,2.31,2.289,3.738,3.038c3.124,1.639,7.18,0.989,9.918-1.237
			c2.738-2.225,4.187-5.81,4.215-9.338c0.028-3.528-1.261-6.983-3.214-9.921c-2.46-3.699-6.531-6.848-10.947-6.369
			C434.974,361.084,429.432,370.789,431.803,376.576z"/>
		
			<linearGradient id="SVGID_00000003098625809005675410000011486224780265341615_" gradientUnits="userSpaceOnUse" x1="354.4643" y1="351.4566" x2="428.0577" y2="450.3727">
			<stop  offset="0" style="stop-color:#007DF8"/>
			<stop  offset="1" style="stop-color:#003FD1"/>
		</linearGradient>
		<path style="fill:url(#SVGID_00000003098625809005675410000011486224780265341615_);" d="M355.018,369.548
			c-5.65,5.631-9.293,13.869-7.528,21.648c0.99,4.364,3.607,8.587,2.797,12.988c-0.698,3.79-3.753,6.61-6.251,9.544
			c-2.498,2.934-4.651,6.946-3.16,10.5c0.733,1.747,2.241,3.049,3.824,4.089c5.268,3.463,11.966,4.67,18.111,3.263
			c4.827-1.105,9.274-3.728,14.197-4.26c9.515-1.029,17.881,5.782,26.939,8.873c8.467,2.89,17.747,2.495,26.513,0.707
			c2.2-0.449,4.479-1.031,6.163-2.516c1.32-1.164,2.148-2.776,2.907-4.365c2.715-5.68,4.971-11.679,5.557-17.947
			c0.587-6.268-0.626-12.87-4.322-17.967c-3.712-5.121-9.766-8.616-11.997-14.534c-1.815-4.816-0.68-10.191-1.151-15.317
			c-0.779-8.471-6.363-16.336-14.104-19.863c-7.741-3.527-17.34-2.581-24.244,2.39c-5.648,4.067-9.706,9.019-16.222,11.79
			C366.491,361.358,360.137,364.445,355.018,369.548z"/>
		<path style="fill:#F9FBFC;" d="M375.664,382.301h9.008v28.936h-9.008V382.301z M380.169,367.922c2.881,0,5.215,2.337,5.215,5.211
			c0,2.879-2.334,5.219-5.215,5.219c-2.888,0-5.222-2.341-5.222-5.219C374.947,370.258,377.281,367.922,380.169,367.922"/>
		<path style="fill:#F9FBFC;" d="M390.315,382.301h8.628v3.958h0.118c1.203-2.277,4.137-4.674,8.517-4.674
			c9.106,0,10.786,5.989,10.786,13.782v15.871h-8.988v-14.068c0-3.359-0.065-7.674-4.675-7.674c-4.682,0-5.396,3.655-5.396,7.428
			v14.313h-8.99V382.301z"/>
	</g>
	<g>
		
			<linearGradient id="SVGID_00000018224216742360486770000003310322698550476932_" gradientUnits="userSpaceOnUse" x1="138.9904" y1="175.2328" x2="63.023" y2="57.3251">
			<stop  offset="0" style="stop-color:#245A9C"/>
			<stop  offset="1" style="stop-color:#2B1882"/>
		</linearGradient>
		<path style="opacity:0.3;fill:url(#SVGID_00000018224216742360486770000003310322698550476932_);" d="M69.383,159.381
			c1.772,0.133,3.373,0.104,4.661,0.081c0.73-0.013,1.731-0.03,2.069,0.012c1.056,0.137,3.923,2.144,5.821,3.472
			c2.563,1.795,5.469,3.829,8.946,5.515c5.501,2.668,11.646,3.981,17.97,3.98c8.989,0,18.336-2.655,26.686-7.847
			c21.677-13.479,32.626-41.16,26.034-65.819c-6.592-24.661-29.893-43.186-55.404-44.051c-16.046-0.55-24.833,7.274-31.929,15.805
			c-3.067,3.688-6.931,6.659-11.405,10.101c-2.967,2.282-6.036,4.643-9.161,7.437l0-0.001
			c-11.461,10.247-17.553,24.56-16.296,38.286C38.959,143.653,53.018,158.161,69.383,159.381z"/>
		
			<linearGradient id="SVGID_00000093156114543525009540000016788346872532328380_" gradientUnits="userSpaceOnUse" x1="79.9673" y1="78.9993" x2="125.9671" y2="161.6658">
			<stop  offset="0" style="stop-color:#245A9C"/>
			<stop  offset="1" style="stop-color:#2B1882"/>
		</linearGradient>
		<path style="fill:url(#SVGID_00000093156114543525009540000016788346872532328380_);" d="M63.336,98.876
			c-7.367,6.587-12.423,16.313-11.522,26.155c0.901,9.841,8.791,19.156,18.646,19.891c2.499,0.186,5.025-0.148,7.51,0.173
			c7.278,0.94,12.634,7.118,19.236,10.32c9.653,4.681,21.561,2.531,30.672-3.133c16.226-10.089,24.617-31.302,19.683-49.761
			c-4.934-18.459-22.791-32.656-41.887-33.303c-9.725-0.329-14.628,3.779-20.29,10.586C78.924,87.57,70.785,92.215,63.336,98.876z"
			/>
		<path style="fill-rule:evenodd;clip-rule:evenodd;fill:#F9FBFC;" d="M99.043,111.51v21.324c0,0.307,0.248,0.555,0.555,0.555h7.919
			c0.307,0,0.555-0.249,0.555-0.555v-21.671h5.741c0.289,0,0.529-0.221,0.553-0.509l0.552-6.53c0.027-0.324-0.228-0.602-0.553-0.602
			h-6.293v-4.632c0-1.086,0.88-1.966,1.966-1.966h4.424c0.307,0,0.555-0.249,0.555-0.555v-6.53c0-0.307-0.249-0.555-0.555-0.555
			h-7.476c-4.387,0-7.943,3.556-7.943,7.944v6.295h-3.96c-0.307,0-0.555,0.249-0.555,0.556v6.53c0,0.307,0.249,0.555,0.555,0.555
			h3.96V111.51z"/>
	</g>
	<g>
		
			<linearGradient id="SVGID_00000179611148332188065630000017560814198177429933_" gradientUnits="userSpaceOnUse" x1="282.8274" y1="178.9091" x2="206.0689" y2="45.9664">
			<stop  offset="0" style="stop-color:#FFE286"/>
			<stop  offset="0.2095" style="stop-color:#FFBC36"/>
			<stop  offset="0.3776" style="stop-color:#FF5176"/>
			<stop  offset="0.5282" style="stop-color:#F73396"/>
			<stop  offset="0.741" style="stop-color:#A536D3"/>
			<stop  offset="1" style="stop-color:#5A4BDB"/>
		</linearGradient>
		<path style="opacity:0.3;fill:url(#SVGID_00000179611148332188065630000017560814198177429933_);" d="M189.086,133.253
			c0.338,0.229,0.684,0.438,1.031,0.643c0.319,12.082,6.355,24.172,16.719,31.381c6.839,4.757,15.129,7.169,23.726,7.169
			c6.82,0,13.835-1.519,20.469-4.588c2.146-0.994,4.14-2.085,5.899-3.047c2.443-1.337,4.752-2.6,6.429-3.027
			c1.704-0.433,4.359-0.469,7.169-0.506c7.436-0.099,17.619-0.235,26.227-8.048c3.637-3.301,6.507-7.655,8.775-13.314
			c7.223-18.023,5.136-39.558-5.448-56.201c-10.271-16.152-27.635-26.521-46.448-27.737c-18.546-1.194-31.575,9.212-42.037,17.578
			c-1.269,1.014-2.544,2.035-3.835,3.041c-3.631,2.829-10.048,7.847-12.816,16.19c-4.928,1.362-9.216,4.817-12.039,9.891
			c-2.564,4.608-3.547,10.151-2.767,15.613C181.05,124.644,184.227,129.957,189.086,133.253z"/>
		
			<linearGradient id="SVGID_00000008143318000369069790000001731587060645041562_" gradientUnits="userSpaceOnUse" x1="184.8895" y1="98.6233" x2="276.2227" y2="195.2898">
			<stop  offset="0" style="stop-color:#FFE286"/>
			<stop  offset="0.2095" style="stop-color:#FFBC36"/>
			<stop  offset="0.3776" style="stop-color:#FF5176"/>
			<stop  offset="0.5282" style="stop-color:#F73396"/>
			<stop  offset="0.741" style="stop-color:#A536D3"/>
			<stop  offset="1" style="stop-color:#5A4BDB"/>
		</linearGradient>
		<path style="fill:url(#SVGID_00000008143318000369069790000001731587060645041562_);" d="M205.534,111.752
			c1.12,2.593,0.996,5.816-0.749,8.037c-1.746,2.221-5.222,3.049-7.56,1.464c-1.623-1.101-2.452-3.076-2.729-5.017
			c-0.317-2.216-0.004-4.552,1.084-6.508C198.692,104.132,203.448,106.923,205.534,111.752z"/>
		
			<linearGradient id="SVGID_00000164497002901538610380000017061508955001505207_" gradientUnits="userSpaceOnUse" x1="208.3194" y1="76.4861" x2="299.6529" y2="173.153">
			<stop  offset="0" style="stop-color:#FFE286"/>
			<stop  offset="0.2095" style="stop-color:#FFBC36"/>
			<stop  offset="0.3776" style="stop-color:#FF5176"/>
			<stop  offset="0.5282" style="stop-color:#F73396"/>
			<stop  offset="0.741" style="stop-color:#A536D3"/>
			<stop  offset="1" style="stop-color:#5A4BDB"/>
		</linearGradient>
		<path style="fill:url(#SVGID_00000164497002901538610380000017061508955001505207_);" d="M216.673,88.035
			c-3.57,2.781-7.404,5.984-8.33,10.654c-1.183,5.965,2.869,12.126,1.51,18.047c-0.606,2.64-2.219,4.848-3.353,7.273
			c-4.697,10.042-0.108,23.297,8.616,29.365s20.297,5.734,29.825,1.324c4.97-2.3,9.587-5.631,14.845-6.968
			c9.13-2.321,20.024,1.297,27.225-5.238c2.3-2.087,3.863-4.984,5.06-7.971c5.534-13.808,3.653-30.639-4.224-43.026
			c-7.877-12.387-21.331-20.155-35.148-21.048C237.999,69.497,227.924,79.271,216.673,88.035z"/>
		<path style="fill:#F9FBFC;" d="M261.721,98.105c-1.434,0-2.595,1.162-2.595,2.595c0,1.433,1.162,2.595,2.595,2.595
			c1.433,0,2.595-1.162,2.595-2.595C264.316,99.267,263.154,98.105,261.721,98.105z"/>
		<path style="fill:#F9FBFC;" d="M250.182,101.433c-6.012,0-10.903,4.891-10.903,10.903c0,6.012,4.891,10.903,10.903,10.903
			c6.012,0,10.903-4.891,10.903-10.903C261.085,106.324,256.194,101.433,250.182,101.433z M250.182,119.32
			c-3.851,0-6.984-3.133-6.984-6.984c0-3.851,3.133-6.984,6.984-6.984c3.851,0,6.984,3.133,6.984,6.984
			C257.166,116.187,254.033,119.32,250.182,119.32z"/>
		<path style="fill:#F9FBFC;" d="M258.837,134.472h-17.675c-7.333,0-13.298-5.965-13.298-13.298v-17.676
			c0-7.333,5.965-13.298,13.298-13.298h17.675c7.332,0,13.298,5.965,13.298,13.298v17.676
			C272.136,128.507,266.17,134.472,258.837,134.472z M241.162,94.365c-5.036,0-9.133,4.097-9.133,9.133v17.676
			c0,5.036,4.097,9.133,9.133,9.133h17.675c5.036,0,9.134-4.097,9.134-9.133v-17.676c0-5.036-4.097-9.133-9.134-9.133H241.162z"/>
	</g>
	<g>
		
			<linearGradient id="SVGID_00000066476507239108411620000015602768467581119658_" gradientUnits="userSpaceOnUse" x1="440.9331" y1="163.8588" x2="355.4699" y2="50.699">
			<stop  offset="0.0011" style="stop-color:#0056FF"/>
			<stop  offset="1" style="stop-color:#003DA0"/>
		</linearGradient>
		<path style="opacity:0.3;fill:url(#SVGID_00000066476507239108411620000015602768467581119658_);" d="M362.929,159.416
			c9.394,5.507,20.295,8.298,31.662,8.297c8.102,0,16.441-1.418,24.635-4.281c10.538-3.683,17.939-9.08,22.625-16.499
			c4.72-7.474,5.71-15.595,6.506-22.121c0.361-2.96,0.702-5.756,1.313-7.952c0.529-1.9,1.477-4.09,2.48-6.41
			c0.579-1.338,1.157-2.678,1.699-4.032c1.798-4.49,4.116-11.353,3.496-19.09c-0.81-10.101-6.523-18.686-14.912-22.404
			c-1.035-0.459-2.043-0.817-3.025-1.103c-3.063-10.048-12.781-17.242-23.27-16.944c-3.168,0.091-5.727,0.799-7.595,1.315
			c-0.392,0.108-0.914,0.253-1.123,0.303c-0.489-0.002-1.598-0.133-2.423-0.23c-4.432-0.52-12.68-1.492-20.335,4.099
			c-2.569,1.876-4.601,4.19-6.051,6.788c-8.415-0.971-17.362,2.01-24.386,8.25c-6.231,5.536-9.934,12.4-12.463,17.763
			c-3.406,7.222-5.384,13.485-6.225,19.711C332.701,125.872,343.966,148.299,362.929,159.416z"/>
		
			<linearGradient id="SVGID_00000034078289672767419120000012152326323999779764_" gradientUnits="userSpaceOnUse" x1="394.8611" y1="43.563" x2="455.7918" y2="154.3461" gradientTransform="matrix(0.9352 0.3541 -0.3541 0.9352 50.259 -140.3159)">
			<stop  offset="0.0011" style="stop-color:#0056FF"/>
			<stop  offset="1" style="stop-color:#003DA0"/>
		</linearGradient>
		<path style="fill:url(#SVGID_00000034078289672767419120000012152326323999779764_);" d="M421.069,79.446
			c3.564-2.226,5.582-6.775,4.628-10.867c-0.955-4.092-4.943-7.328-9.143-7.207c-2.479,0.071-4.812,1.18-7.271,1.51
			c-5.33,0.715-11.255-2.323-16.07,1.193c-3.649,2.665-3.193,6.615-0.387,9.725C398.555,80.152,413.45,84.206,421.069,79.446z"/>
		
			<linearGradient id="SVGID_00000039834446249174974130000009985641167147882380_" gradientUnits="userSpaceOnUse" x1="370.8861" y1="57.4956" x2="431.8184" y2="168.2816">
			<stop  offset="0.0011" style="stop-color:#0056FF"/>
			<stop  offset="1" style="stop-color:#003DA0"/>
		</linearGradient>
		<path style="fill:url(#SVGID_00000039834446249174974130000009985641167147882380_);" d="M387.566,78.283
			c-3.075-1.747-6.074-3.83-9.492-4.557c-5.016-1.067-10.292,1.027-14.22,4.516c-3.928,3.49-6.683,8.241-8.979,13.108
			c-2.307,4.89-4.239,10.049-4.97,15.465c-2.16,15.998,7.062,32.297,20.357,40.091c13.295,7.795,29.759,7.875,44.179,2.836
			c5.842-2.041,11.717-5.121,15.148-10.554c4.755-7.53,3.688-17.519,6.11-26.219c1.152-4.14,3.097-7.97,4.687-11.942
			c1.59-3.972,2.848-8.24,2.503-12.542c-0.345-4.302-2.59-8.647-6.333-10.306c-4.475-1.984-6.745,0.953-9.714,3.636
			c-3.277,2.961-6.289,3.274-10.923,3.434C406.12,85.587,396.224,83.201,387.566,78.283z"/>
		<g>
			<path style="fill:#F9FBFC;" d="M414.949,101.106h-12.616v-3.133h12.616V101.106z M393.937,113.954
				c0.814,1.262,1.221,2.791,1.221,4.589c0,1.861-0.459,3.526-1.393,4.999c-0.593,0.975-1.331,1.797-2.215,2.461
				c-0.997,0.768-2.18,1.292-3.538,1.573c-1.36,0.282-2.835,0.424-4.422,0.424h-14.108V96.673h15.129
				c3.813,0.063,6.517,1.166,8.112,3.338c0.959,1.331,1.434,2.926,1.434,4.783c0,1.915-0.48,3.447-1.447,4.611
				c-0.538,0.653-1.333,1.248-2.387,1.784C391.919,111.772,393.128,112.689,393.937,113.954L393.937,113.954z M376.707,109.024
				h6.629c1.363,0,2.464-0.259,3.311-0.778c0.85-0.516,1.27-1.434,1.27-2.754c0-1.459-0.56-2.425-1.682-2.89
				c-0.964-0.322-2.199-0.492-3.695-0.492h-5.832V109.024z M388.556,118.095c0-1.628-0.664-2.751-1.991-3.354
				c-0.743-0.344-1.792-0.519-3.133-0.533h-6.725v8.35h6.621c1.357,0,2.412-0.178,3.171-0.55
				C387.871,121.326,388.556,120.026,388.556,118.095L388.556,118.095z M419.629,113.001c0.153,1.024,0.221,2.51,0.194,4.455
				h-16.336c0.09,2.253,0.868,3.832,2.343,4.733c0.891,0.566,1.97,0.844,3.234,0.844c1.333,0,2.42-0.338,3.256-1.029
				c0.456-0.369,0.857-0.888,1.207-1.541h5.988c-0.159,1.333-0.88,2.682-2.175,4.056c-2.008,2.179-4.823,3.275-8.44,3.275
				c-2.985,0-5.618-0.923-7.905-2.761c-2.278-1.844-3.419-4.837-3.419-8.989c0-3.892,1.027-6.872,3.086-8.945
				c2.068-2.078,4.739-3.111,8.027-3.111c1.95,0,3.71,0.347,5.277,1.049c1.565,0.702,2.854,1.805,3.873,3.321
				C418.76,109.696,419.353,111.239,419.629,113.001L419.629,113.001z M413.734,113.586c-0.109-1.56-0.631-2.74-1.568-3.549
				c-0.929-0.808-2.089-1.215-3.477-1.215c-1.508,0-2.671,0.434-3.499,1.289c-0.833,0.85-1.352,2.007-1.565,3.475H413.734z
				 M413.734,113.586"/>
		</g>
	</g>
	<g>
		
			<linearGradient id="SVGID_00000063607985371760642910000016037261595326355584_" gradientUnits="userSpaceOnUse" x1="130.6189" y1="299.696" x2="75.2259" y2="196.0323">
			<stop  offset="0" style="stop-color:#00CDFF"/>
			<stop  offset="1" style="stop-color:#0080FF"/>
		</linearGradient>
		<path style="opacity:0.3;fill:url(#SVGID_00000063607985371760642910000016037261595326355584_);" d="M55.809,297.715
			c3.577,2.762,7.821,4.639,12.259,5.426c1.408,0.251,2.782,0.376,4.119,0.376c3.105,0,6.013-0.676,8.682-2.021
			c1.87-0.943,3.509-2.18,4.912-3.624c1.967,0.558,4.017,0.973,6.155,1.2c1.302,0.139,2.573,0.196,3.809,0.196
			c3.83,0,7.313-0.559,10.252-1.029c1.234-0.198,2.4-0.386,3.452-0.511c2.586-0.307,5.478-0.353,8.54-0.402
			c3.256-0.053,6.623-0.107,10.216-0.462c11.238-1.115,20.101-5.045,26.341-11.68c7.898-8.397,10.851-20.161,8.777-34.964
			c0,0,0,0-0.001,0c-0.651-4.646-1.706-9.077-2.442-12.005c-1.36-5.407-1.686-10.319-2.064-16.007
			c-0.164-2.486-0.335-5.057-0.601-7.828c-1.034-10.792-6.137-16.616-10.236-19.602c-4.124-3.005-11.295-6.093-22.003-3.741
			c-2.902,0.632-5.6,1.492-7.979,2.251c-3.329,1.061-6.468,2.063-8.353,1.833c-1.31-0.161-3.586-1.205-5.788-2.213
			c-2.87-1.315-6.123-2.807-9.978-3.809c-17.782-4.625-37.163,5.072-44.124,22.075c-0.745,1.82-1.269,3.501-1.73,4.984
			c-0.346,1.113-0.777,2.498-1.048,2.986c-0.188,0.337-0.792,1.136-1.277,1.777c-1.172,1.548-2.63,3.475-3.914,5.962
			c-3.474,6.729-4.238,14.571-2.335,23.973c1.346,6.649,3.62,14.47,9.046,21.561c-0.52,1.224-0.918,2.519-1.181,3.874
			C45.792,284.147,49.125,292.556,55.809,297.715z"/>
		
			<linearGradient id="SVGID_00000075878266316972900770000009626872060265900955_" gradientUnits="userSpaceOnUse" x1="28.461" y1="234.3708" x2="90.9759" y2="319.8342">
			<stop  offset="0" style="stop-color:#00CDFF"/>
			<stop  offset="1" style="stop-color:#0080FF"/>
		</linearGradient>
		<path style="fill:url(#SVGID_00000075878266316972900770000009626872060265900955_);" d="M64.669,294.237
			c1.732,1.336,3.789,2.247,5.943,2.629c1.25,0.222,2.595,0.255,3.728-0.317c2.169-1.094,2.774-4.024,2.172-6.377
			c-1.213-4.744-6.656-8.022-11.407-6.687C59.68,285.009,60.963,291.376,64.669,294.237z"/>
		
			<linearGradient id="SVGID_00000137837021675543658630000008913454976158826391_" gradientUnits="userSpaceOnUse" x1="70.9116" y1="195.3191" x2="133.4263" y2="280.7821">
			<stop  offset="0" style="stop-color:#00CDFF"/>
			<stop  offset="1" style="stop-color:#0080FF"/>
		</linearGradient>
		<path style="fill:url(#SVGID_00000137837021675543658630000008913454976158826391_);" d="M148.962,252.233
			c1.189,8.484,0.676,17.005-4.979,23.017c-4.353,4.628-10.887,6.558-17.21,7.184c-6.323,0.626-12.724,0.147-19.034,0.896
			c-4.759,0.565-9.51,1.828-14.276,1.323c-10.06-1.066-18.544-9.448-26.659-14.788c-7.898-5.197-11.215-12.364-13.143-21.886
			c-0.977-4.824-1.251-10.07,1.007-14.444c1.36-2.635,3.546-4.763,4.986-7.355c1.643-2.96,2.236-6.379,3.519-9.512
			c4.171-10.186,16.403-16.306,27.056-13.536c6.073,1.579,11.418,5.615,17.646,6.381c7.375,0.907,14.166-2.779,21.184-4.307
			c8.554-1.878,13.858,1.544,14.722,10.557c0.868,9.059,0.695,16.682,3.036,25.989C147.663,245.114,148.463,248.67,148.962,252.233z
			"/>
		<path style="fill:#F9FBFC;" d="M129.811,226.79c-1.539,0.696-3.241,1.119-4.902,1.398c0.788-0.132,1.946-1.56,2.41-2.137
			c0.709-0.881,1.296-1.884,1.627-2.967c0.042-0.085,0.073-0.191-0.011-0.255c-0.106-0.042-0.175-0.02-0.26,0.022
			c-1.854,0.993-3.772,1.714-5.812,2.224c-0.169,0.042-0.295,0-0.401-0.106c-0.169-0.191-0.328-0.371-0.508-0.519
			c-0.858-0.73-1.778-1.302-2.816-1.725c-1.363-0.555-2.851-0.791-4.318-0.695c-1.428,0.093-2.83,0.495-4.097,1.157
			c-1.27,0.663-2.403,1.586-3.305,2.7c-0.933,1.152-1.622,2.512-1.974,3.953c-0.34,1.391-0.312,2.768-0.105,4.174
			c0.031,0.233,0.011,0.264-0.2,0.233c-7.983-1.188-14.601-4.045-19.973-10.166c-0.233-0.266-0.36-0.266-0.551,0.02
			c-2.351,3.523-1.21,9.184,1.726,11.966c0.391,0.371,0.794,0.742,1.227,1.08c-0.158,0.033-2.112-0.179-3.854-1.08
			c-0.233-0.148-0.35-0.063-0.371,0.202c-0.022,0.381,0.011,0.731,0.063,1.144c0.451,3.572,2.925,6.875,6.312,8.165
			c0.402,0.169,0.847,0.318,1.281,0.391c-0.772,0.169-1.567,0.29-3.78,0.117c-0.275-0.053-0.381,0.085-0.275,0.349
			c1.663,4.533,5.254,5.882,7.942,6.651c0.36,0.063,0.72,0.063,1.081,0.147c-0.022,0.033-0.043,0.033-0.064,0.064
			c-0.892,1.36-3.984,2.372-5.424,2.875c-2.619,0.915-5.47,1.327-8.238,1.054c-0.443-0.065-0.536-0.06-0.656,0
			c-0.121,0.075-0.015,0.181,0.127,0.296c0.562,0.371,1.133,0.699,1.716,1.017c1.758,0.932,3.59,1.673,5.506,2.202
			c9.896,2.733,21.042,0.725,28.473-6.658c5.835-5.797,7.88-13.792,7.88-21.797c0-0.313,0.37-0.486,0.59-0.652
			c1.518-1.141,2.742-2.506,3.875-4.03c0.254-0.342,0.257-0.647,0.257-0.772c0-0.022,0-0.042,0-0.042
			C130.011,226.662,130.009,226.701,129.811,226.79z"/>
	</g>
	<g>
		
			<linearGradient id="SVGID_00000085947761085013293100000003043564099491244962_" gradientUnits="userSpaceOnUse" x1="279.1792" y1="305.8204" x2="222.2035" y2="198.991">
			<stop  offset="0" style="stop-color:#FF0000"/>
			<stop  offset="1" style="stop-color:#9B0000"/>
		</linearGradient>
		<path style="opacity:0.3;fill:url(#SVGID_00000085947761085013293100000003043564099491244962_);" d="M311.262,244.463
			c2.462-9.194,1.171-19.776-3.869-30.209c-3.142-6.502-6.921-11.511-11.552-15.313c-16.115-13.23-33.889-8.481-46.867-5.016
			c-3.568,0.953-6.939,1.854-9.892,2.313c-1.638,0.255-3.757,0.434-6.001,0.622c-6.226,0.524-13.974,1.177-20.966,4.26
			c-10.305,4.543-16.519,13.311-17.498,24.692c-0.07,0.815-0.098,1.548-0.114,2.177c-0.198,0.241-0.41,0.494-0.594,0.712
			l-0.176,0.21c-3.951,4.712-8.216,10.547-9.888,18.098c-2.041,9.223,0.634,18.47,6.723,24.496c-0.17,0.665-0.32,1.339-0.431,2.03
			c-1.236,7.695,1.641,15.692,7.695,21.39c1.6,1.506,3.137,2.599,4.371,3.477c0.395,0.28,0.794,0.557,1.17,0.854
			c0.166,0.131,0.329,0.267,0.495,0.402c1.678,1.377,4.487,3.684,8.696,4.886c1.746,0.499,3.525,0.739,5.297,0.739
			c4.719-0.001,9.365-1.711,13.105-4.749c6.266,4.122,13.75,6.396,21.384,6.396c2.294,0,4.603-0.204,6.894-0.624
			c9.566-1.752,18.364-7.215,24.546-14.924c0.806,0.102,1.621,0.162,2.443,0.162c2.193,0,4.43-0.368,6.62-1.143
			c5.734-2.03,9.232-6.054,11.11-8.214c2.869-3.3,6.176-7.192,9.114-11.645c5.305-8.036,4.543-14.711,2.971-18.894
			C314.997,248.855,313.349,246.419,311.262,244.463z"/>
		
			<linearGradient id="SVGID_00000018204254543591318230000008573537517976324484_" gradientUnits="userSpaceOnUse" x1="187.2463" y1="235.759" x2="242.6393" y2="322.0137">
			<stop  offset="0" style="stop-color:#FF0000"/>
			<stop  offset="1" style="stop-color:#9B0000"/>
		</linearGradient>
		<path style="fill:url(#SVGID_00000018204254543591318230000008573537517976324484_);" d="M204.453,275.837
			c-0.504,3.136,1.005,6.355,3.318,8.531c1.401,1.319,3.072,2.313,4.583,3.505c1.321,1.042,2.583,2.269,4.2,2.732
			c2.719,0.778,5.696-0.974,7.05-3.456c1.354-2.483,1.379-5.484,0.929-8.276c-0.296-1.839-0.801-3.687-1.853-5.224
			C218.584,267.659,205.833,267.243,204.453,275.837z"/>
		
			<linearGradient id="SVGID_00000016765789027199963740000010870443087490235562_" gradientUnits="userSpaceOnUse" x1="248.1037" y1="196.6765" x2="303.4965" y2="282.9307">
			<stop  offset="0" style="stop-color:#FF0000"/>
			<stop  offset="1" style="stop-color:#9B0000"/>
		</linearGradient>
		<path style="fill:url(#SVGID_00000016765789027199963740000010870443087490235562_);" d="M289.006,257.564
			c-3.472,3.923-5.825,8.824-6.715,13.987c-0.188,1.09-0.305,2.25,0.125,3.27c0.845,2.003,3.548,2.638,5.597,1.912
			c2.049-0.726,3.581-2.419,5.007-4.059c2.817-3.24,5.59-6.536,7.955-10.119c1.145-1.734,2.229-3.859,1.498-5.804
			C300.394,251.215,291.646,254.581,289.006,257.564z"/>
		
			<linearGradient id="SVGID_00000124136942359409601770000001325967399011011774_" gradientUnits="userSpaceOnUse" x1="227.65" y1="209.8117" x2="283.043" y2="296.0664">
			<stop  offset="0" style="stop-color:#FF0000"/>
			<stop  offset="1" style="stop-color:#9B0000"/>
		</linearGradient>
		<path style="fill:url(#SVGID_00000124136942359409601770000001325967399011011774_);" d="M209.064,227.057
			c-0.141,1.645,0.011,3.324-0.371,4.93c-0.572,2.401-2.263,4.351-3.849,6.243c-2.972,3.544-5.841,7.398-6.841,11.914
			c-1,4.516,0.347,9.853,4.288,12.276c4.789,2.944,11.191,0.668,16.496,2.525c7.693,2.693,9.87,12.329,14.918,18.728
			c5.294,6.712,14.518,9.913,22.927,8.373c8.409-1.54,15.752-7.574,19.331-15.337c2.664-5.78,3.408-12.442,6.98-17.71
			c3.419-5.041,9.093-8.274,12.267-13.473c4.527-7.415,2.908-17.139-0.871-24.961c-1.893-3.918-4.334-7.654-7.697-10.415
			c-13.808-11.336-30.43-1.9-45.329,0.418C229.602,212.388,210.507,210.266,209.064,227.057z"/>
		<path style="fill:#F9FBFC;" d="M275.447,235.313c0-6.168-5-11.168-11.168-11.168h-28.558c-6.168,0-11.168,5-11.168,11.168v13.29
			c0,6.168,5,11.168,11.168,11.168h28.558c6.168,0,11.168-5,11.168-11.168V235.313z M258.652,242.953l-12.806,6.336
			c-0.502,0.272-2.208-0.092-2.208-0.663v-13.005c0-0.578,1.72-0.941,2.222-0.655l12.258,6.669
			C258.633,241.928,259.172,242.672,258.652,242.953z"/>
	</g>
	<g>
		
			<linearGradient id="SVGID_00000081649995995601049780000014218418504854158240_" gradientUnits="userSpaceOnUse" x1="421.3929" y1="299.625" x2="361.252" y2="192.0045">
			<stop  offset="0" style="stop-color:#5E6266"/>
			<stop  offset="0.9989" style="stop-color:#32373C"/>
		</linearGradient>
		<path style="opacity:0.3;fill:url(#SVGID_00000081649995995601049780000014218418504854158240_);" d="M338.474,266.403
			c-1.566,3.633-2.032,7.785-1.279,12.138l0.001,0.001c2.261,13.056,13.548,23.022,26.254,23.182
			c0.099,0.001,0.197,0.002,0.295,0.002c4.574,0,9.056-1.337,12.914-3.777c6.354,3.854,13.349,5.027,17.745,5.763
			c3.051,0.511,6.893,1.154,11.123,1.154c4.095,0,8.553-0.604,13.004-2.514c6.2-2.66,10.58-7.111,14.046-11.116
			c4.877-5.633,9.326-11.709,13.222-18.06c2.558-4.168,5.353-9.249,6.688-15.329c1.482-6.759,0.854-12.91,0.016-19.141
			c-1.355-10.076-3.101-20.752-8.164-30.773c-6.561-12.985-17.944-22.125-30.45-24.451c-10.192-1.897-19.299,0.697-26.618,2.782
			c-2.607,0.743-5.07,1.444-7.299,1.873c-2.1,0.405-4.327,0.692-6.685,0.996c-6.558,0.845-13.991,1.802-21.744,5.67l0.001-0.001
			c-12.407,6.189-21.084,17.225-23.21,29.522c-1.224,7.077-0.188,13.723,0.878,19.396
			C330.142,248.67,332.004,258.556,338.474,266.403z"/>
		
			<linearGradient id="SVGID_00000049204303670987124670000011453645087265296018_" gradientUnits="userSpaceOnUse" x1="351.3442" y1="277.8584" x2="373.0698" y2="277.8584">
			<stop  offset="0" style="stop-color:#5E6266"/>
			<stop  offset="0.9989" style="stop-color:#32373C"/>
		</linearGradient>
		<path style="fill:url(#SVGID_00000049204303670987124670000011453645087265296018_);" d="M351.483,276.067
			c1.018,5.878,6.184,11.082,12.15,11.157c4.818,0.06,9.734-3.959,9.424-8.768c-0.268-4.165-4.037-7.277-7.905-8.848
			C359.695,267.393,350.079,267.96,351.483,276.067z"/>
		
			<linearGradient id="SVGID_00000121249778293426013470000016835189938477248391_" gradientUnits="userSpaceOnUse" x1="358.381" y1="196.1812" x2="434.381" y2="288.181">
			<stop  offset="0" style="stop-color:#5E6266"/>
			<stop  offset="0.9989" style="stop-color:#32373C"/>
		</linearGradient>
		<path style="fill:url(#SVGID_00000121249778293426013470000016835189938477248391_);" d="M358.016,207.778
			c-7.573,3.778-13.952,10.677-15.394,19.016c-0.815,4.715-0.043,9.547,0.841,14.249c1.428,7.599,3.782,16.031,10.539,19.79
			c5.958,3.314,14.143,2.167,18.969,6.983c3.8,3.792,4.051,9.954,7.277,14.243c3.723,4.95,10.442,6.329,16.551,7.352
			c5.344,0.895,11.036,1.753,16.015-0.384c3.53-1.515,6.287-4.377,8.801-7.281c4.373-5.051,8.332-10.459,11.827-16.154
			c2.085-3.397,4.028-6.959,4.883-10.852c1.013-4.617,0.438-9.417-0.192-14.101c-1.206-8.97-2.654-18.088-6.735-26.166
			c-4.082-8.078-11.261-15.08-20.159-16.735c-9.808-1.824-19.096,2.82-28.52,4.638C374.246,204.009,365.964,203.813,358.016,207.778
			z"/>
		<path style="fill:#F9FBFC;" d="M367.592,241.959c0,10.708,6.225,19.972,15.254,24.354l-12.91-35.371
			C368.433,234.309,367.592,238.032,367.592,241.959z M412.928,240.591c0-3.345-1.204-5.663-2.233-7.465
			c-1.371-2.23-2.656-4.115-2.656-6.348c0-2.488,1.882-4.803,4.546-4.803c0.115,0,0.232,0.015,0.348,0.024
			c-4.814-4.412-11.229-7.108-18.275-7.108c-9.458,0-17.776,4.854-22.612,12.2c0.637,0.019,1.232,0.034,1.74,0.034
			c2.833,0,7.214-0.348,7.214-0.348c1.455-0.082,1.628,2.057,0.17,2.233c0,0-1.464,0.17-3.097,0.258l9.858,29.313l5.922-17.761
			l-4.219-11.552c-1.458-0.088-2.837-0.258-2.837-0.258c-1.46-0.088-1.287-2.314,0.173-2.233c0,0,4.468,0.348,7.126,0.348
			c2.83,0,7.217-0.348,7.217-0.348c1.454-0.082,1.627,2.057,0.168,2.233c0,0-1.463,0.17-3.096,0.258l9.782,29.09l2.701-9.017
			C412.239,245.823,412.928,242.91,412.928,240.591z M395.134,244.327l-8.122,23.598c2.424,0.713,4.986,1.099,7.647,1.099
			c3.149,0,6.174-0.545,8.987-1.537c-0.072-0.116-0.14-0.236-0.192-0.369L395.134,244.327z M418.404,228.97
			c0.12,0.865,0.187,1.788,0.187,2.787c0,2.744-0.515,5.831-2.061,9.693l-8.264,23.898c8.044-4.689,13.453-13.405,13.453-23.39
			C421.719,237.251,420.518,232.828,418.404,228.97z"/>
	</g>
</g>
<g id="DESIGNED_BY_FREEPIK">
	<g>
		<g id="XMLID_25_">
			<g id="XMLID_44_">
				<path id="XMLID_52_" style="fill:#F9FBFC;" d="M260.104,465.465c-0.432,0.443-0.803,0.931-1.109,1.453l-0.465-0.241
					c-0.067-0.298-0.349-0.503-0.659-0.466c-0.331,0.039-0.568,0.339-0.529,0.67c0.039,0.331,0.339,0.568,0.67,0.529
					c0.065-0.008,0.127-0.026,0.183-0.052l0.451,0.234c-0.251,0.554-0.433,1.139-0.539,1.744l0.746,0.132
					c0.23-1.306,0.85-2.507,1.792-3.473L260.104,465.465z"/>
				<path id="XMLID_51_" style="fill:#F9FBFC;" d="M265.592,463.163c-0.171,0-0.341,0.006-0.51,0.017l-0.074-0.626
					c0.188-0.149,0.296-0.389,0.266-0.645c-0.046-0.393-0.402-0.674-0.795-0.628c-0.393,0.046-0.674,0.402-0.628,0.795
					c0.03,0.254,0.19,0.461,0.405,0.564l0.074,0.624c-0.714,0.116-1.403,0.332-2.06,0.646l0.327,0.684
					c0.934-0.447,1.942-0.673,2.995-0.673c0.496,0,0.993,0.053,1.475,0.158l0.16-0.741
					C266.692,463.222,266.142,463.163,265.592,463.163z"/>
				<path id="XMLID_50_" style="fill:#F9FBFC;" d="M272.194,465.711c0.331-0.04,0.566-0.341,0.525-0.672
					c-0.04-0.331-0.341-0.566-0.672-0.526c-0.309,0.038-0.535,0.304-0.53,0.609l-0.416,0.363c-0.418-0.43-0.89-0.813-1.408-1.139
					l-0.404,0.641c1.134,0.715,2.02,1.726,2.563,2.925l0.69-0.313c-0.251-0.554-0.568-1.072-0.942-1.545l0.402-0.351
					C272.065,465.716,272.129,465.719,272.194,465.711z"/>
				<path id="XMLID_49_" style="fill:#F9FBFC;" d="M265.044,473.372c-0.386,0.023-0.775,0.035-1.157,0.035
					c-0.88,0-1.733-0.061-2.478-0.179c-0.39-0.062-0.846-0.155-1.27-0.292c1.046,1.861,3.069,3.125,5.388,3.125
					c2.855,0,5.262-1.916,5.95-4.504c-0.682,0.449-1.505,0.825-2.459,1.123C267.839,473.047,266.464,473.286,265.044,473.372z"/>
				<path id="XMLID_45_" style="fill:#F9FBFC;" d="M265.592,464.68c-3.352,0-6.08,2.666-6.08,5.943c0,0.426,0.046,0.849,0.137,1.261
					c0.674,0.483,2.706,0.89,5.348,0.731c2.88-0.173,5.297-0.957,6.672-2.159c-0.005-0.195-0.021-0.39-0.045-0.582
					C271.244,466.913,268.651,464.68,265.592,464.68z M263.432,471.194c-1.02,0-1.85-0.83-1.85-1.85c0-1.02,0.83-1.85,1.85-1.85
					s1.85,0.83,1.85,1.85C265.282,470.365,264.452,471.194,263.432,471.194z M268.17,470.286c-0.75,0-1.36-0.61-1.36-1.36
					s0.61-1.361,1.36-1.361c0.75,0,1.361,0.61,1.361,1.361S268.92,470.286,268.17,470.286z"/>
			</g>
			<path id="XMLID_42_" style="fill:#F9FBFC;" d="M281.595,466.547c-0.295-0.116-0.805-0.309-1.382-0.237
				c-0.551,0.069-0.844,0.341-0.844,1.007v0.866h2.228v1.717h-2.228v5.455h-1.932v-5.455h-1.339v-1.717h1.339v-0.888
				c0-1.68,0.896-2.783,2.568-2.783c0.642,0,1.157,0.122,1.59,0.308L281.595,466.547z"/>
			<path id="XMLID_40_" style="fill:#F9FBFC;" d="M286.298,469.879c-0.177-0.03-0.358-0.046-0.526-0.046
				c-0.896,0-1.51,0.548-1.51,1.614v3.908h-1.932v-7.172h1.873v0.785c0.451-0.673,1.14-0.977,2.021-0.977
				c0.414,0,0.848,0.128,1.094,0.337L286.298,469.879z"/>
			<path id="XMLID_37_" style="fill:#F9FBFC;" d="M293.965,471.757c0,0.222-0.015,0.489-0.037,0.651h-5.085
				c0.207,1.036,0.933,1.488,1.843,1.488c0.622,0,1.295-0.252,1.813-0.688l1.132,1.243c-0.814,0.748-1.85,1.088-3.057,1.088
				c-2.198,0-3.723-1.495-3.723-3.753c0-2.258,1.48-3.797,3.627-3.797C292.544,467.99,293.958,469.522,293.965,471.757z
				 M288.851,471.091h3.175c-0.177-0.918-0.733-1.436-1.561-1.436C289.554,469.655,289.021,470.203,288.851,471.091z"/>
			<path id="XMLID_34_" style="fill:#F9FBFC;" d="M301.618,471.757c0,0.222-0.015,0.489-0.037,0.651h-5.085
				c0.207,1.036,0.933,1.488,1.843,1.488c0.622,0,1.295-0.252,1.813-0.688l1.132,1.243c-0.814,0.748-1.85,1.088-3.057,1.088
				c-2.198,0-3.723-1.495-3.723-3.753c0-2.258,1.48-3.797,3.626-3.797C300.197,467.99,301.611,469.522,301.618,471.757z
				 M296.504,471.091h3.175c-0.178-0.918-0.733-1.436-1.562-1.436C297.207,469.655,296.674,470.203,296.504,471.091z"/>
			<path id="XMLID_31_" style="fill:#F9FBFC;" d="M309.964,471.764c0,2.154-1.495,3.775-3.471,3.775
				c-0.962,0-1.643-0.378-2.109-0.933v3.708h-1.924v-10.133h1.887v0.792c0.466-0.585,1.155-0.984,2.139-0.984
				C308.469,467.99,309.964,469.61,309.964,471.764z M304.287,471.764c0,1.132,0.747,1.976,1.843,1.976
				c1.14,0,1.85-0.881,1.85-1.976c0-1.095-0.71-1.976-1.85-1.976C305.035,469.788,304.287,470.632,304.287,471.764z"/>
			<path id="XMLID_28_" style="fill:#F9FBFC;" d="M313.068,465.836c0,0.696-0.54,1.229-1.236,1.229
				c-0.696,0-1.229-0.533-1.229-1.229c0-0.696,0.533-1.243,1.229-1.243C312.527,464.592,313.068,465.14,313.068,465.836z
				 M312.809,475.354h-1.932v-7.172h1.932V475.354z"/>
			<path id="XMLID_26_" style="fill:#F9FBFC;" d="M316.032,470.736l2.701-2.554h2.368l-3.479,3.375l3.501,3.797h-2.376l-2.716-2.901
				v2.901h-1.932v-10.658h1.932V470.736z"/>
		</g>
		<g>
			<path style="fill:#F9FBFC;" d="M184.412,475.289v-1.055c-0.527,0.718-1.391,1.23-2.387,1.23c-1.846,0-3.149-1.406-3.149-3.706
				c0-2.256,1.289-3.721,3.149-3.721c0.952,0,1.816,0.469,2.387,1.245v-3.765h1.099v9.77H184.412z M184.412,473.37v-3.208
				c-0.395-0.615-1.245-1.143-2.124-1.143c-1.421,0-2.27,1.172-2.27,2.739c0,1.567,0.85,2.724,2.27,2.724
				C183.167,474.483,184.017,473.986,184.412,473.37z"/>
			<path style="fill:#F9FBFC;" d="M186.932,471.744c0-2.051,1.465-3.706,3.486-3.706c2.139,0,3.398,1.67,3.398,3.794v0.279h-5.727
				c0.088,1.333,1.025,2.446,2.549,2.446c0.805,0,1.626-0.322,2.182-0.894l0.527,0.718c-0.703,0.703-1.655,1.084-2.813,1.084
				C188.44,475.465,186.932,473.956,186.932,471.744z M190.403,468.947c-1.509,0-2.256,1.274-2.314,2.358h4.643
				C192.718,470.25,192.014,468.947,190.403,468.947z"/>
			<path style="fill:#F9FBFC;" d="M194.607,474.351l0.571-0.791c0.469,0.542,1.362,1.011,2.329,1.011c1.084,0,1.67-0.513,1.67-1.216
				c0-1.714-4.38-0.659-4.38-3.281c0-1.098,0.952-2.036,2.636-2.036c1.201,0,2.051,0.454,2.622,1.026l-0.513,0.762
				c-0.424-0.513-1.201-0.894-2.109-0.894c-0.967,0-1.567,0.483-1.567,1.113c0,1.552,4.38,0.527,4.38,3.281
				c0,1.187-0.952,2.138-2.783,2.138C196.306,475.465,195.325,475.113,194.607,474.351z"/>
			<path style="fill:#F9FBFC;" d="M201.477,466.471c0-0.41,0.337-0.747,0.732-0.747c0.41,0,0.747,0.337,0.747,0.747
				c0,0.41-0.337,0.732-0.747,0.732C201.814,467.203,201.477,466.881,201.477,466.471z M201.667,475.289v-7.075h1.099v7.075H201.667
				z"/>
			<path style="fill:#F9FBFC;" d="M204.582,477.105l0.556-0.82c0.586,0.703,1.289,0.967,2.3,0.967c1.172,0,2.27-0.571,2.27-2.124
				v-1.011c-0.513,0.718-1.377,1.26-2.373,1.26c-1.845,0-3.149-1.377-3.149-3.662c0-2.27,1.289-3.677,3.149-3.677
				c0.952,0,1.802,0.469,2.373,1.245v-1.069h1.098v6.87c0,2.344-1.64,3.076-3.369,3.076
				C206.237,478.16,205.417,477.926,204.582,477.105z M209.709,473.253v-3.091c-0.381-0.615-1.23-1.143-2.109-1.143
				c-1.421,0-2.27,1.128-2.27,2.695c0,1.553,0.849,2.695,2.27,2.695C208.478,474.41,209.328,473.868,209.709,473.253z"/>
			<path style="fill:#F9FBFC;" d="M217.413,475.289v-4.629c0-1.245-0.63-1.641-1.582-1.641c-0.865,0-1.685,0.527-2.095,1.099v5.17
				h-1.099v-7.075h1.099v1.025c0.498-0.586,1.465-1.201,2.519-1.201c1.48,0,2.256,0.747,2.256,2.285v4.966H217.413z"/>
			<path style="fill:#F9FBFC;" d="M219.932,471.744c0-2.051,1.465-3.706,3.486-3.706c2.139,0,3.398,1.67,3.398,3.794v0.279h-5.727
				c0.088,1.333,1.025,2.446,2.549,2.446c0.806,0,1.626-0.322,2.183-0.894l0.527,0.718c-0.703,0.703-1.655,1.084-2.812,1.084
				C221.441,475.465,219.932,473.956,219.932,471.744z M223.404,468.947c-1.509,0-2.256,1.274-2.314,2.358h4.643
				C225.718,470.25,225.015,468.947,223.404,468.947z"/>
			<path style="fill:#F9FBFC;" d="M233.35,475.289v-1.055c-0.527,0.718-1.391,1.23-2.388,1.23c-1.846,0-3.149-1.406-3.149-3.706
				c0-2.256,1.289-3.721,3.149-3.721c0.952,0,1.817,0.469,2.388,1.245v-3.765h1.098v9.77H233.35z M233.35,473.37v-3.208
				c-0.396-0.615-1.245-1.143-2.124-1.143c-1.421,0-2.27,1.172-2.27,2.739c0,1.567,0.85,2.724,2.27,2.724
				C232.105,474.483,232.954,473.986,233.35,473.37z"/>
			<path style="fill:#F9FBFC;" d="M239.692,475.289v-9.77h1.099v3.765c0.572-0.776,1.421-1.245,2.388-1.245
				c1.845,0,3.149,1.465,3.149,3.721c0,2.299-1.304,3.706-3.149,3.706c-0.996,0-1.86-0.513-2.388-1.23v1.055H239.692z
				 M242.9,474.483c1.436,0,2.285-1.157,2.285-2.724c0-1.568-0.85-2.739-2.285-2.739c-0.864,0-1.728,0.527-2.109,1.143v3.208
				C241.171,473.986,242.036,474.483,242.9,474.483z"/>
			<path style="fill:#F9FBFC;" d="M247.528,477.061c0.161,0.073,0.425,0.117,0.601,0.117c0.483,0,0.806-0.161,1.055-0.747
				l0.469-1.069l-2.959-7.148h1.187l2.358,5.8l2.344-5.8h1.201l-3.545,8.51c-0.425,1.025-1.143,1.421-2.08,1.435
				c-0.234,0-0.601-0.044-0.805-0.103L247.528,477.061z"/>
		</g>
	</g>
</g>
</svg>
