<?xml version="1.0" encoding="utf-8"?>
<!-- Generator: Adobe Illustrator 27.5.0, SVG Export Plug-In . SVG Version: 6.00 Build 0)  -->
<svg version="1.1" xmlns="http://www.w3.org/2000/svg" xmlns:xlink="http://www.w3.org/1999/xlink" x="0px" y="0px"
	 viewBox="0 0 3000 2000" style="enable-background:new 0 0 3000 2000;" xml:space="preserve">
<g id="BACKGROUND">
	<rect style="fill:#FFFFFF;" width="3000" height="2000"/>
</g>
<g id="OBJECTS">
	<g>
		<g>
			<path style="fill:#E5ECFF;" d="M265.613,1734.425c-72.749-79.312-121.319-160.682-144.362-241.847
				c-21.453-75.566-20.389-148.899,3.164-217.962c25.768-75.561,78.593-143.673,152.764-196.976
				c73.922-53.122,167.858-90.688,271.653-108.635l0.835,4.83c-103.069,17.823-196.305,55.095-269.628,107.787
				c-73.339,52.703-125.548,119.986-150.986,194.576c-23.225,68.103-24.263,140.453-3.087,215.041
				c22.832,80.424,71.031,161.128,143.26,239.874L265.613,1734.425z"/>
			<path style="fill:#E5ECFF;" d="M734.932,754.39l-4.064-2.739c0.493-0.731,50.222-73.935,134.911-149.745
				c49.756-44.54,101.683-81.274,154.339-109.184c65.883-34.92,133.1-56.046,199.784-62.792
				c163.016-16.492,323.836,51.869,477.989,203.18l-3.434,3.498c-153.056-150.234-312.541-218.133-474.034-201.805
				c-66.032,6.676-132.624,27.604-197.926,62.205c-52.297,27.71-103.891,64.2-153.345,108.457
				C784.879,680.879,735.422,753.664,734.932,754.39z"/>
			<path style="fill:#E5ECFF;" d="M2760.165,1730.881l-4.052-2.759c66.936-98.285,109.762-202.676,127.288-310.273
				c16.112-98.916,9.614-198.835-18.793-288.956c-47.902-151.974-154.912-269.276-293.59-321.828l1.738-4.583
				c140.09,53.087,248.171,171.522,296.528,324.938c28.635,90.847,35.189,191.549,18.956,291.216
				C2870.597,1526.946,2827.507,1632,2760.165,1730.881z"/>
			<path style="fill:#E5ECFF;" d="M2758.14,1043.307c-92.403-232.786-293.272-392.797-546.916-322.219
				c-73.451,20.438-179.961,86.296-254.576,101.953c-200.288,42.029-293.66-139.539-435.271-235.033
				c-179.461-121.017-420.601-146.263-606.638-23.885c-70.625,46.458-130.047,109.816-172.863,182.638
				c-10.871,18.49-100.176,222.988-72.619,230.994c-227.081-65.971-420.153,91.912-467.711,310.748
				c-28.136,129.465,31.563,329.082,129.591,440.589h2302.834C2745.07,1585.727,2854.035,1284.892,2758.14,1043.307z"/>
			<path style="fill:#E5ECFF;" d="M2101.894,493.278c0,107.233-61.738,156.285-168.97,156.285
				c-107.231,0-217.142-122.595-217.145-229.826C1715.772,173.656,2101.892,287.171,2101.894,493.278z"/>
			<path style="fill:#E5ECFF;" d="M581.992,639.197c88.608,111.51-204.957,315.201-231.278,126.893
				c-10.635-76.089,56.134-140.938,132.914-150.31C535.439,609.455,566.584,619.81,581.992,639.197z"/>
		</g>
		<g>
			<path style="fill:#FF9064;" d="M2220.033,1728.358H1432.92c0,0-206.397-156.55-181.792-349.91
				c6.421-50.925,28.869-104.35,75.334-158.217c157.432-182.43,304.425-252.029,355.449-431.224
				c3.431-12.156,6.47-24.85,9.018-38.084l4.656-0.147l207.279-6.078l4.95-0.147c0,0,4.803,16.42,17.841,44.014
				c23.625,50.043,74.158,136.994,171.646,229.679c38.525,36.613,84.402,74.109,138.807,110.575
				C2463.387,1281.106,2485.1,1673.119,2220.033,1728.358z"/>
			<path style="fill:#FF9064;" d="M1978.248,530.949l-78.569,222.817l-201.937,2.205l-88.519-215.024
				c-5.833-14.165,7.842-28.575,21.223-22.301c0,0,0,0,0.049,0.049l70.139,32.79l2.647-2.402l58.572-53.621
				c4.264-3.921,9.851-5,14.851-3.48c3.137,0.882,5.98,2.843,8.185,5.686l23.233,30.83l0.343-0.441c0,0,0.049,0,0.049-0.049
				l51.219-60.777c8.528-10.146,24.262-6.127,27.497,7.058l10.93,44.897l62.444-10.93c0.98-0.196,1.912-0.245,2.892-0.245
				C1974.229,508.109,1982.218,519.676,1978.248,530.949z"/>
			<path style="fill:#B25834;" d="M1678.984,789.182h246.796c16.619,0,30.217-13.598,30.217-30.217V742.86
				c0-16.619-13.598-30.217-30.217-30.217h-246.796c-16.619,0-30.217,13.598-30.217,30.217v16.105
				C1648.767,775.584,1662.365,789.182,1678.984,789.182z"/>
			<path style="opacity:0.3;fill:#FFFFFF;" d="M1814.947,1355.256c-0.162-16.023-0.505-32.251-0.972-48.635
				c-61.824,8.044-121.984,8.02-154.691,0.97c13.004-23.436,25.522-46.579,37.341-69.474c32.57,8.093,82.567,12.322,136.898,4.826
				c47.73-6.604,76.693-21.817,71.118-42.109c-5.063-19.377-32.016-28.789-85.089-35.547
				c-80.351-9.103-153.478-50.447-128.192-104.815c21.239-48.993,71.361-77.097,103.273-93.719
				c-2.321-15.755-3.738-31.475-4.224-47.135c10.165-0.205,19.927-0.394,29.284-0.568c3.938,15.202,7.898,30.48,11.865,45.81
				c19.791-1.83,64.757,0.781,80.452,7.3c3.648,20.435,0.191,41.189-9.979,62.344c-14.313-4.122-37.204-13.509-67.118-9.313
				c-27.181,3.792-37.173,20.088-37.078,35.124c0.342,17.674,18.612,26.678,71.127,37.428
				c72.482,13.57,120.687,37.855,146.048,81.739c25.826,43.249-8.924,84.395-112.244,110.053
				c2.771,16.788,5.204,33.319,7.206,49.524C1878.521,1344.33,1846.843,1349.728,1814.947,1355.256z"/>
			<path style="fill:#FF9064;" d="M1695.438,598.245c0.833,1.274,1.078,1.863,0.588,1.618
				C1695.683,599.715,1695.487,599.127,1695.438,598.245z"/>
			<path style="opacity:0.6;fill:#B25834;" d="M1694.131,618.521c-18.207-22.834-62.153-98.069-63.636-99.825l70.139,32.79
				c0,0,6.977,32.725,4.117,47.021C1703.672,603.902,1697.561,622.822,1694.131,618.521z"/>
			<path style="opacity:0.3;fill:#B25834;" d="M2220.033,1728.358H1432.92c0,0-206.397-156.55-181.792-349.91
				c83.568,112.781,277.957,277.762,682.42,225.807c-4.607-17.351-7.009-35.878-7.009-55.287
				c0-60.042,34.996-109.693,78.618-146.208c36.27-30.34,88.715-64.845,89.254-117.829c0.049-0.49,2.549-229.091,2.892-266.685
				c38.525,36.613,84.402,74.109,138.807,110.575C2463.387,1281.106,2485.1,1673.119,2220.033,1728.358z"/>
			<path style="opacity:0.6;fill:#B25834;" d="M1808.464,528.057c-11.763,23.233-39.407,102.129-43.671,95.365
				c-4.95-7.989,9.362-109.873,11.91-131.439c3.137,0.882,5.98,2.843,8.185,5.686l23.233,30.83L1808.464,528.057z"/>
			<path style="opacity:0.6;fill:#B25834;" d="M1936.749,512.732c-22.742,35.486-28.885,80.366-35.943,82.327
				c-11.028,3.039-2.647-75.874-2.647-75.874S1931.958,513.216,1936.749,512.732z"/>
		</g>
		<g>
			<g>
				<rect x="2163.576" y="1013.05" style="fill:#FBC343;" width="346.227" height="716.043"/>
				<rect x="2352.959" y="1105.392" style="fill:#E49B31;" width="154.394" height="4.901"/>
				<rect x="2355.41" y="1325.954" style="fill:#E49B31;" width="154.394" height="4.901"/>
				<rect x="2250.03" y="1455.841" style="fill:#E49B31;" width="259.773" height="4.901"/>
				<rect x="2164.256" y="1210.772" style="fill:#E49B31;" width="154.394" height="4.901"/>
				<rect x="2164.256" y="1588.178" style="fill:#E49B31;" width="276.928" height="4.901"/>
			</g>
			<g>
				
					<ellipse transform="matrix(0.7071 -0.7071 0.7071 0.7071 -449.1052 2006.3643)" style="fill:#E49B31;" cx="2197.343" cy="1545.3" rx="183.793" ry="183.793"/>
				<g>
					
						<ellipse transform="matrix(0.7071 -0.7071 0.7071 0.7071 -460.1113 1979.7932)" style="fill:#FBC343;" cx="2159.766" cy="1545.3" rx="183.793" ry="183.793"/>
					<path style="fill:#E49B31;" d="M2159.766,1402.013c79.135,0,143.287,64.152,143.287,143.287
						c0,79.135-64.152,143.287-143.287,143.287s-143.287-64.152-143.287-143.287
						C2016.479,1466.165,2080.631,1402.013,2159.766,1402.013 M2159.766,1394.661c-40.237,0-78.066,15.669-106.518,44.121
						c-28.452,28.452-44.121,66.281-44.121,106.518c0,40.237,15.669,78.066,44.121,106.518
						c28.452,28.452,66.281,44.121,106.518,44.121s78.066-15.669,106.518-44.121c28.452-28.452,44.121-66.281,44.121-106.518
						c0-40.237-15.669-78.066-44.121-106.518C2237.832,1410.33,2200.003,1394.661,2159.766,1394.661L2159.766,1394.661z"/>
					<g>
						<path style="fill:#FFFFFF;" d="M2146.32,1648.788v-24.083c-16.999-0.764-33.481-5.329-43.126-10.905l7.621-29.68
							c10.658,5.824,25.611,11.153,42.114,11.153c14.458,0,24.352-5.577,24.352-15.718c0-9.646-8.117-15.739-26.892-22.079
							c-27.14-9.129-45.667-21.811-45.667-46.41c0-22.327,15.739-39.821,42.878-45.15v-24.104h24.847v22.327
							c16.999,0.764,28.42,4.296,36.785,8.365l-7.353,28.668c-6.589-2.788-18.258-8.633-36.537-8.633
							c-16.482,0-21.811,7.105-21.811,14.21c0,8.365,8.881,13.694,30.445,21.811c30.176,10.658,42.362,24.599,42.362,47.443
							c0,22.575-15.986,41.846-45.15,46.927v25.859H2146.32z"/>
					</g>
				</g>
			</g>
		</g>
		<g>
			<path style="fill:#FBC343;" d="M953.711,1006.53l-22.154,56.366l-156.452-47.004l-124.593-37.447l35.878-103.027
				c0,0,23.232,13.43,56.954,31.859C804.513,940.754,900.09,990.65,953.711,1006.53z"/>
			<path style="fill:#E49B31;" d="M775.105,1015.892l-124.593-37.447l35.878-103.027c0,0,23.232,13.43,56.954,31.859
				C753.294,929.971,766.723,967.074,775.105,1015.892z"/>
		</g>
		<g>
			<g>
				<path style="fill:#1F3C88;" d="M2345.607,889.731c0,0,220.802-39.914,252.992,1.056c27.713,35.271,42.829,74.321,17.635,264.531
					C2558.221,1010.205,2465.796,925.57,2345.607,889.731z"/>
				<path style="fill:#1F3C88;" d="M2642.14,1291.644c0,0-37.577,50.648-129.886,34.31l41.662-68.619L2642.14,1291.644z"/>
				<polygon style="fill:#102048;" points="2538.458,1271.624 2547.566,1413.933 2708.906,1402.95 2624.86,1339.275 
					2616.773,1262.157 				"/>
				<path style="fill:#3A6BEA;" d="M2642.14,1291.644c-72.295,0-129.886,34.31-129.886,34.31l-23.282-298.984
					c0,0-176.45-9.803-241.393-13.479c-64.944-3.676-35.535-166.647-35.535-166.647l118.025,20.733l63.326,11.126l124.691,22.742
					c41.858,7.646,74.207,41.221,80.236,83.372L2642.14,1291.644z"/>
				<path style="fill:#1F3C88;" d="M2588.558,1299.569c-0.976,0-1.79-0.768-1.834-1.754
					c-7.128-156.293-43.994-300.704-57.649-319.819c-15.694-21.972-77.154-25.37-154.966-29.673
					c-25.585-1.415-52.04-2.878-80.312-5.104c-13.939-1.097-23.168-17.043-27.427-47.394c-3.094-22.045-2.332-44.074-2.324-44.294
					c0.036-1.014,0.926-1.783,1.904-1.769c1.015,0.037,1.807,0.89,1.77,1.904c-0.009,0.217-0.758,21.962,2.296,43.69
					c2.743,19.514,9.146,43.023,24.07,44.198c28.229,2.223,54.662,3.685,80.224,5.098c81.878,4.528,141.035,7.8,157.755,31.207
					c15.963,22.348,51.571,173.603,58.328,321.789c0.047,1.013-0.738,1.874-1.752,1.919
					C2588.615,1299.567,2588.586,1299.569,2588.558,1299.569z"/>
				<path style="opacity:0.3;fill:#102048;" d="M2518.086,901.445c-161.991,44.357-206.789-24.801-206.789-24.801l18.772-9.068
					l63.326,11.126L2518.086,901.445z"/>
				<path style="fill:#1F3C88;" d="M2508.987,1293.483c-0.657,0-1.292-0.353-1.623-0.973c-0.477-0.896-0.139-2.009,0.756-2.487
					c0.617-0.329,62.507-32.87,129.163-31.26c1.015,0.025,1.818,0.868,1.794,1.882c-0.025,1-0.842,1.794-1.837,1.794
					c-0.015,0-0.031,0-0.045,0c-65.702-1.639-126.735,30.503-127.344,30.826C2509.576,1293.413,2509.279,1293.483,2508.987,1293.483
					z"/>
				
					<rect x="2593.501" y="1349.769" transform="matrix(0.7088 -0.7054 0.7054 0.7088 -193.3202 2236.1199)" style="fill:#FFFFFF;" width="36.703" height="4.903"/>
			</g>
			<g>
				<polygon style="fill:#F9B384;" points="2362.369,562.955 2359.87,573.395 2349.871,615.057 2341.931,648.337 2279.83,626.281 
					2319.482,547.859 				"/>
				<path style="fill:#102048;" d="M2359.87,573.395l-8.29,34.812c-23.085-21.419-14.857-43.959-14.857-43.959L2359.87,573.395z"/>
				<path style="fill:#F9B384;" d="M2415.451,530.704c0,0-13.07,65.352-36.352,64.535c-23.282-0.817-51.056-37.169-51.056-37.169
					l19.197-54.732l47.38,4.085L2415.451,530.704z"/>
				
					<ellipse transform="matrix(0.1598 -0.9871 0.9871 0.1598 1465.5872 2849.5225)" style="fill:#F9B384;" cx="2406.772" cy="563.788" rx="7.352" ry="7.352"/>
				<path style="fill:#102048;" d="M2413.033,532.421c4.461,3.593,8.009,6.568,10.558,7.973
					c20.52,11.309,16.976-20.956,15.095-31.803c-6.048-34.874-48.197-49.451-78.55-53.255c-3.584-0.449-7.266-0.752-10.773,0.112
					c-9.267,2.283-11.748,13.441-15.091,21.029c-5.682,12.896-21.061,9.094-31.733,14.213c-5.278,2.532-9.626,8.42-7.939,14.025
					c1.297,4.308,5.717,6.887,6.931,11.158c2.186,7.694-7.263,15.673-9.087,23.1c-4.139,16.854,12.383,31.305,28.328,30.823
					c9.817-0.297,19.224-5.233,25.76-12.564c4.398-4.933,7.511-10.867,9.483-17.153c1.953-6.227,7.232-0.968,9.698-7.407
					C2379.917,495.578,2400.377,522.226,2413.033,532.421z"/>
				<path style="fill:#102048;" d="M2287.358,443.314c-8.485,0.557-18.008,3.347-21.627,11.041
					c-2.302,4.894-1.704,10.883-4.517,15.503c-4.846,7.96-16.284,7.532-25.563,6.668c-6.791-0.632-13.734-0.957-20.344,0.725
					c-6.609,1.682-12.922,5.643-16.009,11.725c-3.086,6.082-2.156,14.367,3.155,18.646c2.353,1.896,5.5,3.081,6.843,5.788
					c1.52,3.063,0.022,6.825-2.214,9.411c-2.237,2.586-5.172,4.52-7.263,7.225c-3.874,5.011-4.159,12.504-0.677,17.795
					c3.482,5.291,10.477,7.993,16.612,6.417c7.519-1.932,13.206-9.412,20.968-9.548c7.282-0.127,13.322,6.37,20.599,6.656
					c6.269,0.246,11.746-4.179,15.787-8.979c4.04-4.8,7.447-10.337,12.68-13.798c10.102-6.68,25.066-4.348,33.375-13.159
					c7.068-7.495,7.327-18.393,15.186-25.613c6.992-6.424,14.881-11.758,10.832-22.49
					C2337.802,447.771,2305.22,442.141,2287.358,443.314z"/>
				<path style="fill:#F9B384;" d="M2366.568,532.714c1.745,7.7-1.745,15.054-7.795,16.425c-6.05,1.371-12.369-3.76-14.114-11.46
					s1.745-15.054,7.795-16.425C2358.504,519.884,2364.823,525.014,2366.568,532.714z"/>
				<path style="fill:#102048;" d="M2356.636,544.387c-0.072,0-0.144-0.006-0.217-0.019c-0.667-0.119-1.109-0.755-0.991-1.422
					c0.816-4.571,0.906-10.542-3.298-13.026c-0.583-0.344-0.776-1.095-0.432-1.678c0.347-0.583,1.096-0.775,1.679-0.431
					c4.285,2.533,5.829,7.915,4.464,15.566C2357.736,543.971,2357.219,544.387,2356.636,544.387z"/>
				<circle style="opacity:0.4;fill:#EB5D60;" cx="2380.733" cy="553.169" r="10.62"/>
			</g>
			<g>
				<g>
					<path style="fill:#E28B6D;" d="M2498.775,803.344c-7.929-5.204-22.774-6.597-37.643-6.414l-0.772,34.241l22.486-2.708
						c0,0,52.69,33.084,56.979,30.634C2544.113,856.646,2518.381,816.21,2498.775,803.344z"/>
					<path style="fill:#102048;" d="M2417.289,800.893c-34.922-147.654-79.647-164.809-79.647-164.809l28.183,206.471l94.535-11.384
						l0.772-34.241C2439.237,797.2,2417.289,800.893,2417.289,800.893z"/>
				</g>
				<path style="fill:#1F3C88;" d="M2393.395,878.703l-70.727-5l-58.768-4.117l-58.179-4.117
					c-11.126-0.784-19.115-11.077-17.106-22.056c12.057-65.727,54.994-264.234,128.808-229.385
					C2405.649,655.689,2393.395,878.703,2393.395,878.703z"/>
				<path style="opacity:0.6;fill:#102048;" d="M2346.195,862.773l-23.527,10.93l-58.768-4.117
					c-20.145-60.728-6.519-161.207-6.519-161.207L2346.195,862.773z"/>
				<g>
					<path style="fill:#1F3C88;" d="M2354.592,825.196l-29.816-131.52l-67.394,14.704c12.254,131.112,36.76,180.126,85.774,191.154
						c13.01,2.927,49.381-8.957,82.059-20.39l4.843-60.758C2397.621,821.044,2354.592,825.196,2354.592,825.196z"/>
					<path style="fill:#F9B384;" d="M2463.24,816.21c-4.969,0-17.906,0.923-33.182,2.176l-4.843,60.758
						c32.157-11.251,60.899-22.906,60.899-22.906s58.816,19.605,59.633,8.169C2546.563,852.97,2478.761,816.21,2463.24,816.21z"/>
				</g>
				<g>
					<rect x="2425.375" y="866.449" style="fill:#FFFFFF;" width="161.013" height="17.374"/>
					<path style="fill:#102048;" d="M2586.387,883.823h-19.197l70.454-174.156c1.36-3.361,4.623-5.561,8.249-5.561l0,0
						c6.31,0,10.615,6.385,8.249,12.235L2586.387,883.823z"/>
				</g>
				<path style="fill:#3A6BEA;" d="M2371.223,851.907c-13.639,0-22.707-2.743-27.054-8.209
					c-15.56-19.56-20.951-103.353-24.518-158.801c-1.467-22.81-2.626-40.826-4.029-47.841
					c-4.563-22.813-21.976-23.637-22.152-23.643c-1.014-0.032-1.811-0.881-1.777-1.896c0.033-1.015,0.927-1.793,1.897-1.778
					c0.203,0.007,20.509,0.956,25.636,26.596c1.451,7.254,2.617,25.379,4.094,48.326c3.537,54.989,8.884,138.09,23.726,156.749
					c10.85,13.64,60.662,3.289,78.937-1.851c0.977-0.272,1.992,0.294,2.268,1.271c0.274,0.978-0.295,1.992-1.272,2.267
					c-0.169,0.047-17.058,4.766-35.442,7.259C2383.913,851.391,2377.138,851.907,2371.223,851.907z"/>
			</g>
		</g>
		<g>
			<g>
				<path style="fill:#7D69ED;" d="M1013.41,1045.496c-8.431,6.421-18.086,11.714-28.722,15.489
					c-51.024,18.086-105.919-5.539-122.682-52.739c-12.4-35.045-0.245-73.276,27.742-98.028
					c9.705-8.577,21.272-15.537,34.408-20.194c51.024-18.086,105.968,5.538,122.682,52.739
					C1060.071,980.112,1045.416,1021.088,1013.41,1045.496z"/>
				<path style="opacity:0.4;fill:#5B4DAD;" d="M1013.41,1045.496c-8.431,6.421-18.086,11.714-28.722,15.489
					c-51.024,18.086-105.919-5.539-122.682-52.739c-12.4-35.045-0.245-73.276,27.742-98.028
					C888.67,952.615,903.717,1024.764,1013.41,1045.496z"/>
			</g>
			<g>
				<path style="fill:#5B4DAD;" d="M1581.197,884.504c-18.89,32.174-47.087,65.424-68.697,117.76
					c-7.315,17.695-13.854,37.604-19.053,60.385c-2.435,10.62-14.184,16.097-23.916,11.15
					c-59.817-30.584-103.348-67.444-124.865-112.717c-12.11-25.411-7.322-55.594,11.215-76.805
					c29.319-33.562,68.012-54.521,109.936-61.429c30.957-5.14,63.72-2.565,95.752,8.313
					C1583.44,838.624,1592.916,864.613,1581.197,884.504z"/>
			</g>
			<g>
				<path style="fill:#7D69ED;" d="M1694.556,1223.368c0,31.565-5.44,62.199-15.39,91.411c-3.97,11.518-8.626,22.841-13.92,33.918
					c-21.517,44.995-53.67,85.774-92.685,120.525c-12.94,11.469-26.615,22.35-40.878,32.447
					c-69.747,49.406-153.904,81.118-235.904,87.049c-9.264,0.686-18.478,1.029-27.644,1.029c-33.329,0-65.629-2.108-96.508-6.519
					c-102.145-14.459-188.85-53.719-246.981-123.466c-34.898-41.858-59.454-94.695-70.874-159.687
					c-2.549-14.753-4.509-30.192-5.686-46.269c-0.784-9.901-1.274-20.047-1.47-30.437c-1.176-61.316,15.047-121.407,44.652-175.421
					c30.487-55.532,75.187-104.644,129.838-142.042c68.031-46.563,151.502-74.942,242.128-74.942c23.38,0,46.416,1.911,68.913,5.539
					c64.747,10.342,125.083,34.898,177.185,69.502c53.523,35.437,98.371,81.461,130.524,133.514
					C1674.607,1095.638,1694.556,1158.817,1694.556,1223.368z"/>
				<path style="fill:#7D69ED;" d="M1788.221,1178.373l-6.715,76.756l-2.598,29.85c-2.304,26.516-24.997,48.033-54.454,51.464
					c-20.292,2.304-39.946,6.519-59.209,12.254c-34.408,10.048-67.394,24.752-99.792,41.564l4.803-24.311l65.482-329.667
					c1.373,1.078,2.745,2.156,4.117,3.235c35.633,27.693,75.824,57.248,123.564,89.548
					C1780.526,1140.632,1789.888,1159.258,1788.221,1178.373z"/>
			</g>
			
				<ellipse transform="matrix(0.9809 -0.1947 0.1947 0.9809 -175.9402 324.3936)" style="fill:#102048;" cx="1562.202" cy="1057.195" rx="21.239" ry="28.591"/>
			<g>
				<path style="fill:#5B4DAD;" d="M1195.789,940.364c-57.013,2.203-106.089,23.029-148.897,58.564
					c-7.813,6.485-19.631,3.64-23.325-5.817l-4.04-10.344c-2.199-5.632-0.804-12.112,3.69-16.156
					c45.997-41.394,101.098-64.833,167.665-65.656c6.199-0.077,11.834,3.611,14.09,9.386l3.896,9.976
					C1212.541,929.717,1205.875,939.974,1195.789,940.364z"/>
				<path style="fill:#102048;" d="M1201.916,957.519c-57.013,2.203-106.089,23.029-148.897,58.564
					c-7.813,6.485-19.631,3.64-23.324-5.817l-4.04-10.344c-2.2-5.632-0.804-12.112,3.69-16.156
					c45.997-41.394,101.098-64.833,167.665-65.656c6.199-0.077,11.834,3.611,14.09,9.386l3.896,9.976
					C1218.667,946.872,1212.002,957.129,1201.916,957.519z"/>
			</g>
			<g>
				<path style="fill:#7D69ED;" d="M1176.626,1533.037l-5,50.19l-10.146,101.263c-2.549,25.291-23.87,44.603-49.308,44.603h-81.461
					c-22.742,0-42.593-15.489-48.083-37.545l-57.983-231.786l-2.892-11.665L1176.626,1533.037z"/>
				<path style="fill:#7D69ED;" d="M1545.063,1448.096l-13.381,53.572l-47.494,189.88c-5.539,22.056-25.34,37.545-48.083,37.545
					h-81.461c-25.487,0-46.808-19.311-49.308-44.603l-9.558-95.773l-5.588-55.68L1545.063,1448.096z"/>
				<path style="opacity:0.4;fill:#5B4DAD;" d="M1781.506,1255.129l-2.598,29.85c-2.304,26.516-24.997,48.033-54.454,51.464
					c-20.292,2.304-39.946,6.519-59.209,12.254c-21.517,44.995-53.67,85.774-92.685,120.525
					c-12.94,11.469-26.615,22.35-40.878,32.447l-11.224,44.946l-36.27,144.934c-5.539,22.056-25.34,37.545-48.083,37.545h-81.461
					c-25.487,0-46.808-19.311-49.308-44.603l-6.421-64.502l-3.137-31.271c-9.264,0.686-18.478,1.029-27.644,1.029
					c-33.329,0-65.629-2.108-96.508-6.519l-3.921,38.966l-6.225,62.297c-2.549,25.291-23.87,44.603-49.308,44.603h-81.461
					c-22.742,0-42.593-15.489-48.083-37.545l-29.947-119.79l-28.036-111.996c-2.206-2.647-4.313-5.294-6.421-7.989
					c-1.765-2.255-3.529-4.558-5.196-6.911c-0.588-0.735-1.127-1.471-1.617-2.255c-1.716-2.304-3.333-4.656-4.901-7.009
					c-0.294-0.392-0.539-0.735-0.784-1.127c-1.764-2.696-3.529-5.392-5.245-8.185c-1.715-2.696-3.333-5.391-4.95-8.185
					c-0.245-0.441-0.539-0.882-0.784-1.373c-1.666-2.892-3.284-5.784-4.852-8.773c-1.813-3.431-3.627-6.911-5.343-10.489
					c-1.372-2.843-2.745-5.734-4.068-8.626c0-0.098-0.049-0.147-0.098-0.245c-1.323-2.99-2.598-5.979-3.823-9.018
					c-1.814-4.264-3.529-8.626-5.098-13.038c-0.882-2.402-1.764-4.803-2.597-7.254c-1.128-3.186-2.157-6.421-3.137-9.705
					c-0.588-1.716-1.127-3.48-1.617-5.245c-1.666-5.539-3.186-11.175-4.558-16.959c-0.441-1.618-0.833-3.235-1.176-4.852
					c-0.931-3.872-1.764-7.793-2.549-11.764c-0.637-3.137-1.274-6.323-1.862-9.557c-0.049-0.392-0.147-0.735-0.196-1.128
					c-2.549-14.753-4.509-30.192-5.686-46.269c106.164,108.811,381.426,327.56,722.17,112.144
					c21.027-13.234,42.299-28.183,63.816-44.897c0,0,19.409-0.49,45.093-6.274
					C1712.299,1307.231,1755.823,1290.86,1781.506,1255.129z"/>
				<path style="opacity:0.6;fill:#5B4DAD;" d="M1171.627,1583.228l-3.921,38.966c-90.872-7.45-167.137-31.565-215.024-50.435
					l-28.036-111.996C982.776,1529.508,1069.482,1568.768,1171.627,1583.228z"/>
				<path style="opacity:0.6;fill:#5B4DAD;" d="M1531.683,1501.668l-11.224,44.946c-74.746,42.887-150.179,64.747-221.543,73.374
					l-3.137-31.271C1377.779,1582.786,1461.936,1551.074,1531.683,1501.668z"/>
			</g>
			<g>
				<path style="fill:#7D69ED;" d="M1545.253,856.73c-18.89,32.174-47.087,65.424-68.697,117.76
					c-7.315,17.695-13.854,37.604-19.053,60.385c-2.435,10.62-14.184,16.097-23.916,11.15
					c-59.817-30.584-103.348-67.444-124.865-112.717c-12.11-25.411-7.322-55.594,11.215-76.805
					c29.319-33.562,68.012-54.521,109.936-61.429c30.957-5.14,63.72-2.565,95.752,8.313
					C1547.497,810.849,1556.972,836.839,1545.253,856.73z"/>
				<path style="opacity:0.4;fill:#5B4DAD;" d="M1476.557,974.49c-7.315,17.695-13.854,37.604-19.053,60.385
					c-2.435,10.62-14.184,16.097-23.916,11.15c-59.817-30.584-103.348-67.444-124.865-112.717
					c-12.11-25.411-7.322-55.594,11.215-76.805c29.319-33.562,68.012-54.521,109.936-61.429
					c-30.152,29.318-70.961,77.468-53.789,110.188C1394.987,941.294,1442.915,964.705,1476.557,974.49z"/>
			</g>
			<ellipse style="opacity:0.4;fill:#5B4DAD;" cx="1534.836" cy="1192.595" rx="46.563" ry="58.204"/>
		</g>
		<g>
			<g>
				<polygon style="fill:#102048;" points="708.135,1622.467 694.657,1729.072 830.67,1727.847 769.403,1681.304 773.079,1622.467 
									"/>
				<polygon style="fill:#102048;" points="417.728,1600.432 384.644,1729.072 512.08,1727.847 468.177,1685.19 487.432,1609.693 
									"/>
				<path style="fill:#1F3C88;" d="M824.56,1409.964l-27.742,215.269c-1.422,11.028-10.832,19.311-21.958,19.311h-65.973
					c-1.176,0-2.353-0.098-3.48-0.294c-11.224-1.765-19.507-11.959-18.527-23.674l4.019-121.799l2.941-88.274
					c0,0-20.733-23.576-51.465-58.866c-12.401-14.263-26.516-30.438-41.515-47.739c-33.33-38.378-66.904-82.098-87.343-122.241
					c-9.411-18.331-16.028-35.927-18.674-51.906c-0.539-3.284-0.931-6.519-1.128-9.656l53.278,2.206l7.107,0.294l57.297,2.353
					l1.569,0.049l49.014,47.396l130.475,138.66C817.453,1337.521,829.216,1373.84,824.56,1409.964z"/>
				<path style="fill:#1F3C88;" d="M597.527,1462.359l-86.362,162.04c-4.215,7.891-12.499,12.744-21.419,12.449l-9.165-0.245
					l-70.237-2.059c-0.441,0-0.882-0.049-1.323-0.098c-0.049,0-0.049,0-0.049,0c-8.431-1.078-13.92-9.852-10.832-18.037
					l77.589-208.75l-55.533-127.044c-15.782-42.789-9.901-80.726-1.078-106.654c7.597-22.399,17.4-35.878,17.4-35.878l58.327-8.332
					l52.151-7.45l6.764-0.98l0.343,1.274l14.9,57.885l31.859,123.417l11.175,43.279
					C622.083,1385.996,616.888,1427.216,597.527,1462.359z"/>
				<path style="fill:#102048;" d="M661.981,1172.393c0,0-40.485,5.49-92.979,8.087c-17.498,0.784-36.368,1.323-55.484,1.176
					c-32.349-0.196-65.531-2.255-94.401-7.695c7.597-22.399,17.4-35.878,17.4-35.878l58.327-8.332
					c-0.539-3.284-0.931-6.519-1.128-9.656l53.278,2.206l6.764-0.98l0.343,1.274l57.297,2.353L661.981,1172.393z"/>
				<polygon style="fill:#102048;" points="598.543,1304.693 577.917,1244.556 616.068,1235.347 617.218,1240.112 584.3,1248.057 
					603.179,1303.103 				"/>
				<path style="fill:#102048;" d="M479.428,1612.316c-47.362,0-73.051-9.097-74.382-9.58l1.674-4.607
					c0.401,0.146,40.88,14.421,112.877,7.217l0.488,4.878C505.142,1611.717,491.569,1612.316,479.428,1612.316z"/>
				<path style="fill:#102048;" d="M743.675,1618.09c-33.115,0-57.369-5.384-57.731-5.466l1.086-4.779
					c0.535,0.121,54.089,11.983,110.454-0.007l1.02,4.794C779.267,1616.725,760.346,1618.09,743.675,1618.09z"/>
				
					<rect x="438.201" y="1687.536" transform="matrix(0.9501 -0.312 0.312 0.9501 -504.5995 225.8524)" style="fill:#FFFFFF;" width="30.745" height="4.902"/>
				
					<rect x="743.239" y="1686.206" transform="matrix(0.8537 -0.5208 0.5208 0.8537 -768.6813 641.5831)" style="fill:#FFFFFF;" width="28.23" height="4.901"/>
				<path style="fill:#102048;" d="M690.899,1498.777l2.941-88.274c0,0-20.733-23.576-51.465-58.866
					c20.047,1.813,49.7,21.762,67.394,52.739c14.63,25.585,9.803,78.422,5.617,86.185
					C711.565,1497.65,702.037,1499.806,690.899,1498.777z"/>
			</g>
			<g>
				<polygon style="fill:#E28B6D;" points="715.488,826.013 714.017,833.021 703.185,883.996 695.245,921.59 635.252,897.083 
					676.914,792.291 				"/>
				<path style="fill:#102048;" d="M714.017,833.021l-10.832,50.974c-17.155-20.145-18.723-52.249-18.723-52.249L714.017,833.021z"
					/>
				<path style="fill:#E28B6D;" d="M750.006,772.447c0,0-5.626,82.783-33.457,79.587s-54.092-31.887-54.092-31.887
					c-4.145-21.552,0.152-44.577,9.547-68.492l60.895,1.367L750.006,772.447z"/>
				<path style="fill:#102048;" d="M703.147,778.348c3.63,2.847,8.695,3.905,13.261,2.77c4.566-1.135,8.524-4.436,10.365-8.644
					c6.076,4.424,13.559,7.214,21.206,7.146c7.648-0.068,15.4-3.163,20.383-8.835c4.983-5.672,6.855-13.943,4.1-20.814
					c-1.269-3.165-3.698-5.522-6.667-7.241c-3.175-1.839-7.411-1.407-9.407-4.909c-1.997-3.503,0.872-6.898-0.012-10.538
					c-0.751-3.096-2.312-5.975-4.779-8.099c-3.135-2.699-7.282-3.094-11.325-2.721c-2.14,0.197-5.409,1.43-7.386,0.179
					c-2.649-1.676-1.553-5.961-4.033-8.185c-2.793-2.504-7.288-3.036-10.673-1.261c-2.407,1.261-4.208,3.515-6.757,4.474
					c-3.95,1.487-8.222-0.543-12.107-2.095c-3.885-1.552-8.988-2.41-11.835,0.64c-2.111,2.261-1.967,5.648-1.962,8.677
					c0.005,3.029-0.581,6.58-3.341,8.042c-2.417,1.28-5.443,0.316-7.705-1.155c-2.262-1.471-4.219-3.443-6.76-4.408
					c-5.628-2.137-12.821,2.489-13.004,8.363c-0.146,4.662,3.348,9.172,2.012,13.667c-1.363,4.582-6.934,6.545-11.8,7.241
					c-4.866,0.696-10.306,1.048-13.7,4.522c-3.723,3.812-2.945,10.782,1.523,13.643c2.009,1.286,4.451,1.754,6.687,2.629
					c2.236,0.875,4.463,2.407,4.958,4.696c0.645,2.982-1.952,5.811-4.795,7.169c-2.843,1.359-6.082,1.841-8.824,3.384
					c-6.385,3.592-7.987,13.172-3.077,18.405c2.478,2.641,5.699,3.629,9.332,3.06c2.608-0.409,5.436-2.648,8.148-2.045
					c4.893,1.087,2.748,7.621,5.135,10.755c2.3,3.02,5.648,3.807,9.257,2.835c3.118-0.84,5.852-2.699,8.299-4.763
					c7.472-6.302,12.794-14.856,15.202-24.117c0.542-2.084,0.364-3.991,2.611-4.686c1.767-0.547,4.651,0.346,6.676-0.08
					C696.838,785.105,701.012,782.344,703.147,778.348z"/>
				<path style="fill:#E28B6D;" d="M754.663,813.694c0.93,5.197-2.529,10.164-7.725,11.094c-5.197,0.93-10.163-2.528-11.094-7.725
					c-0.93-5.197,2.529-10.163,7.725-11.094C748.766,805.038,753.733,808.497,754.663,813.694z"/>
				<g>
					
						<ellipse transform="matrix(0.9514 -0.3078 0.3078 0.9514 -210.2437 249.5514)" style="fill:#E28B6D;" cx="685.921" cy="791.219" rx="12.962" ry="16.666"/>
					<path style="fill:#102048;" d="M688.707,799.567c-0.109,0-0.22-0.015-0.33-0.045c-0.65-0.182-1.031-0.855-0.852-1.505
						c0.084-0.312,1.809-7.217-5.91-13.909c-0.511-0.443-0.566-1.217-0.123-1.729c0.443-0.511,1.216-0.566,1.729-0.123
						c8.953,7.762,6.763,16.065,6.666,16.415C689.736,799.212,689.243,799.567,688.707,799.567z"/>
				</g>
				<circle style="opacity:0.4;fill:#EB5D60;" cx="715.488" cy="809.266" r="11.845"/>
			</g>
			<g>
				<path style="fill:#FBC343;" d="M722.758,932.226c-0.931,26.909-4.755,64.11-15.881,109.889
					c-6.568,27.252-15.733,57.493-28.379,90.431c-4.95,12.891-10.44,26.174-16.518,39.848c0,0-163.363-49.014-225.464-34.31
					c0,0,76.658-275.458,226.493-270.213C697.173,869.096,723.885,898.063,722.758,932.226z"/>
				<path style="fill:#E49B31;" d="M706.877,1042.115c-6.568,27.252-15.733,57.493-28.379,90.431
					c-48.72-51.317-38.574-169.294-38.574-169.294L706.877,1042.115z"/>
				<g>
					<path style="fill:#FBC343;" d="M688.938,878.294l-78.422,69.436c38.176,88.892,114.906,154.844,201.661,214.833l25.282-68.822
						C764.303,1014.55,745.304,930.167,688.938,878.294z"/>
					<path style="fill:#E28B6D;" d="M882.062,1133.301l-44.603-39.56l-25.282,68.822l37.945,26.918
						c9.869,7.001,23.009,7.251,33.108,0.585c26.266-17.337,65.482-30.76,74.06-56.493
						C961.241,1121.719,882.062,1133.301,882.062,1133.301z"/>
				</g>
			</g>
		</g>
		<rect x="101.998" y="1726.642" style="fill:#102048;" width="2793.79" height="4.901"/>
	</g>
</g>
</svg>
