<?xml version="1.0" encoding="iso-8859-1"?>
<!-- Uploaded to: SVG Repo, www.svgrepo.com, Generator: SVG Repo Mixer Tools -->
<svg height="800px" width="800px" version="1.1" id="Layer_1" xmlns="http://www.w3.org/2000/svg" xmlns:xlink="http://www.w3.org/1999/xlink" 
	 viewBox="0 0 510.293 510.293" xml:space="preserve">
<g transform="translate(1 1)">
	<path style="fill:#FDCC00;" d="M296.387,271.213c-6.827,8.533-15.36,17.067-23.893,23.893l73.387,73.387l23.893-23.893
		L296.387,271.213z"/>
	<path style="fill:#FFE100;" d="M332.227,169.667c0,89.6-72.533,162.133-162.133,162.133S7.96,259.267,7.96,169.667
		S80.493,7.533,170.093,7.533S332.227,80.067,332.227,169.667"/>
	<path style="fill:#FFA800;" d="M170.093,7.533c-4.267,0-8.533,0-12.8,0.853c83.627,5.973,149.333,75.947,149.333,161.28
		s-65.707,155.307-149.333,161.28c4.267,0,8.533,0.853,12.8,0.853c89.6,0,162.133-72.533,162.133-162.133
		S259.693,7.533,170.093,7.533"/>
	<path style="fill:#FFFFFF;" d="M33.56,169.667c0-85.333,65.707-155.307,149.333-161.28c-4.267-0.853-8.533-0.853-12.8-0.853
		C80.493,7.533,7.96,80.067,7.96,169.667S80.493,331.8,170.093,331.8c4.267,0,8.533,0,12.8-0.853
		C99.267,324.973,33.56,255,33.56,169.667"/>
	<path style="fill:#00DA6C;" d="M489.24,490.52L489.24,490.52c-13.653,13.653-34.987,13.653-48.64,0L333.933,381.293l48.64-48.64
		l107.52,109.227C502.893,455.533,502.893,476.867,489.24,490.52"/>
	<path style="fill:#00AD55;" d="M492.653,441.027L385.133,331.8l-11.093,11.093l96.427,97.28c13.653,13.653,13.653,34.987,0,48.64
		c-3.413,3.413-8.533,5.973-12.8,7.68c11.947,4.267,25.6,1.707,34.987-7.68C506.307,475.16,506.307,453.827,492.653,441.027"/>
	<path d="M170.093,340.333c-93.867,0-170.667-76.8-170.667-170.667S76.227-1,170.093-1S340.76,75.8,340.76,169.667
		S263.96,340.333,170.093,340.333z M170.093,16.067c-84.48,0-153.6,69.12-153.6,153.6s69.12,153.6,153.6,153.6
		s153.6-69.12,153.6-153.6S254.573,16.067,170.093,16.067z"/>
	<path d="M465.347,509.293c-11.093,0-22.187-4.267-29.867-12.8l-113.493-115.2l60.587-60.587l113.493,115.2
		c7.68,7.68,12.8,18.773,12.8,29.867c0,11.093-4.267,22.187-12.8,29.867C487.533,503.32,476.44,509.293,465.347,509.293z
		 M345.88,381.293l101.547,102.4c9.387,9.387,26.453,9.387,35.84,0c5.12-5.12,7.68-11.093,7.68-17.92s-2.56-13.653-7.68-17.92
		l-101.547-102.4L345.88,381.293z"/>
	<path d="M345.88,381.293l-86.187-86.187l7.68-5.973c8.533-6.827,16.213-14.507,23.04-23.04l5.973-7.68l86.187,86.187
		L345.88,381.293z M284.44,295.96l61.44,61.44l11.947-11.947l-61.44-61.44C292.973,288.28,288.707,292.547,284.44,295.96z"/>
	<path d="M170.093,280.6c-5.12,0-8.533-3.413-8.533-8.533v-204.8c0-5.12,3.413-8.533,8.533-8.533c5.12,0,8.533,3.413,8.533,8.533
		v204.8C178.627,277.187,175.213,280.6,170.093,280.6z"/>
	<path d="M170.093,263.533c-21.333,0-39.253-7.68-49.493-20.48c-2.56-3.413-2.56-9.387,1.707-11.947
		c3.413-2.56,9.387-2.56,11.947,1.707c6.827,8.533,20.48,13.653,35.84,13.653c20.48,0,42.667-12.8,42.667-34.133
		c0-20.48-22.187-34.133-42.667-34.133c-29.013,0-59.733-19.627-59.733-51.2s30.72-51.2,59.733-51.2
		c21.333,0,39.253,6.827,49.493,20.48c2.56,3.413,2.56,9.387-1.707,11.947c-3.413,2.56-9.387,2.56-11.947-1.707
		c-6.827-8.533-19.627-13.653-35.84-13.653c-20.48,0-42.667,13.653-42.667,34.133c0,21.333,22.187,34.133,42.667,34.133
		c29.013,0,59.733,19.627,59.733,51.2S199.107,263.533,170.093,263.533z"/>
	<path d="M212.76,135.533c-5.12,0-8.533-3.413-8.533-8.533V75.8c0-5.12,3.413-8.533,8.533-8.533c5.12,0,8.533,3.413,8.533,8.533V127
		C221.293,132.12,217.88,135.533,212.76,135.533z"/>
	<path d="M127.427,272.067c-5.12,0-8.533-3.413-8.533-8.533v-51.2c0-5.12,3.413-8.533,8.533-8.533c5.12,0,8.533,3.413,8.533,8.533
		v51.2C135.96,268.653,132.547,272.067,127.427,272.067z"/>
</g>
</svg>